<?xml version="1.0" standalone="no"?>
<!DOCTYPE svg PUBLIC "-//W3C//DTD SVG 1.1//EN" "http://www.w3.org/Graphics/SVG/1.1/DTD/svg11.dtd" >
<svg>
<metadata>
Created by FontForge 20090914 at Thu Aug 17 09:35:13 2017
 By www-data
Copyright (c) 2002, 2006 Parachute&#194;&#168;, www.parachute.gr.  All rights reserved.
</metadata>
<defs>
<font id="PFBeauSansPro-BlackItalic" horiz-adv-x="1818" >
  <font-face 
    font-family="PF BeauSans Pro Black"
    font-weight="900"
    font-style="italic"
    font-stretch="normal"
    units-per-em="1000"
    panose-1="2 0 5 3 4 0 0 2 0 4"
    ascent="750"
    descent="-250"
    x-height="524"
    cap-height="700"
    bbox="-206.166 -329.003 1760 997.001"
    underline-thickness="90"
    underline-position="-30"
    slope="-8"
    unicode-range="U+0020-U+FB05"
  />
<missing-glyph horiz-adv-x="460" 
d="M0 700h460v-700h-460v700zM323 95l-93 167l-92 -167h185zM323 605h-187l94 -165zM95 199l83 152l-83 153v-305zM365 199v304l-83 -154z" />
    <glyph glyph-name="fj" unicode="fj" horiz-adv-x="656" 
d="M577 63c-6 -43.333 -14.6719 -80.999 -26.0049 -112.999s-26.166 -59.5 -44.499 -82.5s-40.666 -42.333 -66.999 -58s-57.166 -29.167 -92.499 -40.5c-13.333 -4 -22 -5.66699 -26 -5s-7.66699 5.33398 -11 14.001l-35 101c-4 11.333 -4.16699 19 -0.5 23
s9.16699 7.66699 16.5 11c22 9.33301 39.833 19.666 53.5 30.999s24.5 23.666 32.5 36.999s13.833 28 17.5 44s6.83398 33.333 9.50098 52l42 316h-141l-71 -511c-1.33301 -12 -4.33301 -20.167 -9 -24.5s-10.334 -7.5 -17.001 -9.5l-132 -41
c-6 -2 -11.833 -1.66699 -17.5 1s-7.83398 8.66699 -6.50098 18l78 567h-69c-7.33301 0 -11.666 1.5 -12.999 4.5s-1.66602 7.16699 -0.999023 12.5l12 81c0.666992 6 2 10.667 4 14s7.33301 6 16 8l70 18l3 21c3.33301 24.667 9 49.167 17 73.5s20.833 46.333 38.5 66
s41.5 35.5 71.5 47.5s69 18 117 18c19.333 -0.666992 44.833 -2.16699 76.5 -4.5s66.5 -8.83301 104.5 -19.5c6 -1.33301 10.667 -3.83301 14 -7.5s3.33301 -10.167 0 -19.5l-20 -86c-2 -6 -4.83301 -10.667 -8.5 -14s-9.83398 -4.33301 -18.501 -3
c-26.667 4.66699 -48.5 7.66699 -65.5 9s-33.833 2 -50.5 2c-30 0 -53.667 -5.16699 -71 -15.5s-28 -30.5 -32 -60.5l-2 -12l292 -1c10.667 0 16.834 -1.33301 18.501 -4s1.83398 -8 0.500977 -16z" />
    <glyph glyph-name="ffj" unicode="ffj" horiz-adv-x="934" 
d="M426 604c-15.333 0 -28.8311 -0.666016 -40.498 -1.99902s-21.834 -4.33301 -30.501 -9s-15.667 -11.334 -21 -20.001s-9 -20.334 -11 -35.001l-2 -13h125l6 38c0.666992 6.66699 1.66699 13.334 3 20.001l4 20c-6.66699 0.666992 -12.834 1 -18.501 1h-14.5z
M533.002 -95.999c-1.33301 -8.66699 -4.33887 -14.9961 -9.00586 -18.9961s-10.334 -7 -17.001 -9l-127 -38c-6 -2 -12.5 -2.16699 -19.5 -0.5s-9.83301 7.16699 -8.5 16.5l75 539h-124l-78 -548c-1.33301 -12 -4.33301 -20.167 -9 -24.5s-10.334 -7.5 -17.001 -9.5
l-132 -41c-6 -2 -11.833 -1.66699 -17.5 1s-7.83398 8.66699 -6.50098 18l85 604h-69c-7.33301 0 -11.666 1.5 -12.999 4.5s-1.66602 7.16699 -0.999023 12.5l12 81c0.666992 6 2.16699 10.667 4.5 14s7.5 6 15.5 8l70 18l3 21c3.33301 24.667 9.16602 48.667 17.499 72
s21.5 44.166 39.5 62.499s41.833 33 71.5 44s68.167 16.5 115.5 16.5c17.333 -0.666992 40 -1.83398 68 -3.50098s56.333 -5.83398 85 -12.501c18.667 11.333 39.667 20.333 63 27s52.333 10 87 10c19.333 -0.666992 43 -2 71 -4s58.333 -7.66699 91 -17
c6 -1.33301 10.5 -3.83301 13.5 -7.5s3.16699 -10.167 0.5 -19.5l-21 -86c-1.33301 -6 -4 -10.667 -8 -14s-10.667 -4.33301 -20 -3c-21.333 3.33301 -40.166 5.5 -56.499 6.5s-30.166 1.5 -41.499 1.5c-30 0 -53.5 -5.16699 -70.5 -15.5s-27.5 -30.5 -31.5 -60.5l-4 -23
l292 -1c10.667 0 16.834 -1.33301 18.501 -4s1.83398 -8 0.500977 -16l-57 -431c-6 -43.333 -14.667 -81 -26 -113s-26.166 -59.5 -44.499 -82.5s-40.666 -42.333 -66.999 -58s-57.166 -29.167 -92.499 -40.5c-13.333 -4 -22 -5.66699 -26 -5s-7.66699 5.33398 -11 14.001
l-35 101c-4 11.333 -4.16699 19 -0.5 23s9.16699 7.66699 16.5 11c22 9.33301 39.833 19.666 53.5 30.999s24.5 23.666 32.5 36.999s13.833 28 17.5 44s6.83398 33.333 9.50098 52l42 305h-141z" />
    <glyph glyph-name="ff" unicode="ff" horiz-adv-x="753" 
d="M227 -155c-1.33301 -12 -4.33301 -20.165 -9 -24.498s-10.334 -7.5 -17.001 -9.5l-132 -41c-6 -2 -11.833 -1.66699 -17.5 1s-7.83398 8.66699 -6.50098 18l85 604h-69c-7.33301 0 -11.666 1.5 -12.999 4.5s-1.66602 7.16699 -0.999023 12.5l12 81
c0.666992 6 2 10.667 4 14s7.33301 6 16 8l70 18l2 16c3.33301 24.667 9 48.834 17 72.501s20.667 44.667 38 63s40.833 33.166 70.5 44.499s68.167 17 115.5 17c16.667 -0.666992 39.667 -1.83398 69 -3.50098s59 -5.83398 89 -12.501
c15.333 11.333 32.166 19.666 50.499 24.999s39.5 8 63.5 8c4.66699 0 11.834 -0.166992 21.501 -0.5s20.5 -1.16602 32.5 -2.49902s24.833 -3.33301 38.5 -6s26.834 -6 39.501 -10c7.33301 -2.66699 11 -5.66699 11 -9s-0.666992 -7.66602 -2 -12.999l-24 -105
c-2.66699 -7.33301 -5.5 -11.333 -8.5 -12s-8.16699 -0.333984 -15.5 0.999023c-8 1.33301 -18.667 2.5 -32 3.5s-23.666 1.5 -30.999 1.5c-19.333 0 -31.833 -4 -37.5 -12s-9.16699 -16.333 -10.5 -25l-7 -47h114c5.33301 0 9.16602 -0.833008 11.499 -2.5
s2.83301 -5.83398 1.5 -12.501l-14 -102c-1.33301 -5.33301 -2.83301 -9.16602 -4.5 -11.499s-7.16699 -3.5 -16.5 -3.5h-110l-69 -489c-1.33301 -8.66699 -4.33301 -15 -9 -19s-10.334 -7 -17.001 -9l-127 -38c-6 -2 -12.5 -2.16699 -19.5 -0.5s-9.83301 7.16699 -8.5 16.5
l75 539h-141zM323 526.002l141.001 -1.00098l6 43l6 29c-8.66699 1.33301 -17.334 2.33301 -26.001 3s-16.667 1 -24 1c-30 0 -53.5 -4.16699 -70.5 -12.5s-27.167 -25.166 -30.5 -50.499z" />
    <glyph glyph-name="fi" unicode="fi" horiz-adv-x="656" 
d="M231 -135c-1.33301 -12 -4.33398 -20.167 -9.00098 -24.5s-10.334 -7.5 -17.001 -9.5l-132 -41c-6 -2 -11.833 -1.66699 -17.5 1s-7.83398 8.66699 -6.50098 18l81 584h-69c-7.33301 0 -11.666 1.5 -12.999 4.5s-1.66602 7.16699 -0.999023 12.5l12 81
c0.666992 6 2 10.667 4 14s7.33301 6 16 8l70 18l3 21c3.33301 24.667 9 49.167 17 73.5s20.833 46.333 38.5 66s41.5 35.5 71.5 47.5s69 18 117 18c19.333 -0.666992 44.833 -2.16699 76.5 -4.5s66.5 -8.83301 104.5 -19.5c6 -1.33301 10.667 -3.83301 14 -7.5
s3.33301 -10.167 0 -19.5l-20 -86c-2 -6 -4.83301 -10.667 -8.5 -14s-9.83398 -4.33301 -18.501 -3c-26.667 4.66699 -48.5 7.66699 -65.5 9s-33.833 2 -50.5 2c-30 0 -53.667 -5.16699 -71 -15.5s-28 -30.5 -32 -60.5l-2 -12l294 -1c11.333 0 18 -1.33301 20 -4
s2.33301 -8 1 -16l-68 -485c-1.33301 -8 -3.16602 -13.333 -5.49902 -16s-9.16602 -4 -20.499 -4h-129c-15.333 0 -22 6.66699 -20 20l53 373h-143z" />
    <glyph glyph-name="fl" unicode="fl" horiz-adv-x="716" 
d="M606 188c-2 -16 -1.50195 -27.6699 1.49805 -35.0029s12.833 -11 29.5 -11c4.66699 0 10.334 0.166992 17.001 0.5s12.667 0.833008 18 1.5c7.33301 0.666992 11.833 0.333984 13.5 -0.999023s2.83398 -5.33301 3.50098 -12l12 -105
c0.666992 -6.66699 -0.5 -11.334 -3.5 -14.001s-8.83301 -5.33398 -17.5 -8.00098c-18.667 -5.33301 -39 -9.16602 -61 -11.499s-43 -3.5 -63 -3.5c-26 0 -48.333 2.5 -67 7.5s-33.5 14.167 -44.5 27.5s-18 31.333 -21 54s-1.83301 51.667 3.5 87l64 441
c-13.333 1.33301 -24.833 2.33301 -34.5 3s-19.5 1 -29.5 1c-30 0 -53.5 -4.66699 -70.5 -14s-27.5 -28.666 -31.5 -57.999l-2 -12h98c8.66699 0 13.5 -1.33301 14.5 -4s0.833008 -7.33398 -0.5 -14.001l-13 -90c-1.33301 -7.33301 -2.5 -12.666 -3.5 -15.999
s-6.16699 -5 -15.5 -5h-98l-74 -529c-1.33301 -12 -4.33301 -20.167 -9 -24.5s-10.334 -7.5 -17.001 -9.5l-132 -41c-6 -2 -11.833 -1.66699 -17.5 1s-7.83398 8.66699 -6.50098 18l81 584h-69c-7.33301 0 -11.666 1.5 -12.999 4.5s-1.33301 7.16699 0 12.5l11 78
c0.666992 6 2 10.667 4 14s7.33301 6 16 8l70 18l3 21c3.33301 24.667 9.16602 49.167 17.499 73.5s21.5 46.333 39.5 66s41.833 35.5 71.5 47.5s68.167 18 115.5 18c8.66699 0 19.334 -0.333008 32.001 -1s26.334 -1.66699 41.001 -3s30.167 -3.16602 46.5 -5.49902
s32.833 -5.5 49.5 -9.5l98 19c15.333 2.66699 22 -3.66602 20 -18.999z" />
    <glyph glyph-name="ffi" unicode="ffi" horiz-adv-x="934" 
d="M533 -96c-1.33301 -8.66699 -4.33398 -14.9971 -9.00098 -18.9971s-10.334 -7 -17.001 -9l-127 -38c-6 -2 -12.5 -2.16699 -19.5 -0.5s-9.83301 7.16699 -8.5 16.5l75 539h-124l-78 -548c-1.33301 -12 -4.33301 -20.167 -9 -24.5s-10.334 -7.5 -17.001 -9.5l-132 -41
c-6 -2 -11.833 -1.66699 -17.5 1s-7.83398 8.66699 -6.50098 18l85 604h-69c-7.33301 0 -11.666 1.5 -12.999 4.5s-1.66602 7.16699 -0.999023 12.5l12 81c0.666992 6 2.16699 10.667 4.5 14s7.5 6 15.5 8l70 18l3 21c3.33301 24.667 9.16602 48.667 17.499 72
s21.5 44.166 39.5 62.499s41.833 33 71.5 44s68.167 16.5 115.5 16.5c17.333 -0.666992 40 -1.83398 68 -3.50098s56.333 -5.83398 85 -12.501c18.667 11.333 39.667 20.333 63 27s52.333 10 87 10c19.333 -0.666992 43 -2 71 -4s58.333 -7.66699 91 -17
c6 -1.33301 10.5 -3.83301 13.5 -7.5s3.16699 -10.167 0.5 -19.5l-21 -86c-1.33301 -6 -4 -10.667 -8 -14s-10.667 -4.33301 -20 -3c-21.333 3.33301 -40.166 5.5 -56.499 6.5s-30.166 1.5 -41.499 1.5c-30 0 -53.5 -5.16699 -70.5 -15.5s-27.5 -30.5 -31.5 -60.5l-4 -23
l276 -1c10.667 0 17 -1.33301 19 -4s2.33301 -8 1 -16l-68 -485c-1.33301 -8 -3.16602 -13.333 -5.49902 -16s-8.83301 -4 -19.5 -4h-129c-16 0 -23 6.66699 -21 20l53 373h-124zM425.999 604.003c-15.333 0 -28.8311 -0.666016 -40.498 -1.99902
s-21.834 -4.33301 -30.501 -9s-15.667 -11.334 -21 -20.001s-9 -20.334 -11 -35.001l-2 -13h125l6 38c0.666992 6.66699 1.66699 13.334 3 20.001l4 20c-6.66699 0.666992 -12.834 1 -18.501 1h-14.5z" />
    <glyph glyph-name="ffl" unicode="ffl" horiz-adv-x="983" 
d="M426 604c-15.333 0 -28.8311 -0.666016 -40.498 -1.99902s-21.834 -4.33301 -30.501 -9s-15.667 -11.334 -21 -20.001s-9 -20.334 -11 -35.001l-2 -13h125l6 38c0.666992 6.66699 1.66699 13.334 3 20.001l4 20c-6.66699 0.666992 -12.834 1 -18.501 1h-14.5z
M758.002 616.001c-6 1.33301 -12.165 2.33496 -18.498 3.00195s-14.5 1 -24.5 1c-24.667 0 -44.334 -4.66699 -59.001 -14s-24 -28.666 -28 -57.999l-4 -22h70c8.66699 0 13.5 -1.33301 14.5 -4s0.833008 -7.33398 -0.5 -14.001l-13 -94
c-1.33301 -7.33301 -2.66602 -12.666 -3.99902 -15.999s-6.33301 -5 -15 -5h-74l-69 -489c-1.33301 -8.66699 -4.33301 -15 -9 -19s-10.334 -7 -17.001 -9l-127 -38c-6 -2 -12.5 -2.16699 -19.5 -0.5s-9.83301 7.16699 -8.5 16.5l75 539h-124l-78 -548
c-1.33301 -12 -4.33301 -20.167 -9 -24.5s-10.334 -7.5 -17.001 -9.5l-132 -41c-6 -2 -11.833 -1.66699 -17.5 1s-7.83398 8.66699 -6.50098 18l85 604h-69c-7.33301 0 -11.666 1.5 -12.999 4.5s-1.66602 7.16699 -0.999023 12.5l12 81c0.666992 6 2.16699 10.667 4.5 14
s7.5 6 15.5 8l70 18l3 21c3.33301 24.667 9.16602 48.667 17.499 72s21.5 44.166 39.5 62.499s41.833 33 71.5 44s68.167 16.5 115.5 16.5c17.333 -0.666992 38.666 -1.83398 63.999 -3.50098s55 -5.83398 89 -12.501c17.333 11.333 37 20.166 59 26.499s50 9.5 84 9.5
c17.333 -0.666992 37.333 -2 60 -4s50.667 -7 84 -15l98 19c15.333 2.66699 22 -3.66602 20 -18.999l-80 -560c-2 -16 -1.5 -27.667 1.5 -35s12.833 -11 29.5 -11c4.66699 0 10.334 0.166992 17.001 0.5s12.667 0.833008 18 1.5
c7.33301 0.666992 11.833 0.333984 13.5 -0.999023s2.83398 -5.33301 3.50098 -12l12 -105c0.666992 -6.66699 -0.5 -11.334 -3.5 -14.001s-8.83301 -5.33398 -17.5 -8.00098c-18.667 -5.33301 -39 -9.16602 -61 -11.499s-43 -3.5 -63 -3.5c-26 0 -48.333 2.5 -67 7.5
s-33.334 14.167 -44.001 27.5s-17.667 31.333 -21 54s-2.33301 51.667 3 87z" />
    <glyph glyph-name="ft" unicode="ft" horiz-adv-x="757" 
d="M230 -132c-1.33301 -12 -4.32812 -20.167 -8.99512 -24.5s-10.334 -7.5 -17.001 -9.5l-132 -41c-6 -2 -11.833 -1.66699 -17.5 1s-7.83398 8.66699 -6.50098 18l81 584h-72c-7.33301 0 -11.166 1.5 -11.499 4.5s0.166992 7.16699 1.5 12.5l11 78
c0.666992 6 2.16699 10.667 4.5 14s7.5 6 15.5 8l70 16l10 70c3.33301 22.667 9 44 17 64s19.167 37.5 33.5 52.5s32.666 26.667 54.999 35s49.5 12.5 81.5 12.5c4.66699 0 11.334 -0.166992 20.001 -0.5s18.5 -1 29.5 -2s22.5 -2.5 34.5 -4.5s24 -5 36 -9
c8 -2.66699 12.667 -6 14 -10s1.33301 -8.66699 0 -14l-25 -102c-2 -7.33301 -4.66699 -11.833 -8 -13.5s-8.33301 -1.83398 -15 -0.500977c-9.33301 1.33301 -18.833 2.33301 -28.5 3s-18.167 1 -25.5 1c-19.333 0 -31.833 -3.83301 -37.5 -11.5
s-9.16699 -16.167 -10.5 -25.5l-7 -49l141 1l11 72c1.33301 9.33301 4.16602 15.833 8.49902 19.5s9.83301 6.5 16.5 8.5l135 41c16.667 4.66699 24 -1.66602 22 -18.999l-18 -123h108c8.66699 0 13.5 -1.33301 14.5 -4s0.833008 -7.33398 -0.5 -14.001l-13 -90
c-1.33301 -7.33301 -2.5 -12.666 -3.5 -15.999s-6.16699 -5 -15.5 -5h-108l-29 -211c-2.66699 -16.667 -0.333984 -28 6.99902 -34s20 -9 38 -9c10 0 21.5 0.833008 34.5 2.5s23.5 3.16699 31.5 4.5c11.333 0.666992 17.333 -4 18 -14l14 -106
c-0.666992 -4.66699 -1.33398 -8.5 -2.00098 -11.5s-5 -5.83301 -13 -8.5c-28 -8.66699 -56 -14.167 -84 -16.5s-52.667 -3.5 -74 -3.5c-58.667 0 -100.334 13 -125.001 39s-33.667 62 -27 108l36 260h-141z" />
    <glyph glyph-name=".notdef" horiz-adv-x="460" 
d="M0 700h460v-700h-460v700zM323 95l-93 167l-92 -167h185zM323 605h-187l94 -165zM95 199l83 152l-83 153v-305zM365 199v304l-83 -154z" />
    <glyph glyph-name="space" unicode=" " horiz-adv-x="296" 
 />
    <glyph glyph-name="exclam" unicode="!" horiz-adv-x="311" 
d="M151 183c25.333 0 46.999 -8 64.999 -24s27 -36.333 27 -61c0 -14.667 -2.66699 -28.667 -8 -42s-12.666 -25 -21.999 -35s-20.666 -17.833 -33.999 -23.5s-28 -8.5 -44 -8.5c-28 0 -50.333 7.83301 -67 23.5s-25 35.167 -25 58.5c0 15.333 2.66699 29.833 8 43.5
s12.833 25.5 22.5 35.5s21.167 18 34.5 24s27.666 9 42.999 9zM229.999 255c-1.33301 -8.66699 -3.83301 -14 -7.5 -16s-9.16699 -3 -16.5 -3h-85c-9.33301 0 -16 1.16699 -20 3.5s-5.33301 7.5 -4 15.5l39 421c0.666992 9.33301 3 15.666 7 18.999s11.667 5 23 5h123
c13.333 0 21 -2.16699 23 -6.5s2.33301 -10.166 1 -17.499z" />
    <glyph glyph-name="quotedbl" unicode="&#x22;" horiz-adv-x="544" 
d="M473 392c-2 -8.66699 -4.83203 -14 -8.49902 -16s-9.5 -3 -17.5 -3h-73c-9.33301 0 -15.833 1.16699 -19.5 3.5s-4.83398 7.5 -3.50098 15.5l17 283c1.33301 9.33301 4 15.833 8 19.5s11.667 5.5 23 5.5h112c13.333 0 21 -2.33301 23 -7s2.33301 -10.667 1 -18z
M252.001 392c-2 -8.66699 -4.83008 -14 -8.49707 -16s-9.16699 -3 -16.5 -3h-73c-9.33301 0 -15.833 1.16699 -19.5 3.5s-4.83398 7.5 -3.50098 15.5l17 283c0.666992 9.33301 3.16699 15.833 7.5 19.5s12.166 5.5 23.499 5.5h112c13.333 0 20.666 -2.33301 21.999 -7
s1.33301 -10.667 0 -18z" />
    <glyph glyph-name="numbersign" unicode="#" horiz-adv-x="676" 
d="M628 368c-2.66699 -7.33301 -5.16797 -11.835 -7.50098 -13.502s-5.83301 -2.5 -10.5 -2.5h-70l-38 -112h72c5.33301 0 8.33301 -1.5 9 -4.5s0 -7.16699 -2 -12.5l-26 -71c-3.33301 -6.66699 -6.33301 -11 -9 -13s-6 -3 -10 -3h-69l-43 -121
c-2 -5.33301 -4.16699 -9.16602 -6.5 -11.499s-7.16602 -3.5 -14.499 -3.5h-80c-6 0 -10 0.833008 -12 2.5s-1.66699 6.5 1 14.5l42 119h-97l-42 -121c-2 -5.33301 -4 -9.16602 -6 -11.499s-7.33301 -3.5 -16 -3.5h-78c-7.33301 -0 -12 0.833008 -14 2.5
s-1.66699 6.5 1 14.5l42 119h-67c-11.333 0 -14.666 5.33301 -9.99902 16l24 75c2 4.66699 4 8 6 10s7 3 15 3h67l38 112h-67c-6.66699 0 -10.5 1.33301 -11.5 4s-0.833008 6.66699 0.5 12l25 72c2 4.66699 4.16699 8.5 6.5 11.5s7.16602 4.5 14.499 4.5h67l44 122
c2 5.33301 4.33301 9 7 11s8.66699 3 18 3h71c8.66699 0 13.834 -1 15.501 -3s1.16699 -7 -1.5 -15l-39 -118h96l42 122c1.33301 5.33301 3.66602 9 6.99902 11s9.33301 3 18 3h71c9.33301 0 14.833 -1 16.5 -3s1.16699 -7 -1.5 -15l-41 -118h74c10 0 12.333 -5.66699 7 -17
zM330.999 351.998l-39 -112h95l40 112h-96z" />
    <glyph glyph-name="dollar" unicode="$" horiz-adv-x="676" 
d="M288 295c-22 10 -42.667 21.002 -62 33.002s-36.166 25.5 -50.499 40.5s-25.833 32.167 -34.5 51.5s-13 41.666 -13 66.999c0 24.667 4.5 48.5 13.5 71.5s22.5 43.167 40.5 60.5s40.333 31.5 67 42.5s57.667 16.833 93 17.5l12 86
c1.33301 7.33301 3.16602 11.166 5.49902 11.499s6.16602 0.5 11.499 0.5h25c6 0 10.333 -0.166992 13 -0.5s3.33398 -4.16602 2.00098 -11.499l-122 -866c-1.33301 -7.33301 -3.16602 -11.166 -5.49902 -11.499s-6.5 -0.5 -12.5 -0.5h-25
c-5.33301 0 -9.33301 0.166992 -12 0.5s-3.33398 4.16602 -2.00098 11.499l14 100c-57.333 8 -113 29 -167 63c-4 2.66699 -6 6.16699 -6 10.5s2.33301 10.833 7 19.5l42 87c4.66699 8.66699 8.83398 13.667 12.501 15s9.16699 0.333008 16.5 -3
c16 -6.66699 33.667 -13.334 53 -20.001s40.666 -12.667 63.999 -18zM444 392.002c22 -12 42.4961 -25.002 61.4961 -39.002s35.333 -29.167 49 -45.5s24.5 -34 32.5 -53s12 -39.5 12 -61.5c0 -30 -5.16699 -56.833 -15.5 -80.5s-24.666 -43.667 -42.999 -60
s-40.5 -29.5 -66.5 -39.5s-54.667 -16.333 -86 -19l-14 -95c-1.33301 -7.33301 -3.16602 -11.166 -5.49902 -11.499s-6.16602 -0.5 -11.499 -0.5h-21c-5.33301 0 -9.5 0.166992 -12.5 0.5s-3.83301 4.16602 -2.5 11.499l122 866c1.33301 7.33301 3.33301 11.166 6 11.499
s6.66699 0.5 12 0.5h21c5.33301 0 9.33301 -0.166992 12 -0.5s3.33398 -4.16602 2.00098 -11.499l-13 -91c30 -5.33301 54.5 -11.833 73.5 -19.5s34.833 -14.834 47.5 -21.501c6.66699 -3.33301 9.66699 -7.66602 9 -12.999s-3 -12.666 -7 -21.999l-28 -74
c-4 -10 -8 -15.833 -12 -17.5s-9.66699 -1.5 -17 0.5c-11.333 3.33301 -25.333 6.83301 -42 10.5s-31.667 6.83398 -45 9.50098zM409.996 152c11.333 5.33301 19.833 12.8311 25.5 22.498s8.5 18.834 8.5 27.501c0 6 -1.5 11.833 -4.5 17.5s-8.83301 11.834 -17.5 18.501z
M289.996 490.998c0 -4 0.666016 -9.66699 1.99902 -17s7.33301 -15 18 -23l10 74c-11.333 -2 -19.166 -6.33301 -23.499 -13s-6.5 -13.667 -6.5 -21z" />
    <glyph glyph-name="percent" unicode="%" horiz-adv-x="1000" 
d="M796 414c57.333 0 100.002 -15.168 128.002 -45.501s42 -72.5 42 -126.5c0 -37.333 -5 -71.166 -15 -101.499s-24.333 -56.333 -43 -78s-41.834 -38.5 -69.501 -50.5s-58.834 -18 -93.501 -18c-58 0 -101.167 15.167 -129.5 45.5s-42.5 72.166 -42.5 125.499
c0 80.667 19.833 142.334 59.5 185.001s94.167 64 163.5 64zM783.002 303.999c-22 0 -39.833 -11.5 -53.5 -34.5s-20.5 -56.833 -20.5 -101.5c0 -42.667 15.667 -64 47 -64c22 0 39.833 11.667 53.5 35s20.5 57.333 20.5 102c0 42 -15.667 63 -47 63zM285.002 680.999
c57.333 0 100.002 -15.168 128.002 -45.501s42 -72.5 42 -126.5c0 -37.333 -5 -71.166 -15 -101.499s-24.333 -56.333 -43 -78s-41.834 -38.5 -69.501 -50.5s-58.834 -18 -93.501 -18c-58 0 -101.167 15.167 -129.5 45.5s-42.5 72.166 -42.5 125.499
c0 80.667 19.833 142.334 59.5 185.001s94.167 64 163.5 64zM272.004 570.998c-22 0 -39.833 -11.5 -53.5 -34.5s-20.5 -56.833 -20.5 -101.5c0 -42.667 15.667 -64 47 -64c22 0 39.833 11.667 53.5 35s20.5 57.333 20.5 102c0 42 -15.667 63 -47 63zM325.004 -21.002
c-4.66699 -6 -10.167 -10.667 -16.5 -14s-15.166 -5 -26.499 -5h-62c-8 0 -12.333 2.33301 -13 7s0.666016 9.66699 3.99902 15l507 719c3.33301 5.33301 6.5 9 9.5 11s8.5 3 16.5 3h71c8 0 12.833 -2 14.5 -6s0.166992 -9.33301 -4.5 -16z" />
    <glyph glyph-name="ampersand" unicode="&#x26;" horiz-adv-x="763" 
d="M450 68c-28 -25.333 -58.1631 -45 -90.4961 -59s-70.5 -21 -114.5 -21c-58 0 -103.667 14.833 -137 44.5s-50 72.167 -50 127.5c0 27.333 4.33301 52.833 13 76.5s20.334 45.5 35.001 65.5s31.667 38.333 51 55s39.666 31.667 60.999 45c-10 16 -18.333 33.5 -25 52.5
s-10 39.5 -10 61.5c0 31.333 5.83301 59.166 17.5 83.499s27.334 44.833 47.001 61.5s42.5 29.334 68.5 38.001s53.333 13 82 13c25.333 0 48.666 -3.33301 69.999 -10s39.666 -16.5 54.999 -29.5s27.166 -28.667 35.499 -47s12.5 -39.166 12.5 -62.499
c0 -25.333 -4.16699 -48.333 -12.5 -69s-19.166 -39 -32.499 -55s-28 -30.333 -44 -43s-31.667 -23.667 -47 -33l30 -43c19.333 24 42.666 46.333 69.999 67s57.666 35.667 90.999 45c12.667 3.33301 23 5.83301 31 7.5s17 2.83398 27 3.50098
c6 0.666992 10 0.166992 12 -1.5s3 -5.16699 3 -10.5l15 -106c0.666992 -5.33301 0 -9.5 -2 -12.5s-7 -5.5 -15 -7.5c-36 -8 -65.833 -20.333 -89.5 -37s-43.167 -38.334 -58.5 -65.001l36.5 -49l44.5 -59l54 -71c3.33301 -4 4 -9 2 -15s-8 -9 -18 -9h-131
c-11.333 0 -21 1.16699 -29 3.5s-14.667 7.16602 -20 14.499c-4 4.66699 -8 9.66699 -12 15l-12 16c-4.66699 6 -9.33398 12.333 -14.001 19zM278.004 145c13.333 0 28.333 3.66797 45 11.001s30.667 16.666 42 27.999l-35 51.5l-34 50.5
c-19.333 -11.333 -36 -25.5 -50 -42.5s-21 -35.167 -21 -54.5c0 -4.66699 0.666992 -9.5 2 -14.5s4 -9.66699 8 -14s9.33301 -8 16 -11s15.667 -4.5 27 -4.5zM384.004 565.001c-13.333 0 -23.833 -4.16504 -31.5 -12.498s-11.5 -18.833 -11.5 -31.5c0 -8 2 -16 6 -24
s9 -16.667 15 -26c17.333 10.667 29.833 20.667 37.5 30s11.5 19.666 11.5 30.999c0 9.33301 -2.5 17.166 -7.5 23.499s-11.5 9.5 -19.5 9.5z" />
    <glyph glyph-name="quotesingle" unicode="'" horiz-adv-x="323" 
d="M252 392c-2 -8.66699 -4.83105 -14 -8.49805 -16s-9.16699 -3 -16.5 -3h-73c-9.33301 0 -15.833 1.16699 -19.5 3.5s-4.83398 7.5 -3.50098 15.5l17 283c1.33301 9.33301 4 15.833 8 19.5s11.667 5.5 23 5.5h112c13.333 0 20.666 -2.33301 21.999 -7
s1.33301 -10.667 0 -18z" />
    <glyph glyph-name="parenleft" unicode="(" horiz-adv-x="377" 
d="M304 724c10 10 17.165 14.6699 21.498 14.0029s10.833 -4.33398 19.5 -11.001l57 -46c5.33301 -4.66699 8.83301 -8.33398 10.5 -11.001s-0.5 -7.66699 -6.5 -15c-51.333 -61.333 -91 -124.333 -119 -189s-42 -137 -42 -217c0 -44 5.83301 -85.333 17.5 -124
s28.834 -79 51.501 -121c4 -7.33301 4.83301 -13.5 2.5 -18.5s-7.16602 -10.167 -14.499 -15.5l-70 -46c-10.667 -6.66699 -18 -9 -22 -7s-9.66699 8 -17 18c-16 22.667 -31.167 45.667 -45.5 69s-26.833 47.833 -37.5 73.5s-19.167 52.667 -25.5 81s-9.5 58.5 -9.5 90.5
c0 50 6.33301 97.167 19 141.5s29.5 86.166 50.5 125.499s45.333 76.333 73 111s56.5 67 86.5 97z" />
    <glyph glyph-name="parenright" unicode=")" horiz-adv-x="387" 
d="M254 724c32.667 -45.333 60.166 -95.0029 82.499 -149.003s33.5 -114 33.5 -180c0 -51.333 -6.16699 -98.5 -18.5 -141.5s-29 -83.167 -50 -120.5s-45.167 -72.166 -72.5 -104.499s-56 -63.5 -86 -93.5c-10 -10 -17.333 -16 -22 -18s-11 0.333008 -19 7l-58 46
c-5.33301 5.33301 -8.66602 10.5 -9.99902 15.5s1.33398 11.167 8.00098 18.5c26 31.333 49 62.166 69 92.499s36.667 61.666 50 93.999s23.5 66.333 30.5 102s10.5 74.167 10.5 115.5c0 44.667 -5.66699 86.834 -17 126.501s-28.333 79.834 -51 120.501
c-4.66699 7.33301 -6 12.333 -4 15s6.66699 6.33398 14 11.001l71 46c10 6.66699 17.167 10.334 21.5 11.001s10.166 -4 17.499 -14z" />
    <glyph glyph-name="asterisk" unicode="*" horiz-adv-x="509" 
d="M481 524c1.33301 -9.33301 0.99707 -15.501 -1.00293 -18.501s-7.66699 -5.16699 -17 -6.5l-103 -22c9.33301 -12 19.333 -24.167 30 -36.5s20.334 -24.5 29.001 -36.5c5.33301 -7.33301 6.83301 -13.166 4.5 -17.499s-7.83301 -9.5 -16.5 -15.5l-64 -44
c-8.66699 -5.33301 -14 -7.5 -16 -6.5s-4.66699 6.16699 -8 15.5l-20 45l-20 45l-59 -91c-6 -8.66699 -11.333 -13 -16 -13s-10 2.66699 -16 8c-9.33301 7.33301 -18.166 14.666 -26.499 21.999l-25.5 22c-6 5.33301 -9.33301 9.83301 -10 13.5
s2.66602 8.83398 9.99902 15.501l81 77l-94 24c-8.66699 2 -13.667 4 -15 6s0.333984 8.33301 5.00098 19l32 69c6.66699 16 15.334 21.333 26.001 16l88 -46l2 101c0 8 1.66699 13.5 5 16.5s10 4.5 20 4.5h71c9.33301 0 15 -1 17 -3s2.33301 -8 1 -18l-27 -104l94 45
c8 3.33301 13.833 3.5 17.5 0.5s6.5 -9.16699 8.5 -18.5z" />
    <glyph glyph-name="plus" unicode="+" horiz-adv-x="676" 
d="M605 297c-2 -15.333 -9.33398 -23 -22.001 -23h-154l-24 -168c-1.33301 -8 -3.16602 -13.333 -5.49902 -16s-8.83301 -4 -19.5 -4h-112c-15.333 0 -22 6.66699 -20 20l24 168h-153c-13.333 0 -19 7.66699 -17 23l13 92c1.33301 11.333 3.66602 18.166 6.99902 20.499
s9 3.5 17 3.5h153l23 169c2 13.333 10.333 20 25 20h112c10.667 0 17 -1.33301 19 -4s2.33301 -8 1 -16l-23 -169h154c8 0 12.833 -1.16699 14.5 -3.5s1.83398 -9.16602 0.500977 -20.499l-13 -92v0z" />
    <glyph glyph-name="comma" unicode="," horiz-adv-x="296" 
d="M138 -116c-2.66699 -8 -5.5 -13.167 -8.5 -15.5s-8.5 -3.5 -16.5 -3.5h-66c-9.33301 0 -16 1.16699 -20 3.5s-5.33301 7.5 -4 15.5l49 267c1.33301 9.33301 3.83301 15.5 7.5 18.5s11.167 4.5 22.5 4.5h123c13.333 0 20.333 -2 21 -6s-0.333008 -9.66699 -3 -17z" />
    <glyph glyph-name="hyphen" unicode="-" horiz-adv-x="430" 
d="M373 252c-2 -15.333 -9.66504 -23 -22.998 -23h-262c-12.667 0 -18 7.66699 -16 23l14 99c1.33301 11.333 3.66602 18.166 6.99902 20.499s8.66602 3.5 15.999 3.5h262c8 0 13 -1.16699 15 -3.5s2.33301 -9.16602 1 -20.499l-14 -99v0z" />
    <glyph glyph-name="period" unicode="." horiz-adv-x="305" 
d="M156 183c25.333 0 46.1689 -7.83398 62.502 -23.501s24.5 -35.834 24.5 -60.501c0 -15.333 -3.16699 -29.666 -9.5 -42.999s-14.833 -25 -25.5 -35s-22.834 -17.833 -36.501 -23.5s-27.834 -8.5 -42.501 -8.5c-24.667 0 -45.167 7.83301 -61.5 23.5
s-24.5 35.5 -24.5 59.5c0 14.667 3.16699 28.834 9.5 42.501s14.666 25.5 24.999 35.5s22.333 18 36 24s27.834 9 42.501 9z" />
    <glyph glyph-name="slash" unicode="/" horiz-adv-x="461" 
d="M117 -78c-3.33301 -7.33301 -7.83398 -12.167 -13.501 -14.5s-14.5 -3.5 -26.5 -3.5h-92c-14 0 -17.667 6.66699 -11 20l419 838c2.66699 6 6 10.167 10 12.5s11.667 3.5 23 3.5h95c16.667 0 21.334 -6.33301 14.001 -19z" />
    <glyph glyph-name="zero" unicode="0" horiz-adv-x="676" 
d="M406 685c42 0 78.668 -6.33203 110.001 -18.999s57.333 -31 78 -55s36.167 -53 46.5 -87s15.5 -72.333 15.5 -115c0 -63.333 -7.83301 -120.833 -23.5 -172.5s-38 -95.834 -67 -132.501s-64.333 -65 -106 -85s-88.834 -30 -141.501 -30
c-42.667 0 -79.834 6.5 -111.501 19.5s-58 31.667 -79 56s-36.667 54 -47 89s-15.5 74.167 -15.5 117.5c0 62.667 7.83301 119.5 23.5 170.5s38.334 94.5 68.001 130.5s65.5 63.833 107.5 83.5s89.333 29.5 142 29.5zM386.001 532.001
c-41.333 0 -75.167 -22.1689 -101.5 -66.502s-39.5 -110.166 -39.5 -197.499c0 -40.667 7.16699 -71.667 21.5 -93s36.833 -32 67.5 -32c42 0 76.167 22.333 102.5 67s39.5 110.334 39.5 197.001c0 83.333 -30 125 -90 125z" />
    <glyph glyph-name="one" unicode="1" horiz-adv-x="676" 
d="M530 21c-1.33301 -8.66699 -3.49707 -14.334 -6.49707 -17.001s-7.83301 -4 -14.5 -4h-377c-6.66699 0 -11.5 1.33301 -14.5 4s-3.83301 8.33398 -2.5 17.001l15 100c1.33301 11.333 3.5 17.833 6.5 19.5s8.16699 2.5 15.5 2.5h94l52 370l-99 -18
c-9.33301 -2 -15.333 -1.83301 -18 0.5s-3.33398 8.16602 -2.00098 17.499l13 92c0.666992 6 2 11.333 4 16s7.33301 8.33398 16 11.001l181 47c14 4 27.333 6 40 6s23.5 -2.16699 32.5 -6.5s15.667 -11.5 20 -21.5s5.16602 -23.333 2.49902 -40l-66 -474h107
c7.33301 0 12.166 -0.833008 14.499 -2.5s2.83301 -8.16699 1.5 -19.5l-15 -100v0z" />
    <glyph glyph-name="two" unicode="2" horiz-adv-x="676" 
d="M565 143c8 0 13.833 -0.831055 17.5 -2.49805s4.83398 -8.16699 3.50098 -19.5l-15 -100c-1.33301 -8.66699 -3.83301 -14.334 -7.5 -17.001s-9.16699 -4 -16.5 -4h-396c-25.333 0 -45.833 4.66699 -61.5 14s-23.5 29.666 -23.5 60.999c0 37.333 12 72.5 36 105.5
s55.333 64.833 94 95.5c25.333 20.667 52.833 40.667 82.5 60l91.5 58c19.333 12 34.833 22.333 46.5 31s20.667 16.834 27 24.501s10.5 14.667 12.5 21s3 13.166 3 20.499c0 4 -0.666992 8.33301 -2 13s-4 9 -8 13s-10.167 7.33301 -18.5 10s-19.5 4 -33.5 4
c-25.333 0 -50.666 -3.83301 -75.999 -11.5s-54 -20.834 -86 -39.501c-7.33301 -4 -13.333 -6 -18 -6s-8.66699 3.33301 -12 10l-52 88c-6.66699 12 -4.66699 21.667 6 29c42.667 28.667 85.667 49.834 129 63.501s87.666 20.5 132.999 20.5
c31.333 0 60.666 -3.5 87.999 -10.5s51 -17.667 71 -32s35.667 -32.5 47 -54.5s17 -47.667 17 -77c0 -25.333 -4.83301 -49 -14.5 -71s-23 -42.5 -40 -61.5s-36.833 -36.667 -59.5 -53s-47 -31.5 -73 -45.5c-15.333 -8 -31.5 -17.5 -48.5 -28.5s-33.5 -22.5 -49.5 -34.5
s-30.833 -24.333 -44.5 -37s-24.5 -25 -32.5 -37h283z" />
    <glyph glyph-name="three" unicode="3" horiz-adv-x="676" 
d="M312 287c-6 0 -11.334 0.171875 -16.001 0.504883s-8.5 1.66602 -11.5 3.99902s-5 6 -6 11s-0.833008 12.167 0.5 21.5l8 54c2.66699 18 6.83398 29.333 12.501 34s15.167 7 28.5 7h27c26 0 46.333 5.66699 61 17s22 26.333 22 45c0 17.333 -5.83301 29.666 -17.5 36.999
s-28.834 11 -51.501 11c-20 0 -43.167 -3.5 -69.5 -10.5s-52.833 -18.167 -79.5 -33.5c-7.33301 -4 -13.833 -6.33301 -19.5 -7s-10.5 3.33301 -14.5 12l-42 85c-3.33301 7.33301 -4.66602 13.166 -3.99902 17.499s4.66699 9.16602 12 14.499c18.667 14 38.667 26 60 36
s42.666 18 63.999 24s42.5 10.333 63.5 13s40.833 4 59.5 4c26 0 52.5 -2.83301 79.5 -8.5s51.333 -15 73 -28s39.5 -30.167 53.5 -51.5s21 -47.333 21 -78c0 -34.667 -10.167 -65.834 -30.5 -93.501s-51.166 -49.5 -92.499 -65.5l-1 -5
c20 -6.66699 36.333 -15.334 49 -26.001s22.667 -22.5 30 -35.5s12.333 -26.5 15 -40.5s4 -27.333 4 -40c0 -33.333 -6.66699 -63.666 -20 -90.999s-32 -50.833 -56 -70.5s-52.667 -34.834 -86 -45.501s-70.333 -16 -111 -16c-52 0 -99.333 6.33301 -142 19
s-78 30.334 -106 53.001c-6.66699 5.33301 -9.83398 10 -9.50098 14s3.5 9.66699 9.5 17l53 85c6 10 11.333 15.333 16 16s11.667 -2 21 -8c24 -15.333 48.667 -26.5 74 -33.5s48 -10.5 68 -10.5c34.667 0 60.834 8 78.501 24s26.5 37 26.5 63c0 19.333 -7 34 -21 44
s-33.333 15 -58 15h-25z" />
    <glyph glyph-name="four" unicode="4" horiz-adv-x="676" 
d="M634 143c-1.33301 -8.66699 -4.00391 -14.332 -8.00391 -16.999s-9.66699 -4 -17 -4h-61l-15 -101c-1.33301 -8 -3.16602 -13.5 -5.49902 -16.5s-8.83301 -4.5 -19.5 -4.5h-129c-16 0 -23 7 -21 21l15 100h-255c-9.33301 0 -18.166 0.666992 -26.499 2s-15.5 4 -21.5 8
s-10.333 10 -13 18s-3 19 -1 33l5 35c2 13.333 6.33301 28 13 44s15.334 29.667 26.001 41l298 326l20 21c6.66699 6.66699 14.334 12.667 23.001 18s18.667 9.66602 30 12.999s25 5 41 5h60c19.333 0 32.5 -5 39.5 -15s8.83301 -27.667 5.5 -53l-49 -352h58
c8 0 14 -0.833008 18 -2.5s5.33301 -8.16699 4 -19.5zM417.996 449.002l-7 3l-169 -183l1 -5h149z" />
    <glyph glyph-name="five" unicode="5" horiz-adv-x="676" 
d="M250 275c-7.33301 -3.33301 -17.4951 -6.00391 -30.4951 -8.00391s-24.833 -1.33301 -35.5 2l-47 13c-20 5.33301 -31.5 13.666 -34.5 24.999s-2.5 25 1.5 41l62 245c7.33301 30 17.666 51.167 30.999 63.5s33 18.5 59 18.5h348c9.33301 0 16.166 -0.833008 20.499 -2.5
s5.5 -9.16699 3.5 -22.5l-14 -99c-1.33301 -10.667 -4.33301 -17.667 -9 -21s-11.334 -5 -20.001 -5h-276l-23 -86c19.333 4.66699 38.333 7.66699 57 9s36.334 2 53.001 2c70.667 0 125 -17.167 163 -51.5s57 -82.833 57 -145.5c0 -46 -8.66699 -85.667 -26 -119
s-40.333 -60.666 -69 -81.999s-61.167 -37.166 -97.5 -47.499s-73.833 -15.5 -112.5 -15.5c-17.333 0 -35.833 0.833008 -55.5 2.5s-39.834 5.33398 -60.501 11.001s-41.834 13.5 -63.501 23.5s-42.834 23.333 -63.501 40c-6 4.66699 -9.33301 8.83398 -10 12.501
s1.33301 8.83398 6 15.501l59 95c5.33301 8 10.5 11.5 15.5 10.5s12.167 -4.16699 21.5 -9.5c24 -14.667 48.667 -25.5 74 -32.5s48 -10.5 68 -10.5c48 0 82.333 8.33301 103 25s31 40 31 70c0 18.667 -6 34 -18 46s-29.667 18 -53 18c-22 0 -42 -3.33301 -60 -10z" />
    <glyph glyph-name="six" unicode="6" horiz-adv-x="676" 
d="M374 306c-22.667 0 -42.5 -1.66895 -59.5 -5.00195s-36.833 -7.66602 -59.5 -12.999c-0.666992 -6.66699 -1.16699 -13 -1.5 -19s-0.5 -11.667 -0.5 -17c0 -35.333 7.33301 -62.666 22 -81.999s38 -29 70 -29c14 0 27.5 2 40.5 6s24.5 10.167 34.5 18.5
s18 18.833 24 31.5s9 27.667 9 45c0 42.667 -26.333 64 -79 64zM453 534.998c-38 0 -71.6719 -7.83594 -101.005 -23.5029s-52.666 -42.5 -69.999 -80.5c8 2 17.333 4.16699 28 6.5s21.5 4.16602 32.5 5.49902s21.833 2.5 32.5 3.5s20 1.5 28 1.5
c34.667 0 66.334 -3.5 95.001 -10.5s53.167 -18.167 73.5 -33.5s36 -35.166 47 -59.499s16.5 -53.833 16.5 -88.5c0 -44.667 -9 -83.667 -27 -117s-41.5 -61.166 -70.5 -83.499s-61.833 -39 -98.5 -50s-74 -16.5 -112 -16.5c-46 0 -85.167 6.5 -117.5 19.5
s-58.666 31.5 -78.999 55.5s-35.166 52.5 -44.499 85.5s-14 69.5 -14 109.5c0 63.333 8.5 121.166 25.5 173.499s41.667 97.333 74 135s71.833 67 118.5 88s99.667 31.5 159 31.5c24 0 49.833 -1.66699 77.5 -5s52.834 -9 75.501 -17c4 -1.33301 7 -3.5 9 -6.5
s1.33301 -11.167 -2 -24.5l-25 -99c-1.33301 -5.33301 -3.33301 -9 -6 -11s-5.5 -3.16699 -8.5 -3.5s-6 -0.166016 -9 0.500977s-5.5 1.33398 -7.5 2.00098c-17.333 4.66699 -34 7.83398 -50 9.50098s-32.667 2.5 -50 2.5z" />
    <glyph glyph-name="seven" unicode="7" horiz-adv-x="676" 
d="M610 675c19.333 0 32.834 -4.16699 40.501 -12.5s10.5 -20.166 8.5 -35.499l-5 -33c-1.33301 -10.667 -4.16602 -21.667 -8.49902 -33s-10.833 -23.333 -19.5 -36l-342 -498c-7.33301 -10.667 -14.833 -17.834 -22.5 -21.501s-18.167 -5.5 -31.5 -5.5h-135
c-10 0 -15.833 3 -17.5 9s-0.5 12 3.5 18l346 498h-285c-8 0 -13.333 1.66699 -16 5s-3.33398 10.333 -2.00098 21l13 96c2 13.333 4.66699 21.333 8 24s9.66602 4 18.999 4h446z" />
    <glyph glyph-name="eight" unicode="8" horiz-adv-x="676" 
d="M403 685c72 0 127.002 -14.501 165.002 -43.501s57 -70.167 57 -123.5c0 -12 -1.33301 -25 -4 -39s-7.5 -27.667 -14.5 -41s-16.333 -26.5 -28 -39.5s-26.834 -24.5 -45.501 -34.5l-1 -2c15.333 -6 28 -14.333 38 -25s18 -22.167 24 -34.5s10.167 -25 12.5 -38
s3.5 -25.167 3.5 -36.5c0 -38 -8.16699 -71.833 -24.5 -101.5s-38.333 -54.667 -66 -75s-59.834 -35.833 -96.501 -46.5s-75.334 -16 -116.001 -16c-38 0 -72.167 4.16699 -102.5 12.5s-56.166 20.5 -77.499 36.5s-37.666 35.833 -48.999 59.5s-17 50.5 -17 80.5
c0 21.333 3.16699 41.833 9.5 61.5s15 37.667 26 54s23.667 30.333 38 42s29.5 20.5 45.5 26.5l1 3c-21.333 10.667 -35.833 25.834 -43.5 45.501s-11.5 39.167 -11.5 58.5c0 35.333 8.16699 66.5 24.5 93.5s37.666 49.5 63.999 67.5s56 31.667 89 41s66.167 14 99.5 14z
M347.002 294.999c-32 0 -57.333 -8.99707 -76 -26.9971s-28 -39.667 -28 -65c0 -16.667 5.83301 -32.167 17.5 -46.5s32.5 -21.5 62.5 -21.5c20 0 36.833 3.16699 50.5 9.5s24.5 14.166 32.5 23.499s13.833 19.166 17.5 29.499s5.5 19.833 5.5 28.5
c0 21.333 -7 38.166 -21 50.499s-34.333 18.5 -61 18.5zM380.002 535.002c-28 0 -48.5 -6.83203 -61.5 -20.499s-19.5 -30.834 -19.5 -51.501c0 -13.333 5 -25.166 15 -35.499s25.667 -15.5 47 -15.5c14.667 0 27.334 2.16699 38.001 6.5s19.5 9.83301 26.5 16.5
s12.167 14.167 15.5 22.5s5 16.166 5 23.499c0 14 -4.83301 26.5 -14.5 37.5s-26.834 16.5 -51.501 16.5z" />
    <glyph glyph-name="nine" unicode="9" horiz-adv-x="676" 
d="M345 370c22.667 0 42.5 1.66895 59.5 5.00195s36.833 7.66602 59.5 12.999c0.666992 6.66699 1.16699 13 1.5 19s0.5 11.667 0.5 17c0 35.333 -7.33301 62.666 -22 81.999s-38 29 -70 29c-14 0 -27.5 -2 -40.5 -6s-24.5 -10.167 -34.5 -18.5s-18 -18.833 -24 -31.5
s-9 -27.667 -9 -45c0 -42.667 26.333 -64 79 -64zM266 141.002c38 0 71.6719 7.83398 101.005 23.501s52.666 42.5 69.999 80.5c-8 -2 -17.333 -4.16699 -28 -6.5s-21.5 -4.16602 -32.5 -5.49902s-21.833 -2.5 -32.5 -3.5s-20 -1.5 -28 -1.5
c-34.667 0 -66.334 3.5 -95.001 10.5s-53.167 18.167 -73.5 33.5s-36 35.166 -47 59.499s-16.5 53.833 -16.5 88.5c0 44.667 9 83.667 27 117s41.5 61.166 70.5 83.499s61.833 39 98.5 50s74 16.5 112 16.5c46 0 85.167 -6.5 117.5 -19.5s58.666 -31.5 78.999 -55.5
s35.166 -52.5 44.499 -85.5s14 -69.5 14 -109.5c0 -63.333 -8.5 -121.166 -25.5 -173.499s-41.667 -97.333 -74 -135s-71.833 -67 -118.5 -88s-99.667 -31.5 -159 -31.5c-24 0 -51 1.66699 -81 5s-56.333 9 -79 17c-4 1.33301 -7.33301 3.5 -10 6.5s-1.66699 11.167 3 24.5
l32 99c3.33301 10.667 8.16602 15.5 14.499 14.5s11.833 -1.83301 16.5 -2.5c17.333 -4.66699 34 -7.83398 50 -9.50098s32.667 -2.5 50 -2.5z" />
    <glyph glyph-name="colon" unicode=":" horiz-adv-x="307" 
d="M203 514c25.333 0 45.999 -7.83398 61.999 -23.501s24 -35.167 24 -58.5c0 -15.333 -3 -29.833 -9 -43.5s-14.333 -25.5 -25 -35.5s-22.834 -18 -36.501 -24s-28.167 -9 -43.5 -9c-24.667 0 -45.167 7.83301 -61.5 23.5s-24.5 35.5 -24.5 59.5
c0 14.667 3.16699 28.834 9.5 42.501s14.833 25.5 25.5 35.5s22.834 18 36.501 24s27.834 9 42.501 9zM155.999 182.999c25.333 0 46.1689 -7.83398 62.502 -23.501s24.5 -35.834 24.5 -60.501c0 -15.333 -3.16699 -29.666 -9.5 -42.999s-14.833 -25 -25.5 -35
s-22.834 -17.833 -36.501 -23.5s-27.834 -8.5 -42.501 -8.5c-24.667 0 -45.167 7.83301 -61.5 23.5s-24.5 35.5 -24.5 59.5c0 14.667 3.16699 28.834 9.5 42.501s14.666 25.5 24.999 35.5s22.333 18 36 24s27.834 9 42.501 9z" />
    <glyph glyph-name="semicolon" unicode=";" horiz-adv-x="307" 
d="M203 514c25.333 0 45.999 -7.83398 61.999 -23.501s24 -35.167 24 -58.5c0 -15.333 -3 -29.833 -9 -43.5s-14.333 -25.5 -25 -35.5s-22.834 -18 -36.501 -24s-28.167 -9 -43.5 -9c-24.667 0 -45.167 7.83301 -61.5 23.5s-24.5 35.5 -24.5 59.5
c0 14.667 3.16699 28.834 9.5 42.501s14.833 25.5 25.5 35.5s22.834 18 36.501 24s27.834 9 42.501 9zM138.999 -113.001c-3.33301 -8 -6.50098 -13.665 -9.50098 -16.998s-8.5 -5 -16.5 -5h-66c-19.333 0 -27 7.33301 -23 22l47 260c2 9.33301 4.83301 16.166 8.5 20.499
s11.167 6.5 22.5 6.5h123c12.667 0 19.334 -2.83301 20.001 -8.5s-0.333008 -11.834 -3 -18.501z" />
    <glyph glyph-name="less" unicode="&#x3c;" horiz-adv-x="676" 
d="M322 341l246.001 -130.001c12 -6.66699 18.667 -12.5 20 -17.5s1.33301 -13.167 0 -24.5l-13 -88c-1.33301 -9.33301 -3.83301 -16.666 -7.5 -21.999s-11.167 -4.66602 -22.5 2.00098l-403 216c-13.333 7.33301 -22.833 14.5 -28.5 21.5s-7.83398 15.5 -6.50098 25.5
l5 32c2 17.333 7.5 29.5 16.5 36.5s19.833 13.167 32.5 18.5l464 216c6.66699 3.33301 11.667 5 15 5s5.83301 -1.16699 7.5 -3.5s2.5 -5.33301 2.5 -9s-0.333008 -7.83398 -1 -12.501l-13 -96c-1.33301 -11.333 -3.5 -19.5 -6.5 -24.5s-11.5 -10.833 -25.5 -17.5z" />
    <glyph glyph-name="equal" unicode="=" horiz-adv-x="676" 
d="M619 403c-2 -15.333 -9.66699 -23 -23 -23h-461c-14 0 -20 7.66699 -18 23l13 93c1.33301 11.333 3.83301 18.166 7.5 20.499s9.5 3.5 17.5 3.5h461c8 0 13 -1.16699 15 -3.5s2.33301 -9.16602 1 -20.499zM588 173c-2 -16 -9.66699 -23.999 -23 -23.999h-463
c-7.33301 0 -12.5 1.5 -15.5 4.5s-3.83301 8.5 -2.5 16.5l14 97c1.33301 9.33301 3.33301 15.166 6 17.499s8 3.5 16 3.5h466c7.33301 0 12 -1.33301 14 -4s2.33301 -8.66699 1 -18z" />
    <glyph glyph-name="greater" unicode="&#x3e;" horiz-adv-x="676" 
d="M156 480c-12 6.66699 -18.833 12.5039 -20.5 17.5039s-1.83398 13.167 -0.500977 24.5l13 85c1.33301 9.33301 3.83301 16.666 7.5 21.999s11.5 4.66602 23.5 -2.00098l401 -216c11.333 -5.33301 20.5 -11.5 27.5 -18.5s9.5 -19.167 7.5 -36.5l-5 -32
c-1.33301 -10 -5.66602 -18.5 -12.999 -25.5s-19.333 -14.167 -36 -21.5l-462 -216c-13.333 -6.66699 -21.166 -7.33398 -23.499 -2.00098s-2.83301 12.666 -1.5 21.999l13 99c1.33301 11.333 3.66602 19.5 6.99902 24.5s12 10.833 26 17.5l281 130z" />
    <glyph glyph-name="question" unicode="?" horiz-adv-x="597" 
d="M283 171c25.333 0 45.999 -7.83301 61.999 -23.5s24 -35.167 24 -58.5c0 -15.333 -3 -29.666 -9 -42.999s-14.167 -24.833 -24.5 -34.5s-22.333 -17.167 -36 -22.5s-28.167 -8 -43.5 -8c-24.667 0 -45.334 7.33301 -62.001 22s-25 33.667 -25 57
c0 15.333 3.16699 29.666 9.5 42.999s14.833 25 25.5 35s22.834 18 36.501 24s27.834 9 42.501 9zM375.999 708c27.333 0 54.499 -2.33496 81.499 -7.00195s51.167 -12.5 72.5 -23.5s38.5 -26.167 51.5 -45.5s19.5 -43.333 19.5 -72c0 -18.667 -3 -36 -9 -52
s-14 -31 -24 -45s-21.5 -27.333 -34.5 -40s-26.5 -25 -40.5 -37l-37.5 -33.5c-12.333 -11 -23.666 -22.333 -33.999 -34s-19.166 -23.5 -26.499 -35.5s-12 -24.667 -14 -38l-4 -25c-1.33301 -7.33301 -2.83301 -11.666 -4.5 -12.999s-5.83398 -2 -12.501 -2h-135
c-8.66699 0 -13 1.66699 -13 5s0.333008 7.66602 1 12.999l5 37c2.66699 20 7.66699 37.833 15 53.5s15.833 30 25.5 43s20.167 24.667 31.5 35l33 29.5c17.333 14.667 32.166 28.834 44.499 42.501s18.5 30.167 18.5 49.5c0 12 -5.33301 20.5 -16 25.5s-21 7.5 -31 7.5
c-24.667 0 -48.834 -3.5 -72.501 -10.5s-51.167 -18.833 -82.5 -35.5c-7.33301 -4 -12.666 -6 -15.999 -6s-6.66602 3.66699 -9.99902 11l-49 98c-2 5.33301 -2.66699 9.83301 -2 13.5s4.66699 7.83398 12 12.501c42.667 28.667 86.667 49 132 61s87 18 125 18z" />
    <glyph glyph-name="at" unicode="@" horiz-adv-x="952" 
d="M661 265c-2.66699 -18.667 -0.671875 -31.999 5.99512 -39.999s15 -12 25 -12c14 0 27.833 4.5 41.5 13.5s26 21.833 37 38.5s19.833 36.834 26.5 60.501s10 50.167 10 79.5c0 68 -20.333 122.333 -61 163s-103.334 61 -188.001 61c-56.667 0 -107.5 -9.66699 -152.5 -29
s-83.167 -45.333 -114.5 -78s-55.333 -70.167 -72 -112.5s-25 -86.5 -25 -132.5c0 -36.667 5.33301 -70.5 16 -101.5s26.5 -57.667 47.5 -80s47.333 -39.833 79 -52.5s68.5 -19 110.5 -19c15.333 0 35.833 1.5 61.5 4.5s53.5 9.16699 83.5 18.5
c2.66699 1.33301 6.16699 1.83301 10.5 1.5s7.83301 -4.5 10.5 -12.5l19 -57c3.33301 -9.33301 3.16602 -15.5 -0.500977 -18.5s-7.16699 -5.16699 -10.5 -6.5c-31.333 -13.333 -62.5 -22.5 -93.5 -27.5s-58.833 -7.5 -83.5 -7.5c-61.333 0 -114.666 8.83301 -159.999 26.5
s-83 42.334 -113 74.001s-52.5 69.167 -67.5 112.5s-22.5 90.666 -22.5 141.999c0 63.333 11.167 123.166 33.5 179.499s54.5 105.5 96.5 147.5s93 75.333 153 100s127.667 37 203 37c56.667 0 107.167 -7.66699 151.5 -23s81.833 -37 112.5 -65s53.834 -62 69.501 -102
s23.5 -84.667 23.5 -134c0 -46 -7 -87.833 -21 -125.5s-32.667 -69.834 -56 -96.501s-50.166 -47.167 -80.499 -61.5s-62.166 -21.5 -95.499 -21.5c-26.667 0 -49.667 3.5 -69 10.5s-35 20.833 -47 41.5l-5 1c-13.333 -10 -26.666 -18 -39.999 -24s-26 -10.5 -38 -13.5
s-23 -4.83301 -33 -5.5s-18.333 -1 -25 -1c-23.333 0 -43.166 4.16699 -59.499 12.5s-29.666 19.666 -39.999 33.999s-18 30.666 -23 48.999s-7.5 37.5 -7.5 57.5c0 82.667 17.833 147.334 53.5 194.001s89.5 70 161.5 70c24 0 51.5 -1.5 82.5 -4.5
s62.5 -8.83301 94.5 -17.5c8.66699 -2.66699 13.667 -6.16699 15 -10.5s1.33301 -9.16602 0 -14.499zM508.995 424.001c-28 0 -48.998 -11.667 -62.998 -35s-21 -54 -21 -92c0 -23.333 3.66699 -39.333 11 -48s18.333 -13 33 -13c5.33301 0 13.166 1.16699 23.499 3.5
s21.166 6.5 32.499 12.5l23 167l-20 3.5c-6 1 -12.333 1.5 -19 1.5z" />
    <glyph glyph-name="A" unicode="A" horiz-adv-x="654" 
d="M418 137l-191.001 -0.000976562l-48 -115c-4 -7.33301 -7.83301 -12.833 -11.5 -16.5s-11.167 -5.5 -22.5 -5.5h-146c-6 0 -9.66699 1.83301 -11 5.5s-1 8.16699 1 13.5l278 619c12 26.667 24.833 43.834 38.5 51.501s31.167 11.5 52.5 11.5h79
c11.333 0 21.333 -0.5 30 -1.5s16.167 -3.5 22.5 -7.5s11.666 -10.167 15.999 -18.5s7.5 -19.833 9.5 -34.5l104 -620c0.666992 -3.33301 0.333984 -7.33301 -0.999023 -12s-5.66602 -7 -12.999 -7h-144c-7.33301 0 -13.5 1 -18.5 3s-8.16699 6.66699 -9.5 14z
M288.999 284.999h110l-7 78l-11 144h-8l-54 -147z" />
    <glyph glyph-name="B" unicode="B" horiz-adv-x="678" 
d="M252 163h115c14.667 0 27 2.66699 37 8s18 11.833 24 19.5s10.167 16 12.5 25s3.5 17.167 3.5 24.5c0 16 -4.83301 29 -14.5 39s-24.167 15 -43.5 15h-115zM292 442h102c6.66699 0 13.5 0.833008 20.5 2.5s13.5 4.83398 19.5 9.50098s10.833 10.667 14.5 18
s5.5 16.666 5.5 27.999c0 12 -3.83301 21.333 -11.5 28s-18.167 10 -31.5 10h-106zM449 700c26.667 0 52 -2.66406 76 -7.99707s45 -14.166 63 -26.499s32.167 -28.333 42.5 -48s15.5 -43.834 15.5 -72.501c0 -40.667 -9 -73.334 -27 -98.001s-39.667 -44.334 -65 -59.001
l-1 -6c30 -14 50.667 -34.167 62 -60.5s17 -53.833 17 -82.5c0 -33.333 -6.66699 -64.5 -20 -93.5s-32 -54.167 -56 -75.5s-52.5 -38.333 -85.5 -51s-68.833 -19 -107.5 -19h-252c-27.333 0 -44 5.16699 -50 15.5s-7.33301 27.166 -4 50.499l80 568
c3.33301 22 9.33301 38.5 18 49.5s26.667 16.5 54 16.5h240z" />
    <glyph glyph-name="C" unicode="C" horiz-adv-x="651" 
d="M432 710c38 0 73.5 -3.49805 106.5 -10.498s63.167 -18.167 90.5 -33.5c10 -5.33301 14.667 -11 14 -17s-3.66699 -14.667 -9 -26l-35 -82c-5.33301 -13.333 -10.5 -21 -15.5 -23s-13.167 -1 -24.5 3c-12 4 -23.167 7.5 -33.5 10.5s-20.166 5.5 -29.499 7.5
s-19 3.33301 -29 4s-21 1 -33 1c-22 0 -43 -4.83301 -63 -14.5s-37.667 -24.667 -53 -45s-27.5 -46.333 -36.5 -78s-13.5 -69.5 -13.5 -113.5c0 -44.667 8.5 -78.334 25.5 -101.001s46.5 -34 88.5 -34c33.333 0 62.166 4 86.499 12s47.166 16 68.499 24
c10.667 4 17.5 5.16699 20.5 3.5s6.83301 -7.83398 11.5 -18.501l39 -92c4 -9.33301 5 -16.5 3 -21.5s-6.66699 -9.5 -14 -13.5c-42 -24 -83 -40.5 -123 -49.5s-81 -13.5 -123 -13.5c-50 0 -92.667 7 -128 21s-64.166 33.5 -86.499 58.5s-38.5 55.167 -48.5 90.5
s-15 74 -15 116c0 68.667 9 130 27 184s42.833 99.5 74.5 136.5s69.5 65.333 113.5 85s92 29.5 144 29.5z" />
    <glyph glyph-name="D" unicode="D" horiz-adv-x="686" 
d="M111 0c-27.333 0 -44 5.16797 -50 15.501s-7.33301 27.166 -4 50.499l80 568c3.33301 22 9.33301 38.5 18 49.5s26.667 16.5 54 16.5h178c52.667 0 96.5 -7.83301 131.5 -23.5s63 -36.5 84 -62.5s35.667 -56 44 -90s12.5 -69.667 12.5 -107
c0 -29.333 -2.16699 -59.833 -6.5 -91.5s-11.833 -63 -22.5 -94s-24.667 -60.5 -42 -88.5s-39 -52.5 -65 -73.5s-57 -37.833 -93 -50.5s-77.333 -19 -124 -19h-195zM305 538.001l-52 -373.999h43c32.667 0 60.167 6.66699 82.5 20s40.333 30.833 54 52.5
s23.5 46.5 29.5 74.5s9 57 9 87c0 20.667 -2 39.667 -6 57s-10.833 32.166 -20.5 44.499s-22.5 21.833 -38.5 28.5s-36.333 10 -61 10h-40z" />
    <glyph glyph-name="E" unicode="E" horiz-adv-x="613" 
d="M563 23c-2.66699 -15.333 -9.66504 -23.001 -20.998 -23.001h-307c-38.667 0 -69.334 5.66699 -92.001 17s-39.667 26.166 -51 44.499s-18 38.833 -20 61.5s-1.33301 45 2 67l45 320c3.33301 24 9 47.5 17 70.5s19.667 43.333 35 61s35.166 31.834 59.499 42.501
s54.5 16 90.5 16h293c8 0 13 -1.16699 15 -3.5s2.33301 -9.16602 1 -20.499l-16 -113c-1.33301 -8.66699 -3.5 -14.5 -6.5 -17.5s-8.16699 -4.5 -15.5 -4.5h-227c-12.667 0 -23.167 -1.83301 -31.5 -5.5s-14.833 -8.16699 -19.5 -13.5s-8.16699 -11.333 -10.5 -18
s-3.83301 -13.334 -4.5 -20.001l-6 -42h260c8 0 12.667 -1.33301 14 -4s1.33301 -9.66699 0 -21l-15 -104c-1.33301 -8.66699 -3.33301 -14.667 -6 -18s-7.66699 -5 -15 -5h-260l-10 -75c-2 -12.667 -2 -22.667 0 -30s5.33301 -12.833 10 -16.5s10.5 -6 17.5 -7
s14.5 -1.5 22.5 -1.5h253c7.33301 0 12 -1.16699 14 -3.5s2.33301 -9.16602 1 -20.499l-16 -113v0z" />
    <glyph glyph-name="F" unicode="F" horiz-adv-x="582" 
d="M233 20c-1.33301 -8 -3.16504 -13.334 -5.49805 -16.001s-8.83301 -4 -19.5 -4h-138c-15.333 0 -22 6.66699 -20 20l69 490c3.33301 24 9.66602 47.5 18.999 70.5s22.5 43.333 39.5 61s38.167 31.834 63.5 42.501s55.666 16 90.999 16h291c7.33301 0 12 -1.16699 14 -3.5
s2.33301 -9.16602 1 -20.499l-16 -113c-1.33301 -8.66699 -3.5 -14.5 -6.5 -17.5s-7.83301 -4.5 -14.5 -4.5h-236c-12.667 0 -23.167 -1.83301 -31.5 -5.5s-14.833 -8.16699 -19.5 -13.5s-8.16699 -11.333 -10.5 -18s-3.83301 -13.334 -4.5 -20.001l-9 -62h255
c8 0 12.833 -1.33301 14.5 -4s1.83398 -9.66699 0.500977 -21l-14 -104c-2.66699 -15.333 -10.334 -23 -23.001 -23h-255l-35 -250v0z" />
    <glyph glyph-name="G" unicode="G" horiz-adv-x="696" 
d="M490 363c2 14 10.6631 21 25.9961 21h128c11.333 0 18 -1.5 20 -4.5s2.33301 -8.5 1 -16.5l-32 -261c-1.33301 -11.333 -4.16602 -22.166 -8.49902 -32.499s-14.166 -19.5 -29.499 -27.5c-22 -12 -44.833 -21.5 -68.5 -28.5s-46.667 -12.333 -69 -16s-42.833 -6 -61.5 -7
s-33.667 -1.5 -45 -1.5c-50 0 -92.667 7 -128 21s-64.166 33.5 -86.499 58.5s-38.5 55.167 -48.5 90.5s-15 74 -15 116c0 68.667 9.5 130 28.5 184s45 99.5 78 136.5s72 65.333 117 85s93.5 29.5 145.5 29.5c38 0 73.5 -3.5 106.5 -10.5s63.167 -18.167 90.5 -33.5
c10 -5.33301 14.667 -11 14 -17s-3.66699 -14.667 -9 -26l-35 -82c-5.33301 -13.333 -10.5 -21 -15.5 -23s-13.167 -1 -24.5 3c-12 4 -23.167 7.5 -33.5 10.5s-20.166 5.5 -29.499 7.5s-19 3.33301 -29 4s-21 1 -33 1c-22 0 -43.5 -4.83301 -64.5 -14.5
s-39.833 -24.667 -56.5 -45s-30 -46.333 -40 -78s-15 -69.5 -15 -113.5c0 -44.667 8.5 -78.334 25.5 -101.001s46.5 -34 88.5 -34c14.667 0 28.667 0.833008 42 2.5s27.333 4.5 42 8.5z" />
    <glyph glyph-name="H" unicode="H" horiz-adv-x="728" 
d="M632 21c-1.33301 -8 -3.16895 -13.5 -5.50195 -16.5s-9.16602 -4.5 -20.499 -4.5h-137c-16 0 -23 7 -21 21l38 264h-215l-38 -264c-1.33301 -8 -3.16602 -13.5 -5.49902 -16.5s-8.83301 -4.5 -19.5 -4.5h-138c-15.333 0 -22 7 -20 21l93 658c2 14 10.333 21 25 21h138
c10.667 0 17 -1.5 19 -4.5s2.33301 -8.5 1 -16.5l-33 -236h215l33 236c2 14 10.667 21 26 21h137c11.333 0 18 -1.5 20 -4.5s2.33301 -8.5 1 -16.5l-93 -658v0z" />
    <glyph glyph-name="I" unicode="I" horiz-adv-x="358" 
d="M248 21c-1.33301 -8 -3.16797 -13.5 -5.50098 -16.5s-9.16602 -4.5 -20.499 -4.5h-137c-16 0 -23 7 -21 21l93 658c2 14 10.667 21 26 21h137c11.333 0 18 -1.5 20 -4.5s2.33301 -8.5 1 -16.5l-93 -658v0z" />
    <glyph glyph-name="J" unicode="J" horiz-adv-x="589" 
d="M238 -11c-14 0 -29.498 0.669922 -46.498 2.00293s-35 3.83301 -54 7.5s-38.667 8.66699 -59 15s-40.5 14.833 -60.5 25.5c-5.33301 2.66699 -8.83301 6 -10.5 10s-0.166992 11 4.5 21l43 104c3.33301 8.66699 6.83301 13 10.5 13s8.83398 -1.33301 15.501 -4
c22 -8.66699 44.5 -15.334 67.5 -20.001s45.5 -7 67.5 -7c26.667 0 48.167 3.5 64.5 10.5s29.166 17 38.499 30s16.166 28.667 20.499 47s8.16602 39.166 11.499 62.499l52 375c1.33301 9.33301 4 14.833 8 16.5s9.66699 2.5 17 2.5h139c8 0 13.5 -0.833008 16.5 -2.5
s3.83301 -7.16699 2.5 -16.5l-59 -420c-5.33301 -36.667 -13.5 -71.5 -24.5 -104.5s-27.333 -61.833 -49 -86.5s-50 -44.334 -85 -59.001s-78.5 -22 -130.5 -22z" />
    <glyph glyph-name="K" unicode="K" horiz-adv-x="694" 
d="M495 443l160.999 -416.001c3.33301 -8 4 -14.5 2 -19.5s-7 -7.5 -15 -7.5h-139c-15.333 0 -26.5 0.833008 -33.5 2.5s-12.833 9.5 -17.5 23.5l-98 271l-98 -98l-25 -179c-1.33301 -8 -3.16602 -13.333 -5.49902 -16s-8.83301 -4 -19.5 -4h-137
c-15.333 0 -22 6.66699 -20 20l93 660c2 13.333 10.333 20 25 20h137c10.667 0 17 -1.33301 19 -4s2.33301 -8 1 -16l-32 -226l3 -2l100 111l103 114c9.33301 9.33301 17.5 15.5 24.5 18.5s19.167 4.5 36.5 4.5h157c6.66699 0 10.667 -2.16699 12 -6.5
s-0.666992 -9.16602 -6 -14.499z" />
    <glyph glyph-name="L" unicode="L" horiz-adv-x="575" 
d="M237 0c-38.667 0 -69.335 5.66699 -92.002 17s-39.667 26.166 -51 44.499s-18.166 38.833 -20.499 61.5s-1.83301 45 1.5 67l68 490c2 14 10.333 21 25 21h139c10.667 0 17 -1.5 19 -4.5s2.33301 -8.5 1 -16.5l-65 -465c-2 -12.667 -2 -22.667 0 -30
s5.33301 -12.833 10 -16.5s10.5 -6 17.5 -7s14.5 -1.5 22.5 -1.5h230c8 0 13.333 -1.16699 16 -3.5s3.33398 -9.16602 2.00098 -20.499l-16 -113c-2.66699 -15.333 -10.667 -23 -24 -23h-283v0z" />
    <glyph glyph-name="M" unicode="M" horiz-adv-x="881" 
d="M662 366h-5l-48 -90l-86 -150c-9.33301 -16.667 -18.333 -28.167 -27 -34.5s-20 -9.5 -34 -9.5h-65c-16 0 -26.667 3.16699 -32 9.5s-10.666 17.833 -15.999 34.5l-37 120l-31 108h-6l-47 -335c-1.33301 -9.33301 -3.66602 -14.833 -6.99902 -16.5
s-8.66602 -2.5 -15.999 -2.5h-135c-7.33301 -0 -12.833 0.833008 -16.5 2.5s-4.83398 7.16699 -3.50098 16.5l85 602c4 31.333 12.167 52.333 24.5 63s31.166 16 56.499 16h68c20.667 0 35.167 -3.83301 43.5 -11.5s15.166 -20.167 20.499 -37.5l57 -179l47 -167h4l106 181
l96 162c10.667 17.333 22 30.333 34 39s30 13 54 13h66c10.667 0 20 -0.833008 28 -2.5s14.667 -5 20 -10s9 -12.333 11 -22s2 -22.167 0 -37.5l-86 -609c-1.33301 -9.33301 -3.66602 -14.833 -6.99902 -16.5s-9 -2.5 -17 -2.5h-128c-7.33301 -0 -12.833 0.833008 -16.5 2.5
s-4.83398 7.16699 -3.50098 16.5z" />
    <glyph glyph-name="N" unicode="N" horiz-adv-x="754" 
d="M287 399l-54.001 -378c-1.33301 -8 -3.16602 -13.5 -5.49902 -16.5s-8.83301 -4.5 -19.5 -4.5h-138c-15.333 0 -22 7 -20 21l85 600c4 31.333 11.833 52.333 23.5 63s31.167 16 58.5 16h50c11.333 0 20.666 -0.333008 27.999 -1s13.833 -2.5 19.5 -5.5
s10.5 -7.5 14.5 -13.5s8.66699 -14.333 14 -25l103 -218l62 -136h7l53 378c1.33301 8 3.33301 13.5 6 16.5s9.33398 4.5 20.001 4.5h138c14.667 0 21 -7 19 -21l-84 -600c-3.33301 -22.667 -10.666 -41.5 -21.999 -56.5s-31.333 -22.5 -60 -22.5h-50
c-11.333 0 -20.833 0.5 -28.5 1.5s-14.334 3 -20.001 6s-10.667 7.5 -15 13.5s-8.83301 14 -13.5 24l-98 206l-66 148h-7z" />
    <glyph glyph-name="O" unicode="O" horiz-adv-x="721" 
d="M427 711c46 0 85.832 -6.8291 119.499 -20.4961s61.5 -32.834 83.5 -57.501s38.5 -54.5 49.5 -89.5s16.5 -73.833 16.5 -116.5c0 -64.667 -7.5 -123.834 -22.5 -177.501s-37.5 -99.834 -67.5 -138.501s-67.333 -68.667 -112 -90s-96.334 -32 -155.001 -32
c-46.667 0 -86.667 6.33301 -120 19s-60.833 31.167 -82.5 55.5s-37.667 54.166 -48 89.499s-15.5 75.333 -15.5 120c0 65.333 8.16699 125 24.5 179s39.833 100.167 70.5 138.5s67.834 68 111.501 89s92.834 31.5 147.501 31.5zM409.999 543.004
c-24 0 -45.002 -7.66504 -63.002 -22.998s-33 -35.5 -45 -60.5s-21 -53 -27 -84s-9 -62.5 -9 -94.5c0 -38.667 7.16699 -68.834 21.5 -90.501s38.833 -32.5 73.5 -32.5c24.667 0 45.834 7.5 63.501 22.5s32.334 34.833 44.001 59.5s20.167 52.167 25.5 82.5
s8 61.166 8 92.499c0 18.667 -1.5 35.834 -4.5 51.501s-8 29.167 -15 40.5s-16.333 20.166 -28 26.499s-26.5 9.5 -44.5 9.5z" />
    <glyph glyph-name="P" unicode="P" horiz-adv-x="648" 
d="M306 537l-21 -151h100c25.333 0 45.833 8.83301 61.5 26.5s23.5 39.167 23.5 64.5c0 6.66699 -0.833008 13.5 -2.5 20.5s-4.66699 13.5 -9 19.5s-10.333 10.833 -18 14.5s-17.5 5.5 -29.5 5.5h-105zM264 238l-31 -217.999c-1.33301 -8 -3.16602 -13.333 -5.49902 -16
s-8.83301 -4 -19.5 -4h-138c-15.333 0 -22 6.66699 -20 20l87 614c1.33301 8.66699 3.33301 17 6 25s6.66699 15 12 21s12.333 10.833 21 14.5s19.667 5.5 33 5.5h242c35.333 0 66.166 -5 92.499 -15s48.166 -23.833 65.499 -41.5s30.333 -38.834 39 -63.501
s13 -51.334 13 -80.001c0 -9.33301 -1 -22.333 -3 -39s-6.33301 -34.667 -13 -54s-16.667 -39 -30 -59s-31.166 -38.167 -53.499 -54.5s-50 -29.666 -83 -39.999s-72.833 -15.5 -119.5 -15.5h-95z" />
    <glyph glyph-name="Q" unicode="Q" horiz-adv-x="721" 
d="M274 -179c-7.33301 0 -11.8311 1.49902 -13.498 4.49902s-1.83398 7.83301 -0.500977 14.5l14 97c1.33301 7.33301 3 12.333 5 15s6.66699 4 14 4h103c60.667 0 112 -7 154 -21s74.333 -30.333 97 -49c5.33301 -4 8.16602 -7.83301 8.49902 -11.5s-1.5 -8.5 -5.5 -14.5
l-48 -84c-4.66699 -7.33301 -9 -11.333 -13 -12s-10 1.33301 -18 6c-23.333 12.667 -52 24.334 -86 35.001s-77.333 16 -130 16h-81zM427.002 710.999c46 0 85.832 -6.8291 119.499 -20.4961s61.5 -32.834 83.5 -57.501s38.5 -54.5 49.5 -89.5s16.5 -73.833 16.5 -116.5
c0 -64.667 -7.5 -123.834 -22.5 -177.501s-37.5 -99.834 -67.5 -138.501s-67.333 -68.667 -112 -90s-96.334 -32 -155.001 -32c-46.667 0 -86.667 6.33301 -120 19s-60.833 31.167 -82.5 55.5s-37.667 54.166 -48 89.499s-15.5 75.333 -15.5 120
c0 65.333 8.16699 125 24.5 179s39.833 100.167 70.5 138.5s67.834 68 111.501 89s92.834 31.5 147.501 31.5zM410.001 543.003c-24 0 -45.002 -7.66504 -63.002 -22.998s-33 -35.5 -45 -60.5s-21 -53 -27 -84s-9 -62.5 -9 -94.5c0 -38.667 7.16699 -68.834 21.5 -90.501
s38.833 -32.5 73.5 -32.5c24.667 0 45.834 7.5 63.501 22.5s32.334 34.833 44.001 59.5s20.167 52.167 25.5 82.5s8 61.166 8 92.499c0 18.667 -1.5 35.834 -4.5 51.501s-8 29.167 -15 40.5s-16.333 20.166 -28 26.499s-26.5 9.5 -44.5 9.5z" />
    <glyph glyph-name="R" unicode="R" horiz-adv-x="674" 
d="M233 20c-1.33301 -8 -3.16602 -13.333 -5.49902 -16s-8.83301 -4 -19.5 -4h-138c-15.333 0 -22 6.66699 -20 20l87 614c2.66699 20.667 8.5 36.834 17.5 48.501s27.167 17.5 54.5 17.5h244c70.667 0 122.667 -15.5 156 -46.5s50 -74.833 50 -131.5
c0 -46 -11.167 -86.333 -33.5 -121s-55.5 -61.334 -99.5 -80.001l-1 -2c29.333 -8 49.5 -20.667 60.5 -38s17.833 -39 20.5 -65l23 -190c1.33301 -9.33301 1.5 -16 0.5 -20s-5.5 -6 -13.5 -6h-129h-16.5c-5.66699 -0 -10.834 0.833008 -15.501 2.5s-8.66699 4.16699 -12 7.5
s-5.33301 8.33301 -6 15l-16 167c-2.66699 28.667 -10.167 49.5 -22.5 62.5s-34.5 19.5 -66.5 19.5h-63zM290 422h111.001c16 0 31.167 5.5 45.5 16.5s21.5 28.167 21.5 51.5c0 12.667 -3.83301 23.667 -11.5 33s-20.834 14 -39.501 14h-111z" />
    <glyph glyph-name="S" unicode="S" horiz-adv-x="598" 
d="M288 -11c-22 0 -44.6689 1.33691 -68.002 4.00391s-46.333 7 -69 13s-44.167 13.5 -64.5 22.5s-38.5 19.833 -54.5 32.5c-6 4.66699 -9.16699 9.33398 -9.5 14.001s2.16699 12 7.5 22l44 95c6 11.333 11.5 17.666 16.5 18.999s12.167 0 21.5 -4
c8.66699 -4 19.834 -8.66699 33.501 -14s28.667 -10.5 45 -15.5s33.5 -9.16699 51.5 -12.5s36 -5 54 -5c18.667 0 33.167 2.16699 43.5 6.5s18 9.33301 23 15s8.16699 11.5 9.5 17.5s2 10.667 2 14c0 8.66699 -4.16699 17 -12.5 25s-26.833 18.667 -55.5 32
c-30 14.667 -57.5 29.667 -82.5 45s-46.5 32 -64.5 50s-32.167 37.667 -42.5 59s-15.5 45 -15.5 71c0 31.333 5.5 60.333 16.5 87s27.5 49.5 49.5 68.5s49.5 33.833 82.5 44.5s71.167 16 114.5 16c19.333 0 39 -1 59 -3s39.167 -4.83301 57.5 -8.5
s35.833 -8.33398 52.5 -14.001s31.334 -12.5 44.001 -20.5c10 -5.33301 15.833 -10.666 17.5 -15.999s-0.166016 -15.666 -5.49902 -30.999l-27 -83c-4.66699 -13.333 -10 -20.833 -16 -22.5s-14.667 -0.833984 -26 2.49902c-26.667 8 -53.834 14.833 -81.501 20.5
s-54.167 8.5 -79.5 8.5c-24 0 -40.167 -4 -48.5 -12s-12.5 -17 -12.5 -27c0 -4 0.833008 -7.83301 2.5 -11.5s4.83398 -7.83398 9.50098 -12.501s11.167 -9.33398 19.5 -14.001s19.166 -10 32.499 -16c34 -14 64.5 -28.667 91.5 -44s49.833 -32.333 68.5 -51
s33 -39.334 43 -62.001s15 -48.334 15 -77.001c0 -38.667 -7 -72.167 -21 -100.5s-33.667 -52 -59 -71s-56 -33.167 -92 -42.5s-76 -14 -120 -14z" />
    <glyph glyph-name="T" unicode="T" horiz-adv-x="571" 
d="M616 564c-2.66699 -15.333 -10.667 -23 -24 -23h-166l-74 -520c-1.33301 -8 -3.16602 -13.5 -5.49902 -16.5s-8.83301 -4.5 -19.5 -4.5h-138c-15.333 0 -22 7 -20 21l74 520h-162c-14 0 -19.667 7.66699 -17 23l16 112c1.33301 11.333 3.66602 18.166 6.99902 20.499
s8.66602 3.5 15.999 3.5h511c8 0 13.333 -1.16699 16 -3.5s3.33398 -9.16602 2.00098 -20.499l-16 -112v0z" />
    <glyph glyph-name="U" unicode="U" horiz-adv-x="720" 
d="M634 97c-3.33301 -21.333 -10.501 -40.5 -21.501 -57.5s-29.5 -29.167 -55.5 -36.5c-13.333 -4 -29.166 -7 -47.499 -9s-36.333 -3.5 -54 -4.5s-34 -1.66699 -49 -2s-26.167 -0.5 -33.5 -0.5c-57.333 0 -106 4.5 -146 13.5s-71.667 24.833 -95 47.5
s-38.666 52.834 -45.999 90.501s-7 85.167 1 142.5l56 398c2 14 10.333 21 25 21h138c10.667 0 17 -1.5 19 -4.5s2.33301 -8.5 1 -16.5l-59 -416c-5.33301 -39.333 0 -67.666 16 -84.999s46 -26 90 -26h16.5c7.66699 0 16 0.333008 25 1s17.833 1.16699 26.5 1.5
s15.667 1.16602 21 2.49902l73 522c1.33301 7.33301 3.66602 12.666 6.99902 15.999s9.33301 5 18 5h137c10.667 0 17 -1.5 19 -4.5s2.33301 -8.5 1 -16.5z" />
    <glyph glyph-name="V" unicode="V" horiz-adv-x="662" 
d="M328 213h8.00195l75 196l113 275c3.33301 7.33301 7.5 12 12.5 14s11.5 3 19.5 3h154c8 0 12 -2.33301 12 -7s-0.666992 -8.66699 -2 -12l-287 -620c-6.66699 -15.333 -13.334 -27.166 -20.001 -35.499s-13.667 -14.5 -21 -18.5s-15.5 -6.33301 -24.5 -7
s-18.833 -1 -29.5 -1h-70c-11.333 0 -21 0.666992 -29 2s-15 4.33301 -21 9s-11 11.167 -15 19.5s-7.33301 19.166 -10 32.499l-111 619c-0.666992 5.33301 0.166016 9.83301 2.49902 13.5s6.5 5.5 12.5 5.5h143c11.333 0 18.5 -1.83301 21.5 -5.5
s5.16699 -9.16699 6.5 -16.5l37 -268z" />
    <glyph glyph-name="W" unicode="W" horiz-adv-x="927" 
d="M500 441l-76.002 -200.995l-70 -184c-6 -14.667 -11.833 -26 -17.5 -34s-11.834 -14 -18.501 -18s-14.167 -6.33301 -22.5 -7s-18.166 -1 -29.499 -1h-63c-10.667 0 -19.834 0.166992 -27.501 0.5s-14.167 2.16602 -19.5 5.49902s-9.5 9.16602 -12.5 17.499
s-5.5 20.166 -7.5 35.499l-53 623c-1.33301 12.667 0 20 4 22s10.333 3 19 3h142c12.667 0 21.834 -1.16699 27.501 -3.5s8.83398 -10.833 9.50098 -25.5l3 -204l5 -192h7l69 197l58 164c5.33301 14 10.333 25 15 33s9.83398 14.167 15.501 18.5
s12.334 7.16602 20.001 8.49902s16.834 2 27.501 2h67c10.667 0 19.167 -0.833008 25.5 -2.5s11.166 -4.66699 14.499 -9s5.83301 -10 7.5 -17s3.16699 -15.833 4.5 -26.5l14 -187l13 -174h7l50 173l62 212c4 14.667 8.16699 23.5 12.5 26.5s11.833 4.5 22.5 4.5l166 1
c7.33301 0 12.666 -1.16699 15.999 -3.5s2.66602 -9.83301 -2.00098 -22.5l-231 -617c-6 -15.333 -11.667 -27.333 -17 -36s-11.166 -15 -17.499 -19s-13.333 -6.33301 -21 -7s-16.834 -1 -27.501 -1h-57c-11.333 0 -21.166 0.166992 -29.499 0.5s-15.5 2.33301 -21.5 6
s-11 9.66699 -15 18s-7 20.166 -9 35.499l-16 183l-17 202h-6z" />
    <glyph glyph-name="X" unicode="X" horiz-adv-x="633" 
d="M330 212l-119.001 -182.002c-9.33301 -12 -17.333 -20 -24 -24s-17 -6 -31 -6h-163c-5.33301 0 -8.83301 2.66699 -10.5 8s-0.5 10.666 3.5 15.999l253 343l-139 310c-3.33301 5.33301 -3.83301 10.666 -1.5 15.999s8.16602 8 17.499 8h133c16 0 26.833 -1.66699 32.5 -5
s10.834 -10.666 15.501 -21.999l60 -160l104 160c6.66699 10.667 13.5 17.834 20.5 21.501s18.5 5.5 34.5 5.5h150c8.66699 0 13.5 -2.66699 14.5 -8s-0.833008 -10.666 -5.5 -15.999l-227 -310l158 -343c1.33301 -5.33301 0.833008 -10.666 -1.5 -15.999s-6.5 -8 -12.5 -8
h-146c-14 0 -24.167 2 -30.5 6s-12.166 12 -17.499 24z" />
    <glyph glyph-name="Y" unicode="Y" horiz-adv-x="640" 
d="M349 418l71.002 136l71 124c4 7.33301 8.33301 12.833 13 16.5s11.667 5.5 21 5.5h163c12.667 0 18.667 -2.5 18 -7.5s-2.33398 -9.83301 -5.00098 -14.5l-278 -434l-31 -221c-1.33301 -8 -3.33301 -13.833 -6 -17.5s-9.33398 -5.5 -20.001 -5.5h-138
c-14.667 0 -21 7.66699 -19 23l30 218l-161 436c-2 4.66699 -1.66699 9.66699 1 15s9 8 19 8h146c13.333 0 21.5 -2 24.5 -6s5.5 -10.667 7.5 -20l35 -122l32 -134h6z" />
    <glyph glyph-name="Z" unicode="Z" horiz-adv-x="619" 
d="M649 598c-2.66699 -16 -9.49902 -31.832 -20.499 -47.499s-21.5 -29.167 -31.5 -40.5l-315 -342l1 -8h283c8 0 13.333 -1.16699 16 -3.5s3.33398 -9.16602 2.00098 -20.499l-16 -113c-2.66699 -15.333 -10.667 -23 -24 -23h-481c-20 0 -34.333 4.16699 -43 12.5
s-11.334 23.166 -8.00098 44.499l4 31c2.66699 18 8.5 34 17.5 48s20.167 28 33.5 42l325 353l2 10h-254c-14 0 -19.667 7.66699 -17 23l16 112c1.33301 11.333 3.66602 18.166 6.99902 20.499s8.66602 3.5 15.999 3.5h442c22 0 36.833 -4 44.5 -12
s9.83398 -23.667 6.50098 -47z" />
    <glyph glyph-name="bracketleft" unicode="[" horiz-adv-x="392" 
d="M311 -74c-1.33301 -7.33301 -2.66504 -11.834 -3.99805 -13.501s-4.66602 -2.5 -9.99902 -2.5h-230c-15.333 0 -22 7.66699 -20 23l107 764c2 15.333 11 23 27 23h229c5.33301 0 8.66602 -1.16699 9.99902 -3.5s1.66602 -6.16602 0.999023 -11.499l-15 -102
c-0.666992 -5.33301 -1.83398 -9 -3.50098 -11s-6.5 -3 -14.5 -3h-85l-77 -548h88c9.33301 0 13 -4.66699 11 -14z" />
    <glyph glyph-name="backslash" unicode="\" horiz-adv-x="461" 
d="M417 -75c1.33301 -6 0.5 -11 -2.5 -15s-8.5 -6 -16.5 -6h-92c-11.333 0 -19.5 1.33301 -24.5 4s-8.16699 7.66699 -9.5 15l-183 833c-4 14.667 2.66699 22 20 22h94c11.333 0 18.5 -1.66699 21.5 -5s5.16699 -8 6.5 -14l186 -834v0z" />
    <glyph glyph-name="bracketright" unicode="]" horiz-adv-x="403" 
d="M305 -67c-1.33301 -7.33301 -3.66699 -13 -7 -17s-9.33301 -6 -18 -6h-230c-5.33301 0 -8.66602 1 -9.99902 3s-1.33301 6.66699 0 14l14 100c2 9.33301 7.33301 14 16 14h87l77 548h-88c-8.66699 0 -12.334 4.66699 -11.001 14l14 100c1.33301 7.33301 3.33301 12 6 14
s6.66699 3 12 3h227c8.66699 0 14.167 -2 16.5 -6s2.83301 -9.66699 1.5 -17l-107 -764v0z" />
    <glyph glyph-name="asciicircum" unicode="^" horiz-adv-x="604" 
d="M583 401c2.66699 -6 2.50391 -11.166 -0.496094 -15.499s-7.16699 -6.5 -12.5 -6.5h-109c-6.66699 0 -12.5 1 -17.5 3s-8.16699 6 -9.5 12l-75 188h-4l-126 -184c-5.33301 -8 -10.5 -13.333 -15.5 -16s-11.5 -4 -19.5 -4h-111c-6 0 -9.5 2.16699 -10.5 6.5
s0.5 9.16602 4.5 14.499l215 297c5.33301 7.33301 12.666 14.833 21.999 22.5s21.666 11.5 36.999 11.5h50c19.333 0 31.666 -3.33301 36.999 -10s9.66602 -14.667 12.999 -24l132 -295v0z" />
    <glyph glyph-name="underscore" unicode="_" horiz-adv-x="485" 
d="M458 -137c-1.33301 -8.66699 -3.33301 -14.667 -6 -18s-7.66699 -5 -15 -5h-484c-7.33301 0 -11.833 1.66699 -13.5 5s-1.83398 9.33301 -0.500977 18l6 41c1.33301 11.333 3 18.166 5 20.499s7 3.5 15 3.5h484c8 0 12.833 -1.16699 14.5 -3.5
s1.83398 -9.16602 0.500977 -20.499l-6 -41v0z" />
    <glyph glyph-name="grave" unicode="`" horiz-adv-x="540" 
d="M406 639c4 -6 4.99902 -10.668 2.99902 -14.001s-5.33301 -6.66602 -10 -9.99902l-57 -36c-4 -3.33301 -7.66699 -5 -11 -5s-7.33301 2.33301 -12 7l-161 169c-3.33301 2.66699 -5 6 -5 10s2.33301 7.33301 7 10l110 64c7.33301 3.33301 12.333 4.5 15 3.5
s5.33398 -4.16699 8.00098 -9.5l113 -189v0z" />
    <glyph glyph-name="a" unicode="a" horiz-adv-x="606" 
d="M347 389c-31.333 0 -57.834 -13.166 -79.501 -39.499s-32.5 -68.5 -32.5 -126.5c0 -30 5.83301 -51.333 17.5 -64s28.834 -19 51.501 -19c6 0 15 0.666992 27 2s22.667 3.66602 32 6.99902c4 32.667 7.16699 57.5 9.5 74.5s4.33301 32.167 6 45.5s3.66699 28 6 44
s6.16602 39 11.499 69c-8.66699 2.66699 -17.667 4.5 -27 5.5s-16.666 1.5 -21.999 1.5zM266.999 -11.999c-43.333 0 -78.999 4.99902 -106.999 14.999s-50 24 -66 42s-27.167 39.5 -33.5 64.5s-9.5 52.167 -9.5 81.5c0 108 23.333 192.5 70 253.5s117 91.5 211 91.5
c25.333 0 58.166 -1.5 98.499 -4.5s84.166 -11.167 131.499 -24.5c11.333 -3.33301 17.833 -7.66602 19.5 -12.999s1.83398 -11.666 0.500977 -18.999c-12 -74 -22.667 -146.167 -32 -216.5s-18 -141.833 -26 -214.5c-1.33301 -5.33301 -2.83301 -9.33301 -4.5 -12
s-5.16699 -5 -10.5 -7c-22 -8 -44.833 -14.5 -68.5 -19.5s-46.167 -8.83301 -67.5 -11.5s-41.333 -4.33398 -60 -5.00098s-34 -1 -46 -1z" />
    <glyph glyph-name="b" unicode="b" horiz-adv-x="614" 
d="M277 -11c-38 0 -75.999 3.16797 -113.999 9.50098s-71.333 17.166 -100 32.499c-9.33301 5.33301 -14.666 11 -15.999 17s-1.33301 13 0 21l90 639c1.33301 8.66699 3.83301 14.5 7.5 17.5s10.167 4.5 19.5 4.5h128c9.33301 0 15.666 -1.33301 18.999 -4
s4.33301 -8.66699 3 -18l-27 -191c19.333 7.33301 38.5 13.166 57.5 17.499s39.167 6.5 60.5 6.5c34.667 0 63.667 -5.16699 87 -15.5s42 -24.666 56 -42.999s24 -40 30 -65s9 -52.167 9 -81.5c0 -43.333 -5.5 -85.833 -16.5 -127.5s-28.667 -78.667 -53 -111
s-56.333 -58.5 -96 -78.5s-87.834 -30 -144.501 -30zM340.001 386.001c-6 0 -15.668 -1.5 -29.001 -4.5s-27.666 -8.16699 -42.999 -15.5l-32 -216c8 -2.66699 17.333 -4.5 28 -5.5s18.667 -1.5 24 -1.5c34 0 61.667 14.333 83 43s32 69.667 32 123c0 51.333 -21 77 -63 77z
" />
    <glyph glyph-name="c" unicode="c" horiz-adv-x="518" 
d="M338 378c-35.333 0 -60.833 -12.833 -76.5 -38.5s-23.5 -60.5 -23.5 -104.5c0 -26 5 -46.167 15 -60.5s29.667 -21.5 59 -21.5c20 0 39.5 2 58.5 6s36.5 8.33301 52.5 13c7.33301 2 13.166 3 17.499 3s7.16602 -4.66699 8.49902 -14l32 -99
c1.33301 -7.33301 2 -13.166 2 -17.499s-5.33301 -9.16602 -16 -14.499c-16 -8 -32.833 -14.667 -50.5 -20s-35.167 -9.5 -52.5 -12.5s-34.166 -5.16699 -50.499 -6.5s-31.166 -2 -44.499 -2c-144 0 -216 74.333 -216 223c0 58 6.66699 107.667 20 149s32 75.166 56 101.499
s52.833 45.833 86.5 58.5s70.834 19 111.501 19c27.333 0 55.166 -2.83301 83.499 -8.5s53.166 -13.167 74.499 -22.5c7.33301 -3.33301 11.833 -7 13.5 -11s0.833984 -11 -2.49902 -21l-32 -101c-3.33301 -10 -8 -14.667 -14 -14s-14 2 -24 4
c-18.667 3.33301 -35.5 6.16602 -50.5 8.49902s-27.5 3.5 -37.5 3.5z" />
    <glyph glyph-name="d" unicode="d" horiz-adv-x="614" 
d="M342 386c-11.333 0 -23.1689 -2.5 -35.502 -7.5s-23.666 -13.5 -33.999 -25.5s-19 -28.333 -26 -49s-10.5 -47 -10.5 -79c0 -28 7 -48.667 21 -62s33.667 -20 59 -20c5.33301 0 13.333 0.5 24 1.5s20.667 2.83301 30 5.5l32 228c-11.333 3.33301 -22.666 5.5 -33.999 6.5
s-20 1.5 -26 1.5zM448.997 708c1.33301 8.66699 3.83594 14.5 7.50293 17.5s10.5 4.5 20.5 4.5h127c8.66699 0 14.667 -1.33301 18 -4s4.33301 -8.66699 3 -18l-88 -639c-1.33301 -8 -3.33301 -15 -6 -21s-9.33398 -11.667 -20.001 -17
c-32.667 -15.333 -69 -26.166 -109 -32.499s-78.667 -9.5 -116 -9.5c-44.667 0 -82 5.5 -112 16.5s-54 26.167 -72 45.5s-30.833 42.166 -38.5 68.499s-11.5 55.166 -11.5 86.499c0 52 6 98.833 18 140.5s29.667 76.834 53 105.501s51.833 50.667 85.5 66s72.5 23 116.5 23
c21.333 0 38.666 -0.833008 51.999 -2.5s28.666 -4.16699 45.999 -7.5z" />
    <glyph glyph-name="e" unicode="e" horiz-adv-x="575" 
d="M332 397c-20.667 0 -37.832 -6.5 -51.499 -19.5s-22.834 -33.833 -27.501 -62.5c4 -0.666992 7.83301 -1 11.5 -1h12.5c38.667 0 64.667 4.16699 78 12.5s20 20.5 20 36.5c0 8.66699 -3 16.5 -9 23.5s-17.333 10.5 -34 10.5zM265.002 -11
c-40 0 -73.668 4.49707 -101.001 13.4971s-49.5 22.167 -66.5 39.5s-29.167 38.666 -36.5 63.999s-11 54.666 -11 87.999c0 112.667 25.5 198.5 76.5 257.5s122.5 88.5 214.5 88.5c28 0 55 -2.5 81 -7.5s48.833 -13.5 68.5 -25.5s35.334 -28 47.001 -48s17.5 -45 17.5 -75
c0 -59.333 -20.667 -104.166 -62 -134.499s-101 -45.5 -179 -45.5c-12 0 -24.5 0.333008 -37.5 1s-26.167 1.66699 -39.5 3c0 -2.66699 -0.166992 -5 -0.5 -7s-0.5 -4.33301 -0.5 -7c0 -12 2 -21.667 6 -29s9.5 -12.666 16.5 -15.999s15.5 -5.5 25.5 -6.5
s21.333 -1.5 34 -1.5c16.667 0 33.167 1.83301 49.5 5.5s34.833 8.83398 55.5 15.501c9.33301 3.33301 15.5 4.33301 18.5 3s5.5 -4.66602 7.5 -9.99902l38 -94c2 -6.66699 1.66699 -11.667 -1 -15s-6.66699 -6.66602 -12 -9.99902c-13.333 -8 -29 -15 -47 -21
s-36.833 -11 -56.5 -15s-38.667 -6.83301 -57 -8.5s-34.5 -2.5 -48.5 -2.5z" />
    <glyph glyph-name="f" unicode="f" horiz-adv-x="436" 
d="M461 595c-2.66699 -7.33301 -5.5 -11.333 -8.5 -12s-7.83301 -0.333984 -14.5 0.999023c-8.66699 1.33301 -19.5 2.83301 -32.5 4.5s-23.167 2.5 -30.5 2.5c-19.333 0 -31.833 -3.83301 -37.5 -11.5s-9.16699 -16.167 -10.5 -25.5l-5 -29h114
c5.33301 0 9.16602 -0.833008 11.499 -2.5s2.83301 -5.83398 1.5 -12.501l-14 -102c-1.33301 -5.33301 -2.83301 -9.16602 -4.5 -11.499s-7.16699 -3.5 -16.5 -3.5h-110l-74 -528c-1.33301 -12 -4.33301 -20.167 -9 -24.5s-10.334 -7.5 -17.001 -9.5l-132 -41
c-6 -2 -11.833 -1.66699 -17.5 1s-7.83398 8.66699 -6.50098 18l81 584h-72c-7.33301 0 -11.166 1.5 -11.499 4.5s-0.166016 7.16699 0.500977 12.5l12 81c0.666992 6 2.16699 10.667 4.5 14s7.5 6 15.5 8l70 16l7 50c3.33301 22.667 9 44 17 64s19.333 37.5 34 52.5
s32.667 26.667 54 35s47 12.5 77 12.5c4.66699 0 12.334 -0.166992 23.001 -0.5s22.667 -1.33301 36 -3s27 -3.66699 41 -6s26.667 -5.5 38 -9.5c8.66699 -2.66699 13.167 -5.66699 13.5 -9s-0.166992 -7.66602 -1.5 -12.999z" />
    <glyph glyph-name="g" unicode="g" horiz-adv-x="614" 
d="M349 383c-14 0 -27.8311 -2.16602 -41.498 -6.49902s-25.834 -11.833 -36.501 -22.5s-19.334 -25.5 -26.001 -44.5s-10 -42.833 -10 -71.5c0 -29.333 6.83301 -48.833 20.5 -58.5s32.167 -14.5 55.5 -14.5c6 0 15.5 0.666992 28.5 2s24.167 3.66602 33.5 6.99902l28 202
c-8 2.66699 -17.333 4.5 -28 5.5s-18.667 1.5 -24 1.5zM524.002 -2.99902c-10.667 -72 -37.335 -126.833 -80.002 -164.5s-102.667 -56.5 -180 -56.5c-16 0 -32.5 0.833008 -49.5 2.5s-33.833 4 -50.5 7s-33 6.66699 -49 11s-30.333 8.83301 -43 13.5
c-10 4.66699 -15 9.5 -15 14.5s0.666992 9.5 2 13.5l30 90c2.66699 7.33301 6 12.166 10 14.499s11 2.16602 21 -0.500977c17.333 -4.66699 36.166 -9 56.499 -13s39.5 -6 57.5 -6c20.667 0 37.834 1.66699 51.501 5s24.834 8.83301 33.501 16.5s15.5 17.834 20.5 30.501
s8.83301 28.667 11.5 48c-14 -4 -29.667 -7.16699 -47 -9.5s-36.666 -3.5 -57.999 -3.5c-34.667 0 -64.167 4.83301 -88.5 14.5s-44.333 23.5 -60 41.5s-27 39.667 -34 65s-10.5 53.666 -10.5 84.999c0 48 6 91.833 18 131.5s30.5 73.5 55.5 101.5s56.333 49.667 94 65
s82.167 23 133.5 23c18.667 0 37.834 -0.833008 57.501 -2.5s39 -4.16699 58 -7.5s37.167 -7.66602 54.5 -12.999s33 -11.666 47 -18.999c9.33301 -5.33301 15.166 -11 17.499 -17s2.83301 -13 1.5 -21z" />
    <glyph glyph-name="h" unicode="h" horiz-adv-x="621" 
d="M535 19c-1.33301 -8 -3.16895 -13.166 -5.50195 -15.499s-9.16602 -3.5 -20.499 -3.5h-130c-16 0 -23 6.33301 -21 19l40 281c1.33301 10.667 2.5 21.167 3.5 31.5s0.166992 19.666 -2.5 27.999s-8.16699 15 -16.5 20s-20.833 7.5 -37.5 7.5
c-4 0 -9.33301 -0.166992 -16 -0.5s-13.834 -1 -21.501 -2l-23 -3c-7.66699 -1 -14.167 -2.5 -19.5 -4.5l-50 -358c-1.33301 -8 -3.16602 -13.167 -5.49902 -15.5s-9.16602 -3.5 -20.499 -3.5h-129c-15.333 -0 -22 6.33301 -20 19l97 691
c1.33301 7.33301 3.66602 12.5 6.99902 15.5s9 4.5 17 4.5h130c11.333 0 18 -1.33301 20 -4s2.33301 -8 1 -16l-25 -182c8 2 17.167 3.83301 27.5 5.5s21 3 32 4s21.333 1.83301 31 2.5s17.834 1 24.501 1c68.667 0 117.667 -17.833 147 -53.5s39.333 -87.5 30 -155.5
l-44 -313v0z" />
    <glyph glyph-name="i" unicode="i" horiz-adv-x="334" 
d="M252 758c23.333 0 42.8311 -7.66602 58.498 -22.999s23.5 -35 23.5 -59c0 -16 -3.16699 -30.667 -9.5 -44s-14.666 -24.833 -24.999 -34.5s-22 -17.167 -35 -22.5s-26.167 -8 -39.5 -8c-23.333 0 -42.666 7.5 -57.999 22.5s-23 34.5 -23 58.5c0 15.333 3 29.666 9 42.999
s14 25 24 35s21.5 17.833 34.5 23.5s26.5 8.5 40.5 8.5zM231.998 20.001c-1.33301 -8 -3.16602 -13.333 -5.49902 -16s-8.83301 -4 -19.5 -4h-129c-15.333 0 -22 6.66699 -20 20l68 485c1.33301 7.33301 3.66602 12.5 6.99902 15.5s9.33301 4.5 18 4.5h129
c10.667 0 17 -1.33301 19 -4s2.33301 -8 1 -16z" />
    <glyph glyph-name="j" unicode="j" horiz-adv-x="335" 
d="M254 758c23.333 0 42.8311 -7.66602 58.498 -22.999s23.5 -35 23.5 -59c0 -16 -3.16699 -30.667 -9.5 -44s-14.666 -24.833 -24.999 -34.5s-22 -17.167 -35 -22.5s-26.167 -8 -39.5 -8c-23.333 0 -42.666 7.5 -57.999 22.5s-23 34.5 -23 58.5c0 15.333 3 29.666 9 42.999
s14 25 24 35s21.5 17.833 34.5 23.5s26.5 8.5 40.5 8.5zM240.998 74.001c-6.66699 -48 -16.834 -88.333 -30.501 -121s-30.667 -60.167 -51 -82.5s-44.5 -40.5 -72.5 -54.5s-60 -26 -96 -36c-13.333 -3.33301 -22 -4.83301 -26 -4.5s-7.66699 4.83301 -11 13.5l-35 101
c-4 11.333 -4.66699 18.833 -2 22.5s8.66699 7.5 18 11.5c22 9.33301 40.833 19 56.5 29s28.667 21.333 39 34s18.333 27.167 24 43.5s10.167 35.5 13.5 57.5l58 417c1.33301 7.33301 3.66602 12.5 6.99902 15.5s9.33301 4.5 18 4.5h131c10.667 0 16.834 -1.33301 18.501 -4
s1.83398 -8 0.500977 -16z" />
    <glyph glyph-name="k" unicode="k" horiz-adv-x="570" 
d="M437 345l106.999 -320.002c4.66699 -16.667 -3 -25 -23 -25h-132c-9.33301 0 -16.5 1.5 -21.5 4.5s-8.5 9.5 -10.5 19.5l-56 187l-68 -70c-1.33301 -11.333 -2.66602 -21 -3.99902 -29s-2.5 -16.167 -3.5 -24.5s-2.33301 -17.666 -4 -27.999l-6.5 -38.5
c-1.33301 -8 -3.16602 -13.5 -5.49902 -16.5s-9.16602 -4.5 -20.499 -4.5h-129c-15.333 0 -22 7 -20 21l98 691c1.33301 7.33301 3.66602 12.5 6.99902 15.5s9 4.5 17 4.5h131c11.333 0 17.833 -1.33301 19.5 -4s1.83398 -8 0.500977 -16l-47 -333l3 -2l118 129
c8 7.33301 14.667 12.5 20 15.5s13.666 4.5 24.999 4.5h149c13.333 0 20.166 -2.66699 20.499 -8s-3.16699 -11.666 -10.5 -18.999z" />
    <glyph glyph-name="l" unicode="l" horiz-adv-x="352" 
d="M339 26c0.666992 -6.66699 -0.50293 -11.334 -3.50293 -14.001s-8.83301 -5.33398 -17.5 -8.00098c-18.667 -5.33301 -39 -9.16602 -61 -11.499s-43 -3.5 -63 -3.5c-26 0 -48.333 2.5 -67 7.5s-33.5 14.167 -44.5 27.5s-18 31.333 -21 54s-1.83301 51.667 3.5 87l80 545
c1.33301 10.667 4.33301 16.667 9 18s10.667 2 18 2h124c8 0 13.833 -1.16699 17.5 -3.5s4.83398 -7.5 3.50098 -15.5l-73 -523c-2 -16 -1.5 -27.667 1.5 -35s12.833 -11 29.5 -11c4.66699 0 10.334 0.166992 17.001 0.5s12.667 0.833008 18 1.5
c7.33301 0.666992 11.833 0.333984 13.5 -0.999023s2.83398 -5.33301 3.50098 -12z" />
    <glyph glyph-name="m" unicode="m" horiz-adv-x="929" 
d="M215 20c-1.33301 -8 -3.1709 -13.334 -5.50391 -16.001s-9.16602 -4 -20.499 -4h-129c-15.333 0 -22 6.66699 -20 20l61 429c2.66699 20.667 8.16699 37.667 16.5 51s24.166 22.666 47.499 27.999c6.66699 1.33301 16.5 2.83301 29.5 4.5s26.833 3 41.5 4
s29.334 1.83301 44.001 2.5s27.667 1 39 1c40 0 75.333 -3.5 106 -10.5s56.667 -18.167 78 -33.5c10.667 6.66699 22.834 12.834 36.501 18.501s28 10.5 43 14.5s30 7 45 9s29.167 3 42.5 3c44 0 80.667 -6.16699 110 -18.5s52.333 -29.5 69 -51.5s27.5 -48.167 32.5 -78.5
s5.16699 -63.833 0.5 -100.5l-39 -272c-1.33301 -8 -3.16602 -13.333 -5.49902 -16s-8.83301 -4 -19.5 -4h-129c-15.333 0 -22 6.66699 -20 20l36 252c2.66699 18 3.83398 34.333 3.50098 49s-3.16602 27 -8.49902 37s-13.333 17.667 -24 23s-25.334 8 -44.001 8
c-3.33301 0 -7.83301 -0.166992 -13.5 -0.5s-11.667 -1 -18 -2s-12.5 -2.16699 -18.5 -3.5s-11 -2.66602 -15 -3.99902c3.33301 -28 2.33301 -60.667 -3 -98l-37 -261c-1.33301 -8 -3.16602 -13.333 -5.49902 -16s-8.83301 -4 -19.5 -4h-131c-16 0 -23 6.66699 -21 20
l39 273c4.66699 34 2.16699 59.5 -7.5 76.5s-31.834 25.5 -66.501 25.5c-5.33301 0 -12.5 -0.333008 -21.5 -1s-17.833 -1.66699 -26.5 -3l-52 -371v0z" />
    <glyph glyph-name="n" unicode="n" horiz-adv-x="621" 
d="M321 395c-6 0 -14.167 -0.331055 -24.5 -0.998047s-19.833 -1.66699 -28.5 -3l-52 -371c-1.33301 -8 -3.16602 -13.333 -5.49902 -16s-9.16602 -4 -20.499 -4h-129c-15.333 0 -22 6.66699 -20 20l61 429c2.66699 20.667 8.16699 37.667 16.5 51
s24.166 22.666 47.499 27.999c6.66699 1.33301 16.667 2.83301 30 4.5s27.666 3 42.999 4s30.666 1.83301 45.999 2.5s28.666 1 39.999 1c47.333 0 88.166 -4.5 122.499 -13.5s61.833 -24 82.5 -45s34.334 -48.333 41.001 -82s6.66699 -74.834 0 -123.501l-36 -256
c-1.33301 -8 -3.16602 -13.333 -5.49902 -16s-9.16602 -4 -20.499 -4h-130c-16 0 -23 6.66699 -21 20l39 273c4.66699 34 2 59.5 -8 76.5s-32.667 25.5 -68 25.5z" />
    <glyph glyph-name="o" unicode="o" horiz-adv-x="600" 
d="M347 540c76.667 0 133.331 -19.666 169.998 -58.999s55 -94.666 55 -165.999c0 -49.333 -6.5 -94 -19.5 -134s-32 -74.333 -57 -103s-56 -50.667 -93 -66s-79.167 -23 -126.5 -23c-79.333 0 -136.666 18.667 -171.999 56s-53 88.666 -53 153.999
c0 54 6.83301 102 20.5 144s33.334 77.667 59.001 107s56.667 51.666 93 66.999s77.5 23 123.5 23zM328.997 386.001c-27.333 0 -49.667 -13.667 -67 -41s-26 -68.333 -26 -123c0 -28 5 -48.167 15 -60.5s24.667 -18.5 44 -18.5c27.333 0 49.5 14.833 66.5 44.5
s25.5 69.5 25.5 119.5c0 52.667 -19.333 79 -58 79z" />
    <glyph glyph-name="p" unicode="p" horiz-adv-x="614" 
d="M321 381c-5.33301 0 -13.332 -0.499023 -23.999 -1.49902s-20.667 -2.83301 -30 -5.5l-31 -219c11.333 -3.33301 22.666 -5.5 33.999 -6.5s20 -1.5 26 -1.5c30 0 55 13 75 39s30 64 30 114c0 31.333 -7 52.666 -21 63.999s-33.667 17 -59 17zM187.001 -187.999
c-1.33301 -8 -3.16895 -12.998 -5.50195 -14.998s-9.16602 -3 -20.499 -3h-130c-8 0 -13.667 1.16699 -17 3.5s-4.33301 7.16602 -3 14.499l90 643c1.33301 8 3.83301 15 7.5 21s11.167 11.667 22.5 17c32 15.333 68 26.166 108 32.499s78.667 9.5 116 9.5
c44.667 0 81.667 -5.5 111 -16.5s52.666 -26.5 69.999 -46.5s29.5 -43.5 36.5 -70.5s10.5 -56.5 10.5 -88.5c0 -44 -5.5 -85.333 -16.5 -124s-27.667 -72.667 -50 -102s-50.5 -52.5 -84.5 -69.5s-73.667 -25.5 -119 -25.5c-21.333 0 -38.666 0.833008 -51.999 2.5
s-28.666 4.16699 -45.999 7.5z" />
    <glyph glyph-name="q" unicode="q" horiz-adv-x="614" 
d="M349 384c-31.333 0 -57.833 -12.3311 -79.5 -36.998s-32.5 -64.334 -32.5 -119.001c0 -29.333 5.83301 -50.5 17.5 -63.5s28.834 -19.5 51.501 -19.5c6 0 15.667 0.666992 29 2s24.666 3.66602 33.999 6.99902l32 223c-8 2.66699 -17.333 4.5 -28 5.5
s-18.667 1.5 -24 1.5zM244 -9.99805c-35.333 0 -65.1689 5.16992 -89.502 15.5029s-44 24.666 -59 42.999s-26 40.333 -33 66s-10.5 54.167 -10.5 85.5c0 58.667 6.83301 109.167 20.5 151.5s33.334 77.166 59.001 104.499s57.167 47.333 94.5 60s79.666 19 126.999 19
c37.333 0 75.5 -3.33301 114.5 -10s72.5 -17.334 100.5 -32.001c9.33301 -5.33301 15 -11 17 -17s2.33301 -13 1 -21l-87 -640c-1.33301 -8 -3.16602 -13.5 -5.49902 -16.5s-8.83301 -4.5 -19.5 -4.5h-131c-15.333 0 -22.333 7 -21 21l27 188
c-14 -4 -29.667 -7.16699 -47 -9.5s-36.666 -3.5 -57.999 -3.5z" />
    <glyph glyph-name="r" unicode="r" horiz-adv-x="427" 
d="M98 398c2.66699 21.333 5.33301 39.6699 8 55.0029s7.33398 28.166 14.001 38.499s16.167 18.666 28.5 24.999s29.833 10.833 52.5 13.5c42 5.33301 82 8.16602 120 8.49902s76.333 -0.166992 115 -1.5c12.667 -0.666992 20.667 -2.66699 24 -6s4 -10.333 2 -21l-20 -111
c-1.33301 -9.33301 -4.5 -14.833 -9.5 -16.5s-12.5 -1.83398 -22.5 -0.500977c-16 2.66699 -29.833 4.66699 -41.5 6s-22.834 2.5 -33.501 3.5s-20.834 1.83301 -30.501 2.5s-20.5 1.33398 -32.5 2.00098l-53 -371c-1.33301 -10.667 -4.16602 -17.5 -8.49902 -20.5
s-11.833 -4.5 -22.5 -4.5h-118c-8.66699 0 -15.167 1.5 -19.5 4.5s-5.5 9.83301 -3.5 20.5l51 373v0z" />
    <glyph glyph-name="s" unicode="s" horiz-adv-x="501" 
d="M236 134c18.667 0 30.666 3.16406 35.999 9.49707s8 13.166 8 20.499c0 6 -4 12 -12 18s-24.333 14.667 -49 26c-44.667 19.333 -79.167 42.333 -103.5 69s-36.833 58.334 -37.5 95.001c0 24.667 4.66699 47.334 14 68.001s23 38.334 41 53.001s40.167 26.167 66.5 34.5
s56.5 12.5 90.5 12.5c32 0 64.167 -3.5 96.5 -10.5s59.166 -16.167 80.499 -27.5c8 -4.66699 12.333 -8.66699 13 -12s-1.33301 -10.666 -6 -21.999l-28 -71c-4 -9.33301 -8 -14.833 -12 -16.5s-10.333 -1.16699 -19 1.5c-21.333 6 -42.166 11.167 -62.499 15.5
s-41.166 6.5 -62.499 6.5c-6.66699 0 -12 -1.16699 -16 -3.5s-7 -5 -9 -8s-3.33301 -5.83301 -4 -8.5s-1 -4.33398 -1 -5.00098c0 -8 3.83301 -14.667 11.5 -20s21.5 -12.333 41.5 -21c22.667 -9.33301 43.5 -19.333 62.5 -30s35.167 -22.834 48.5 -36.501
s23.666 -29.167 30.999 -46.5s11 -37.666 11 -60.999c0 -29.333 -5.66699 -55 -17 -77s-27.166 -40.333 -47.499 -55s-44.666 -25.5 -72.999 -32.5s-59.5 -10.5 -93.5 -10.5c-18 0 -36.333 1 -55 3s-37 5.33301 -55 10s-35.167 10.334 -51.5 17.001s-30.833 15 -43.5 25
c-5.33301 3.33301 -7.83301 7 -7.5 11s2.16602 10 5.49902 18l37 83c4 9.33301 8 14.5 12 15.5s9.66699 -0.166992 17 -3.5c27.333 -11.333 53 -19.833 77 -25.5s45.667 -8.5 65 -8.5z" />
    <glyph glyph-name="t" unicode="t" horiz-adv-x="441" 
d="M419 29c-0.666992 -4.66699 -1.33203 -8.49902 -1.99902 -11.499s-5 -5.83301 -13 -8.5c-28 -8.66699 -56 -14.167 -84 -16.5s-52.667 -3.5 -74 -3.5c-58.667 0 -100.334 13 -125.001 39s-33.667 62 -27 108l36 260h-68c-8 0 -12.5 2.16699 -13.5 6.5
s-1.16699 9.16602 -0.5 14.499l10 71c1.33301 6.66699 2.83301 11.167 4.5 13.5s6.5 4.5 14.5 6.5l71 18l13 92c1.33301 9.33301 4.33301 15.833 9 19.5s10.334 6.5 17.001 8.5l135 41c7.33301 2 13 1.5 17 -1.5s5.33301 -8.83301 4 -17.5l-20 -143h108
c8.66699 0 13.5 -1.33301 14.5 -4s0.833008 -7.33398 -0.5 -14.001l-13 -90c-1.33301 -7.33301 -2.5 -12.666 -3.5 -15.999s-6.16699 -5 -15.5 -5h-108l-29 -211c-2.66699 -16.667 -0.333984 -28 6.99902 -34s20 -9 38 -9c10 0 21.5 0.833008 34.5 2.5
s23.5 3.16699 31.5 4.5c11.333 0.666992 17.333 -4 18 -14l14 -106v0z" />
    <glyph glyph-name="u" unicode="u" horiz-adv-x="612" 
d="M315 132c6 0 14.165 0.333008 24.498 1s19.833 1.66699 28.5 3l51 369c1.33301 8 3.33301 13.333 6 16s9.66699 4 21 4h129c14.667 0 21 -6.66699 19 -20l-60 -427c-2.66699 -21.333 -8.16699 -38.5 -16.5 -51.5s-24.166 -22.167 -47.499 -27.5
c-6.66699 -1.33301 -16.667 -2.83301 -30 -4.5s-27.666 -3 -42.999 -4s-30.666 -1.83301 -45.999 -2.5s-28.333 -1 -39 -1c-50 0 -91.833 4.5 -125.5 13.5s-60 24 -79 45s-31.333 48.167 -37 81.5s-4.83398 74.666 2.49902 123.999l35 254c1.33301 8 3.33301 13.333 6 16
s9.33398 4 20.001 4h131c15.333 0 22 -6.66699 20 -20l-38 -271c-2 -17.333 -3 -32.333 -3 -45s2.33301 -23.167 7 -31.5s12.167 -14.666 22.5 -18.999s24.166 -6.5 41.499 -6.5z" />
    <glyph glyph-name="v" unicode="v" horiz-adv-x="578" 
d="M397 53c-6 -13.333 -11.999 -23.8311 -17.999 -31.498s-12.333 -13.334 -19 -17.001s-13.834 -6 -21.501 -7s-16.167 -1.5 -25.5 -1.5h-96c-17.333 0 -30.666 3.66699 -39.999 11s-16.333 22.666 -21 45.999l-98 449c-2 9.33301 -1.5 15.5 1.5 18.5s8.5 4.5 16.5 4.5h129
c13.333 0 22.166 -1.16699 26.499 -3.5s7.5 -8.83301 9.5 -19.5l22 -168l18 -166h6l66 170l66 161c4.66699 10.667 9 17.667 13 21s13.333 5 28 5h142c12.667 0 16 -6.33301 10 -19z" />
    <glyph glyph-name="w" unicode="w" horiz-adv-x="801" 
d="M415 278l-52.0039 -110l-54 -116c-7.33301 -13.333 -13.666 -23.666 -18.999 -30.999s-10.666 -12.833 -15.999 -16.5s-11.333 -6 -18 -7s-14.667 -1.5 -24 -1.5h-63c-17.333 0 -30.5 3.66699 -39.5 11s-15.167 22.666 -18.5 45.999l-55 449
c-1.33301 9.33301 -0.166016 15.5 3.50098 18.5s9.5 4.5 17.5 4.5h133c10 0 17.5 -0.5 22.5 -1.5s7.83301 -7.16699 8.5 -18.5l5 -128l3 -155h6l50 122l43 99c10 20.667 19.5 34.5 28.5 41.5s22.5 10.5 40.5 10.5h66c17.333 0 28.5 -4.5 33.5 -13.5s9.5 -21.167 13.5 -36.5
l18 -111l14 -107h6l44 162l35 113c3.33301 11.333 6.66602 17.833 9.99902 19.5s10 2.5 20 2.5l143 1c8.66699 0 14.334 -1.5 17.001 -4.5s2.33398 -9.16699 -0.999023 -18.5l-183 -449c-10 -23.333 -20.333 -38.666 -31 -45.999s-24.667 -11 -42 -11h-59
c-9.33301 0 -17.333 0.5 -24 1.5s-12.5 3.33301 -17.5 7s-9.16699 9.16699 -12.5 16.5s-6.33301 17.666 -9 30.999l-20 115l-18 111h-5z" />
    <glyph glyph-name="x" unicode="x" horiz-adv-x="536" 
d="M274 152l-79.9971 -123c-6.66699 -9.33301 -13.167 -16.5 -19.5 -21.5s-15.5 -7.5 -27.5 -7.5h-148c-9.33301 0 -14.833 2.5 -16.5 7.5s0.166016 10.833 5.49902 17.5l196 252l-114 229c-2 4 -2.16699 8 -0.5 12s6.16699 6 13.5 6h140c11.333 0 19.5 -1.5 24.5 -4.5
s9.16699 -9.16699 12.5 -18.5l33 -100l59 100c5.33301 9.33301 11.166 15.5 17.499 18.5s14.833 4.5 25.5 4.5h156c7.33301 0 11.5 -2 12.5 -6s-0.166992 -8 -3.5 -12l-180 -229l127 -252c3.33301 -6.66699 3.66602 -12.5 0.999023 -17.5s-9 -7.5 -19 -7.5h-132
c-12 0 -20.5 2.5 -25.5 7.5s-9.16699 12.167 -12.5 21.5z" />
    <glyph glyph-name="y" unicode="y" horiz-adv-x="586" 
d="M614 524c14 0 17.3369 -6.33203 10.0039 -18.999l-283 -595c-9.33301 -20 -19.5 -38 -30.5 -54s-23.833 -29.5 -38.5 -40.5s-31.5 -19.5 -50.5 -25.5s-41.5 -9 -67.5 -9c-16.667 0 -34.834 1.16699 -54.501 3.5s-40.167 6.16602 -61.5 11.499
c-8.66699 2 -13.667 4.66699 -15 8s-1 9.66602 1 18.999l23 96c2 9.33301 4.83301 14.166 8.5 14.499s9.83398 -0.166992 18.501 -1.5c10 -1.33301 18.5 -2.33301 25.5 -3s13.833 -1 20.5 -1c11.333 0 20.833 0.666992 28.5 2s14.5 4 20.5 8s11.5 9.66699 16.5 17
s10.5 17.333 16.5 30l21 44h-30c-17.333 0 -28.5 3.33301 -33.5 10s-9.16699 18.334 -12.5 35.001l-89 427c-2.66699 9.33301 -1.83398 15.5 2.49902 18.5s9.5 4.5 15.5 4.5h137c13.333 0 22.166 -1.16699 26.499 -3.5s7.16602 -8.83301 8.49902 -19.5l17 -168l18 -166h6
l67 170l63 160c4.66699 10.667 9.16699 17.834 13.5 21.501s13.166 5.5 26.499 5.5h155z" />
    <glyph glyph-name="z" unicode="z" horiz-adv-x="516" 
d="M513 437c-1.33301 -11.333 -4.16602 -22.002 -8.49902 -32.002s-11.166 -19.667 -20.499 -29l-223 -223l3 -6h199c6.66699 0 11.334 -1.16699 14.001 -3.5s3.33398 -7.83301 2.00098 -16.5l-14 -105c-1.33301 -9.33301 -3.33301 -15.333 -6 -18s-7.66699 -4 -15 -4h-393
c-16 0 -28.167 3.83301 -36.5 11.5s-11.5 19.167 -9.5 34.5l6 41c1.33301 10.667 4.16602 21.167 8.49902 31.5s12.833 21.833 25.5 34.5l226 225l-4 5h-171c-8.66699 0 -13.834 1.16699 -15.501 3.5s-1.83398 7.83301 -0.500977 16.5l14 101
c1.33301 8.66699 3.83301 14.334 7.5 17.001s8.83398 4 15.501 4h359c15.333 0 27.166 -2.16699 35.499 -6.5s11.166 -15.166 8.49902 -32.499z" />
    <glyph glyph-name="braceleft" unicode="{" horiz-adv-x="452" 
d="M367 -72c-0.666992 -12 -6.33203 -17.6631 -16.999 -16.9961c-46 0 -84 5.5 -114 16.5s-53.167 26.167 -69.5 45.5s-27 42.166 -32 68.499s-5.5 55.166 -1.5 86.499l9 71c3.33301 23.333 1.5 39.333 -5.5 48s-18.833 15 -35.5 19c-12 2.66699 -17 9.66699 -15 21l10 67
c0.666992 4.66699 2.33398 9.16699 5.00098 13.5s7 7.5 13 9.5c10 2.66699 18.667 5.5 26 8.5s13.333 6.66699 18 11s8.5 9.5 11.5 15.5s5.5 14 7.5 24l19 94c6 30.667 12.5 58.334 19.5 83.001s18.667 45.167 35 61.5s39.5 28.166 69.5 35.499s71 9.33301 123 6
c13.333 -1.33301 19.666 -6.33301 18.999 -15l-9 -88c-1.33301 -9.33301 -3.83301 -15.333 -7.5 -18s-8.16699 -4.33398 -13.5 -5.00098c-16 -1.33301 -29 -4.5 -39 -9.5s-18 -11.667 -24 -20s-10.5 -18.5 -13.5 -30.5s-5.83301 -26 -8.5 -42l-13 -73
c-4 -23.333 -12.333 -43.5 -25 -60.5s-33.667 -29.833 -63 -38.5l-1 -3c14 -4.66699 25.333 -10 34 -16s15.167 -13.667 19.5 -23s6.83301 -20.833 7.5 -34.5s-0.333008 -30.5 -3 -50.5l-10 -78c-1.33301 -8.66699 -1.66602 -17 -0.999023 -25s3.5 -15.333 8.5 -22
s12.667 -12.334 23 -17.001s25.166 -8 44.499 -10c9.33301 -0.666992 13.666 -5 12.999 -13l-14 -96v0z" />
    <glyph glyph-name="bar" unicode="|" horiz-adv-x="305" 
d="M254 -163c0 -8 -1.16699 -13.833 -3.5 -17.5s-9.16602 -5.5 -20.499 -5.5h-89c-15.333 0 -23 7.66699 -23 23v940c0 15.333 7.66699 23 23 23h89c11.333 0 18.166 -1.83301 20.499 -5.5s3.5 -9.5 3.5 -17.5v-940v0z" />
    <glyph glyph-name="braceright" unicode="}" horiz-adv-x="452" 
d="M141 702c0.666992 12 6.33203 17.666 16.999 16.999c46 0 84 -5.5 114 -16.5s53.167 -26.167 69.5 -45.5s27 -42.333 32 -69s5.5 -55.334 1.5 -86.001l-9 -58c-3.33301 -23.333 -1.5 -39.333 5.5 -48s18.833 -15 35.5 -19c12 -2.66699 17 -9.66699 15 -21l-9 -67
c-0.666992 -4.66699 -2.33398 -9.16699 -5.00098 -13.5s-7 -7.5 -13 -9.5c-20.667 -6 -35.5 -12.5 -44.5 -19.5s-15.5 -20.167 -19.5 -39.5l-19 -107c-5.33301 -26 -11.833 -51 -19.5 -75s-20.167 -44.667 -37.5 -62s-41 -30.666 -71 -39.999s-69.667 -12.333 -119 -9
c-13.333 1.33301 -19.666 6.33301 -18.999 15l10 92c1.33301 9.33301 3.83301 15.333 7.5 18s8.16699 4.33398 13.5 5.00098c16 1.33301 29 4.5 39 9.5s18 11.667 24 20s10.5 18.5 13.5 30.5s5.83301 26 8.5 42l13 86c4 23.333 12.333 43.5 25 60.5s33.667 29.833 63 38.5
l1 3c-14 4.66699 -25.333 10 -34 16s-15.167 13.667 -19.5 23s-6.83301 20.833 -7.5 34.5s0.333008 30.5 3 50.5l10 65c0.666992 8.66699 0.833984 17 0.500977 25s-3 15.167 -8 21.5s-12.833 12 -23.5 17s-25.334 8.5 -44.001 10.5c-9.33301 0.666992 -13.666 5 -12.999 13
l13 92v0z" />
    <glyph glyph-name="asciitilde" unicode="~" horiz-adv-x="676" 
d="M615 297c-26.667 -34.667 -55.332 -60 -85.999 -76s-61 -24 -91 -24c-17.333 0 -33.833 2.83301 -49.5 8.5s-30.834 11.834 -45.501 18.501s-29.167 12.834 -43.5 18.501s-28.5 8.5 -42.5 8.5c-16 0 -29 -2.5 -39 -7.5s-21.333 -13.833 -34 -26.5
c-4.66699 -4.66699 -8.66699 -7.83398 -12 -9.50098s-7 -0.833984 -11 2.49902l-69 60c-4 3.33301 -5.16699 6.66602 -3.5 9.99902s4.16699 7.33301 7.5 12c24.667 34 51.167 58.5 79.5 73.5s58.166 22.5 89.499 22.5c18 0 35 -2.83301 51 -8.5s31.167 -12 45.5 -19
s28.333 -13.333 42 -19s27.5 -8.5 41.5 -8.5c15.333 0 28.833 3.33301 40.5 10s24.5 16.667 38.5 30c8.66699 9.33301 16 11.333 22 6l70 -61c3.33301 -3.33301 4.83301 -6.66602 4.5 -9.99902s-2.16602 -7 -5.49902 -11z" />
    <glyph glyph-name="exclamdown" unicode="&#xa1;" horiz-adv-x="311" 
d="M205 528c25.333 0 46 -7.83398 62 -23.501s24 -35.5 24 -59.5c0 -15.333 -3.16699 -29.666 -9.5 -42.999s-14.833 -25 -25.5 -35s-22.834 -18 -36.501 -24s-27.834 -9 -42.501 -9c-24.667 0 -45.167 8 -61.5 24s-24.5 35.667 -24.5 59c0 15.333 3.16699 29.833 9.5 43.5
s14.833 25.5 25.5 35.5s22.834 17.833 36.501 23.5s27.834 8.5 42.501 8.5zM196 -156.001c-1.33301 -7.33301 -3.49902 -13.666 -6.49902 -18.999s-11.167 -8 -24.5 -8h-123c-11.333 0 -18.5 2.16699 -21.5 6.5s-3.5 11.166 -1.5 20.499l79 415c2 14.667 11.667 22 29 22h85
c7.33301 0 12.666 -1.5 15.999 -4.5s4.33301 -8.83301 3 -17.5z" />
    <glyph glyph-name="cent" unicode="&#xa2;" horiz-adv-x="676" 
d="M411 378c-35.333 0 -60.833 -12.834 -76.5 -38.501s-23.5 -60.5 -23.5 -104.5c0 -26 5 -46.167 15 -60.5s29.667 -21.5 59 -21.5c20 0 39.5 2 58.5 6s36.5 8.33301 52.5 13c7.33301 2 13.166 3 17.499 3s7.16602 -4.66699 8.49902 -14l32 -99
c1.33301 -7.33301 2 -13.166 2 -17.499s-5.33301 -9.16602 -16 -14.499c-23.333 -12 -48.333 -21 -75 -27s-51.667 -10 -75 -12l-16 -107c-1.33301 -6.66699 -2.83301 -11.5 -4.5 -14.5s-7.16699 -4.5 -16.5 -4.5h-58c-12.667 0 -18.334 6.33301 -17.001 19l16 108
c-112 14.667 -168 88 -168 220c0 54 5.83301 100.833 17.5 140.5s28.167 72.834 49.5 99.501s46.833 47 76.5 61s62.834 22.667 99.501 26l16 102c1.33301 13.333 8.33301 20 21 20h58c9.33301 0 14.833 -1.5 16.5 -4.5s1.83398 -8.16699 0.500977 -15.5l-16 -106
c17.333 -2.66699 33.833 -6.33398 49.5 -11.001s30.167 -9.66699 43.5 -15c7.33301 -3.33301 11.833 -7 13.5 -11s0.833984 -11 -2.49902 -21l-32 -101c-3.33301 -10 -8 -14.667 -14 -14s-14 2 -24 4c-18.667 3.33301 -35.5 6.16602 -50.5 8.49902s-27.5 3.5 -37.5 3.5z" />
    <glyph glyph-name="sterling" unicode="&#xa3;" horiz-adv-x="676" 
d="M352 265c-3.33301 -22 -8.16797 -42.3379 -14.501 -61.0049s-17.166 -37 -32.499 -55h264c8 0 13.333 -0.666992 16 -2s3 -7.66602 1 -18.999l-15 -109c-1.33301 -8.66699 -3.5 -14 -6.5 -16s-8.16699 -3 -15.5 -3h-432c-14 0 -26.833 3.66699 -38.5 11
s-16.167 19.666 -13.5 36.999l5 36c2 13.333 5.33301 25 10 35s13.667 22 27 36c16.667 18 29.834 35 39.501 51s17.167 35.667 22.5 59h-57c-7.33301 0 -12.333 1 -15 3s-3.33398 7.33301 -2.00098 16l10 69c1.33301 8.66699 3.33301 14.5 6 17.5s8 4.5 16 4.5h42
c-1.33301 15.333 -3 29.833 -5 43.5s-3 27.834 -3 42.501c0 38.667 6.5 72 19.5 100s31.167 51.167 54.5 69.5s51.333 32 84 41s68.667 13.5 108 13.5c37.333 0 73.666 -4.16699 108.999 -12.5s65 -19.166 89 -32.499c8.66699 -5.33301 12.834 -10.166 12.501 -14.499
s-3.16602 -13.5 -8.49902 -27.5l-30 -77c-5.33301 -12.667 -10.5 -19.5 -15.5 -20.5s-13.167 0.5 -24.5 4.5c-23.333 8 -43.833 13.333 -61.5 16s-36.167 4 -55.5 4c-17.333 0 -31.5 -3.66699 -42.5 -11s-19.5 -17.666 -25.5 -30.999s-10 -29.166 -12 -47.499
s-2.33301 -38.5 -1 -60.5h125c7.33301 0 12 -0.833008 14 -2.5s2.33301 -8.16699 1 -19.5l-10 -69c-1.33301 -8.66699 -3.33301 -14 -6 -16s-7.33398 -3 -14.001 -3h-119z" />
    <glyph glyph-name="currency" unicode="&#xa4;" horiz-adv-x="542" 
d="M284 502c17.333 0 34.4932 -1.83203 51.4932 -5.49902s33.167 -9.5 48.5 -17.5l29 28.5c8 7.66699 14.333 14.167 19 19.5c12.667 15.333 27.334 14.666 44.001 -2.00098l27.5 -24.5c9 -7.66699 17.833 -16.167 26.5 -25.5c7.33301 -8 11.5 -16.167 12.5 -24.5
s-1.5 -15.5 -7.5 -21.5l-53 -53c6.66699 -14.667 11.834 -29.834 15.501 -45.501s5.5 -32.167 5.5 -49.5c0 -35.333 -7 -68.333 -21 -99l52 -51c6.66699 -6.66699 9.33398 -14 8.00098 -22s-5.66602 -16.333 -12.999 -25l-53 -52c-15.333 -15.333 -30 -15.666 -44 -0.999023
l-51 51c-15.333 -7.33301 -31.333 -13.166 -48 -17.499s-33.667 -6.5 -51 -6.5c-18 0 -34.833 2.16699 -50.5 6.5s-30.5 10.166 -44.5 17.499c-9.33301 -8.66699 -18.333 -18.167 -27 -28.5s-17.667 -19.166 -27 -26.499c-6 -5.33301 -13.167 -7.5 -21.5 -6.5
s-15.5 4.5 -21.5 10.5l-53 55c-10.667 9.33301 -15.5 17.333 -14.5 24s5.16699 13.334 12.5 20.001c8.66699 9.33301 16.834 17.666 24.501 24.999l25.5 24c-9.33301 16 -15.666 32.167 -18.999 48.5s-5 33.833 -5 52.5c0 19.333 1.5 37.166 4.5 53.499
s8.83301 31.833 17.5 46.5l-47 47c-7.33301 7.33301 -12 14.5 -14 21.5s2.66699 15.167 14 24.5l7 7l10 10l15 15l23 23c14 15.333 28 16 42 2l50 -50c28.667 14.667 62.334 22 101.001 22zM279.993 368.001c-12.667 0 -24.667 -2.49902 -36 -7.49902s-21 -11.667 -29 -20
s-14.333 -18 -19 -29s-7 -22.833 -7 -35.5s2.33301 -24.667 7 -36s11.167 -21.166 19.5 -29.499s18 -14.833 29 -19.5s22.833 -7 35.5 -7s24.667 2.33301 36 7s21.166 11.167 29.499 19.5s15 18.166 20 29.499s7.5 23.333 7.5 36c0 12 -2.5 23.667 -7.5 35
s-11.667 21.166 -20 29.499s-18.166 15 -29.499 20s-23.333 7.5 -36 7.5z" />
    <glyph glyph-name="yen" unicode="&#xa5;" horiz-adv-x="676" 
d="M100 331c-7.33301 0 -11.3281 1.33398 -11.9951 4.00098s-0.333984 7.33398 0.999023 14.001l7 54c1.33301 6 2.66602 10.5 3.99902 13.5s5.66602 4.5 12.999 4.5h74l-87 228c-2 4.66699 -1.66699 9.66699 1 15s9 8 19 8h146c13.333 0 21.5 -1.83301 24.5 -5.5
s5.83301 -9.83398 8.5 -18.501l33 -118l34 -129h5l70 131l68 120c4 6.66699 8.16699 11.667 12.5 15s11.166 5 20.499 5h158c6 0 10.333 -0.666992 13 -2s4.16699 -3 4.5 -5s-0.166992 -4.33301 -1.5 -7l-4 -8l-149 -229h73c7.33301 0 11.166 -1.5 11.499 -4.5
s-0.166992 -7.5 -1.5 -13.5l-7 -54c-1.33301 -6.66699 -2.5 -11.334 -3.5 -14.001s-5.16699 -4 -12.5 -4h-523zM616.005 284.001c7.33301 0 11.3301 -1.5 11.9971 -4.5s0.333984 -7.5 -0.999023 -13.5l-8 -54c-1.33301 -6.66699 -2.33301 -11.334 -3 -14.001
s-4.66699 -4 -12 -4h-168l-25 -175c-1.33301 -7.33301 -3.16602 -12.333 -5.49902 -15s-9.16602 -4 -20.499 -4h-135c-15.333 -0 -22 6.33301 -20 19l25 175h-174c-7.33301 0 -11.5 1.33301 -12.5 4s-0.833008 7.33398 0.5 14.001l8 54c1.33301 6 2.5 10.5 3.5 13.5
s5.16699 4.5 12.5 4.5h523z" />
    <glyph glyph-name="brokenbar" unicode="&#xa6;" horiz-adv-x="305" 
d="M254 -163c0 -8 -1.16699 -13.833 -3.5 -17.5s-9.16602 -5.5 -20.499 -5.5h-89c-15.333 0 -23 7.66699 -23 23v419c0 15.333 7.66699 23 23 23h89c11.333 0 18.166 -1.83301 20.499 -5.5s3.5 -9.5 3.5 -17.5v-419zM254 352c0 -8 -1.16699 -13.833 -3.5 -17.5
s-9.16602 -5.5 -20.499 -5.5h-89c-15.333 0 -23 7.66699 -23 23v422c0 15.333 7.66699 23 23 23h89c11.333 0 18.166 -1.83301 20.499 -5.5s3.5 -9.5 3.5 -17.5v-422z" />
    <glyph glyph-name="section" unicode="&#xa7;" horiz-adv-x="652" 
d="M422 603c-17.333 0 -31.3291 -2.33691 -41.9961 -7.00391s-16 -14 -16 -28c0 -7.33301 2.33301 -14.833 7 -22.5s10.5 -15.334 17.5 -23.001s14.667 -15.334 23 -23.001l23.5 -22.5l58.5 -58.5c17.667 -18.333 32.834 -36 45.501 -53s22.5 -33.667 29.5 -50
s10.5 -33.5 10.5 -51.5c0 -26 -8.66699 -52.5 -26 -79.5s-42.333 -50.167 -75 -69.5c6.66699 -14.667 11.834 -27.5 15.501 -38.5s5.5 -23.833 5.5 -38.5c-0.666992 -19.333 -5.5 -38.333 -14.5 -57s-22.833 -35.667 -41.5 -51s-42.667 -27.666 -72 -36.999
s-65 -14 -107 -14c-32.667 0 -63.834 3 -93.501 9s-58.167 17 -85.5 33c-4.66699 3.33301 -6.83398 6.83301 -6.50098 10.5s2.16602 9.5 5.49902 17.5l36 81c4.66699 8.66699 8.33398 13.167 11.001 13.5s7.66699 -1.16699 15 -4.5c15.333 -6.66699 32.333 -12.167 51 -16.5
s37.334 -6.5 56.001 -6.5c22 0 37.5 4.5 46.5 13.5s13.5 17.5 13.5 25.5c0 12 -6.5 25.167 -19.5 39.5s-26.5 27.5 -40.5 39.5l-56.5 51c-17.667 16.667 -33.334 33.5 -47.001 50.5s-24.334 34.333 -32.001 52s-11.5 35.834 -11.5 54.501
c0 12.667 1.83301 26.334 5.5 41.001s9.66699 29 18 43s19.166 27.333 32.499 40s29.666 23.667 48.999 33c-9.33301 15.333 -15.166 28.833 -17.499 40.5s-3.5 23.167 -3.5 34.5c0 50.667 18 90.167 54 118.5s88.333 42.5 157 42.5c10 0 21.833 -0.333008 35.5 -1
s28 -2 43 -4s30.5 -5 46.5 -9s31.333 -9.66699 46 -17c8 -3.33301 12.167 -7.16602 12.5 -11.499s-1.5 -12.166 -5.5 -23.499l-27 -72c-4.66699 -9.33301 -8.83398 -15 -12.501 -17s-9.83398 -1.33301 -18.501 2c-19.333 6.66699 -37 11.834 -53 15.501s-31.333 5.5 -46 5.5
zM285.004 406.996c-3.33301 -4.66699 -6.49902 -10.833 -9.49902 -18.5s-4.5 -15.167 -4.5 -22.5c0 -10 7.16699 -25.167 21.5 -45.5s35.5 -44.5 63.5 -72.5l20.5 -20l22.5 -21c7.33301 8 11.666 15.333 12.999 22s2 12.667 2 18c0 14.667 -7.83301 31.667 -23.5 51
s-33.5 39 -53.5 59z" />
    <glyph glyph-name="dieresis" unicode="&#xa8;" horiz-adv-x="542" 
d="M483 749c20 0 36.665 -7 49.998 -21s20 -31.667 20 -53c0 -12.667 -2.66699 -24.667 -8 -36s-12.5 -21.5 -21.5 -30.5s-19.167 -16.167 -30.5 -21.5s-22.666 -8 -33.999 -8c-21.333 0 -38.833 7 -52.5 21s-20.5 31 -20.5 51c0 13.333 2.66699 26 8 38
s12.5 22.5 21.5 31.5s19.333 16 31 21s23.834 7.5 36.501 7.5zM266.998 749c20.667 0 37.833 -7.16699 51.5 -21.5s20.5 -32.166 20.5 -53.499c0 -12 -2.83301 -23.833 -8.5 -35.5s-13 -21.834 -22 -30.501s-19.167 -15.667 -30.5 -21s-23 -8 -35 -8c-20 0 -37 7 -51 21
s-21 31 -21 51c0 13.333 2.66699 26 8 38s12.5 22.5 21.5 31.5s19.333 16 31 21s23.5 7.5 35.5 7.5z" />
    <glyph glyph-name="copyright" unicode="&#xa9;" horiz-adv-x="843" 
d="M817 350c0 -51.333 -9.33301 -99 -28 -143s-44.334 -82.167 -77.001 -114.5s-71.334 -57.666 -116.001 -75.999s-93 -27.5 -145 -27.5s-100.333 9.16699 -145 27.5s-83.334 43.666 -116.001 75.999s-58.334 70.5 -77.001 114.5s-28 91.667 -28 143s9.33301 99 28 143
s44.334 82.167 77.001 114.5s71.334 57.666 116.001 75.999s93 27.5 145 27.5s100.333 -9.16699 145 -27.5s83.334 -43.666 116.001 -75.999s58.334 -70.5 77.001 -114.5s28 -91.667 28 -143zM732 350c0 40.667 -7.16699 78.167 -21.5 112.5s-34 63.833 -59 88.5
s-54.667 43.834 -89 57.501s-71.5 20.5 -111.5 20.5s-77.167 -6.83301 -111.5 -20.5s-64 -32.834 -89 -57.501s-44.667 -54.167 -59 -88.5s-21.5 -71.833 -21.5 -112.5s7.16699 -78.167 21.5 -112.5s34 -63.833 59 -88.5s54.667 -43.834 89 -57.501s71.5 -20.5 111.5 -20.5
s77.167 6.83301 111.5 20.5s64 32.834 89 57.501s44.667 54.167 59 88.5s21.5 71.833 21.5 112.5zM607 216c-15.333 -23.333 -35.001 -42.001 -59.001 -56.001s-55.667 -21 -95 -21c-28.667 0 -54.334 5.33301 -77.001 16s-42 25.167 -58 43.5s-28.167 40.166 -36.5 65.499
s-12.5 53 -12.5 83c0 30.667 4.33301 58.834 13 84.501s20.834 47.667 36.501 66s34.5 32.5 56.5 42.5s46.667 15 74 15c39.333 0 71 -7 95 -21s43.667 -32.667 59 -56c2 -3.33301 3 -6 3 -8c0 -2.66699 -2.33301 -5.66699 -7 -9l-59 -42c-3.33301 -2 -6 -3 -8 -3
c-4 0 -7 1.66699 -9 5c-10.667 15.333 -21.834 26 -33.501 32s-25.167 9 -40.5 9c-24.667 0 -43.5 -10 -56.5 -30s-19.5 -48.333 -19.5 -85c0 -36 6.66699 -64.167 20 -84.5s32.333 -30.5 57 -30.5c15.333 0 29.333 3 42 9s24.334 16.667 35.001 32c2 4 5 6 9 6
c2.66699 0 5.33398 -1.33301 8.00098 -4l59 -42c4.66699 -3.33301 7 -6.66602 7 -9.99902c0 -2 -1 -4.33301 -3 -7z" />
    <glyph glyph-name="ordfeminine" unicode="&#xaa;" horiz-adv-x="418" 
d="M265 512c-19.333 0 -35.165 -7.49902 -47.498 -22.499s-18.5 -39.5 -18.5 -73.5c0 -16.667 3.66699 -28.5 11 -35.5s17.666 -10.5 30.999 -10.5c3.33301 0 7.83301 0.333008 13.5 1s11.5 1.66699 17.5 3c2.66699 21.333 5.66699 44 9 68s6.66602 46.333 9.99902 67
c-5.33301 1.33301 -10.5 2.16602 -15.5 2.49902s-8.5 0.5 -10.5 0.5zM218.001 257.001c-30 0 -55.165 3.33398 -75.498 10.001s-36.666 16.167 -48.999 28.5s-21.166 27.166 -26.499 44.499s-8 36.666 -8 57.999c0 76.667 17.667 133 53 169s89.333 54 162 54
c14.667 0 34.167 -0.833008 58.5 -2.5s50.5 -6.16699 78.5 -13.5c10.667 -3.33301 16.667 -7.33301 18 -12s1.66602 -10 0.999023 -16l-39 -276c-1.33301 -5.33301 -2.83301 -9.16602 -4.5 -11.499s-5.5 -4.83301 -11.5 -7.5c-12.667 -5.33301 -26.334 -9.5 -41.001 -12.5
s-29.334 -5.5 -44.001 -7.5s-28.334 -3.33301 -41.001 -4s-23 -1 -31 -1z" />
    <glyph glyph-name="guillemotleft" unicode="&#xab;" horiz-adv-x="620" 
d="M65 262c2 13.333 9.33398 28.332 22.001 44.999l103 145c7.33301 10 14.166 16.833 20.499 20.5s17.166 5.5 32.499 5.5h114c6 0 9.83301 -2.16699 11.5 -6.5s-0.166016 -10.166 -5.49902 -17.499l-138 -192l93 -211c3.33301 -8 3.16602 -14 -0.500977 -18
s-9.16699 -6 -16.5 -6h-113c-15.333 0 -25.5 1.83301 -30.5 5.5s-9.16699 9.16699 -12.5 16.5l-70 169c-3.33301 8.66699 -6.16602 16.5 -8.49902 23.5s-2.83301 13.833 -1.5 20.5zM301.001 261.999c2 13.333 9.33398 28.332 22.001 44.999l103 145
c7.33301 10 14.166 16.833 20.499 20.5s17.166 5.5 32.499 5.5h114c6 0 9.66699 -2.16699 11 -6.5s-0.333984 -10.166 -5.00098 -17.499l-138 -192l92 -211c3.33301 -8 3.33301 -14 0 -18s-8.66602 -6 -15.999 -6h-114c-14.667 0 -24.5 1.83301 -29.5 5.5
s-9.16699 9.16699 -12.5 16.5l-70 169c-3.33301 8.66699 -6.16602 16.5 -8.49902 23.5s-2.83301 13.833 -1.5 20.5z" />
    <glyph glyph-name="logicalnot" unicode="&#xac;" horiz-adv-x="676" 
d="M579 109c-1.33301 -8 -3.33301 -13.833 -6 -17.5s-9.33398 -5.5 -20.001 -5.5h-95c-14.667 0 -21 7.66699 -19 23l23 165h-340c-15.333 0 -22 7.66699 -20 23l13 92c1.33301 11.333 4.16602 18.166 8.49902 20.499s10.5 3.5 18.5 3.5h457
c6.66699 0 11.834 -1.16699 15.501 -3.5s4.83398 -9.16602 3.50098 -20.499z" />
    <glyph glyph-name="sfthyphen" unicode="&#xad;" horiz-adv-x="430" 
d="M373 252c-2 -15.333 -9.66504 -23 -22.998 -23h-262c-12.667 0 -18 7.66699 -16 23l14 99c1.33301 11.333 3.66602 18.166 6.99902 20.499s8.66602 3.5 15.999 3.5h262c8 0 13 -1.16699 15 -3.5s2.33301 -9.16602 1 -20.499l-14 -99v0z" />
    <glyph glyph-name="registered" unicode="&#xae;" horiz-adv-x="603" 
d="M578 479c0 -34 -6.50195 -65.499 -19.502 -94.499s-30.5 -54 -52.5 -75s-48 -37.5 -78 -49.5s-62 -18 -96 -18c-35.333 0 -68 6 -98 18s-56 28.5 -78 49.5s-39.333 46 -52 75s-19 60.5 -19 94.5c0 34.667 6.5 66.667 19.5 96s30.833 54.666 53.5 75.999
s49.334 38 80.001 50s63.334 18 98.001 18c35.333 0 67.833 -6 97.5 -18s55.167 -28.833 76.5 -50.5s38 -47.167 50 -76.5s18 -61 18 -95zM513.998 480.001c0 26 -4.66504 50.165 -13.998 72.498s-22 41.833 -38 58.5s-35.167 29.667 -57.5 39s-46.5 14 -72.5 14
s-50 -4.83301 -72 -14.5s-41.333 -22.667 -58 -39s-29.667 -35.666 -39 -57.999s-14 -46.5 -14 -72.5s4.66699 -50.167 14 -72.5s22.166 -41.666 38.499 -57.999s35.666 -29.333 57.999 -39s46.5 -14.5 72.5 -14.5s50.167 4.33301 72.5 13s41.5 21 57.5 37
s28.667 35.333 38 58s14 48 14 76zM447 366.999c0.666992 -3.33301 1.00098 -5.83496 1.00098 -7.50195s-1.66699 -2.5 -5 -2.5h-54c-4 0 -7.33301 0.333008 -10 1s-4.66699 3.66699 -6 9l-14 59c-3.33301 10.667 -7.16602 18.5 -11.499 23.5s-11.833 7.5 -22.5 7.5h-23v-91
c0 -3.33301 -0.5 -5.66602 -1.5 -6.99902s-3.5 -2 -7.5 -2h-51c-6 0 -9 3 -9 9v221c0 16.667 9.33301 25 28 25h88c29.333 0 51.166 -6.66699 65.499 -20s21.5 -31.666 21.5 -54.999c0 -13.333 -3.16699 -25.833 -9.5 -37.5s-16.5 -20.167 -30.5 -25.5v-1
c11.333 -3.33301 19.166 -8 23.499 -14s7.83301 -13.667 10.5 -23zM365.001 530.997c0 6 -1.66699 11.166 -5 15.499s-9 6.5 -17 6.5h-41v-43h41c6 0 11.167 1.83301 15.5 5.5s6.5 8.83398 6.5 15.501z" />
    <glyph glyph-name="macron" unicode="&#xaf;" horiz-adv-x="430" 
d="M442 610c-2 -15.333 -10.332 -23 -24.999 -23h-282c-15.333 0 -22 7.66699 -20 23l11 74c1.33301 11.333 4 18.166 8 20.499s10 3.5 18 3.5h282c7.33301 0 12.666 -1.16699 15.999 -3.5s4.33301 -9.16602 3 -20.499l-11 -74v0z" />
    <glyph glyph-name="degree" unicode="&#xb0;" horiz-adv-x="527" 
d="M483 522c0 -26 -4.83301 -50.168 -14.5 -72.501s-22.834 -41.666 -39.501 -57.999s-36.334 -29 -59.001 -38s-47 -13.5 -73 -13.5s-50.333 4.5 -73 13.5s-42.334 21.5 -59.001 37.5s-29.834 35.167 -39.501 57.5s-14.5 46.833 -14.5 73.5c0 25.333 4.83301 49 14.5 71
s22.834 41 39.501 57s36.334 28.667 59.001 38s47 14 73 14s50.333 -4.66699 73 -14s42.334 -22 59.001 -38s29.834 -35 39.501 -57s14.5 -45.667 14.5 -71zM377 521.999c0 23.333 -7.33301 42.333 -22 57s-33.667 22 -57 22s-42.5 -7.33301 -57.5 -22
s-22.5 -33.667 -22.5 -57c0 -25.333 7.5 -45.5 22.5 -60.5s34.167 -22.5 57.5 -22.5s42.333 7.33301 57 22s22 35 22 61z" />
    <glyph glyph-name="plusminus" unicode="&#xb1;" horiz-adv-x="676" 
d="M564 22c-2.66699 -15.333 -11.333 -23 -26 -23h-453c-15.333 0 -21.666 7.66699 -18.999 23l13 94c1.33301 11.333 4 18.166 8 20.499s10 3.5 18 3.5h453c7.33301 0 12.666 -1.16699 15.999 -3.5s4.33301 -9.16602 3 -20.499zM617.001 378
c-2.66699 -15.333 -11.667 -23 -27 -23h-150l-23 -165c-1.33301 -8 -3.33301 -13.833 -6 -17.5s-9.33398 -5.5 -20.001 -5.5h-112c-14.667 0 -21 7.66699 -19 23l23 165h-150c-15.333 0 -21.666 7.66699 -18.999 23l13 92c1.33301 11.333 4 18.166 8 20.499s10 3.5 18 3.5
h150l23 166c2 15.333 10.333 23 25 23h112c10.667 0 17 -1.83301 19 -5.5s2.33301 -9.5 1 -17.5l-23 -166h150c8 0 13.667 -1.16699 17 -3.5s4.33301 -9.16602 3 -20.499z" />
    <glyph glyph-name="twosuperior" unicode="&#xb2;" horiz-adv-x="453" 
d="M283 660c-17.333 0 -35.998 -2.99902 -55.998 -8.99902s-39.333 -13.667 -58 -23c-6 -3.33301 -10.667 -4.5 -14 -3.5s-6.33301 4.16699 -9 9.5l-30 57c-2.66699 6 -3.83398 10.833 -3.50098 14.5s4.16602 7.83398 11.499 12.501c25.333 18 53.833 31.333 85.5 40
s60.834 13 87.501 13c20.667 0 40.167 -1.83301 58.5 -5.5s34.166 -9.83398 47.499 -18.501s23.833 -19.667 31.5 -33s11.5 -29.333 11.5 -48c0 -31.333 -9.83301 -57 -29.5 -77s-43.167 -38.333 -70.5 -55l-54.5 -34c-19 -11.333 -37.167 -24.333 -54.5 -39h162
c9.33301 0 14.833 -1 16.5 -3s1.83398 -7 0.500977 -15l-9 -66c-1.33301 -9.33301 -3.16602 -15 -5.49902 -17s-7.16602 -3 -14.499 -3h-267c-14.667 0 -27.334 3.16699 -38.001 9.5s-16 19.166 -16 38.499c0 18.667 6.16699 37 18.5 55s27.666 35.333 45.999 52
s38.5 32 60.5 46s43 26.667 63 38c10.667 6 19.167 11.333 25.5 16s11.333 8.83398 15 12.501s6 7.16699 7 10.5s1.83301 6.66602 2.5 9.99902c0 2 -0.833008 5 -2.5 9s-7.83398 6 -18.501 6z" />
    <glyph glyph-name="threesuperior" unicode="&#xb3;" horiz-adv-x="453" 
d="M228 353c-26 0 -52.501 3.33398 -79.501 10.001s-49.5 16.334 -67.5 29.001c-8 5.33301 -12 9.5 -12 12.5s2.66699 9.16699 8 18.5l34 63c4 5.33301 7.5 7.66602 10.5 6.99902s8.16699 -2.66699 15.5 -6c31.333 -16.667 62.666 -25 93.999 -25
c20.667 0 35.167 4.5 43.5 13.5s12.5 18.167 12.5 27.5c0 8 -3.16699 14.167 -9.5 18.5s-15.166 6.5 -26.499 6.5h-18c-13.333 0 -21.166 2.16699 -23.499 6.5s-2.83301 10.5 -1.5 18.5l4 34c2 16.667 10.667 25 26 25h23c11.333 0 20.166 2.5 26.499 7.5s9.5 11.5 9.5 19.5
s-3 13.333 -9 16s-13.333 4 -22 4c-11.333 0 -24.666 -2 -39.999 -6s-30.666 -10 -45.999 -18c-7.33301 -3.33301 -13.833 -5.83301 -19.5 -7.5s-10.5 1.16602 -14.5 8.49902l-31 55c-3.33301 7.33301 -4 12.833 -2 16.5s6.66699 8.16699 14 13.5
c12 8.66699 25.167 16 39.5 22s29.166 11 44.499 15s30.166 6.83301 44.499 8.5s27.5 2.5 39.5 2.5c14.667 0 30.334 -1.5 47.001 -4.5s32 -8.16699 46 -15.5s25.5 -17.166 34.5 -29.499s13.5 -27.833 13.5 -46.5c0 -7.33301 -1.16699 -15.333 -3.5 -24
s-6.16602 -17.5 -11.499 -26.5s-12.666 -17.667 -21.999 -26s-21 -15.5 -35 -21.5l-1 -3c12 -4.66699 21.833 -10.334 29.5 -17.001s13.667 -14 18 -22s7.16602 -16.167 8.49902 -24.5s2 -15.833 2 -22.5c0 -21.333 -5 -40.333 -15 -57s-23.667 -30.667 -41 -42
s-37.833 -19.833 -61.5 -25.5s-48.834 -8.5 -75.501 -8.5z" />
    <glyph glyph-name="acute" unicode="&#xb4;" horiz-adv-x="540" 
d="M300 799c2.66699 5.33301 5.49902 9.00098 8.49902 11.001s8.16699 2.33301 15.5 1l117 -30c5.33301 -1.33301 8.5 -4 9.5 -8s-0.166992 -7.66699 -3.5 -11l-146 -186c-3.33301 -6 -6.66602 -9.33301 -9.99902 -10s-7.66602 -0.333984 -12.999 0.999023l-67 24
c-4.66699 1.33301 -7.83398 3.33301 -9.50098 6s-0.5 7.66699 3.5 15z" />
    <glyph glyph-name="mu" unicode="&#xb5;" horiz-adv-x="612" 
d="M263 525c11.333 0 18.002 -1.33301 20.002 -4s2.33301 -8 1 -16l-42 -301c-2 -14.667 -2.16699 -26.667 -0.5 -36s5.66699 -16.666 12 -21.999s15.166 -9 26.499 -11s25.666 -3 42.999 -3c5.33301 0 12 0.333008 20 1s16.333 1.66699 25 3l51 369
c1.33301 8 3.33301 13.333 6 16s9.66699 4 21 4h129c14.667 0 21 -6.66699 19 -20l-58 -419c-2.66699 -16 -5.66699 -29.167 -9 -39.5s-8 -18.833 -14 -25.5s-13.833 -11.834 -23.5 -15.501s-21.834 -6.83398 -36.501 -9.50098
c-7.33301 -1.33301 -16.666 -2.66602 -27.999 -3.99902s-23 -2.33301 -35 -3s-23.333 -1.16699 -34 -1.5s-19.334 -0.5 -26.001 -0.5c-21.333 0 -43.166 0.666992 -65.499 2s-41.5 3.66602 -57.5 6.99902l-26 -181c-1.33301 -7.33301 -3.5 -12.666 -6.5 -15.999
s-9.16699 -5 -18.5 -5h-124c-16 0 -23 6.66699 -21 20l97 691c2 13.333 10.333 20 25 20h130v0z" />
    <glyph glyph-name="mu" unicode="&#x3bc;" horiz-adv-x="612" 
d="M263 525c11.333 0 18.002 -1.33301 20.002 -4s2.33301 -8 1 -16l-42 -301c-2 -14.667 -2.16699 -26.667 -0.5 -36s5.66699 -16.666 12 -21.999s15.166 -9 26.499 -11s25.666 -3 42.999 -3c5.33301 0 12 0.333008 20 1s16.333 1.66699 25 3l51 369
c1.33301 8 3.33301 13.333 6 16s9.66699 4 21 4h129c14.667 0 21 -6.66699 19 -20l-58 -419c-2.66699 -16 -5.66699 -29.167 -9 -39.5s-8 -18.833 -14 -25.5s-13.833 -11.834 -23.5 -15.501s-21.834 -6.83398 -36.501 -9.50098
c-7.33301 -1.33301 -16.666 -2.66602 -27.999 -3.99902s-23 -2.33301 -35 -3s-23.333 -1.16699 -34 -1.5s-19.334 -0.5 -26.001 -0.5c-21.333 0 -43.166 0.666992 -65.499 2s-41.5 3.66602 -57.5 6.99902l-26 -181c-1.33301 -7.33301 -3.5 -12.666 -6.5 -15.999
s-9.16699 -5 -18.5 -5h-124c-16 0 -23 6.66699 -21 20l97 691c2 13.333 10.333 20 25 20h130v0z" />
    <glyph glyph-name="paragraph" unicode="&#xb6;" horiz-adv-x="613" 
d="M522 56c-5.33301 -39.333 -15.667 -72.334 -31 -99.001s-35 -48.334 -59 -65.001s-51.667 -29.167 -83 -37.5s-66 -13.5 -104 -15.5c-6 0 -10.667 0.5 -14 1.5s-5.33301 6.16699 -6 15.5v99c0 12.667 6.33301 19.334 19 20.001c24 2.66699 43.833 6.83398 59.5 12.501
s28.5 12.834 38.5 21.501s17.5 19.167 22.5 31.5s8.5 26.166 10.5 41.499l85 604c1.33301 6 3.83301 10.333 7.5 13s8.16699 4 13.5 4h111c14.667 0 21 -5.66699 19 -17zM260.999 311.999c-29.333 0 -54.1699 4.16797 -74.5029 12.501s-37.166 20 -50.499 35s-23 33 -29 54
s-9 43.833 -9 68.5c0 32.667 5.16699 62.667 15.5 90s25 50.666 44 69.999s42 34.333 69 45s56.833 16 89.5 16h81c6.66699 0 10.834 -1.5 12.501 -4.5s2.16699 -7.83301 1.5 -14.5l-50 -353c-1.33301 -7.33301 -3.16602 -12.333 -5.49902 -15s-6.83301 -4 -13.5 -4h-81z
" />
    <glyph glyph-name="periodcentered" unicode="&#xb7;" horiz-adv-x="307" 
d="M185 386c25.333 0 45.999 -7.83398 61.999 -23.501s24 -35.167 24 -58.5c0 -15.333 -3 -29.833 -9 -43.5s-14.333 -25.5 -25 -35.5s-22.834 -18 -36.501 -24s-28.167 -9 -43.5 -9c-24.667 0 -45.167 7.83301 -61.5 23.5s-24.5 35.5 -24.5 59.5
c0 14.667 3.16699 28.834 9.5 42.501s14.833 25.5 25.5 35.5s22.834 18 36.501 24s27.834 9 42.501 9z" />
    <glyph glyph-name="cedilla" unicode="&#xb8;" horiz-adv-x="516" 
d="M242 -53c27.333 -1.33301 49.501 -5.32715 66.501 -11.9941s30.333 -14.834 40 -24.501s16.167 -20.5 19.5 -32.5s5 -24 5 -36c0 -15.333 -3.33301 -30.5 -10 -45.5s-16.834 -28.333 -30.501 -40s-31 -21 -52 -28s-46.167 -10.5 -75.5 -10.5
c-12 0 -24.5 0.833008 -37.5 2.5s-25.5 3.66699 -37.5 6s-23.333 5.16602 -34 8.49902s-19.667 6.66602 -27 9.99902c-5.33301 2 -7.83301 4.33301 -7.5 7s1.83301 7.66699 4.5 15l16 49c2.66699 7.33301 5.16699 11.5 7.5 12.5s6.16602 0.5 11.499 -1.5
c14 -4.66699 27.167 -8.33398 39.5 -11.001s25.5 -4 39.5 -4c15.333 0 28.333 2.5 39 7.5s17 14.167 19 27.5c1.33301 11.333 -3.16699 19.333 -13.5 24s-24.5 7 -42.5 7c-13.333 0 -21.5 0.166992 -24.5 0.5s-6.16699 2.16602 -9.5 5.49902
c-4.66699 4.66699 -6.16699 10 -4.5 16s4.5 12.333 8.5 19l66 121c1.33301 1.33301 3 3.16602 5 5.49902s5 3.5 9 3.5h54c5.33301 0 7.83301 -1.33301 7.5 -4s-1.16602 -4.66699 -2.49902 -6z" />
    <glyph glyph-name="onesuperior" unicode="&#xb9;" horiz-adv-x="453" 
d="M382 377c-1.33301 -7.33301 -3.16797 -12.5 -5.50098 -15.5s-7.5 -4.5 -15.5 -4.5h-249c-8 0 -12.833 1.16699 -14.5 3.5s-1.83398 7.16602 -0.500977 14.499l9 68c1.33301 8 3.33301 13 6 15s7.66699 3 15 3h53l26 187l-56 -11c-10 -2 -15.667 -1.33301 -17 2
s-1.66602 7.66602 -0.999023 12.999l10 65c0.666992 5.33301 2 10 4 14s7 7 15 9l123 30c11.333 2.66699 21.5 4.33398 30.5 5.00098s16.5 -0.333008 22.5 -3s10.333 -7.5 13 -14.5s3 -16.833 1 -29.5l-37 -267h62c8 0 12.833 -1.16699 14.5 -3.5
s1.83398 -7.16602 0.500977 -14.499z" />
    <glyph glyph-name="ordmasculine" unicode="&#xba;" horiz-adv-x="414" 
d="M262 623c54 0 94.832 -13.332 122.499 -39.999s41.5 -63.334 41.5 -110.001c0 -32 -4.33301 -61.333 -13 -88s-21.667 -49.5 -39 -68.5s-38.666 -33.667 -63.999 -44s-54.333 -15.5 -87 -15.5c-57.333 0 -98.833 13.167 -124.5 39.5s-38.5 62.166 -38.5 107.499
c0 70.667 17.667 124.834 53 162.501s85 56.5 149 56.5zM252.999 509.001c-15.333 0 -28.167 -7.5 -38.5 -22.5s-15.5 -38.5 -15.5 -70.5c0 -16 3 -27.5 9 -34.5s14.667 -10.5 26 -10.5c15.333 0 27.833 8.33301 37.5 25s14.5 39.667 14.5 69s-11 44 -33 44z" />
    <glyph glyph-name="guillemotright" unicode="&#xbb;" horiz-adv-x="620" 
d="M579 262c-1.33301 -6.66699 -3.5 -13.499 -6.5 -20.499s-7.83301 -14.833 -14.5 -23.5l-118 -169c-5.33301 -7.33301 -11.166 -12.833 -17.499 -16.5s-16.833 -5.5 -31.5 -5.5h-113c-7.33301 0 -12.333 2 -15 6s-0.666992 10 6 18l150 211l-83 192
c-3.33301 7.33301 -3.33301 13.166 0 17.499s7.66602 6.5 12.999 6.5h115c15.333 0 25.5 -1.83301 30.5 -5.5s9.5 -10.5 13.5 -20.5l64 -145c6.66699 -16 9 -31 7 -45zM344 262.001c-2 -12.667 -9.33496 -27.332 -22.002 -43.999l-118 -169
c-5.33301 -7.33301 -11 -12.833 -17 -16.5s-16.333 -5.5 -31 -5.5h-114c-7.33301 0 -12.166 2 -14.499 6s-0.5 10 5.5 18l151 211l-84 192c-3.33301 7.33301 -3.33301 13.166 0 17.499s8 6.5 14 6.5h114c15.333 0 25.5 -1.83301 30.5 -5.5s9.83301 -10.5 14.5 -20.5l63 -145
c3.33301 -8.66699 5.83301 -16.5 7.5 -23.5s1.83398 -14.167 0.500977 -21.5z" />
    <glyph glyph-name="onequarter" unicode="&#xbc;" horiz-adv-x="1000" 
d="M385 287c-1.33301 -7.33301 -3.16797 -12.5 -5.50098 -15.5s-7.5 -4.5 -15.5 -4.5h-249c-8 0 -12.833 1.16699 -14.5 3.5s-1.83398 7.16602 -0.500977 14.499l9 68c1.33301 8 3.33301 13 6 15s7.66699 3 15 3h53l26 187l-56 -11c-10 -2 -15.667 -1.33301 -17 2
s-1.66602 7.66602 -0.999023 12.999l10 65c0.666992 5.33301 2 10 4 14s7 7 15 9l123 30c11.333 2.66699 21.5 4.33398 30.5 5.00098s16.5 -0.333008 22.5 -3s10.333 -7.5 13 -14.5s3 -16.833 1 -29.5l-37 -267h62c8 0 12.833 -1.16699 14.5 -3.5
s1.83398 -7.16602 0.500977 -14.499zM325.998 -21c-4.66699 -6 -10.167 -10.667 -16.5 -14s-15.166 -5 -26.499 -5h-62c-8 0 -12.333 2.33301 -13 7s0.666016 9.66699 3.99902 15l507 719c3.33301 5.33301 6.5 9 9.5 11s8.5 3 16.5 3h71c8 0 12.833 -2 14.5 -6
s0.166992 -9.33301 -4.5 -16zM886.998 86c-0.666992 -4.66699 -1.83301 -8.50293 -3.5 -11.5029s-6.16699 -4.5 -13.5 -4.5h-37l-7 -51c-1.33301 -8.66699 -4 -14 -8 -16s-8.66699 -3 -14 -3h-97c-5.33301 0 -9.16602 1.33301 -11.499 4s-2.83301 7.66699 -1.5 15l7 50h-156
c-5.33301 0 -10.833 0.166992 -16.5 0.5s-10.667 1.83301 -15 4.5s-7.5 6.83398 -9.5 12.501s-2.33301 13.834 -1 24.501l3 27c3.33301 18.667 11.333 34.334 24 47.001l188 193c9.33301 9.33301 19.5 17.666 30.5 24.999s27.5 11 49.5 11h42
c15.333 0 25.666 -3.16699 30.999 -9.5s6.66602 -17.5 3.99902 -33.5l-28 -197h36c7.33301 0 11.833 -1.16699 13.5 -3.5s1.83398 -6.16602 0.500977 -11.499zM722.999 257.997l-78 -80v-4h70l12 84h-4z" />
    <glyph glyph-name="onehalf" unicode="&#xbd;" horiz-adv-x="1000" 
d="M360 287c-1.33301 -7.33301 -3.16797 -12.5 -5.50098 -15.5s-7.5 -4.5 -15.5 -4.5h-249c-8 0 -12.833 1.16699 -14.5 3.5s-1.83398 7.16602 -0.500977 14.499l9 68c1.33301 8 3.33301 13 6 15s7.66699 3 15 3h53l26 187l-56 -11c-10 -2 -15.667 -1.33301 -17 2
s-1.66602 7.66602 -0.999023 12.999l10 65c0.666992 5.33301 2 10 4 14s7 7 15 9l123 30c11.333 2.66699 21.5 4.33398 30.5 5.00098s16.5 -0.333008 22.5 -3s10.333 -7.5 13 -14.5s3 -16.833 1 -29.5l-37 -267h62c8 0 12.833 -1.16699 14.5 -3.5
s1.83398 -7.16602 0.500977 -14.499zM313.998 -21c-4.66699 -6 -10.167 -10.667 -16.5 -14s-15.166 -5 -26.499 -5h-62c-8 0 -12.333 2.33301 -13 7s0.666016 9.66699 3.99902 15l507 719c3.33301 5.33301 6.5 9 9.5 11s8.5 3 16.5 3h71c8 0 12.833 -2 14.5 -6
s0.166992 -9.33301 -4.5 -16zM778.998 303c-17.333 0 -35.998 -2.99902 -55.998 -8.99902s-39.333 -13.667 -58 -23c-6 -3.33301 -10.667 -4.5 -14 -3.5s-6.33301 4.16699 -9 9.5l-30 57c-2.66699 6 -3.83398 10.833 -3.50098 14.5s4.16602 7.83398 11.499 12.501
c25.333 18 53.833 31.333 85.5 40s60.834 13 87.501 13c20.667 0 40.167 -1.83301 58.5 -5.5s34.166 -9.83398 47.499 -18.501s23.833 -19.667 31.5 -33s11.5 -29.333 11.5 -48c0 -31.333 -9.83301 -57 -29.5 -77s-43.167 -38.333 -70.5 -55l-54.5 -34
c-19 -11.333 -37.167 -24.333 -54.5 -39h162c9.33301 0 14.833 -1 16.5 -3s1.83398 -7 0.500977 -15l-9 -66c-1.33301 -9.33301 -3.16602 -15 -5.49902 -17s-7.16602 -3 -14.499 -3h-267c-14.667 0 -27.334 3.16699 -38.001 9.5s-16 19.166 -16 38.499
c0 18.667 6.16699 37 18.5 55s27.666 35.333 45.999 52s38.5 32 60.5 46s43 26.667 63 38c10.667 6 19.167 11.333 25.5 16s11.333 8.83398 15 12.501s6 7.16699 7 10.5s1.83301 6.66602 2.5 9.99902c0 2 -0.833008 5 -2.5 9s-7.83398 6 -18.501 6z" />
    <glyph glyph-name="threequarters" unicode="&#xbe;" horiz-adv-x="1000" 
d="M224 263c-26 0 -52.501 3.33398 -79.501 10.001s-49.5 16.334 -67.5 29.001c-8 5.33301 -12 9.5 -12 12.5s2.66699 9.16699 8 18.5l34 63c4 5.33301 7.5 7.66602 10.5 6.99902s8.16699 -2.66699 15.5 -6c31.333 -16.667 62.666 -25 93.999 -25
c20.667 0 35.167 4.5 43.5 13.5s12.5 18.167 12.5 27.5c0 8 -3.16699 14.167 -9.5 18.5s-15.166 6.5 -26.499 6.5h-18c-13.333 0 -21.166 2.16699 -23.499 6.5s-2.83301 10.5 -1.5 18.5l4 34c2 16.667 10.667 25 26 25h23c11.333 0 20.166 2.5 26.499 7.5s9.5 11.5 9.5 19.5
s-3 13.333 -9 16s-13.333 4 -22 4c-11.333 0 -24.666 -2 -39.999 -6s-30.666 -10 -45.999 -18c-7.33301 -3.33301 -13.833 -5.83301 -19.5 -7.5s-10.5 1.16602 -14.5 8.49902l-31 55c-3.33301 7.33301 -4 12.833 -2 16.5s6.66699 8.16699 14 13.5
c12 8.66699 25.167 16 39.5 22s29.166 11 44.499 15s30.166 6.83301 44.499 8.5s27.5 2.5 39.5 2.5c14.667 0 30.334 -1.5 47.001 -4.5s32 -8.16699 46 -15.5s25.5 -17.166 34.5 -29.499s13.5 -27.833 13.5 -46.5c0 -7.33301 -1.16699 -15.333 -3.5 -24
s-6.16602 -17.5 -11.499 -26.5s-12.666 -17.667 -21.999 -26s-21 -15.5 -35 -21.5l-1 -3c12 -4.66699 21.833 -10.334 29.5 -17.001s13.667 -14 18 -22s7.16602 -16.167 8.49902 -24.5s2 -15.833 2 -22.5c0 -21.333 -5 -40.333 -15 -57s-23.667 -30.667 -41 -42
s-37.833 -19.833 -61.5 -25.5s-48.834 -8.5 -75.501 -8.5zM337.999 -20.999c-4.66699 -6 -10.167 -10.667 -16.5 -14s-15.166 -5 -26.499 -5h-62c-8 0 -12.333 2.33301 -13 7s0.666016 9.66699 3.99902 15l507 719c3.33301 5.33301 6.5 9 9.5 11s8.5 3 16.5 3h71
c8 0 12.833 -2 14.5 -6s0.166992 -9.33301 -4.5 -16zM926.999 86.001c-0.666992 -4.66699 -1.83301 -8.50293 -3.5 -11.5029s-6.16699 -4.5 -13.5 -4.5h-37l-7 -51c-1.33301 -8.66699 -4 -14 -8 -16s-8.66699 -3 -14 -3h-97c-5.33301 0 -9.16602 1.33301 -11.499 4
s-2.83301 7.66699 -1.5 15l7 50h-156c-5.33301 0 -10.833 0.166992 -16.5 0.5s-10.667 1.83301 -15 4.5s-7.5 6.83398 -9.5 12.501s-2.33301 13.834 -1 24.501l3 27c3.33301 18.667 11.333 34.334 24 47.001l188 193c9.33301 9.33301 19.5 17.666 30.5 24.999
s27.5 11 49.5 11h42c15.333 0 25.666 -3.16699 30.999 -9.5s6.66602 -17.5 3.99902 -33.5l-28 -197h36c7.33301 0 11.833 -1.16699 13.5 -3.5s1.83398 -6.16602 0.500977 -11.499zM763 257.998l-78 -80v-4h70l12 84h-4z" />
    <glyph glyph-name="questiondown" unicode="&#xbf;" horiz-adv-x="558" 
d="M338 338c-25.333 0 -45.999 7.83301 -61.999 23.5s-24 35.167 -24 58.5c0 15.333 3 29.666 9 42.999s14.167 24.833 24.5 34.5s22.333 17.167 36 22.5s28.167 8 43.5 8c24.667 0 45.334 -7.33301 62.001 -22s25 -33.667 25 -57c0 -15.333 -3.16699 -29.666 -9.5 -42.999
s-14.833 -25 -25.5 -35s-22.834 -18 -36.501 -24s-27.834 -9 -42.501 -9zM235.001 -199c-27.333 0 -53.998 2.33398 -79.998 7.00098s-49 12.5 -69 23.5s-36 25 -48 42s-18 38.167 -18 63.5c0 18.667 3 36.5 9 53.5s14 33.333 24 49s21.5 30.5 34.5 44.5s26.5 27 40.5 39
l37.5 33.5c12.333 11 23.666 22.333 33.999 34s19.166 23.5 26.499 35.5s12 24.667 14 38l4 25c1.33301 7.33301 2.83301 11.666 4.5 12.999s5.83398 2 12.501 2h135c8.66699 0 13 -1.66699 13 -5s-0.333008 -7.66602 -1 -12.999l-5 -37
c-2.66699 -20 -7.66699 -37.833 -15 -53.5s-15.833 -30 -25.5 -43s-20.167 -24.667 -31.5 -35l-33 -29.5c-17.333 -14.667 -32.166 -28.834 -44.499 -42.501s-18.5 -30.167 -18.5 -49.5c0 -12 4 -21.167 12 -27.5s18.667 -9.5 32 -9.5c12 0 23.333 0.833008 34 2.5
s21.5 4.16699 32.5 7.5s22.667 8 35 14l41.5 21c7.33301 4 12.666 6 15.999 6s6.66602 -3.66699 9.99902 -11l49 -98c2 -5.33301 2.66699 -9.83301 2 -13.5s-4.66699 -7.83398 -12 -12.501c-19.333 -13.333 -39.833 -24.666 -61.5 -33.999s-43.5 -17 -65.5 -23
s-43.667 -10.333 -65 -13s-41.333 -4 -60 -4z" />
    <glyph glyph-name="Agrave" unicode="&#xc0;" horiz-adv-x="654" 
d="M418 137l-191.001 -0.000976562l-48 -115c-4 -7.33301 -7.83301 -12.833 -11.5 -16.5s-11.167 -5.5 -22.5 -5.5h-146c-6 0 -9.66699 1.83301 -11 5.5s-1 8.16699 1 13.5l278 619c12 26.667 24.833 43.834 38.5 51.501s31.167 11.5 52.5 11.5h79
c11.333 0 21.333 -0.5 30 -1.5s16.167 -3.5 22.5 -7.5s11.666 -10.167 15.999 -18.5s7.5 -19.833 9.5 -34.5l104 -620c0.666992 -3.33301 0.333984 -7.33301 -0.999023 -12s-5.66602 -7 -12.999 -7h-144c-7.33301 0 -13.5 1 -18.5 3s-8.16699 6.66699 -9.5 14z
M288.999 284.999h110l-7 78l-11 144h-8l-54 -147zM506.999 804.999c6 -6 8.5 -10.499 7.5 -13.499s-3.16699 -6.16699 -6.5 -9.5l-48 -51c-4 -3.33301 -7.5 -5.33301 -10.5 -6s-7.16699 1 -12.5 5l-200 138c-3.33301 2 -5.5 5.16699 -6.5 9.5s0.5 8.16602 4.5 11.499l79 79
c6 4 10.667 5.83301 14 5.5s7.33301 -2.83301 12 -7.5z" />
    <glyph glyph-name="Aacute" unicode="&#xc1;" horiz-adv-x="654" 
d="M418 137l-191.001 -0.000976562l-48 -115c-4 -7.33301 -7.83301 -12.833 -11.5 -16.5s-11.167 -5.5 -22.5 -5.5h-146c-6 0 -9.66699 1.83301 -11 5.5s-1 8.16699 1 13.5l278 619c12 26.667 24.833 43.834 38.5 51.501s31.167 11.5 52.5 11.5h79
c11.333 0 21.333 -0.5 30 -1.5s16.167 -3.5 22.5 -7.5s11.666 -10.167 15.999 -18.5s7.5 -19.833 9.5 -34.5l104 -620c0.666992 -3.33301 0.333984 -7.33301 -0.999023 -12s-5.66602 -7 -12.999 -7h-144c-7.33301 0 -13.5 1 -18.5 3s-8.16699 6.66699 -9.5 14z
M516.999 954.999c5.33301 4 9.66895 6.16797 13.002 6.50098s7.66602 -1.83398 12.999 -6.50098l69 -88c4 -3.33301 5.33301 -7.16602 4 -11.499s-4 -7.16602 -8 -8.49902l-214 -115c-6 -3.33301 -10.5 -4.5 -13.5 -3.5s-6.16699 3.16699 -9.5 6.5l-42 56
c-2.66699 3.33301 -4.33398 6.66602 -5.00098 9.99902s2.33301 7.66602 9 12.999zM289.002 285h110l-7 78l-11 144h-8l-54 -147z" />
    <glyph glyph-name="Acircumflex" unicode="&#xc2;" horiz-adv-x="654" 
d="M418 137l-191.001 -0.000976562l-48 -115c-4 -7.33301 -7.83301 -12.833 -11.5 -16.5s-11.167 -5.5 -22.5 -5.5h-146c-6 0 -9.66699 1.83301 -11 5.5s-1 8.16699 1 13.5l278 619c12 26.667 24.833 43.834 38.5 51.501s31.167 11.5 52.5 11.5h79
c11.333 0 21.333 -0.5 30 -1.5s16.167 -3.5 22.5 -7.5s11.666 -10.167 15.999 -18.5s7.5 -19.833 9.5 -34.5l104 -620c0.666992 -3.33301 0.333984 -7.33301 -0.999023 -12s-5.66602 -7 -12.999 -7h-144c-7.33301 0 -13.5 1 -18.5 3s-8.16699 6.66699 -9.5 14z
M288.999 284.999h110l-7 78l-11 144h-8l-54 -147zM614.999 802.999c5.33301 -6 7.50293 -11.166 6.50293 -15.499s-5.16699 -9.5 -12.5 -15.5l-35 -36c-4.66699 -6 -9.33398 -8.83301 -14.001 -8.5s-10.667 3.16602 -18 8.49902l-134 88l-148 -85
c-6.66699 -4 -11.834 -6.16699 -15.501 -6.5s-8.16699 2.5 -13.5 8.5l-28 31c-5.33301 6 -7.33301 11 -6 15s4.66602 9 9.99902 15l142 121c12.667 10.667 26 19.5 40 26.5s26.667 10.5 38 10.5c15.333 0 28.333 -3.33301 39 -10s21.667 -15.667 33 -27z" />
    <glyph glyph-name="Atilde" unicode="&#xc3;" horiz-adv-x="654" 
d="M418 137l-191.001 -0.000976562l-48 -115c-4 -7.33301 -7.83301 -12.833 -11.5 -16.5s-11.167 -5.5 -22.5 -5.5h-146c-6 0 -9.66699 1.83301 -11 5.5s-1 8.16699 1 13.5l278 619c12 26.667 24.833 43.834 38.5 51.501s31.167 11.5 52.5 11.5h79
c11.333 0 21.333 -0.5 30 -1.5s16.167 -3.5 22.5 -7.5s11.666 -10.167 15.999 -18.5s7.5 -19.833 9.5 -34.5l104 -620c0.666992 -3.33301 0.333984 -7.33301 -0.999023 -12s-5.66602 -7 -12.999 -7h-144c-7.33301 0 -13.5 1 -18.5 3s-8.16699 6.66699 -9.5 14z
M288.999 284.999h110l-7 78l-11 144h-8l-54 -147zM450.999 745.999c-12 0 -23.6631 2.33594 -34.9961 7.00293s-22.5 9.66699 -33.5 15s-21.833 10.333 -32.5 15s-21.334 7 -32.001 7c-18.667 0 -36.667 -10.667 -54 -32c-5.33301 -6.66699 -9.83301 -11 -13.5 -13
s-9.83398 -0.333008 -18.501 5l-40 25c-8.66699 5.33301 -12.834 9.5 -12.501 12.5s2.5 7.83301 6.5 14.5c18.667 30 39.834 53.667 63.501 71s50.5 26 80.5 26c12.667 0 24.667 -2.33301 36 -7s22.166 -9.83398 32.499 -15.501s20.833 -10.834 31.5 -15.501
s21.667 -7 33 -7c8.66699 0 17 3.33301 25 10s17.667 16.667 29 30c6 7.33301 9.83301 11.666 11.5 12.999s5.5 0.333008 11.5 -3l46 -23c7.33301 -4 11.666 -7.5 12.999 -10.5s-0.666992 -9.16699 -6 -18.5c-36.667 -70.667 -84 -106 -142 -106z" />
    <glyph glyph-name="Adieresis" unicode="&#xc4;" horiz-adv-x="654" 
d="M418 137l-191.001 -0.000976562l-48 -115c-4 -7.33301 -7.83301 -12.833 -11.5 -16.5s-11.167 -5.5 -22.5 -5.5h-146c-6 0 -9.66699 1.83301 -11 5.5s-1 8.16699 1 13.5l278 619c12 26.667 24.833 43.834 38.5 51.501s31.167 11.5 52.5 11.5h79
c11.333 0 21.333 -0.5 30 -1.5s16.167 -3.5 22.5 -7.5s11.666 -10.167 15.999 -18.5s7.5 -19.833 9.5 -34.5l104 -620c0.666992 -3.33301 0.333984 -7.33301 -0.999023 -12s-5.66602 -7 -12.999 -7h-144c-7.33301 0 -13.5 1 -18.5 3s-8.16699 6.66699 -9.5 14z
M288.999 284.999h110l-7 78l-11 144h-8l-54 -147zM516.999 906.999c20 0 36.665 -7 49.998 -21s20 -31.667 20 -53c0 -12.667 -2.66699 -24.667 -8 -36s-12.5 -21.5 -21.5 -30.5s-19.167 -16.167 -30.5 -21.5s-22.666 -8 -33.999 -8c-21.333 0 -38.833 7 -52.5 21
s-20.5 31 -20.5 51c0 13.333 2.66699 26 8 38s12.5 22.5 21.5 31.5s19.333 16 31 21s23.834 7.5 36.501 7.5zM300.997 906.999c20.667 0 37.833 -7.16699 51.5 -21.5s20.5 -32.166 20.5 -53.499c0 -12 -2.83301 -23.833 -8.5 -35.5s-13 -21.834 -22 -30.501
s-19.167 -15.667 -30.5 -21s-23 -8 -35 -8c-20 0 -37 7 -51 21s-21 31 -21 51c0 13.333 2.66699 26 8 38s12.5 22.5 21.5 31.5s19.333 16 31 21s23.5 7.5 35.5 7.5z" />
    <glyph glyph-name="Aring" unicode="&#xc5;" horiz-adv-x="654" 
d="M430 952c35.333 0 64 -10.335 86 -31.002s33 -48 33 -82c0 -32 -8.16699 -60 -24.5 -84s-37.166 -42.333 -62.499 -55c15.333 -1.33301 27.166 -6 35.499 -14s14.166 -23.667 17.499 -47l104 -620c0.666992 -3.33301 0.333984 -7.33301 -0.999023 -12
s-5.66602 -7 -12.999 -7h-144c-7.33301 0 -13.5 1 -18.5 3s-8.16699 6.66699 -9.5 14l-15 120h-191l-48 -115c-4 -7.33301 -7.83301 -12.833 -11.5 -16.5s-11.167 -5.5 -22.5 -5.5h-146c-6 0 -9.66699 1.83301 -11 5.5s-1 8.16699 1 13.5l278 619
c9.33301 20 18.666 34.5 27.999 43.5s20.666 14.833 33.999 17.5c-17.333 9.33301 -30.666 22.333 -39.999 39s-14 36.334 -14 59.001s4.16699 43.5 12.5 62.5s19.666 35.333 33.999 49s30.833 24.334 49.5 32.001s38.334 11.5 59.001 11.5zM289 284.998h110l-7 78l-11 144
h-8l-54 -147zM418 864.998c-14 0 -26.001 -5.33203 -36.001 -15.999s-15 -24 -15 -40c0 -12 3.33301 -21.5 10 -28.5s15.667 -10.5 27 -10.5c13.333 0 25.5 5 36.5 15s16.5 23.667 16.5 41c0 11.333 -3.66699 20.666 -11 27.999s-16.666 11 -27.999 11z" />
    <glyph glyph-name="AE" unicode="&#xc6;" horiz-adv-x="942" 
d="M906 23c-1.33301 -8.66699 -3.50488 -14.6709 -6.50488 -18.0039s-8.16699 -5 -15.5 -5h-312c-31.333 0 -56.833 3.83301 -76.5 11.5s-35 17.834 -46 30.501s-18.667 27.334 -23 44.001s-6.83301 34 -7.5 52h-185l-51 -115c-3.33301 -7.33301 -7 -13 -11 -17
s-11.667 -6 -23 -6h-146c-6 0 -10.667 2 -14 6s-2.33301 10 3 18l239 513c16.667 34.667 33.834 62.834 51.501 84.501s36.334 38.167 56.001 49.5s40.834 19 63.501 23s47.334 6 74.001 6h471c7.33301 0 12 -1.16699 14 -3.5s2.33301 -9.16602 1 -20.499l-16 -113
c-1.33301 -8.66699 -3.5 -14.5 -6.5 -17.5s-7.83301 -4.5 -14.5 -4.5h-211c-13.333 0 -24 -1.83301 -32 -5.5s-14.5 -8.16699 -19.5 -13.5s-8.66699 -11.333 -11 -18s-3.83301 -13.334 -4.5 -20.001l-6 -42h251c7.33301 0 11.833 -1.33301 13.5 -4
s1.83398 -9.66699 0.500977 -21l-15 -104c-2 -15.333 -9 -23 -21 -23h-251l-10 -75c-2 -12.667 -2 -22.667 0 -30s5.5 -12.833 10.5 -16.5s11 -6 18 -7s14.5 -1.5 22.5 -1.5h246c8 0 13 -1.16699 15 -3.5s2.33301 -9.16602 1 -20.499zM296.995 281.996h138.002l32 228
c2 14 5 28 9 42c-24.667 0 -42.834 -4.83301 -54.501 -14.5s-20.834 -21.167 -27.501 -34.5l-46 -103z" />
    <glyph glyph-name="Ccedilla" unicode="&#xc7;" horiz-adv-x="651" 
d="M432 710c38 0 73.502 -3.49707 106.502 -10.4971s63.167 -18.167 90.5 -33.5c10 -5.33301 14.667 -11 14 -17s-3.66699 -14.667 -9 -26l-35 -82c-5.33301 -13.333 -10.5 -21 -15.5 -23s-13.167 -1 -24.5 3c-12 4 -23.167 7.5 -33.5 10.5s-20.166 5.5 -29.499 7.5
s-19 3.33301 -29 4s-21 1 -33 1c-22 0 -43 -4.83301 -63 -14.5s-37.667 -24.667 -53 -45s-27.5 -46.333 -36.5 -78s-13.5 -69.5 -13.5 -113.5c0 -44.667 8.5 -78.334 25.5 -101.001s46.5 -34 88.5 -34c33.333 0 62.166 4 86.499 12s47.166 16 68.499 24
c10.667 4 17.5 5.16699 20.5 3.5s6.83301 -7.83398 11.5 -18.501l39 -92c4 -9.33301 5 -16.5 3 -21.5s-6.66699 -9.5 -14 -13.5c-37.333 -21.333 -73.833 -36.666 -109.5 -45.999s-72.167 -14.666 -109.5 -15.999l-17 -43c28.667 -1.33301 52.667 -5.33301 72 -12
s34.666 -14.834 45.999 -24.501s19.5 -20.334 24.5 -32.001s7.5 -23.5 7.5 -35.5c0 -15.333 -2.83301 -30.333 -8.5 -45s-14.834 -28 -27.501 -40s-29.334 -21.667 -50.001 -29s-46 -11 -76 -11c-12 0 -24.667 0.666992 -38 2s-26.333 3.16602 -39 5.49902
s-24.334 5.16602 -35.001 8.49902s-20 6.66602 -28 9.99902c-5.33301 2 -8.83301 4.5 -10.5 7.5s-1.5 8.16699 0.5 15.5l16 49c2.66699 7.33301 5.83398 11.166 9.50098 11.499s8.83398 -0.5 15.501 -2.5c15.333 -4.66699 28.333 -8 39 -10s23.334 -3 38.001 -3
c16 0 29.167 2.5 39.5 7.5s15.5 14.167 15.5 27.5c0 11.333 -5.66699 19.333 -17 24s-26.333 7 -45 7c-13.333 0 -21.833 0.166992 -25.5 0.5s-7.16699 2.16602 -10.5 5.49902c-5.33301 4.66699 -7.33301 9.83398 -6 15.501s3 12.167 5 19.5l30 73
c-41.333 4 -76.5 13.833 -105.5 29.5s-52.833 35.834 -71.5 60.501s-32.167 53.334 -40.5 86.001s-12.5 68.334 -12.5 107.001c0 68.667 9 130 27 184s42.833 99.5 74.5 136.5s69.5 65.333 113.5 85s92 29.5 144 29.5z" />
    <glyph glyph-name="Egrave" unicode="&#xc8;" horiz-adv-x="613" 
d="M563 23c-2.66699 -15.333 -9.66504 -23.001 -20.998 -23.001h-307c-38.667 0 -69.334 5.66699 -92.001 17s-39.667 26.166 -51 44.499s-18 38.833 -20 61.5s-1.33301 45 2 67l45 320c3.33301 24 9 47.5 17 70.5s19.667 43.333 35 61s35.166 31.834 59.499 42.501
s54.5 16 90.5 16h293c8 0 13 -1.16699 15 -3.5s2.33301 -9.16602 1 -20.499l-16 -113c-1.33301 -8.66699 -3.5 -14.5 -6.5 -17.5s-8.16699 -4.5 -15.5 -4.5h-227c-12.667 0 -23.167 -1.83301 -31.5 -5.5s-14.833 -8.16699 -19.5 -13.5s-8.16699 -11.333 -10.5 -18
s-3.83301 -13.334 -4.5 -20.001l-6 -42h260c8 0 12.667 -1.33301 14 -4s1.33301 -9.66699 0 -21l-15 -104c-1.33301 -8.66699 -3.33301 -14.667 -6 -18s-7.66699 -5 -15 -5h-260l-10 -75c-2 -12.667 -2 -22.667 0 -30s5.33301 -12.833 10 -16.5s10.5 -6 17.5 -7
s14.5 -1.5 22.5 -1.5h253c7.33301 0 12 -1.16699 14 -3.5s2.33301 -9.16602 1 -20.499zM527.002 804.999c6 -6 8.5 -10.499 7.5 -13.499s-3.16699 -6.16699 -6.5 -9.5l-48 -51c-4 -3.33301 -7.5 -5.33301 -10.5 -6s-7.16699 1 -12.5 5l-200 138
c-3.33301 2 -5.5 5.16699 -6.5 9.5s0.5 8.16602 4.5 11.499l79 79c6 4 10.667 5.83301 14 5.5s7.33301 -2.83301 12 -7.5z" />
    <glyph glyph-name="Eacute" unicode="&#xc9;" horiz-adv-x="613" 
d="M563 23c-2.66699 -15.333 -9.66504 -23.001 -20.998 -23.001h-307c-38.667 0 -69.334 5.66699 -92.001 17s-39.667 26.166 -51 44.499s-18 38.833 -20 61.5s-1.33301 45 2 67l45 320c3.33301 24 9 47.5 17 70.5s19.667 43.333 35 61s35.166 31.834 59.499 42.501
s54.5 16 90.5 16h293c8 0 13 -1.16699 15 -3.5s2.33301 -9.16602 1 -20.499l-16 -113c-1.33301 -8.66699 -3.5 -14.5 -6.5 -17.5s-8.16699 -4.5 -15.5 -4.5h-227c-12.667 0 -23.167 -1.83301 -31.5 -5.5s-14.833 -8.16699 -19.5 -13.5s-8.16699 -11.333 -10.5 -18
s-3.83301 -13.334 -4.5 -20.001l-6 -42h260c8 0 12.667 -1.33301 14 -4s1.33301 -9.66699 0 -21l-15 -104c-1.33301 -8.66699 -3.33301 -14.667 -6 -18s-7.66699 -5 -15 -5h-260l-10 -75c-2 -12.667 -2 -22.667 0 -30s5.33301 -12.833 10 -16.5s10.5 -6 17.5 -7
s14.5 -1.5 22.5 -1.5h253c7.33301 0 12 -1.16699 14 -3.5s2.33301 -9.16602 1 -20.499zM520.002 954.999c5.33301 4 9.66895 6.16797 13.002 6.50098s7.66602 -1.83398 12.999 -6.50098l69 -88c4 -3.33301 5.33301 -7.16602 4 -11.499s-4 -7.16602 -8 -8.49902l-214 -115
c-6 -3.33301 -10.5 -4.5 -13.5 -3.5s-6.16699 3.16699 -9.5 6.5l-42 56c-2.66699 3.33301 -4.33398 6.66602 -5.00098 9.99902s2.33301 7.66602 9 12.999z" />
    <glyph glyph-name="Ecircumflex" unicode="&#xca;" horiz-adv-x="613" 
d="M563 23c-2.66699 -15.333 -9.66504 -23.001 -20.998 -23.001h-307c-38.667 0 -69.334 5.66699 -92.001 17s-39.667 26.166 -51 44.499s-18 38.833 -20 61.5s-1.33301 45 2 67l45 320c3.33301 24 9 47.5 17 70.5s19.667 43.333 35 61s35.166 31.834 59.499 42.501
s54.5 16 90.5 16h293c8 0 13 -1.16699 15 -3.5s2.33301 -9.16602 1 -20.499l-16 -113c-1.33301 -8.66699 -3.5 -14.5 -6.5 -17.5s-8.16699 -4.5 -15.5 -4.5h-227c-12.667 0 -23.167 -1.83301 -31.5 -5.5s-14.833 -8.16699 -19.5 -13.5s-8.16699 -11.333 -10.5 -18
s-3.83301 -13.334 -4.5 -20.001l-6 -42h260c8 0 12.667 -1.33301 14 -4s1.33301 -9.66699 0 -21l-15 -104c-1.33301 -8.66699 -3.33301 -14.667 -6 -18s-7.66699 -5 -15 -5h-260l-10 -75c-2 -12.667 -2 -22.667 0 -30s5.33301 -12.833 10 -16.5s10.5 -6 17.5 -7
s14.5 -1.5 22.5 -1.5h253c7.33301 0 12 -1.16699 14 -3.5s2.33301 -9.16602 1 -20.499zM642.002 802.999c5.33301 -6 7.50293 -11.166 6.50293 -15.499s-5.16699 -9.5 -12.5 -15.5l-35 -36c-4.66699 -6 -9.33398 -8.83301 -14.001 -8.5s-10.667 3.16602 -18 8.49902l-134 88
l-148 -85c-6.66699 -4 -11.834 -6.16699 -15.501 -6.5s-8.16699 2.5 -13.5 8.5l-28 31c-5.33301 6 -7.33301 11 -6 15s4.66602 9 9.99902 15l142 121c12.667 10.667 26 19.5 40 26.5s26.667 10.5 38 10.5c15.333 0 28.333 -3.33301 39 -10s21.667 -15.667 33 -27z" />
    <glyph glyph-name="Edieresis" unicode="&#xcb;" horiz-adv-x="613" 
d="M563 23c-2.66699 -15.333 -9.66504 -23.001 -20.998 -23.001h-307c-38.667 0 -69.334 5.66699 -92.001 17s-39.667 26.166 -51 44.499s-18 38.833 -20 61.5s-1.33301 45 2 67l45 320c3.33301 24 9 47.5 17 70.5s19.667 43.333 35 61s35.166 31.834 59.499 42.501
s54.5 16 90.5 16h293c8 0 13 -1.16699 15 -3.5s2.33301 -9.16602 1 -20.499l-16 -113c-1.33301 -8.66699 -3.5 -14.5 -6.5 -17.5s-8.16699 -4.5 -15.5 -4.5h-227c-12.667 0 -23.167 -1.83301 -31.5 -5.5s-14.833 -8.16699 -19.5 -13.5s-8.16699 -11.333 -10.5 -18
s-3.83301 -13.334 -4.5 -20.001l-6 -42h260c8 0 12.667 -1.33301 14 -4s1.33301 -9.66699 0 -21l-15 -104c-1.33301 -8.66699 -3.33301 -14.667 -6 -18s-7.66699 -5 -15 -5h-260l-10 -75c-2 -12.667 -2 -22.667 0 -30s5.33301 -12.833 10 -16.5s10.5 -6 17.5 -7
s14.5 -1.5 22.5 -1.5h253c7.33301 0 12 -1.16699 14 -3.5s2.33301 -9.16602 1 -20.499zM550.002 907.999c20 0 36.665 -7 49.998 -21s20 -31.667 20 -53c0 -12.667 -2.66699 -24.667 -8 -36s-12.5 -21.5 -21.5 -30.5s-19.167 -16.167 -30.5 -21.5s-22.666 -8 -33.999 -8
c-21.333 0 -38.833 7 -52.5 21s-20.5 31 -20.5 51c0 13.333 2.66699 26 8 38s12.5 22.5 21.5 31.5s19.333 16 31 21s23.834 7.5 36.501 7.5zM334 907.999c20.667 0 37.833 -7.16699 51.5 -21.5s20.5 -32.166 20.5 -53.499c0 -12 -2.83301 -23.833 -8.5 -35.5
s-13 -21.834 -22 -30.501s-19.167 -15.667 -30.5 -21s-23 -8 -35 -8c-20 0 -37 7 -51 21s-21 31 -21 51c0 13.333 2.66699 26 8 38s12.5 22.5 21.5 31.5s19.333 16 31 21s23.5 7.5 35.5 7.5z" />
    <glyph glyph-name="Igrave" unicode="&#xcc;" horiz-adv-x="358" 
d="M248 21c-1.33301 -8 -3.16797 -13.5 -5.50098 -16.5s-9.16602 -4.5 -20.499 -4.5h-137c-16 0 -23 7 -21 21l93 658c2 14 10.667 21 26 21h137c11.333 0 18 -1.5 20 -4.5s2.33301 -8.5 1 -16.5zM344.998 805c6 -6 8.5 -10.499 7.5 -13.499s-3.16699 -6.16699 -6.5 -9.5
l-48 -51c-4 -3.33301 -7.5 -5.33301 -10.5 -6s-7.16699 1 -12.5 5l-200 138c-3.33301 2 -5.5 5.16699 -6.5 9.5s0.5 8.16602 4.5 11.499l79 79c6 4 10.667 5.83301 14 5.5s7.33301 -2.83301 12 -7.5z" />
    <glyph glyph-name="Iacute" unicode="&#xcd;" horiz-adv-x="358" 
d="M248 21c-1.33301 -8 -3.16797 -13.5 -5.50098 -16.5s-9.16602 -4.5 -20.499 -4.5h-137c-16 0 -23 7 -21 21l93 658c2 14 10.667 21 26 21h137c11.333 0 18 -1.5 20 -4.5s2.33301 -8.5 1 -16.5zM367.998 955c5.33301 4 9.66895 6.16797 13.002 6.50098
s7.66602 -1.83398 12.999 -6.50098l69 -88c4 -3.33301 5.33301 -7.16602 4 -11.499s-4 -7.16602 -8 -8.49902l-214 -115c-6 -3.33301 -10.5 -4.5 -13.5 -3.5s-6.16699 3.16699 -9.5 6.5l-42 56c-2.66699 3.33301 -4.33398 6.66602 -5.00098 9.99902
s2.33301 7.66602 9 12.999z" />
    <glyph glyph-name="Icircumflex" unicode="&#xce;" horiz-adv-x="358" 
d="M248 21c-1.33301 -8 -3.16797 -13.5 -5.50098 -16.5s-9.16602 -4.5 -20.499 -4.5h-137c-16 0 -23 7 -21 21l93 658c2 14 10.667 21 26 21h137c11.333 0 18 -1.5 20 -4.5s2.33301 -8.5 1 -16.5zM468.998 803c5.33301 -6 7.50293 -11.166 6.50293 -15.499
s-5.16699 -9.5 -12.5 -15.5l-35 -36c-4.66699 -6 -9.33398 -8.83301 -14.001 -8.5s-10.667 3.16602 -18 8.49902l-134 88l-148 -85c-6.66699 -4 -11.834 -6.16699 -15.501 -6.5s-8.16699 2.5 -13.5 8.5l-28 31c-5.33301 6 -7.33301 11 -6 15s4.66602 9 9.99902 15l142 121
c12.667 10.667 26 19.5 40 26.5s26.667 10.5 38 10.5c15.333 0 28.333 -3.33301 39 -10s21.667 -15.667 33 -27z" />
    <glyph glyph-name="Idieresis" unicode="&#xcf;" horiz-adv-x="358" 
d="M248 21c-1.33301 -8 -3.16797 -13.5 -5.50098 -16.5s-9.16602 -4.5 -20.499 -4.5h-137c-16 0 -23 7 -21 21l93 658c2 14 10.667 21 26 21h137c11.333 0 18 -1.5 20 -4.5s2.33301 -8.5 1 -16.5zM386.998 909c20 0 36.665 -7 49.998 -21s20 -31.667 20 -53
c0 -12.667 -2.66699 -24.667 -8 -36s-12.5 -21.5 -21.5 -30.5s-19.167 -16.167 -30.5 -21.5s-22.666 -8 -33.999 -8c-21.333 0 -38.833 7 -52.5 21s-20.5 31 -20.5 51c0 13.333 2.66699 26 8 38s12.5 22.5 21.5 31.5s19.333 16 31 21s23.834 7.5 36.501 7.5zM170.996 909
c20.667 0 37.833 -7.16699 51.5 -21.5s20.5 -32.166 20.5 -53.499c0 -12 -2.83301 -23.833 -8.5 -35.5s-13 -21.834 -22 -30.501s-19.167 -15.667 -30.5 -21s-23 -8 -35 -8c-20 0 -37 7 -51 21s-21 31 -21 51c0 13.333 2.66699 26 8 38s12.5 22.5 21.5 31.5s19.333 16 31 21
s23.5 7.5 35.5 7.5z" />
    <glyph glyph-name="Eth" unicode="&#xd0;" horiz-adv-x="686" 
d="M111 0c-27.333 0 -44 5.16895 -50 15.502s-7.33301 27.166 -4 50.499l33 236h-34c-15.333 0 -22 7.66699 -20 23l8 59c2 11.333 5 18.166 9 20.499s10 3.5 18 3.5h34l32 226c3.33301 22 9.33301 38.5 18 49.5s26.667 16.5 54 16.5h178
c52.667 0 96.5 -7.83301 131.5 -23.5s63 -36.5 84 -62.5s35.667 -56 44 -90s12.5 -69.667 12.5 -107c0 -29.333 -2.16699 -59.833 -6.5 -91.5s-11.833 -63 -22.5 -94s-24.667 -60.5 -42 -88.5s-39 -52.5 -65 -73.5s-57 -37.833 -93 -50.5s-77.333 -19 -124 -19h-195z
M305 538.002l-18 -130h88c8 0 13.667 -1.16699 17 -3.5s4 -9.16602 2 -20.499l-8 -59c-2 -15.333 -10.667 -23 -26 -23h-88l-19 -138h43c32.667 0 60.167 6.66699 82.5 20s40.333 30.833 54 52.5s23.5 46.5 29.5 74.5s9 57 9 87c0 20.667 -2 39.667 -6 57
s-10.833 32.166 -20.5 44.499s-22.5 21.833 -38.5 28.5s-36.333 10 -61 10h-40z" />
    <glyph glyph-name="Ntilde" unicode="&#xd1;" horiz-adv-x="754" 
d="M287 399l-54.001 -378c-1.33301 -8 -3.16602 -13.5 -5.49902 -16.5s-8.83301 -4.5 -19.5 -4.5h-138c-15.333 0 -22 7 -20 21l85 600c4 31.333 11.833 52.333 23.5 63s31.167 16 58.5 16h50c11.333 0 20.666 -0.333008 27.999 -1s13.833 -2.5 19.5 -5.5
s10.5 -7.5 14.5 -13.5s8.66699 -14.333 14 -25l103 -218l62 -136h7l53 378c1.33301 8 3.33301 13.5 6 16.5s9.33398 4.5 20.001 4.5h138c14.667 0 21 -7 19 -21l-84 -600c-3.33301 -22.667 -10.666 -41.5 -21.999 -56.5s-31.333 -22.5 -60 -22.5h-50
c-11.333 0 -20.833 0.5 -28.5 1.5s-14.334 3 -20.001 6s-10.667 7.5 -15 13.5s-8.83301 14 -13.5 24l-98 206l-66 148h-7zM535.999 750c-12 0 -23.6631 2.33594 -34.9961 7.00293s-22.5 9.66699 -33.5 15s-21.833 10.333 -32.5 15s-21.334 7 -32.001 7
c-18.667 0 -36.667 -10.667 -54 -32c-5.33301 -6.66699 -9.83301 -11 -13.5 -13s-9.83398 -0.333008 -18.501 5l-40 25c-8.66699 5.33301 -12.834 9.5 -12.501 12.5s2.5 7.83301 6.5 14.5c18.667 30 39.834 53.667 63.501 71s50.5 26 80.5 26
c12.667 0 24.667 -2.33301 36 -7s22.166 -9.83398 32.499 -15.501s20.833 -10.834 31.5 -15.501s21.667 -7 33 -7c8.66699 0 17 3.33301 25 10s17.667 16.667 29 30c6 7.33301 9.83301 11.666 11.5 12.999s5.5 0.333008 11.5 -3l46 -23c7.33301 -4 11.666 -7.5 12.999 -10.5
s-0.666992 -9.16699 -6 -18.5c-36.667 -70.667 -84 -106 -142 -106z" />
    <glyph glyph-name="Ograve" unicode="&#xd2;" horiz-adv-x="721" 
d="M427 711c46 0 85.832 -6.8291 119.499 -20.4961s61.5 -32.834 83.5 -57.501s38.5 -54.5 49.5 -89.5s16.5 -73.833 16.5 -116.5c0 -64.667 -7.5 -123.834 -22.5 -177.501s-37.5 -99.834 -67.5 -138.501s-67.333 -68.667 -112 -90s-96.334 -32 -155.001 -32
c-46.667 0 -86.667 6.33301 -120 19s-60.833 31.167 -82.5 55.5s-37.667 54.166 -48 89.499s-15.5 75.333 -15.5 120c0 65.333 8.16699 125 24.5 179s39.833 100.167 70.5 138.5s67.834 68 111.501 89s92.834 31.5 147.501 31.5zM409.999 543.004
c-24 0 -45.002 -7.66504 -63.002 -22.998s-33 -35.5 -45 -60.5s-21 -53 -27 -84s-9 -62.5 -9 -94.5c0 -38.667 7.16699 -68.834 21.5 -90.501s38.833 -32.5 73.5 -32.5c24.667 0 45.834 7.5 63.501 22.5s32.334 34.833 44.001 59.5s20.167 52.167 25.5 82.5
s8 61.166 8 92.499c0 18.667 -1.5 35.834 -4.5 51.501s-8 29.167 -15 40.5s-16.333 20.166 -28 26.499s-26.5 9.5 -44.5 9.5zM537.997 811.006c6 -6 8.5 -10.499 7.5 -13.499s-3.16699 -6.16699 -6.5 -9.5l-48 -51c-4 -3.33301 -7.5 -5.33301 -10.5 -6s-7.16699 1 -12.5 5
l-200 138c-3.33301 2 -5.5 5.16699 -6.5 9.5s0.5 8.16602 4.5 11.499l79 79c6 4 10.667 5.83301 14 5.5s7.33301 -2.83301 12 -7.5z" />
    <glyph glyph-name="Oacute" unicode="&#xd3;" horiz-adv-x="721" 
d="M427 711c46 0 85.832 -6.8291 119.499 -20.4961s61.5 -32.834 83.5 -57.501s38.5 -54.5 49.5 -89.5s16.5 -73.833 16.5 -116.5c0 -64.667 -7.5 -123.834 -22.5 -177.501s-37.5 -99.834 -67.5 -138.501s-67.333 -68.667 -112 -90s-96.334 -32 -155.001 -32
c-46.667 0 -86.667 6.33301 -120 19s-60.833 31.167 -82.5 55.5s-37.667 54.166 -48 89.499s-15.5 75.333 -15.5 120c0 65.333 8.16699 125 24.5 179s39.833 100.167 70.5 138.5s67.834 68 111.501 89s92.834 31.5 147.501 31.5zM409.999 543.004
c-24 0 -45.002 -7.66504 -63.002 -22.998s-33 -35.5 -45 -60.5s-21 -53 -27 -84s-9 -62.5 -9 -94.5c0 -38.667 7.16699 -68.834 21.5 -90.501s38.833 -32.5 73.5 -32.5c24.667 0 45.834 7.5 63.501 22.5s32.334 34.833 44.001 59.5s20.167 52.167 25.5 82.5
s8 61.166 8 92.499c0 18.667 -1.5 35.834 -4.5 51.501s-8 29.167 -15 40.5s-16.333 20.166 -28 26.499s-26.5 9.5 -44.5 9.5zM570.997 968.006c5.33301 4 9.66895 6.16797 13.002 6.50098s7.66602 -1.83398 12.999 -6.50098l69 -88c4 -3.33301 5.33301 -7.16602 4 -11.499
s-4 -7.16602 -8 -8.49902l-214 -115c-6 -3.33301 -10.5 -4.5 -13.5 -3.5s-6.16699 3.16699 -9.5 6.5l-42 56c-2.66699 3.33301 -4.33398 6.66602 -5.00098 9.99902s2.33301 7.66602 9 12.999z" />
    <glyph glyph-name="Ocircumflex" unicode="&#xd4;" horiz-adv-x="721" 
d="M427 711c46 0 85.832 -6.8291 119.499 -20.4961s61.5 -32.834 83.5 -57.501s38.5 -54.5 49.5 -89.5s16.5 -73.833 16.5 -116.5c0 -64.667 -7.5 -123.834 -22.5 -177.501s-37.5 -99.834 -67.5 -138.501s-67.333 -68.667 -112 -90s-96.334 -32 -155.001 -32
c-46.667 0 -86.667 6.33301 -120 19s-60.833 31.167 -82.5 55.5s-37.667 54.166 -48 89.499s-15.5 75.333 -15.5 120c0 65.333 8.16699 125 24.5 179s39.833 100.167 70.5 138.5s67.834 68 111.501 89s92.834 31.5 147.501 31.5zM409.999 543.004
c-24 0 -45.002 -7.66504 -63.002 -22.998s-33 -35.5 -45 -60.5s-21 -53 -27 -84s-9 -62.5 -9 -94.5c0 -38.667 7.16699 -68.834 21.5 -90.501s38.833 -32.5 73.5 -32.5c24.667 0 45.834 7.5 63.501 22.5s32.334 34.833 44.001 59.5s20.167 52.167 25.5 82.5
s8 61.166 8 92.499c0 18.667 -1.5 35.834 -4.5 51.501s-8 29.167 -15 40.5s-16.333 20.166 -28 26.499s-26.5 9.5 -44.5 9.5zM651.997 803.006c5.33301 -6 7.50293 -11.166 6.50293 -15.499s-5.16699 -9.5 -12.5 -15.5l-35 -36c-4.66699 -6 -9.33398 -8.83301 -14.001 -8.5
s-10.667 3.16602 -18 8.49902l-134 88l-148 -85c-6.66699 -4 -11.834 -6.16699 -15.501 -6.5s-8.16699 2.5 -13.5 8.5l-28 31c-5.33301 6 -7.33301 11 -6 15s4.66602 9 9.99902 15l142 121c12.667 10.667 26 19.5 40 26.5s26.667 10.5 38 10.5
c15.333 0 28.333 -3.33301 39 -10s21.667 -15.667 33 -27z" />
    <glyph glyph-name="Otilde" unicode="&#xd5;" horiz-adv-x="721" 
d="M427 711c46 0 85.832 -6.8291 119.499 -20.4961s61.5 -32.834 83.5 -57.501s38.5 -54.5 49.5 -89.5s16.5 -73.833 16.5 -116.5c0 -64.667 -7.5 -123.834 -22.5 -177.501s-37.5 -99.834 -67.5 -138.501s-67.333 -68.667 -112 -90s-96.334 -32 -155.001 -32
c-46.667 0 -86.667 6.33301 -120 19s-60.833 31.167 -82.5 55.5s-37.667 54.166 -48 89.499s-15.5 75.333 -15.5 120c0 65.333 8.16699 125 24.5 179s39.833 100.167 70.5 138.5s67.834 68 111.501 89s92.834 31.5 147.501 31.5zM409.999 543.004
c-24 0 -45.002 -7.66504 -63.002 -22.998s-33 -35.5 -45 -60.5s-21 -53 -27 -84s-9 -62.5 -9 -94.5c0 -38.667 7.16699 -68.834 21.5 -90.501s38.833 -32.5 73.5 -32.5c24.667 0 45.834 7.5 63.501 22.5s32.334 34.833 44.001 59.5s20.167 52.167 25.5 82.5
s8 61.166 8 92.499c0 18.667 -1.5 35.834 -4.5 51.501s-8 29.167 -15 40.5s-16.333 20.166 -28 26.499s-26.5 9.5 -44.5 9.5zM511.997 748.006c-12 0 -23.6631 2.33594 -34.9961 7.00293s-22.5 9.66699 -33.5 15s-21.833 10.333 -32.5 15s-21.334 7 -32.001 7
c-18.667 0 -36.667 -10.667 -54 -32c-5.33301 -6.66699 -9.83301 -11 -13.5 -13s-9.83398 -0.333008 -18.501 5l-40 25c-8.66699 5.33301 -12.834 9.5 -12.501 12.5s2.5 7.83301 6.5 14.5c18.667 30 39.834 53.667 63.501 71s50.5 26 80.5 26
c12.667 0 24.667 -2.33301 36 -7s22.166 -9.83398 32.499 -15.501s20.833 -10.834 31.5 -15.501s21.667 -7 33 -7c8.66699 0 17 3.33301 25 10s17.667 16.667 29 30c6 7.33301 9.83301 11.666 11.5 12.999s5.5 0.333008 11.5 -3l46 -23c7.33301 -4 11.666 -7.5 12.999 -10.5
s-0.666992 -9.16699 -6 -18.5c-36.667 -70.667 -84 -106 -142 -106z" />
    <glyph glyph-name="Odieresis" unicode="&#xd6;" horiz-adv-x="721" 
d="M427 711c46 0 85.832 -6.8291 119.499 -20.4961s61.5 -32.834 83.5 -57.501s38.5 -54.5 49.5 -89.5s16.5 -73.833 16.5 -116.5c0 -64.667 -7.5 -123.834 -22.5 -177.501s-37.5 -99.834 -67.5 -138.501s-67.333 -68.667 -112 -90s-96.334 -32 -155.001 -32
c-46.667 0 -86.667 6.33301 -120 19s-60.833 31.167 -82.5 55.5s-37.667 54.166 -48 89.499s-15.5 75.333 -15.5 120c0 65.333 8.16699 125 24.5 179s39.833 100.167 70.5 138.5s67.834 68 111.501 89s92.834 31.5 147.501 31.5zM409.999 543.004
c-24 0 -45.002 -7.66504 -63.002 -22.998s-33 -35.5 -45 -60.5s-21 -53 -27 -84s-9 -62.5 -9 -94.5c0 -38.667 7.16699 -68.834 21.5 -90.501s38.833 -32.5 73.5 -32.5c24.667 0 45.834 7.5 63.501 22.5s32.334 34.833 44.001 59.5s20.167 52.167 25.5 82.5
s8 61.166 8 92.499c0 18.667 -1.5 35.834 -4.5 51.501s-8 29.167 -15 40.5s-16.333 20.166 -28 26.499s-26.5 9.5 -44.5 9.5zM595.997 910.006c20 0 36.665 -7 49.998 -21s20 -31.667 20 -53c0 -12.667 -2.66699 -24.667 -8 -36s-12.5 -21.5 -21.5 -30.5
s-19.167 -16.167 -30.5 -21.5s-22.666 -8 -33.999 -8c-21.333 0 -38.833 7 -52.5 21s-20.5 31 -20.5 51c0 13.333 2.66699 26 8 38s12.5 22.5 21.5 31.5s19.333 16 31 21s23.834 7.5 36.501 7.5zM379.995 910.006c20.667 0 37.833 -7.16699 51.5 -21.5
s20.5 -32.166 20.5 -53.499c0 -12 -2.83301 -23.833 -8.5 -35.5s-13 -21.834 -22 -30.501s-19.167 -15.667 -30.5 -21s-23 -8 -35 -8c-20 0 -37 7 -51 21s-21 31 -21 51c0 13.333 2.66699 26 8 38s12.5 22.5 21.5 31.5s19.333 16 31 21s23.5 7.5 35.5 7.5z" />
    <glyph glyph-name="multiply" unicode="&#xd7;" horiz-adv-x="676" 
d="M128 192c-5.33301 6 -7.16895 11.6709 -5.50195 17.0039s5.16699 10.666 10.5 15.999l132 118l-99 118c-9.33301 11.333 -7.66602 22.333 5.00098 33l72 65c9.33301 7.33301 15.833 10.666 19.5 9.99902s8.16699 -4 13.5 -10l98 -118l130 118
c12 11.333 22.667 11.333 32 0l54 -65c6.66699 -8 9.33398 -14.167 8.00098 -18.5s-5.66602 -9.5 -12.999 -15.5l-129 -117l96 -117c5.33301 -6 8.16602 -11.167 8.49902 -15.5s-4.16699 -10.5 -13.5 -18.5l-72 -65c-6.66699 -6 -12.5 -8.83301 -17.5 -8.5
s-9.83301 3.16602 -14.5 8.49902l-96 118l-132 -118c-6.66699 -6 -12 -9.33301 -16 -10s-9.66699 2.66602 -17 9.99902l-54 65v0z" />
    <glyph glyph-name="Oslash" unicode="&#xd8;" horiz-adv-x="721" 
d="M427 711c43.333 0 80.998 -5.99707 112.998 -17.9971s59.333 -29 82 -51l47 48c10.667 11.333 19 13.666 25 6.99902l19 -19c4 -4 6 -7.66699 6 -11s-3.33301 -8 -10 -14l-54 -55c27.333 -46.667 41 -103.667 41 -171c0 -64.667 -7.5 -123.834 -22.5 -177.501
s-37.5 -99.834 -67.5 -138.501s-67.333 -68.667 -112 -90s-96.334 -32 -155.001 -32c-92.667 0 -160.667 25.333 -204 76l-55 -57c-6.66699 -6.66699 -11.167 -10.167 -13.5 -10.5s-5.16602 1.16699 -8.49902 4.5l-19 21c-4.66699 4.66699 -6.66699 8.33398 -6 11.001
s3.66699 7 9 13l62 64c-10.667 21.333 -18.5 45.666 -23.5 72.999s-7.5 57 -7.5 89c0 65.333 8.16699 125 24.5 179s39.833 100.167 70.5 138.5s67.834 68 111.501 89s92.834 31.5 147.501 31.5zM501.998 415.003c0 4 -0.168945 8.16797 -0.501953 12.501
s-0.5 8.5 -0.5 12.5l-224 -230c13.333 -34.667 41.333 -52 84 -52c24.667 0 45.834 7.5 63.501 22.5s32.334 34.833 44.001 59.5s20.167 52.167 25.5 82.5s8 61.166 8 92.499zM409.996 543.004c-24 0 -45 -7.66602 -63 -22.999s-33 -35.5 -45 -60.5s-21 -53 -27 -84
s-9 -62.5 -9 -94.5v-5l219 225c-7.33301 13.333 -16.833 23.666 -28.5 30.999s-27.167 11 -46.5 11z" />
    <glyph glyph-name="Ugrave" unicode="&#xd9;" horiz-adv-x="720" 
d="M634 97c-3.33301 -21.333 -10.501 -40.5 -21.501 -57.5s-29.5 -29.167 -55.5 -36.5c-13.333 -4 -29.166 -7 -47.499 -9s-36.333 -3.5 -54 -4.5s-34 -1.66699 -49 -2s-26.167 -0.5 -33.5 -0.5c-57.333 0 -106 4.5 -146 13.5s-71.667 24.833 -95 47.5
s-38.666 52.834 -45.999 90.501s-7 85.167 1 142.5l56 398c2 14 10.333 21 25 21h138c10.667 0 17 -1.5 19 -4.5s2.33301 -8.5 1 -16.5l-59 -416c-5.33301 -39.333 0 -67.666 16 -84.999s46 -26 90 -26h16.5c7.66699 0 16 0.333008 25 1s17.833 1.16699 26.5 1.5
s15.667 1.16602 21 2.49902l73 522c1.33301 7.33301 3.66602 12.666 6.99902 15.999s9.33301 5 18 5h137c10.667 0 17 -1.5 19 -4.5s2.33301 -8.5 1 -16.5zM535.999 805c6 -6 8.5 -10.499 7.5 -13.499s-3.16699 -6.16699 -6.5 -9.5l-48 -51
c-4 -3.33301 -7.5 -5.33301 -10.5 -6s-7.16699 1 -12.5 5l-200 138c-3.33301 2 -5.5 5.16699 -6.5 9.5s0.5 8.16602 4.5 11.499l79 79c6 4 10.667 5.83301 14 5.5s7.33301 -2.83301 12 -7.5z" />
    <glyph glyph-name="Uacute" unicode="&#xda;" horiz-adv-x="720" 
d="M634 97c-3.33301 -21.333 -10.501 -40.5 -21.501 -57.5s-29.5 -29.167 -55.5 -36.5c-13.333 -4 -29.166 -7 -47.499 -9s-36.333 -3.5 -54 -4.5s-34 -1.66699 -49 -2s-26.167 -0.5 -33.5 -0.5c-57.333 0 -106 4.5 -146 13.5s-71.667 24.833 -95 47.5
s-38.666 52.834 -45.999 90.501s-7 85.167 1 142.5l56 398c2 14 10.333 21 25 21h138c10.667 0 17 -1.5 19 -4.5s2.33301 -8.5 1 -16.5l-59 -416c-5.33301 -39.333 0 -67.666 16 -84.999s46 -26 90 -26h16.5c7.66699 0 16 0.333008 25 1s17.833 1.16699 26.5 1.5
s15.667 1.16602 21 2.49902l73 522c1.33301 7.33301 3.66602 12.666 6.99902 15.999s9.33301 5 18 5h137c10.667 0 17 -1.5 19 -4.5s2.33301 -8.5 1 -16.5zM558.999 955c5.33301 4 9.66895 6.16797 13.002 6.50098s7.66602 -1.83398 12.999 -6.50098l69 -88
c4 -3.33301 5.33301 -7.16602 4 -11.499s-4 -7.16602 -8 -8.49902l-214 -115c-6 -3.33301 -10.5 -4.5 -13.5 -3.5s-6.16699 3.16699 -9.5 6.5l-42 56c-2.66699 3.33301 -4.33398 6.66602 -5.00098 9.99902s2.33301 7.66602 9 12.999z" />
    <glyph glyph-name="Ucircumflex" unicode="&#xdb;" horiz-adv-x="720" 
d="M634 97c-3.33301 -21.333 -10.501 -40.5 -21.501 -57.5s-29.5 -29.167 -55.5 -36.5c-13.333 -4 -29.166 -7 -47.499 -9s-36.333 -3.5 -54 -4.5s-34 -1.66699 -49 -2s-26.167 -0.5 -33.5 -0.5c-57.333 0 -106 4.5 -146 13.5s-71.667 24.833 -95 47.5
s-38.666 52.834 -45.999 90.501s-7 85.167 1 142.5l56 398c2 14 10.333 21 25 21h138c10.667 0 17 -1.5 19 -4.5s2.33301 -8.5 1 -16.5l-59 -416c-5.33301 -39.333 0 -67.666 16 -84.999s46 -26 90 -26h16.5c7.66699 0 16 0.333008 25 1s17.833 1.16699 26.5 1.5
s15.667 1.16602 21 2.49902l73 522c1.33301 7.33301 3.66602 12.666 6.99902 15.999s9.33301 5 18 5h137c10.667 0 17 -1.5 19 -4.5s2.33301 -8.5 1 -16.5zM663.999 803c5.33301 -6 7.50293 -11.166 6.50293 -15.499s-5.16699 -9.5 -12.5 -15.5l-35 -36
c-4.66699 -6 -9.33398 -8.83301 -14.001 -8.5s-10.667 3.16602 -18 8.49902l-134 88l-148 -85c-6.66699 -4 -11.834 -6.16699 -15.501 -6.5s-8.16699 2.5 -13.5 8.5l-28 31c-5.33301 6 -7.33301 11 -6 15s4.66602 9 9.99902 15l142 121c12.667 10.667 26 19.5 40 26.5
s26.667 10.5 38 10.5c15.333 0 28.333 -3.33301 39 -10s21.667 -15.667 33 -27z" />
    <glyph glyph-name="Udieresis" unicode="&#xdc;" horiz-adv-x="720" 
d="M634 97c-3.33301 -21.333 -10.501 -40.5 -21.501 -57.5s-29.5 -29.167 -55.5 -36.5c-13.333 -4 -29.166 -7 -47.499 -9s-36.333 -3.5 -54 -4.5s-34 -1.66699 -49 -2s-26.167 -0.5 -33.5 -0.5c-57.333 0 -106 4.5 -146 13.5s-71.667 24.833 -95 47.5
s-38.666 52.834 -45.999 90.501s-7 85.167 1 142.5l56 398c2 14 10.333 21 25 21h138c10.667 0 17 -1.5 19 -4.5s2.33301 -8.5 1 -16.5l-59 -416c-5.33301 -39.333 0 -67.666 16 -84.999s46 -26 90 -26h16.5c7.66699 0 16 0.333008 25 1s17.833 1.16699 26.5 1.5
s15.667 1.16602 21 2.49902l73 522c1.33301 7.33301 3.66602 12.666 6.99902 15.999s9.33301 5 18 5h137c10.667 0 17 -1.5 19 -4.5s2.33301 -8.5 1 -16.5zM561.999 912c20 0 36.665 -7 49.998 -21s20 -31.667 20 -53c0 -12.667 -2.66699 -24.667 -8 -36
s-12.5 -21.5 -21.5 -30.5s-19.167 -16.167 -30.5 -21.5s-22.666 -8 -33.999 -8c-21.333 0 -38.833 7 -52.5 21s-20.5 31 -20.5 51c0 13.333 2.66699 26 8 38s12.5 22.5 21.5 31.5s19.333 16 31 21s23.834 7.5 36.501 7.5zM345.997 912c20.667 0 37.833 -7.16699 51.5 -21.5
s20.5 -32.166 20.5 -53.499c0 -12 -2.83301 -23.833 -8.5 -35.5s-13 -21.834 -22 -30.501s-19.167 -15.667 -30.5 -21s-23 -8 -35 -8c-20 0 -37 7 -51 21s-21 31 -21 51c0 13.333 2.66699 26 8 38s12.5 22.5 21.5 31.5s19.333 16 31 21s23.5 7.5 35.5 7.5z" />
    <glyph glyph-name="Yacute" unicode="&#xdd;" horiz-adv-x="640" 
d="M349 418l71.002 136l71 124c4 7.33301 8.33301 12.833 13 16.5s11.667 5.5 21 5.5h163c12.667 0 18.667 -2.5 18 -7.5s-2.33398 -9.83301 -5.00098 -14.5l-278 -434l-31 -221c-1.33301 -8 -3.33301 -13.833 -6 -17.5s-9.33398 -5.5 -20.001 -5.5h-138
c-14.667 0 -21 7.66699 -19 23l30 218l-161 436c-2 4.66699 -1.66699 9.66699 1 15s9 8 19 8h146c13.333 0 21.5 -2 24.5 -6s5.5 -10.667 7.5 -20l35 -122l32 -134h6zM509.002 955c5.33301 4 9.66895 6.16797 13.002 6.50098s7.66602 -1.83398 12.999 -6.50098l69 -88
c4 -3.33301 5.33301 -7.16602 4 -11.499s-4 -7.16602 -8 -8.49902l-214 -115c-6 -3.33301 -10.5 -4.5 -13.5 -3.5s-6.16699 3.16699 -9.5 6.5l-42 56c-2.66699 3.33301 -4.33398 6.66602 -5.00098 9.99902s2.33301 7.66602 9 12.999z" />
    <glyph glyph-name="Thorn" unicode="&#xde;" horiz-adv-x="648" 
d="M304 599h136.998c35.333 0 65.833 -5.16699 91.5 -15.5s47 -24.5 64 -42.5s29.667 -39.5 38 -64.5s12.5 -52.167 12.5 -81.5c0 -9.33301 -1.16699 -22.333 -3.5 -39s-7 -34.5 -14 -53.5s-17.167 -38.333 -30.5 -58s-31.166 -37.5 -53.499 -53.5s-49.833 -29 -82.5 -39
s-72 -15 -118 -15h-95l-16 -114c-1.33301 -8 -3.33301 -13.833 -6 -17.5s-9.33398 -5.5 -20.001 -5.5h-138c-14.667 0 -21 7.66699 -19 23l93 666c2 15.333 10.667 23 26 23h127c10.667 0 16.834 -1.83301 18.501 -5.5s1.83398 -9.5 0.500977 -17.5zM291.998 436l-21 -151
h102c12.667 0 24.167 2.66699 34.5 8s19 12.166 26 20.499s12.5 17.833 16.5 28.5s6 21.334 6 32.001c0 6.66699 -1 13.667 -3 21s-5.33301 14 -10 20s-11 11 -19 15s-18 6 -30 6h-102z" />
    <glyph glyph-name="germandbls" unicode="&#xdf;" horiz-adv-x="618" 
d="M304 -34c-18 0 -28.5 1.49707 -31.5 4.49707s-3.83301 9.83301 -2.5 20.5l14 99c1.33301 8.66699 3.16602 14.5 5.49902 17.5s8.83301 5.5 19.5 7.5c22 4 38.833 11.667 50.5 23s20.334 23.833 26.001 37.5s9 26.834 10 39.501s1.5 22.334 1.5 29.001
c0 20 -4.5 37.833 -13.5 53.5s-23.833 26.167 -44.5 31.5c-15.333 4 -25 8.33301 -29 13s-5.33301 13 -4 25l7 48c1.33301 13.333 4.66602 23.5 9.99902 30.5s17.666 11.833 36.999 14.5c5.33301 0.666992 11.5 2.66699 18.5 6s13.5 8.33301 19.5 15
s11.167 14.834 15.5 24.501s6.5 21.5 6.5 35.5c0 13.333 -4.16699 25.666 -12.5 36.999s-22.5 17 -42.5 17c-24 0 -42.5 -8.16699 -55.5 -24.5s-21.167 -36.166 -24.5 -59.499l-67 -482c-1.33301 -9.33301 -3.83301 -16.5 -7.5 -21.5s-12.167 -7.5 -25.5 -7.5h-120
c-10 0 -16.667 2.66699 -20 8s-4.33301 12.333 -3 21l65 464c11.333 82 40.166 144.167 86.499 186.5s105.833 63.5 178.5 63.5c74.667 0 131.334 -16.333 170.001 -49s58 -76 58 -130c0 -11.333 -1.33301 -24 -4 -38s-7.5 -28.167 -14.5 -42.5s-17 -28.5 -30 -42.5
s-29.5 -26.333 -49.5 -37v-5c30 -15.333 50.667 -35.166 62 -59.499s17 -55.5 17 -93.5c0 -55.333 -7.66699 -100.833 -23 -136.5s-35.666 -64 -60.999 -85s-54.666 -35.833 -87.999 -44.5s-68.333 -13.334 -105 -14.001z" />
    <glyph glyph-name="agrave" unicode="&#xe0;" horiz-adv-x="606" 
d="M347 389c-31.333 0 -57.834 -13.166 -79.501 -39.499s-32.5 -68.5 -32.5 -126.5c0 -30 5.83301 -51.333 17.5 -64s28.834 -19 51.501 -19c6 0 15 0.666992 27 2s22.667 3.66602 32 6.99902c4 32.667 7.16699 57.5 9.5 74.5s4.33301 32.167 6 45.5s3.66699 28 6 44
s6.16602 39 11.499 69c-8.66699 2.66699 -17.667 4.5 -27 5.5s-16.666 1.5 -21.999 1.5zM266.999 -11.999c-43.333 0 -78.999 4.99902 -106.999 14.999s-50 24 -66 42s-27.167 39.5 -33.5 64.5s-9.5 52.167 -9.5 81.5c0 108 23.333 192.5 70 253.5s117 91.5 211 91.5
c25.333 0 58.166 -1.5 98.499 -4.5s84.166 -11.167 131.499 -24.5c11.333 -3.33301 17.833 -7.66602 19.5 -12.999s1.83398 -11.666 0.500977 -18.999c-12 -74 -22.667 -146.167 -32 -216.5s-18 -141.833 -26 -214.5c-1.33301 -5.33301 -2.83301 -9.33301 -4.5 -12
s-5.16699 -5 -10.5 -7c-22 -8 -44.833 -14.5 -68.5 -19.5s-46.167 -8.83301 -67.5 -11.5s-41.333 -4.33398 -60 -5.00098s-34 -1 -46 -1zM469 639c4 -6 4.99902 -10.668 2.99902 -14.001s-5.33301 -6.66602 -10 -9.99902l-57 -36c-4 -3.33301 -7.66699 -5 -11 -5
s-7.33301 2.33301 -12 7l-161 169c-3.33301 2.66699 -5 6 -5 10s2.33301 7.33301 7 10l110 64c7.33301 3.33301 12.333 4.5 15 3.5s5.33398 -4.16699 8.00098 -9.5z" />
    <glyph glyph-name="aacute" unicode="&#xe1;" horiz-adv-x="606" 
d="M267 -12c-43.333 0 -78.999 4.99902 -106.999 14.999s-50 24 -66 42s-27.167 39.5 -33.5 64.5s-9.5 52.167 -9.5 81.5c0 108 23.333 192.5 70 253.5s117 91.5 211 91.5c25.333 0 58.166 -1.5 98.499 -4.5s84.166 -11.167 131.499 -24.5
c11.333 -3.33301 17.833 -7.66602 19.5 -12.999s1.83398 -11.666 0.500977 -18.999c-12 -74 -22.667 -146.167 -32 -216.5s-18 -141.833 -26 -214.5c-1.33301 -5.33301 -2.83301 -9.33301 -4.5 -12s-5.16699 -5 -10.5 -7c-22 -8 -44.833 -14.5 -68.5 -19.5
s-46.167 -8.83301 -67.5 -11.5s-41.333 -4.33398 -60 -5.00098s-34 -1 -46 -1zM407.001 798.999c2.66699 5.33301 5.49902 9.00098 8.49902 11.001s8.16699 2.33301 15.5 1l117 -30c5.33301 -1.33301 8.5 -4 9.5 -8s-0.166992 -7.66699 -3.5 -11l-146 -186
c-3.33301 -6 -6.66602 -9.33301 -9.99902 -10s-7.66602 -0.333984 -12.999 0.999023l-67 24c-4.66699 1.33301 -7.83398 3.33301 -9.50098 6s-0.5 7.66699 3.5 15zM347 389c-31.333 0 -57.834 -13.166 -79.501 -39.499s-32.5 -68.5 -32.5 -126.5
c0 -30 5.83301 -51.333 17.5 -64s28.834 -19 51.501 -19c6 0 15 0.666992 27 2s22.667 3.66602 32 6.99902c4 32.667 7.16699 57.5 9.5 74.5s4.33301 32.167 6 45.5s3.66699 28 6 44s6.16602 39 11.499 69c-8.66699 2.66699 -17.667 4.5 -27 5.5s-16.666 1.5 -21.999 1.5z
" />
    <glyph glyph-name="acircumflex" unicode="&#xe2;" horiz-adv-x="606" 
d="M347 389c-31.333 0 -57.834 -13.166 -79.501 -39.499s-32.5 -68.5 -32.5 -126.5c0 -30 5.83301 -51.333 17.5 -64s28.834 -19 51.501 -19c6 0 15 0.666992 27 2s22.667 3.66602 32 6.99902c4 32.667 7.16699 57.5 9.5 74.5s4.33301 32.167 6 45.5s3.66699 28 6 44
s6.16602 39 11.499 69c-8.66699 2.66699 -17.667 4.5 -27 5.5s-16.666 1.5 -21.999 1.5zM266.999 -11.999c-43.333 0 -78.999 4.99902 -106.999 14.999s-50 24 -66 42s-27.167 39.5 -33.5 64.5s-9.5 52.167 -9.5 81.5c0 108 23.333 192.5 70 253.5s117 91.5 211 91.5
c25.333 0 58.166 -1.5 98.499 -4.5s84.166 -11.167 131.499 -24.5c11.333 -3.33301 17.833 -7.66602 19.5 -12.999s1.83398 -11.666 0.500977 -18.999c-12 -74 -22.667 -146.167 -32 -216.5s-18 -141.833 -26 -214.5c-1.33301 -5.33301 -2.83301 -9.33301 -4.5 -12
s-5.16699 -5 -10.5 -7c-22 -8 -44.833 -14.5 -68.5 -19.5s-46.167 -8.83301 -67.5 -11.5s-41.333 -4.33398 -60 -5.00098s-34 -1 -46 -1zM569 627c4.66699 -6 6.33105 -11.165 4.99805 -15.498s-5.33301 -9.5 -12 -15.5l-36 -31c-6 -4.66699 -11.333 -6.83398 -16 -6.50098
s-10 3.16602 -16 8.49902l-120 103l-152 -115c-6 -4 -11 -5.66699 -15 -5s-8.66699 3.66699 -14 9l-38 37c-4.66699 6 -6.5 11 -5.5 15s4.16699 9 9.5 15l145 141c12.667 11.333 25.834 20.666 39.501 27.999s26.167 11 37.5 11c18.667 0 33.334 -3.16699 44.001 -9.5
s20.667 -16.166 30 -29.499z" />
    <glyph glyph-name="atilde" unicode="&#xe3;" horiz-adv-x="606" 
d="M347 389c-31.333 0 -57.834 -13.166 -79.501 -39.499s-32.5 -68.5 -32.5 -126.5c0 -30 5.83301 -51.333 17.5 -64s28.834 -19 51.501 -19c6 0 15 0.666992 27 2s22.667 3.66602 32 6.99902c4 32.667 7.16699 57.5 9.5 74.5s4.33301 32.167 6 45.5s3.66699 28 6 44
s6.16602 39 11.499 69c-8.66699 2.66699 -17.667 4.5 -27 5.5s-16.666 1.5 -21.999 1.5zM266.999 -11.999c-43.333 0 -78.999 4.99902 -106.999 14.999s-50 24 -66 42s-27.167 39.5 -33.5 64.5s-9.5 52.167 -9.5 81.5c0 108 23.333 192.5 70 253.5s117 91.5 211 91.5
c25.333 0 58.166 -1.5 98.499 -4.5s84.166 -11.167 131.499 -24.5c11.333 -3.33301 17.833 -7.66602 19.5 -12.999s1.83398 -11.666 0.500977 -18.999c-12 -74 -22.667 -146.167 -32 -216.5s-18 -141.833 -26 -214.5c-1.33301 -5.33301 -2.83301 -9.33301 -4.5 -12
s-5.16699 -5 -10.5 -7c-22 -8 -44.833 -14.5 -68.5 -19.5s-46.167 -8.83301 -67.5 -11.5s-41.333 -4.33398 -60 -5.00098s-34 -1 -46 -1zM423 597c-12 0 -23.6631 2.33594 -34.9961 7.00293s-22.5 9.66699 -33.5 15s-21.833 10.333 -32.5 15s-21.334 7 -32.001 7
c-18.667 0 -36.667 -10.667 -54 -32c-5.33301 -6.66699 -9.83301 -11 -13.5 -13s-9.83398 -0.333008 -18.501 5l-40 25c-8.66699 5.33301 -12.834 9.5 -12.501 12.5s2.5 7.83301 6.5 14.5c18.667 30 39.834 53.667 63.501 71s50.5 26 80.5 26
c12.667 0 24.667 -2.33301 36 -7s22.166 -9.83398 32.499 -15.501s20.833 -10.834 31.5 -15.501s21.667 -7 33 -7c8.66699 0 17 3.33301 25 10s17.667 16.667 29 30c6 7.33301 9.83301 11.666 11.5 12.999s5.5 0.333008 11.5 -3l46 -23c7.33301 -4 11.666 -7.5 12.999 -10.5
s-0.666992 -9.16699 -6 -18.5c-36.667 -70.667 -84 -106 -142 -106z" />
    <glyph glyph-name="adieresis" unicode="&#xe4;" horiz-adv-x="606" 
d="M347 389c-31.333 0 -57.834 -13.166 -79.501 -39.499s-32.5 -68.5 -32.5 -126.5c0 -30 5.83301 -51.333 17.5 -64s28.834 -19 51.501 -19c6 0 15 0.666992 27 2s22.667 3.66602 32 6.99902c4 32.667 7.16699 57.5 9.5 74.5s4.33301 32.167 6 45.5s3.66699 28 6 44
s6.16602 39 11.499 69c-8.66699 2.66699 -17.667 4.5 -27 5.5s-16.666 1.5 -21.999 1.5zM266.999 -11.999c-43.333 0 -78.999 4.99902 -106.999 14.999s-50 24 -66 42s-27.167 39.5 -33.5 64.5s-9.5 52.167 -9.5 81.5c0 108 23.333 192.5 70 253.5s117 91.5 211 91.5
c25.333 0 58.166 -1.5 98.499 -4.5s84.166 -11.167 131.499 -24.5c11.333 -3.33301 17.833 -7.66602 19.5 -12.999s1.83398 -11.666 0.500977 -18.999c-12 -74 -22.667 -146.167 -32 -216.5s-18 -141.833 -26 -214.5c-1.33301 -5.33301 -2.83301 -9.33301 -4.5 -12
s-5.16699 -5 -10.5 -7c-22 -8 -44.833 -14.5 -68.5 -19.5s-46.167 -8.83301 -67.5 -11.5s-41.333 -4.33398 -60 -5.00098s-34 -1 -46 -1zM488 759c20 0 36.665 -7 49.998 -21s20 -31.667 20 -53c0 -12.667 -2.66699 -24.667 -8 -36s-12.5 -21.5 -21.5 -30.5
s-19.167 -16.167 -30.5 -21.5s-22.666 -8 -33.999 -8c-21.333 0 -38.833 7 -52.5 21s-20.5 31 -20.5 51c0 13.333 2.66699 26 8 38s12.5 22.5 21.5 31.5s19.333 16 31 21s23.834 7.5 36.501 7.5zM271.998 759c20.667 0 37.833 -7.16699 51.5 -21.5
s20.5 -32.166 20.5 -53.499c0 -12 -2.83301 -23.833 -8.5 -35.5s-13 -21.834 -22 -30.501s-19.167 -15.667 -30.5 -21s-23 -8 -35 -8c-20 0 -37 7 -51 21s-21 31 -21 51c0 13.333 2.66699 26 8 38s12.5 22.5 21.5 31.5s19.333 16 31 21s23.5 7.5 35.5 7.5z" />
    <glyph glyph-name="aring" unicode="&#xe5;" horiz-adv-x="606" 
d="M347 389c-31.333 0 -57.834 -13.166 -79.501 -39.499s-32.5 -68.5 -32.5 -126.5c0 -30 5.83301 -51.333 17.5 -64s28.834 -19 51.501 -19c6 0 15 0.666992 27 2s22.667 3.66602 32 6.99902c4 32.667 7.16699 57.5 9.5 74.5s4.33301 32.167 6 45.5s3.66699 28 6 44
s6.16602 39 11.499 69c-8.66699 2.66699 -17.667 4.5 -27 5.5s-16.666 1.5 -21.999 1.5zM266.999 -11.999c-43.333 0 -78.999 4.99902 -106.999 14.999s-50 24 -66 42s-27.167 39.5 -33.5 64.5s-9.5 52.167 -9.5 81.5c0 108 23.333 192.5 70 253.5s117 91.5 211 91.5
c25.333 0 58.166 -1.5 98.499 -4.5s84.166 -11.167 131.499 -24.5c11.333 -3.33301 17.833 -7.66602 19.5 -12.999s1.83398 -11.666 0.500977 -18.999c-12 -74 -22.667 -146.167 -32 -216.5s-18 -141.833 -26 -214.5c-1.33301 -5.33301 -2.83301 -9.33301 -4.5 -12
s-5.16699 -5 -10.5 -7c-22 -8 -44.833 -14.5 -68.5 -19.5s-46.167 -8.83301 -67.5 -11.5s-41.333 -4.33398 -60 -5.00098s-34 -1 -46 -1zM377 742c-14 0 -26.001 -5.33203 -36.001 -15.999s-15 -24 -15 -40c0 -12 3.33301 -21.5 10 -28.5s15.667 -10.5 27 -10.5
c13.333 0 25.5 5 36.5 15s16.5 23.667 16.5 41c0 11.333 -3.66699 20.666 -11 27.999s-16.666 11 -27.999 11zM388.999 829.001c35.333 0 63.999 -10.333 85.999 -31s33 -48 33 -82c0 -22.667 -4.33301 -43.5 -13 -62.5s-20.167 -35.333 -34.5 -49s-31 -24.334 -50 -32.001
s-38.833 -11.5 -59.5 -11.5c-35.333 0 -63.666 10.333 -84.999 31s-32 48 -32 82c0 22.667 4.16699 43.5 12.5 62.5s19.666 35.333 33.999 49s30.833 24.334 49.5 32.001s38.334 11.5 59.001 11.5z" />
    <glyph glyph-name="ae" unicode="&#xe6;" horiz-adv-x="868" 
d="M565 -11c-68.667 0 -120.336 13.6592 -155.003 40.9922c-14 -7.33301 -28.5 -13.666 -43.5 -18.999s-30.167 -9.66602 -45.5 -12.999s-30 -5.83301 -44 -7.5s-27 -2.5 -39 -2.5c-37.333 0 -68.666 3.83301 -93.999 11.5s-45.666 18.5 -60.999 32.5s-26.333 30.5 -33 49.5
s-10 40.167 -10 63.5c0 38 6 69.333 18 94s28.5 44 49.5 58s45.667 23.667 74 29s58.833 8 91.5 8c15.333 0 30.666 -0.5 45.999 -1.5s31 -2.16699 47 -3.5c1.33301 4.66699 2.33301 9.33398 3 14.001s1 9 1 13c0 29.333 -20.333 44 -61 44
c-17.333 0 -38.833 -1.5 -64.5 -4.5s-51.167 -7.16699 -76.5 -12.5c-14 -2.66699 -22.333 2.33301 -25 15l-18 86c-1.33301 9.33301 -0.666016 15.5 2.00098 18.5s6.66699 5.5 12 7.5c64 20.667 132 31 204 31c30 0 57.833 -3 83.5 -9s46.167 -16 61.5 -30
c42.667 25.333 93.667 38 153 38c28 0 55 -2.5 81 -7.5s48.833 -13.5 68.5 -25.5s35.334 -28 47.001 -48s17.5 -45 17.5 -75c0 -59.333 -20.667 -104.166 -62 -134.499s-101 -45.5 -179 -45.5c-12 0 -24.5 0.333008 -37.5 1s-26.167 1.66699 -39.5 3
c0 -2.66699 -0.166992 -5 -0.5 -7s-0.5 -4.33301 -0.5 -7c0 -12 2 -21.667 6 -29s9.5 -12.666 16.5 -15.999s15.5 -5.5 25.5 -6.5s21.333 -1.5 34 -1.5c16.667 0 33.167 1.83301 49.5 5.5s34.833 8.83398 55.5 15.501c9.33301 3.33301 15.5 4.33301 18.5 3
s5.5 -4.66602 7.5 -9.99902l38 -94c2 -6.66699 1.66699 -11.667 -1 -15s-6.66699 -6.66602 -12 -9.99902c-13.333 -8 -29 -15 -47 -21s-36.833 -11 -56.5 -15s-38.667 -6.83301 -57 -8.5s-34.5 -2.5 -48.5 -2.5zM280.998 129.992c4 0 13.3311 0.667969 27.998 2.00098
s28 5 40 11c-1.33301 7.33301 -2.33301 14.666 -3 21.999s-1 15 -1 23c0 6 0.166992 12 0.5 18s0.833008 12 1.5 18c-14 2 -28.333 3 -43 3c-10.667 0 -20.667 -0.833008 -30 -2.5s-17.666 -4.5 -24.999 -8.5s-13.166 -9.5 -17.499 -16.5s-6.5 -16.167 -6.5 -27.5
c0 -28 18.667 -42 56 -42zM631.996 396.993c-20.667 0 -37.832 -6.5 -51.499 -19.5s-22.834 -33.833 -27.501 -62.5c4 -0.666992 7.83301 -1 11.5 -1h12.5c38.667 0 64.667 4.16699 78 12.5s20 20.5 20 36.5c0 8.66699 -3 16.5 -9 23.5s-17.333 10.5 -34 10.5z" />
    <glyph glyph-name="ccedilla" unicode="&#xe7;" horiz-adv-x="518" 
d="M338 378c-35.333 0 -60.8291 -12.8271 -76.4961 -38.4941s-23.5 -60.5 -23.5 -104.5c0 -26 5 -46.167 15 -60.5s29.667 -21.5 59 -21.5c20 0 39.5 2 58.5 6s36.5 8.33301 52.5 13c7.33301 2 13.166 3 17.499 3s7.16602 -4.66699 8.49902 -14l32 -99
c1.33301 -7.33301 2 -13.166 2 -17.499s-5.33301 -9.16602 -16 -14.499c-28 -14 -57.333 -23.833 -88 -29.5s-59 -9.16699 -85 -10.5l-22 -43c27.333 -1.33301 49.5 -5.33301 66.5 -12s30.333 -14.834 40 -24.501s16.167 -20.5 19.5 -32.5s5 -24 5 -36
c0 -15.333 -3.33301 -30.5 -10 -45.5s-16.834 -28.333 -30.501 -40s-31 -21 -52 -28s-46.167 -10.5 -75.5 -10.5c-12 0 -24.5 0.833008 -37.5 2.5s-25.5 3.66699 -37.5 6s-23.333 5.16602 -34 8.49902s-19.667 6.66602 -27 9.99902c-5.33301 2 -7.83301 4.33301 -7.5 7
s1.83301 7.66699 4.5 15l16 49c2.66699 7.33301 5.16699 11.5 7.5 12.5s6.16602 0.5 11.499 -1.5c14 -4.66699 27.167 -8.33398 39.5 -11.001s25.5 -4 39.5 -4c15.333 0 28.333 2.5 39 7.5s17 14.167 19 27.5c1.33301 11.333 -3.16699 19.333 -13.5 24s-24.5 7 -42.5 7
c-13.333 0 -21.5 0.166992 -24.5 0.5s-6.16699 2.16602 -9.5 5.49902c-4.66699 4.66699 -6.16699 10 -4.5 16s4.5 12.333 8.5 19l40 73c-112.667 15.333 -169 88.666 -169 219.999c0 58 6.66699 107.667 20 149s32 75.166 56 101.499s52.833 45.833 86.5 58.5
s70.834 19 111.501 19c27.333 0 55.166 -2.83301 83.499 -8.5s53.166 -13.167 74.499 -22.5c7.33301 -3.33301 11.833 -7 13.5 -11s0.833984 -11 -2.49902 -21l-32 -101c-3.33301 -10 -8 -14.667 -14 -14s-14 2 -24 4c-18.667 3.33301 -35.5 6.16602 -50.5 8.49902
s-27.5 3.5 -37.5 3.5z" />
    <glyph glyph-name="egrave" unicode="&#xe8;" horiz-adv-x="575" 
d="M332 397c-20.667 0 -37.832 -6.5 -51.499 -19.5s-22.834 -33.833 -27.501 -62.5c4 -0.666992 7.83301 -1 11.5 -1h12.5c38.667 0 64.667 4.16699 78 12.5s20 20.5 20 36.5c0 8.66699 -3 16.5 -9 23.5s-17.333 10.5 -34 10.5zM265.002 -11
c-40 0 -73.668 4.49707 -101.001 13.4971s-49.5 22.167 -66.5 39.5s-29.167 38.666 -36.5 63.999s-11 54.666 -11 87.999c0 112.667 25.5 198.5 76.5 257.5s122.5 88.5 214.5 88.5c28 0 55 -2.5 81 -7.5s48.833 -13.5 68.5 -25.5s35.334 -28 47.001 -48s17.5 -45 17.5 -75
c0 -59.333 -20.667 -104.166 -62 -134.499s-101 -45.5 -179 -45.5c-12 0 -24.5 0.333008 -37.5 1s-26.167 1.66699 -39.5 3c0 -2.66699 -0.166992 -5 -0.5 -7s-0.5 -4.33301 -0.5 -7c0 -12 2 -21.667 6 -29s9.5 -12.666 16.5 -15.999s15.5 -5.5 25.5 -6.5
s21.333 -1.5 34 -1.5c16.667 0 33.167 1.83301 49.5 5.5s34.833 8.83398 55.5 15.501c9.33301 3.33301 15.5 4.33301 18.5 3s5.5 -4.66602 7.5 -9.99902l38 -94c2 -6.66699 1.66699 -11.667 -1 -15s-6.66699 -6.66602 -12 -9.99902c-13.333 -8 -29 -15 -47 -21
s-36.833 -11 -56.5 -15s-38.667 -6.83301 -57 -8.5s-34.5 -2.5 -48.5 -2.5zM439.001 638.997c4 -6 4.99902 -10.668 2.99902 -14.001s-5.33301 -6.66602 -10 -9.99902l-57 -36c-4 -3.33301 -7.66699 -5 -11 -5s-7.33301 2.33301 -12 7l-161 169c-3.33301 2.66699 -5 6 -5 10
s2.33301 7.33301 7 10l110 64c7.33301 3.33301 12.333 4.5 15 3.5s5.33398 -4.16699 8.00098 -9.5z" />
    <glyph glyph-name="eacute" unicode="&#xe9;" horiz-adv-x="575" 
d="M265 -11c-40 0 -73.668 4.49707 -101.001 13.4971s-49.5 22.167 -66.5 39.5s-29.167 38.666 -36.5 63.999s-11 54.666 -11 87.999c0 112.667 25.5 198.5 76.5 257.5s122.5 88.5 214.5 88.5c28 0 55 -2.5 81 -7.5s48.833 -13.5 68.5 -25.5s35.334 -28 47.001 -48
s17.5 -45 17.5 -75c0 -59.333 -20.667 -104.166 -62 -134.499s-101 -45.5 -179 -45.5c-12 0 -24.5 0.333008 -37.5 1s-26.167 1.66699 -39.5 3c0 -2.66699 -0.166992 -5 -0.5 -7s-0.5 -4.33301 -0.5 -7c0 -12 2 -21.667 6 -29s9.5 -12.666 16.5 -15.999s15.5 -5.5 25.5 -6.5
s21.333 -1.5 34 -1.5c16.667 0 33.167 1.83301 49.5 5.5s34.833 8.83398 55.5 15.501c9.33301 3.33301 15.5 4.33301 18.5 3s5.5 -4.66602 7.5 -9.99902l38 -94c2 -6.66699 1.66699 -11.667 -1 -15s-6.66699 -6.66602 -12 -9.99902c-13.333 -8 -29 -15 -47 -21
s-36.833 -11 -56.5 -15s-38.667 -6.83301 -57 -8.5s-34.5 -2.5 -48.5 -2.5zM398.999 798.997c2.66699 5.33301 5.49902 9.00098 8.49902 11.001s8.16699 2.33301 15.5 1l117 -30c5.33301 -1.33301 8.5 -4 9.5 -8s-0.166992 -7.66699 -3.5 -11l-146 -186
c-3.33301 -6 -6.66602 -9.33301 -9.99902 -10s-7.66602 -0.333984 -12.999 0.999023l-67 24c-4.66699 1.33301 -7.83398 3.33301 -9.50098 6s-0.5 7.66699 3.5 15zM331.998 396.998c-20.667 0 -37.832 -6.5 -51.499 -19.5s-22.834 -33.833 -27.501 -62.5
c4 -0.666992 7.83301 -1 11.5 -1h12.5c38.667 0 64.667 4.16699 78 12.5s20 20.5 20 36.5c0 8.66699 -3 16.5 -9 23.5s-17.333 10.5 -34 10.5z" />
    <glyph glyph-name="ecircumflex" unicode="&#xea;" horiz-adv-x="575" 
d="M332 397c-20.667 0 -37.832 -6.5 -51.499 -19.5s-22.834 -33.833 -27.501 -62.5c4 -0.666992 7.83301 -1 11.5 -1h12.5c38.667 0 64.667 4.16699 78 12.5s20 20.5 20 36.5c0 8.66699 -3 16.5 -9 23.5s-17.333 10.5 -34 10.5zM265.002 -11
c-40 0 -73.668 4.49707 -101.001 13.4971s-49.5 22.167 -66.5 39.5s-29.167 38.666 -36.5 63.999s-11 54.666 -11 87.999c0 112.667 25.5 198.5 76.5 257.5s122.5 88.5 214.5 88.5c28 0 55 -2.5 81 -7.5s48.833 -13.5 68.5 -25.5s35.334 -28 47.001 -48s17.5 -45 17.5 -75
c0 -59.333 -20.667 -104.166 -62 -134.499s-101 -45.5 -179 -45.5c-12 0 -24.5 0.333008 -37.5 1s-26.167 1.66699 -39.5 3c0 -2.66699 -0.166992 -5 -0.5 -7s-0.5 -4.33301 -0.5 -7c0 -12 2 -21.667 6 -29s9.5 -12.666 16.5 -15.999s15.5 -5.5 25.5 -6.5
s21.333 -1.5 34 -1.5c16.667 0 33.167 1.83301 49.5 5.5s34.833 8.83398 55.5 15.501c9.33301 3.33301 15.5 4.33301 18.5 3s5.5 -4.66602 7.5 -9.99902l38 -94c2 -6.66699 1.66699 -11.667 -1 -15s-6.66699 -6.66602 -12 -9.99902c-13.333 -8 -29 -15 -47 -21
s-36.833 -11 -56.5 -15s-38.667 -6.83301 -57 -8.5s-34.5 -2.5 -48.5 -2.5zM573.001 626.997c4.66699 -6 6.33105 -11.165 4.99805 -15.498s-5.33301 -9.5 -12 -15.5l-36 -31c-6 -4.66699 -11.333 -6.83398 -16 -6.50098s-10 3.16602 -16 8.49902l-120 103l-152 -115
c-6 -4 -11 -5.66699 -15 -5s-8.66699 3.66699 -14 9l-38 37c-4.66699 6 -6.5 11 -5.5 15s4.16699 9 9.5 15l145 141c12.667 11.333 25.834 20.666 39.501 27.999s26.167 11 37.5 11c18.667 0 33.334 -3.16699 44.001 -9.5s20.667 -16.166 30 -29.499z" />
    <glyph glyph-name="edieresis" unicode="&#xeb;" horiz-adv-x="575" 
d="M332 397c-20.667 0 -37.832 -6.5 -51.499 -19.5s-22.834 -33.833 -27.501 -62.5c4 -0.666992 7.83301 -1 11.5 -1h12.5c38.667 0 64.667 4.16699 78 12.5s20 20.5 20 36.5c0 8.66699 -3 16.5 -9 23.5s-17.333 10.5 -34 10.5zM265.002 -11
c-40 0 -73.668 4.49707 -101.001 13.4971s-49.5 22.167 -66.5 39.5s-29.167 38.666 -36.5 63.999s-11 54.666 -11 87.999c0 112.667 25.5 198.5 76.5 257.5s122.5 88.5 214.5 88.5c28 0 55 -2.5 81 -7.5s48.833 -13.5 68.5 -25.5s35.334 -28 47.001 -48s17.5 -45 17.5 -75
c0 -59.333 -20.667 -104.166 -62 -134.499s-101 -45.5 -179 -45.5c-12 0 -24.5 0.333008 -37.5 1s-26.167 1.66699 -39.5 3c0 -2.66699 -0.166992 -5 -0.5 -7s-0.5 -4.33301 -0.5 -7c0 -12 2 -21.667 6 -29s9.5 -12.666 16.5 -15.999s15.5 -5.5 25.5 -6.5
s21.333 -1.5 34 -1.5c16.667 0 33.167 1.83301 49.5 5.5s34.833 8.83398 55.5 15.501c9.33301 3.33301 15.5 4.33301 18.5 3s5.5 -4.66602 7.5 -9.99902l38 -94c2 -6.66699 1.66699 -11.667 -1 -15s-6.66699 -6.66602 -12 -9.99902c-13.333 -8 -29 -15 -47 -21
s-36.833 -11 -56.5 -15s-38.667 -6.83301 -57 -8.5s-34.5 -2.5 -48.5 -2.5zM495.001 758.997c20 0 36.665 -7 49.998 -21s20 -31.667 20 -53c0 -12.667 -2.66699 -24.667 -8 -36s-12.5 -21.5 -21.5 -30.5s-19.167 -16.167 -30.5 -21.5s-22.666 -8 -33.999 -8
c-21.333 0 -38.833 7 -52.5 21s-20.5 31 -20.5 51c0 13.333 2.66699 26 8 38s12.5 22.5 21.5 31.5s19.333 16 31 21s23.834 7.5 36.501 7.5zM278.999 758.997c20.667 0 37.833 -7.16699 51.5 -21.5s20.5 -32.166 20.5 -53.499c0 -12 -2.83301 -23.833 -8.5 -35.5
s-13 -21.834 -22 -30.501s-19.167 -15.667 -30.5 -21s-23 -8 -35 -8c-20 0 -37 7 -51 21s-21 31 -21 51c0 13.333 2.66699 26 8 38s12.5 22.5 21.5 31.5s19.333 16 31 21s23.5 7.5 35.5 7.5z" />
    <glyph glyph-name="igrave" unicode="&#xec;" horiz-adv-x="344" 
d="M232 20c-1.33301 -8 -3.16602 -13.333 -5.49902 -16s-8.83301 -4 -19.5 -4h-129c-15.333 0 -22 6.66699 -20 20l68 485c1.33301 7.33301 3.66602 12.5 6.99902 15.5s9.33301 4.5 18 4.5h129c10.667 0 17 -1.33301 19 -4s2.33301 -8 1 -16zM312 639
c4 -6 4.99902 -10.668 2.99902 -14.001s-5.33301 -6.66602 -10 -9.99902l-57 -36c-4 -3.33301 -7.66699 -5 -11 -5s-7.33301 2.33301 -12 7l-161 169c-3.33301 2.66699 -5 6 -5 10s2.33301 7.33301 7 10l110 64c7.33301 3.33301 12.333 4.5 15 3.5
s5.33398 -4.16699 8.00098 -9.5z" />
    <glyph glyph-name="iacute" unicode="&#xed;" horiz-adv-x="344" 
d="M232 20c-1.33301 -8 -3.16602 -13.333 -5.49902 -16s-8.83301 -4 -19.5 -4h-129c-15.333 0 -22 6.66699 -20 20l68 485c1.33301 7.33301 3.66602 12.5 6.99902 15.5s9.33301 4.5 18 4.5h129c10.667 0 17 -1.33301 19 -4s2.33301 -8 1 -16zM249 799
c2.66699 5.33301 5.49902 9.00098 8.49902 11.001s8.16699 2.33301 15.5 1l117 -30c5.33301 -1.33301 8.5 -4 9.5 -8s-0.166992 -7.66699 -3.5 -11l-146 -186c-3.33301 -6 -6.66602 -9.33301 -9.99902 -10s-7.66602 -0.333984 -12.999 0.999023l-67 24
c-4.66699 1.33301 -7.83398 3.33301 -9.50098 6s-0.5 7.66699 3.5 15z" />
    <glyph glyph-name="icircumflex" unicode="&#xee;" horiz-adv-x="344" 
d="M232 20c-1.33301 -8 -3.16602 -13.333 -5.49902 -16s-8.83301 -4 -19.5 -4h-129c-15.333 0 -22 6.66699 -20 20l68 485c1.33301 7.33301 3.66602 12.5 6.99902 15.5s9.33301 4.5 18 4.5h129c10.667 0 17 -1.33301 19 -4s2.33301 -8 1 -16zM436 627
c4.66699 -6 6.33105 -11.165 4.99805 -15.498s-5.33301 -9.5 -12 -15.5l-36 -31c-6 -4.66699 -11.333 -6.83398 -16 -6.50098s-10 3.16602 -16 8.49902l-120 103l-152 -115c-6 -4 -11 -5.66699 -15 -5s-8.66699 3.66699 -14 9l-38 37c-4.66699 6 -6.5 11 -5.5 15
s4.16699 9 9.5 15l145 141c12.667 11.333 25.834 20.666 39.501 27.999s26.167 11 37.5 11c18.667 0 33.334 -3.16699 44.001 -9.5s20.667 -16.166 30 -29.499z" />
    <glyph glyph-name="idieresis" unicode="&#xef;" horiz-adv-x="344" 
d="M232 20c-1.33301 -8 -3.16602 -13.333 -5.49902 -16s-8.83301 -4 -19.5 -4h-129c-15.333 0 -22 6.66699 -20 20l68 485c1.33301 7.33301 3.66602 12.5 6.99902 15.5s9.33301 4.5 18 4.5h129c10.667 0 17 -1.33301 19 -4s2.33301 -8 1 -16zM359 749
c20 0 36.665 -7 49.998 -21s20 -31.667 20 -53c0 -12.667 -2.66699 -24.667 -8 -36s-12.5 -21.5 -21.5 -30.5s-19.167 -16.167 -30.5 -21.5s-22.666 -8 -33.999 -8c-21.333 0 -38.833 7 -52.5 21s-20.5 31 -20.5 51c0 13.333 2.66699 26 8 38s12.5 22.5 21.5 31.5
s19.333 16 31 21s23.834 7.5 36.501 7.5zM142.998 749c20.667 0 37.833 -7.16699 51.5 -21.5s20.5 -32.166 20.5 -53.499c0 -12 -2.83301 -23.833 -8.5 -35.5s-13 -21.834 -22 -30.501s-19.167 -15.667 -30.5 -21s-23 -8 -35 -8c-20 0 -37 7 -51 21s-21 31 -21 51
c0 13.333 2.66699 26 8 38s12.5 22.5 21.5 31.5s19.333 16 31 21s23.5 7.5 35.5 7.5z" />
    <glyph glyph-name="eth" unicode="&#xf0;" horiz-adv-x="611" 
d="M322 335c-28 0 -48.334 -9 -61.001 -27s-20.667 -39.667 -24 -65c-1.33301 -11.333 -2.16602 -22.833 -2.49902 -34.5s1.16699 -22.167 4.5 -31.5s9 -17.166 17 -23.499s19.667 -9.5 35 -9.5s28.333 3.33301 39 10s19.5 15.5 26.5 26.5s12.5 23.667 16.5 38
s7 29.166 9 44.499c3.33301 19.333 4.33301 36 3 50c-20.667 14.667 -41.667 22 -63 22zM490.999 650c36 -34 61.1719 -74.1689 75.5049 -120.502s21.5 -96.5 21.5 -150.5c0 -16.667 -1.16699 -38 -3.5 -64s-7.16602 -53.333 -14.499 -82s-18 -57.5 -32 -86.5
s-32.833 -55.167 -56.5 -78.5s-52.834 -42.166 -87.501 -56.499s-76.334 -21.5 -125.001 -21.5c-44 0 -80.167 5.66699 -108.5 17s-50.833 26.5 -67.5 45.5s-28.167 40.667 -34.5 65s-9.5 49.5 -9.5 75.5c0 40.667 5.66699 78.5 17 113.5s28 65.333 50 91
s49 45.834 81 60.501s68.667 22 110 22c18.667 0 36.167 -1 52.5 -3s31.833 -6.66699 46.5 -14l7 7c-4 21.333 -9.83301 39.833 -17.5 55.5s-17.167 31.167 -28.5 46.5l-82 -51c-2.66699 -1.33301 -5.33398 -2.16602 -8.00098 -2.49902s-5 1.5 -7 5.5l-13 28
c-2.66699 5.33301 -2.83398 9 -0.500977 11s4.5 3.66699 6.5 5l68 43c-15.333 16 -33.333 31 -54 45c-5.33301 4 -8.5 7.83301 -9.5 11.5s0.166992 8.5 3.5 14.5l40 60c3.33301 6 7.16602 9.16699 11.499 9.5s10.166 -1.16699 17.499 -4.5
c39.333 -17.333 75.333 -38.333 108 -63l73 47c5.33301 3.33301 9.5 5.33301 12.5 6s5.5 -1 7.5 -5l16 -27c4 -6.66699 1.66699 -12.334 -7 -17.001z" />
    <glyph glyph-name="ntilde" unicode="&#xf1;" horiz-adv-x="621" 
d="M321 395c-6 0 -14.167 -0.331055 -24.5 -0.998047s-19.833 -1.66699 -28.5 -3l-52 -371c-1.33301 -8 -3.16602 -13.333 -5.49902 -16s-9.16602 -4 -20.499 -4h-129c-15.333 0 -22 6.66699 -20 20l61 429c2.66699 20.667 8.16699 37.667 16.5 51
s24.166 22.666 47.499 27.999c6.66699 1.33301 16.667 2.83301 30 4.5s27.666 3 42.999 4s30.666 1.83301 45.999 2.5s28.666 1 39.999 1c47.333 0 88.166 -4.5 122.499 -13.5s61.833 -24 82.5 -45s34.334 -48.333 41.001 -82s6.66699 -74.834 0 -123.501l-36 -256
c-1.33301 -8 -3.16602 -13.333 -5.49902 -16s-9.16602 -4 -20.499 -4h-130c-16 0 -23 6.66699 -21 20l39 273c4.66699 34 2 59.5 -8 76.5s-32.667 25.5 -68 25.5zM405 587.002c-12 0 -23.6631 2.33594 -34.9961 7.00293s-22.5 9.66699 -33.5 15s-21.833 10.333 -32.5 15
s-21.334 7 -32.001 7c-18.667 0 -36.667 -10.667 -54 -32c-5.33301 -6.66699 -9.83301 -11 -13.5 -13s-9.83398 -0.333008 -18.501 5l-40 25c-8.66699 5.33301 -12.834 9.5 -12.501 12.5s2.5 7.83301 6.5 14.5c18.667 30 39.834 53.667 63.501 71s50.5 26 80.5 26
c12.667 0 24.667 -2.33301 36 -7s22.166 -9.83398 32.499 -15.501s20.833 -10.834 31.5 -15.501s21.667 -7 33 -7c8.66699 0 17 3.33301 25 10s17.667 16.667 29 30c6 7.33301 9.83301 11.666 11.5 12.999s5.5 0.333008 11.5 -3l46 -23c7.33301 -4 11.666 -7.5 12.999 -10.5
s-0.666992 -9.16699 -6 -18.5c-36.667 -70.667 -84 -106 -142 -106z" />
    <glyph glyph-name="ograve" unicode="&#xf2;" horiz-adv-x="600" 
d="M347 540c76.667 0 133.331 -19.666 169.998 -58.999s55 -94.666 55 -165.999c0 -49.333 -6.5 -94 -19.5 -134s-32 -74.333 -57 -103s-56 -50.667 -93 -66s-79.167 -23 -126.5 -23c-79.333 0 -136.666 18.667 -171.999 56s-53 88.666 -53 153.999
c0 54 6.83301 102 20.5 144s33.334 77.667 59.001 107s56.667 51.666 93 66.999s77.5 23 123.5 23zM328.997 386.001c-27.333 0 -49.667 -13.667 -67 -41s-26 -68.333 -26 -123c0 -28 5 -48.167 15 -60.5s24.667 -18.5 44 -18.5c27.333 0 49.5 14.833 66.5 44.5
s25.5 69.5 25.5 119.5c0 52.667 -19.333 79 -58 79zM434.996 639.001c4 -6 4.99902 -10.668 2.99902 -14.001s-5.33301 -6.66602 -10 -9.99902l-57 -36c-4 -3.33301 -7.66699 -5 -11 -5s-7.33301 2.33301 -12 7l-161 169c-3.33301 2.66699 -5 6 -5 10s2.33301 7.33301 7 10
l110 64c7.33301 3.33301 12.333 4.5 15 3.5s5.33398 -4.16699 8.00098 -9.5z" />
    <glyph glyph-name="oacute" unicode="&#xf3;" horiz-adv-x="600" 
d="M347 540c76.667 0 133.331 -19.666 169.998 -58.999s55 -94.666 55 -165.999c0 -49.333 -6.5 -94 -19.5 -134s-32 -74.333 -57 -103s-56 -50.667 -93 -66s-79.167 -23 -126.5 -23c-79.333 0 -136.666 18.667 -171.999 56s-53 88.666 -53 153.999
c0 54 6.83301 102 20.5 144s33.334 77.667 59.001 107s56.667 51.666 93 66.999s77.5 23 123.5 23zM393.997 799.001c2.66699 5.33301 5.49902 9.00098 8.49902 11.001s8.16699 2.33301 15.5 1l117 -30c5.33301 -1.33301 8.5 -4 9.5 -8s-0.166992 -7.66699 -3.5 -11
l-146 -186c-3.33301 -6 -6.66602 -9.33301 -9.99902 -10s-7.66602 -0.333984 -12.999 0.999023l-67 24c-4.66699 1.33301 -7.83398 3.33301 -9.50098 6s-0.5 7.66699 3.5 15zM328.996 386.002c-27.333 0 -49.667 -13.667 -67 -41s-26 -68.333 -26 -123
c0 -28 5 -48.167 15 -60.5s24.667 -18.5 44 -18.5c27.333 0 49.5 14.833 66.5 44.5s25.5 69.5 25.5 119.5c0 52.667 -19.333 79 -58 79z" />
    <glyph glyph-name="ocircumflex" unicode="&#xf4;" horiz-adv-x="600" 
d="M347 540c76.667 0 133.331 -19.666 169.998 -58.999s55 -94.666 55 -165.999c0 -49.333 -6.5 -94 -19.5 -134s-32 -74.333 -57 -103s-56 -50.667 -93 -66s-79.167 -23 -126.5 -23c-79.333 0 -136.666 18.667 -171.999 56s-53 88.666 -53 153.999
c0 54 6.83301 102 20.5 144s33.334 77.667 59.001 107s56.667 51.666 93 66.999s77.5 23 123.5 23zM328.997 386.001c-27.333 0 -49.667 -13.667 -67 -41s-26 -68.333 -26 -123c0 -28 5 -48.167 15 -60.5s24.667 -18.5 44 -18.5c27.333 0 49.5 14.833 66.5 44.5
s25.5 69.5 25.5 119.5c0 52.667 -19.333 79 -58 79zM559.996 627.001c4.66699 -6 6.33105 -11.165 4.99805 -15.498s-5.33301 -9.5 -12 -15.5l-36 -31c-6 -4.66699 -11.333 -6.83398 -16 -6.50098s-10 3.16602 -16 8.49902l-120 103l-152 -115c-6 -4 -11 -5.66699 -15 -5
s-8.66699 3.66699 -14 9l-38 37c-4.66699 6 -6.5 11 -5.5 15s4.16699 9 9.5 15l145 141c12.667 11.333 25.834 20.666 39.501 27.999s26.167 11 37.5 11c18.667 0 33.334 -3.16699 44.001 -9.5s20.667 -16.166 30 -29.499z" />
    <glyph glyph-name="otilde" unicode="&#xf5;" horiz-adv-x="600" 
d="M347 540c76.667 0 133.331 -19.666 169.998 -58.999s55 -94.666 55 -165.999c0 -49.333 -6.5 -94 -19.5 -134s-32 -74.333 -57 -103s-56 -50.667 -93 -66s-79.167 -23 -126.5 -23c-79.333 0 -136.666 18.667 -171.999 56s-53 88.666 -53 153.999
c0 54 6.83301 102 20.5 144s33.334 77.667 59.001 107s56.667 51.666 93 66.999s77.5 23 123.5 23zM328.997 386.001c-27.333 0 -49.667 -13.667 -67 -41s-26 -68.333 -26 -123c0 -28 5 -48.167 15 -60.5s24.667 -18.5 44 -18.5c27.333 0 49.5 14.833 66.5 44.5
s25.5 69.5 25.5 119.5c0 52.667 -19.333 79 -58 79zM432.996 597.001c-12 0 -23.6631 2.33594 -34.9961 7.00293s-22.5 9.66699 -33.5 15s-21.833 10.333 -32.5 15s-21.334 7 -32.001 7c-18.667 0 -36.667 -10.667 -54 -32c-5.33301 -6.66699 -9.83301 -11 -13.5 -13
s-9.83398 -0.333008 -18.501 5l-40 25c-8.66699 5.33301 -12.834 9.5 -12.501 12.5s2.5 7.83301 6.5 14.5c18.667 30 39.834 53.667 63.501 71s50.5 26 80.5 26c12.667 0 24.667 -2.33301 36 -7s22.166 -9.83398 32.499 -15.501s20.833 -10.834 31.5 -15.501
s21.667 -7 33 -7c8.66699 0 17 3.33301 25 10s17.667 16.667 29 30c6 7.33301 9.83301 11.666 11.5 12.999s5.5 0.333008 11.5 -3l46 -23c7.33301 -4 11.666 -7.5 12.999 -10.5s-0.666992 -9.16699 -6 -18.5c-36.667 -70.667 -84 -106 -142 -106z" />
    <glyph glyph-name="odieresis" unicode="&#xf6;" horiz-adv-x="600" 
d="M347 540c76.667 0 133.331 -19.666 169.998 -58.999s55 -94.666 55 -165.999c0 -49.333 -6.5 -94 -19.5 -134s-32 -74.333 -57 -103s-56 -50.667 -93 -66s-79.167 -23 -126.5 -23c-79.333 0 -136.666 18.667 -171.999 56s-53 88.666 -53 153.999
c0 54 6.83301 102 20.5 144s33.334 77.667 59.001 107s56.667 51.666 93 66.999s77.5 23 123.5 23zM328.997 386.001c-27.333 0 -49.667 -13.667 -67 -41s-26 -68.333 -26 -123c0 -28 5 -48.167 15 -60.5s24.667 -18.5 44 -18.5c27.333 0 49.5 14.833 66.5 44.5
s25.5 69.5 25.5 119.5c0 52.667 -19.333 79 -58 79zM489.996 759.001c20 0 36.665 -7 49.998 -21s20 -31.667 20 -53c0 -12.667 -2.66699 -24.667 -8 -36s-12.5 -21.5 -21.5 -30.5s-19.167 -16.167 -30.5 -21.5s-22.666 -8 -33.999 -8c-21.333 0 -38.833 7 -52.5 21
s-20.5 31 -20.5 51c0 13.333 2.66699 26 8 38s12.5 22.5 21.5 31.5s19.333 16 31 21s23.834 7.5 36.501 7.5zM273.994 759.001c20.667 0 37.833 -7.16699 51.5 -21.5s20.5 -32.166 20.5 -53.499c0 -12 -2.83301 -23.833 -8.5 -35.5s-13 -21.834 -22 -30.501
s-19.167 -15.667 -30.5 -21s-23 -8 -35 -8c-20 0 -37 7 -51 21s-21 31 -21 51c0 13.333 2.66699 26 8 38s12.5 22.5 21.5 31.5s19.333 16 31 21s23.5 7.5 35.5 7.5z" />
    <glyph glyph-name="divide" unicode="&#xf7;" horiz-adv-x="676" 
d="M406 649c25.333 0 46.001 -7.83398 62.001 -23.501s24 -35.167 24 -58.5c0 -15.333 -3 -29.833 -9 -43.5s-14.333 -25.5 -25 -35.5s-22.834 -18 -36.501 -24s-28.167 -9 -43.5 -9c-24.667 0 -45 7.83301 -61 23.5s-24 35.5 -24 59.5c0 14.667 3.16699 28.834 9.5 42.501
s14.666 25.5 24.999 35.5s22.333 18 36 24s27.834 9 42.501 9zM347.001 227.999c25.333 0 46.001 -7.83398 62.001 -23.501s24 -35.167 24 -58.5c0 -15.333 -3 -29.833 -9 -43.5s-14.333 -25.5 -25 -35.5s-22.834 -18 -36.501 -24s-28.167 -9 -43.5 -9
c-24.667 0 -45 7.83301 -61 23.5s-24 35.5 -24 59.5c0 14.667 3.16699 28.834 9.5 42.501s14.666 25.5 24.999 35.5s22.333 18 36 24s27.834 9 42.501 9zM605.002 297.998c-2 -16 -10.332 -23.999 -24.999 -23.999h-458c-7.33301 0 -12.833 1.5 -16.5 4.5
s-4.83398 8.5 -3.50098 16.5l14 97c1.33301 9.33301 3.66602 15.166 6.99902 17.499s9 3.5 17 3.5h461c7.33301 0 12.333 -1.33301 15 -4s3.33398 -8.66699 2.00098 -18z" />
    <glyph glyph-name="oslash" unicode="&#xf8;" horiz-adv-x="600" 
d="M347 540c74.667 0 130.666 -19.3311 167.999 -57.998l49 48c4.66699 4 7.83398 6.16699 9.50098 6.5s4.16699 -1.16699 7.5 -4.5l10 -10c3.33301 -4 5.16602 -7 5.49902 -9s-1.5 -5 -5.5 -9l-53 -51c22.667 -35.333 34 -81.333 34 -138c0 -49.333 -6.5 -94 -19.5 -134
s-32 -74.333 -57 -103s-56 -50.667 -93 -66s-79.167 -23 -126.5 -23c-73.333 0 -128.333 16.333 -165 49l-52 -50c-3.33301 -3.33301 -6.33301 -5.5 -9 -6.5s-5.66699 0.166992 -9 3.5l-10 11c-3.33301 4 -4.16602 7.33301 -2.49902 10s3.5 5.33398 5.5 8.00098l53 51
c-12.667 17.333 -21.834 37.166 -27.501 59.499s-8.5 47.166 -8.5 74.499c0 54 6.83301 102 20.5 144s33.334 77.667 59.001 107s56.667 51.666 93 66.999s77.5 23 123.5 23zM328.999 386.002c-27.333 0 -49.667 -13.667 -67 -41s-26 -68.333 -26 -123v-11l144 140
c-8 23.333 -25 35 -51 35zM294.998 143.002c27.333 0 49.332 14.667 65.999 44s25.334 69 26.001 119l-141 -137c8.66699 -17.333 25 -26 49 -26z" />
    <glyph glyph-name="ugrave" unicode="&#xf9;" horiz-adv-x="612" 
d="M315 132c6 0 14.165 0.333008 24.498 1s19.833 1.66699 28.5 3l51 369c1.33301 8 3.33301 13.333 6 16s9.66699 4 21 4h129c14.667 0 21 -6.66699 19 -20l-60 -427c-2.66699 -21.333 -8.16699 -38.5 -16.5 -51.5s-24.166 -22.167 -47.499 -27.5
c-6.66699 -1.33301 -16.667 -2.83301 -30 -4.5s-27.666 -3 -42.999 -4s-30.666 -1.83301 -45.999 -2.5s-28.333 -1 -39 -1c-50 0 -91.833 4.5 -125.5 13.5s-60 24 -79 45s-31.333 48.167 -37 81.5s-4.83398 74.666 2.49902 123.999l35 254c1.33301 8 3.33301 13.333 6 16
s9.33398 4 20.001 4h131c15.333 0 22 -6.66699 20 -20l-38 -271c-2 -17.333 -3 -32.333 -3 -45s2.33301 -23.167 7 -31.5s12.167 -14.666 22.5 -18.999s24.166 -6.5 41.499 -6.5zM431.998 639c4 -6 4.99902 -10.668 2.99902 -14.001s-5.33301 -6.66602 -10 -9.99902l-57 -36
c-4 -3.33301 -7.66699 -5 -11 -5s-7.33301 2.33301 -12 7l-161 169c-3.33301 2.66699 -5 6 -5 10s2.33301 7.33301 7 10l110 64c7.33301 3.33301 12.333 4.5 15 3.5s5.33398 -4.16699 8.00098 -9.5z" />
    <glyph glyph-name="uacute" unicode="&#xfa;" horiz-adv-x="612" 
d="M315 132c6 0 14.165 0.333008 24.498 1s19.833 1.66699 28.5 3l51 369c1.33301 8 3.33301 13.333 6 16s9.66699 4 21 4h129c14.667 0 21 -6.66699 19 -20l-60 -427c-2.66699 -21.333 -8.16699 -38.5 -16.5 -51.5s-24.166 -22.167 -47.499 -27.5
c-6.66699 -1.33301 -16.667 -2.83301 -30 -4.5s-27.666 -3 -42.999 -4s-30.666 -1.83301 -45.999 -2.5s-28.333 -1 -39 -1c-50 0 -91.833 4.5 -125.5 13.5s-60 24 -79 45s-31.333 48.167 -37 81.5s-4.83398 74.666 2.49902 123.999l35 254c1.33301 8 3.33301 13.333 6 16
s9.33398 4 20.001 4h131c15.333 0 22 -6.66699 20 -20l-38 -271c-2 -17.333 -3 -32.333 -3 -45s2.33301 -23.167 7 -31.5s12.167 -14.666 22.5 -18.999s24.166 -6.5 41.499 -6.5zM394.998 799c2.66699 5.33301 5.49902 9.00098 8.49902 11.001s8.16699 2.33301 15.5 1
l117 -30c5.33301 -1.33301 8.5 -4 9.5 -8s-0.166992 -7.66699 -3.5 -11l-146 -186c-3.33301 -6 -6.66602 -9.33301 -9.99902 -10s-7.66602 -0.333984 -12.999 0.999023l-67 24c-4.66699 1.33301 -7.83398 3.33301 -9.50098 6s-0.5 7.66699 3.5 15z" />
    <glyph glyph-name="ucircumflex" unicode="&#xfb;" horiz-adv-x="612" 
d="M315 132c6 0 14.165 0.333008 24.498 1s19.833 1.66699 28.5 3l51 369c1.33301 8 3.33301 13.333 6 16s9.66699 4 21 4h129c14.667 0 21 -6.66699 19 -20l-60 -427c-2.66699 -21.333 -8.16699 -38.5 -16.5 -51.5s-24.166 -22.167 -47.499 -27.5
c-6.66699 -1.33301 -16.667 -2.83301 -30 -4.5s-27.666 -3 -42.999 -4s-30.666 -1.83301 -45.999 -2.5s-28.333 -1 -39 -1c-50 0 -91.833 4.5 -125.5 13.5s-60 24 -79 45s-31.333 48.167 -37 81.5s-4.83398 74.666 2.49902 123.999l35 254c1.33301 8 3.33301 13.333 6 16
s9.33398 4 20.001 4h131c15.333 0 22 -6.66699 20 -20l-38 -271c-2 -17.333 -3 -32.333 -3 -45s2.33301 -23.167 7 -31.5s12.167 -14.666 22.5 -18.999s24.166 -6.5 41.499 -6.5zM565.998 627c4.66699 -6 6.33105 -11.165 4.99805 -15.498s-5.33301 -9.5 -12 -15.5l-36 -31
c-6 -4.66699 -11.333 -6.83398 -16 -6.50098s-10 3.16602 -16 8.49902l-120 103l-152 -115c-6 -4 -11 -5.66699 -15 -5s-8.66699 3.66699 -14 9l-38 37c-4.66699 6 -6.5 11 -5.5 15s4.16699 9 9.5 15l145 141c12.667 11.333 25.834 20.666 39.501 27.999s26.167 11 37.5 11
c18.667 0 33.334 -3.16699 44.001 -9.5s20.667 -16.166 30 -29.499z" />
    <glyph glyph-name="udieresis" unicode="&#xfc;" horiz-adv-x="612" 
d="M315 132c6 0 14.165 0.333008 24.498 1s19.833 1.66699 28.5 3l51 369c1.33301 8 3.33301 13.333 6 16s9.66699 4 21 4h129c14.667 0 21 -6.66699 19 -20l-60 -427c-2.66699 -21.333 -8.16699 -38.5 -16.5 -51.5s-24.166 -22.167 -47.499 -27.5
c-6.66699 -1.33301 -16.667 -2.83301 -30 -4.5s-27.666 -3 -42.999 -4s-30.666 -1.83301 -45.999 -2.5s-28.333 -1 -39 -1c-50 0 -91.833 4.5 -125.5 13.5s-60 24 -79 45s-31.333 48.167 -37 81.5s-4.83398 74.666 2.49902 123.999l35 254c1.33301 8 3.33301 13.333 6 16
s9.33398 4 20.001 4h131c15.333 0 22 -6.66699 20 -20l-38 -271c-2 -17.333 -3 -32.333 -3 -45s2.33301 -23.167 7 -31.5s12.167 -14.666 22.5 -18.999s24.166 -6.5 41.499 -6.5zM496.998 761c20 0 36.665 -7 49.998 -21s20 -31.667 20 -53
c0 -12.667 -2.66699 -24.667 -8 -36s-12.5 -21.5 -21.5 -30.5s-19.167 -16.167 -30.5 -21.5s-22.666 -8 -33.999 -8c-21.333 0 -38.833 7 -52.5 21s-20.5 31 -20.5 51c0 13.333 2.66699 26 8 38s12.5 22.5 21.5 31.5s19.333 16 31 21s23.834 7.5 36.501 7.5zM280.996 761
c20.667 0 37.833 -7.16699 51.5 -21.5s20.5 -32.166 20.5 -53.499c0 -12 -2.83301 -23.833 -8.5 -35.5s-13 -21.834 -22 -30.501s-19.167 -15.667 -30.5 -21s-23 -8 -35 -8c-20 0 -37 7 -51 21s-21 31 -21 51c0 13.333 2.66699 26 8 38s12.5 22.5 21.5 31.5s19.333 16 31 21
s23.5 7.5 35.5 7.5z" />
    <glyph glyph-name="yacute" unicode="&#xfd;" horiz-adv-x="586" 
d="M614 524c14 0 17.3369 -6.33203 10.0039 -18.999l-283 -595c-9.33301 -20 -19.5 -38 -30.5 -54s-23.833 -29.5 -38.5 -40.5s-31.5 -19.5 -50.5 -25.5s-41.5 -9 -67.5 -9c-16.667 0 -34.834 1.16699 -54.501 3.5s-40.167 6.16602 -61.5 11.499
c-8.66699 2 -13.667 4.66699 -15 8s-1 9.66602 1 18.999l23 96c2 9.33301 4.83301 14.166 8.5 14.499s9.83398 -0.166992 18.501 -1.5c10 -1.33301 18.5 -2.33301 25.5 -3s13.833 -1 20.5 -1c11.333 0 20.833 0.666992 28.5 2s14.5 4 20.5 8s11.5 9.66699 16.5 17
s10.5 17.333 16.5 30l21 44h-30c-17.333 0 -28.5 3.33301 -33.5 10s-9.16699 18.334 -12.5 35.001l-89 427c-2.66699 9.33301 -1.83398 15.5 2.49902 18.5s9.5 4.5 15.5 4.5h137c13.333 0 22.166 -1.16699 26.499 -3.5s7.16602 -8.83301 8.49902 -19.5l17 -168l18 -166h6
l67 170l63 160c4.66699 10.667 9.16699 17.834 13.5 21.501s13.166 5.5 26.499 5.5h155zM371.004 799.001c2.66699 5.33301 5.49902 9.00098 8.49902 11.001s8.16699 2.33301 15.5 1l117 -30c5.33301 -1.33301 8.5 -4 9.5 -8s-0.166992 -7.66699 -3.5 -11l-146 -186
c-3.33301 -6 -6.66602 -9.33301 -9.99902 -10s-7.66602 -0.333984 -12.999 0.999023l-67 24c-4.66699 1.33301 -7.83398 3.33301 -9.50098 6s-0.5 7.66699 3.5 15z" />
    <glyph glyph-name="thorn" unicode="&#xfe;" horiz-adv-x="614" 
d="M187 -188c-1.33301 -8 -3.16797 -12.999 -5.50098 -14.999s-9.16602 -3 -20.499 -3h-130c-8 0 -13.667 1.16699 -17 3.5s-4.33301 7.16602 -3 14.499l123 876c2 15.333 10.667 23 26 23h130c11.333 0 17.833 -2 19.5 -6s1.83398 -10 0.500977 -18l-23 -156
c11.333 1.33301 22.666 2.33301 33.999 3s22.666 1 33.999 1c44.667 0 81.667 -5.5 111 -16.5s52.666 -26.5 69.999 -46.5s29.5 -43.5 36.5 -70.5s10.5 -56.5 10.5 -88.5c0 -44 -5.5 -85.333 -16.5 -124s-27.667 -72.667 -50 -102s-50.5 -52.5 -84.5 -69.5
s-73.667 -25.5 -119 -25.5c-21.333 0 -38.666 0.833008 -51.999 2.5s-28.666 4.16699 -45.999 7.5zM320.998 381.001c-5.33301 0 -13.332 -0.499023 -23.999 -1.49902s-20.667 -2.83301 -30 -5.5l-31 -219c11.333 -3.33301 22.666 -5.5 33.999 -6.5s20 -1.5 26 -1.5
c30 0 55 13 75 39s30 64 30 114c0 31.333 -7 52.666 -21 63.999s-33.667 17 -59 17z" />
    <glyph glyph-name="ydieresis" unicode="&#xff;" horiz-adv-x="586" 
d="M614 524c14 0 17.3369 -6.33203 10.0039 -18.999l-283 -595c-9.33301 -20 -19.5 -38 -30.5 -54s-23.833 -29.5 -38.5 -40.5s-31.5 -19.5 -50.5 -25.5s-41.5 -9 -67.5 -9c-16.667 0 -34.834 1.16699 -54.501 3.5s-40.167 6.16602 -61.5 11.499
c-8.66699 2 -13.667 4.66699 -15 8s-1 9.66602 1 18.999l23 96c2 9.33301 4.83301 14.166 8.5 14.499s9.83398 -0.166992 18.501 -1.5c10 -1.33301 18.5 -2.33301 25.5 -3s13.833 -1 20.5 -1c11.333 0 20.833 0.666992 28.5 2s14.5 4 20.5 8s11.5 9.66699 16.5 17
s10.5 17.333 16.5 30l21 44h-30c-17.333 0 -28.5 3.33301 -33.5 10s-9.16699 18.334 -12.5 35.001l-89 427c-2.66699 9.33301 -1.83398 15.5 2.49902 18.5s9.5 4.5 15.5 4.5h137c13.333 0 22.166 -1.16699 26.499 -3.5s7.16602 -8.83301 8.49902 -19.5l17 -168l18 -166h6
l67 170l63 160c4.66699 10.667 9.16699 17.834 13.5 21.501s13.166 5.5 26.499 5.5h155zM471.004 756.001c20 0 36.665 -7 49.998 -21s20 -31.667 20 -53c0 -12.667 -2.66699 -24.667 -8 -36s-12.5 -21.5 -21.5 -30.5s-19.167 -16.167 -30.5 -21.5s-22.666 -8 -33.999 -8
c-21.333 0 -38.833 7 -52.5 21s-20.5 31 -20.5 51c0 13.333 2.66699 26 8 38s12.5 22.5 21.5 31.5s19.333 16 31 21s23.834 7.5 36.501 7.5zM255.002 756.001c20.667 0 37.833 -7.16699 51.5 -21.5s20.5 -32.166 20.5 -53.499c0 -12 -2.83301 -23.833 -8.5 -35.5
s-13 -21.834 -22 -30.501s-19.167 -15.667 -30.5 -21s-23 -8 -35 -8c-20 0 -37 7 -51 21s-21 31 -21 51c0 13.333 2.66699 26 8 38s12.5 22.5 21.5 31.5s19.333 16 31 21s23.5 7.5 35.5 7.5z" />
    <glyph glyph-name="Amacron" unicode="&#x100;" horiz-adv-x="654" 
d="M418 137l-191.001 -0.000976562l-48 -115c-4 -7.33301 -7.83301 -12.833 -11.5 -16.5s-11.167 -5.5 -22.5 -5.5h-146c-6 0 -9.66699 1.83301 -11 5.5s-1 8.16699 1 13.5l278 619c12 26.667 24.833 43.834 38.5 51.501s31.167 11.5 52.5 11.5h79
c11.333 0 21.333 -0.5 30 -1.5s16.167 -3.5 22.5 -7.5s11.666 -10.167 15.999 -18.5s7.5 -19.833 9.5 -34.5l104 -620c0.666992 -3.33301 0.333984 -7.33301 -0.999023 -12s-5.66602 -7 -12.999 -7h-144c-7.33301 0 -13.5 1 -18.5 3s-8.16699 6.66699 -9.5 14z
M288.999 284.999h110l-7 78l-11 144h-8l-54 -147zM551.999 782.999c-2 -15.333 -10.332 -23 -24.999 -23h-282c-15.333 0 -22 7.66699 -20 23l11 74c1.33301 11.333 4 18.166 8 20.499s10 3.5 18 3.5h282c7.33301 0 12.666 -1.16699 15.999 -3.5s4.33301 -9.16602 3 -20.499
z" />
    <glyph glyph-name="amacron" unicode="&#x101;" horiz-adv-x="606" 
d="M347 389c-31.333 0 -57.834 -13.166 -79.501 -39.499s-32.5 -68.5 -32.5 -126.5c0 -30 5.83301 -51.333 17.5 -64s28.834 -19 51.501 -19c6 0 15 0.666992 27 2s22.667 3.66602 32 6.99902c4 32.667 7.16699 57.5 9.5 74.5s4.33301 32.167 6 45.5s3.66699 28 6 44
s6.16602 39 11.499 69c-8.66699 2.66699 -17.667 4.5 -27 5.5s-16.666 1.5 -21.999 1.5zM266.999 -11.999c-43.333 0 -78.999 4.99902 -106.999 14.999s-50 24 -66 42s-27.167 39.5 -33.5 64.5s-9.5 52.167 -9.5 81.5c0 108 23.333 192.5 70 253.5s117 91.5 211 91.5
c25.333 0 58.166 -1.5 98.499 -4.5s84.166 -11.167 131.499 -24.5c11.333 -3.33301 17.833 -7.66602 19.5 -12.999s1.83398 -11.666 0.500977 -18.999c-12 -74 -22.667 -146.167 -32 -216.5s-18 -141.833 -26 -214.5c-1.33301 -5.33301 -2.83301 -9.33301 -4.5 -12
s-5.16699 -5 -10.5 -7c-22 -8 -44.833 -14.5 -68.5 -19.5s-46.167 -8.83301 -67.5 -11.5s-41.333 -4.33398 -60 -5.00098s-34 -1 -46 -1zM519 635c-2 -15.333 -10.332 -23 -24.999 -23h-282c-15.333 0 -22 7.66699 -20 23l11 74c1.33301 11.333 4 18.166 8 20.499
s10 3.5 18 3.5h282c7.33301 0 12.666 -1.16699 15.999 -3.5s4.33301 -9.16602 3 -20.499z" />
    <glyph glyph-name="Abreve" unicode="&#x102;" horiz-adv-x="654" 
d="M418 137l-191.001 -0.000976562l-48 -115c-4 -7.33301 -7.83301 -12.833 -11.5 -16.5s-11.167 -5.5 -22.5 -5.5h-146c-6 0 -9.66699 1.83301 -11 5.5s-1 8.16699 1 13.5l278 619c12 26.667 24.833 43.834 38.5 51.501s31.167 11.5 52.5 11.5h79
c11.333 0 21.333 -0.5 30 -1.5s16.167 -3.5 22.5 -7.5s11.666 -10.167 15.999 -18.5s7.5 -19.833 9.5 -34.5l104 -620c0.666992 -3.33301 0.333984 -7.33301 -0.999023 -12s-5.66602 -7 -12.999 -7h-144c-7.33301 0 -13.5 1 -18.5 3s-8.16699 6.66699 -9.5 14z
M288.999 284.999h110l-7 78l-11 144h-8l-54 -147zM384.999 733.999c-21.333 0 -40.998 3.49805 -58.998 10.498s-34.333 16.167 -49 27.5s-27.834 24.333 -39.501 39s-21.5 30 -29.5 46c-1.33301 2 -2.33301 4.83301 -3 8.5s2 8.16699 8 13.5l60 54
c7.33301 4.66699 12 6.33398 14 5.00098s5.33301 -4 10 -8c36.667 -46 74.334 -69 113.001 -69c8 0 16.167 0.5 24.5 1.5s17.833 3.83301 28.5 8.5s22.667 11.667 36 21s29 22.333 47 39c7.33301 5.33301 12.166 7.83301 14.499 7.5s5.16602 -2.16602 8.49902 -5.49902
l43 -46c6 -6 8.33301 -10.667 7 -14s-3.33301 -6.33301 -6 -9c-38 -43.333 -75 -75.833 -111 -97.5s-75 -32.5 -117 -32.5z" />
    <glyph glyph-name="abreve" unicode="&#x103;" horiz-adv-x="606" 
d="M347 389c-31.333 0 -57.834 -13.166 -79.501 -39.499s-32.5 -68.5 -32.5 -126.5c0 -30 5.83301 -51.333 17.5 -64s28.834 -19 51.501 -19c6 0 15 0.666992 27 2s22.667 3.66602 32 6.99902c4 32.667 7.16699 57.5 9.5 74.5s4.33301 32.167 6 45.5s3.66699 28 6 44
s6.16602 39 11.499 69c-8.66699 2.66699 -17.667 4.5 -27 5.5s-16.666 1.5 -21.999 1.5zM266.999 -11.999c-43.333 0 -78.999 4.99902 -106.999 14.999s-50 24 -66 42s-27.167 39.5 -33.5 64.5s-9.5 52.167 -9.5 81.5c0 108 23.333 192.5 70 253.5s117 91.5 211 91.5
c25.333 0 58.166 -1.5 98.499 -4.5s84.166 -11.167 131.499 -24.5c11.333 -3.33301 17.833 -7.66602 19.5 -12.999s1.83398 -11.666 0.500977 -18.999c-12 -74 -22.667 -146.167 -32 -216.5s-18 -141.833 -26 -214.5c-1.33301 -5.33301 -2.83301 -9.33301 -4.5 -12
s-5.16699 -5 -10.5 -7c-22 -8 -44.833 -14.5 -68.5 -19.5s-46.167 -8.83301 -67.5 -11.5s-41.333 -4.33398 -60 -5.00098s-34 -1 -46 -1zM335 572c-21.333 0 -40.998 3.49805 -58.998 10.498s-34.333 16.167 -49 27.5s-27.834 24.333 -39.501 39s-21.5 30 -29.5 46
c-1.33301 2 -2.33301 4.83301 -3 8.5s2 8.16699 8 13.5l60 54c7.33301 4.66699 12 6.33398 14 5.00098s5.33301 -4 10 -8c36.667 -46 74.334 -69 113.001 -69c8 0 16.167 0.5 24.5 1.5s17.833 3.83301 28.5 8.5s22.667 11.667 36 21s29 22.333 47 39
c7.33301 5.33301 12.166 7.83301 14.499 7.5s5.16602 -2.16602 8.49902 -5.49902l43 -46c6 -6 8.33301 -10.667 7 -14s-3.33301 -6.33301 -6 -9c-38 -43.333 -75 -75.833 -111 -97.5s-75 -32.5 -117 -32.5z" />
    <glyph glyph-name="Aogonek" unicode="&#x104;" horiz-adv-x="654" 
d="M432 -248c-38 0 -66.3359 8 -85.0029 24s-28 36 -28 60c0 12 2.83301 25.667 8.5 41s13.5 31 23.5 47s22 31.667 36 47s29.667 29 47 41c-0.666992 0.666992 -1 2.33398 -1 5.00098l-15 120h-191l-48 -115c-4 -7.33301 -7.83301 -12.833 -11.5 -16.5
s-11.167 -5.5 -22.5 -5.5h-146c-6 0 -9.66699 1.83301 -11 5.5s-1 8.16699 1 13.5l278 619c12 26.667 24.833 43.834 38.5 51.501s31.167 11.5 52.5 11.5h79c11.333 0 21.333 -0.5 30 -1.5s16.167 -3.5 22.5 -7.5s11.666 -10.167 15.999 -18.5s7.5 -19.833 9.5 -34.5
l104 -620c0.666992 -3.33301 0.333984 -7.33301 -0.999023 -12s-5.66602 -7 -12.999 -7h-85c-27.333 -22.667 -46.166 -42.834 -56.499 -60.501s-15.5 -34.834 -15.5 -51.501c0 -24 15.667 -36 47 -36c8.66699 0 19.334 0.5 32.001 1.5s23.667 2.5 33 4.5
c6.66699 1.33301 11.667 1.5 15 0.5s5 -4.5 5 -10.5l11 -49c2 -10.667 -2.33301 -18 -13 -22c-28 -11.333 -54.167 -18.333 -78.5 -21s-46.833 -4 -67.5 -4zM288.997 285h110l-7 78l-11 144h-8l-54 -147z" />
    <glyph glyph-name="aogonek" unicode="&#x105;" horiz-adv-x="606" 
d="M405 -212c-38 0 -66.3311 7.99805 -84.998 23.998s-28 36 -28 60c0 15.333 4.83301 33.833 14.5 55.5s23.167 43.167 40.5 64.5c-16.667 -1.33301 -31.834 -2.33301 -45.501 -3s-25.167 -1 -34.5 -1c-43.333 0 -79 5 -107 15s-50 24 -66 42s-27.167 39.5 -33.5 64.5
s-9.5 52.167 -9.5 81.5c0 108 23.333 192.5 70 253.5s117 91.5 211 91.5c25.333 0 58.166 -1.5 98.499 -4.5s84.166 -11.167 131.499 -24.5c11.333 -3.33301 17.833 -7.66602 19.5 -12.999s1.83398 -11.666 0.500977 -18.999c-12 -74 -22.667 -146.167 -32 -216.5
s-18 -141.833 -26 -214.5c-1.33301 -5.33301 -2.83301 -9.33301 -4.5 -12s-5.16699 -5 -10.5 -7l-21.5 -7.5c-7 -2.33301 -14.167 -4.5 -21.5 -6.5c-16.667 -16.667 -28.334 -32 -35.001 -46s-10 -27.667 -10 -41c0 -24 15.667 -36 47 -36c8.66699 0 19.334 0.5 32.001 1.5
s23.667 2.5 33 4.5c6.66699 1.33301 11.667 1.5 15 0.5s5 -4.5 5 -10.5l11 -49c2 -10.667 -2.33301 -18 -13 -22c-28 -11.333 -54.167 -18.333 -78.5 -21s-46.833 -4 -67.5 -4zM347.002 388.998c-31.333 0 -57.834 -13.166 -79.501 -39.499s-32.5 -68.5 -32.5 -126.5
c0 -30 5.83301 -51.333 17.5 -64s28.834 -19 51.501 -19c6 0 15 0.666992 27 2s22.667 3.66602 32 6.99902c4 32.667 7.16699 57.5 9.5 74.5s4.33301 32.167 6 45.5s3.66699 28 6 44s6.16602 39 11.499 69c-8.66699 2.66699 -17.667 4.5 -27 5.5s-16.666 1.5 -21.999 1.5z
" />
    <glyph glyph-name="Cacute" unicode="&#x106;" horiz-adv-x="651" 
d="M432 710c38 0 73.5 -3.49805 106.5 -10.498s63.167 -18.167 90.5 -33.5c10 -5.33301 14.667 -11 14 -17s-3.66699 -14.667 -9 -26l-35 -82c-5.33301 -13.333 -10.5 -21 -15.5 -23s-13.167 -1 -24.5 3c-12 4 -23.167 7.5 -33.5 10.5s-20.166 5.5 -29.499 7.5
s-19 3.33301 -29 4s-21 1 -33 1c-22 0 -43 -4.83301 -63 -14.5s-37.667 -24.667 -53 -45s-27.5 -46.333 -36.5 -78s-13.5 -69.5 -13.5 -113.5c0 -44.667 8.5 -78.334 25.5 -101.001s46.5 -34 88.5 -34c33.333 0 62.166 4 86.499 12s47.166 16 68.499 24
c10.667 4 17.5 5.16699 20.5 3.5s6.83301 -7.83398 11.5 -18.501l39 -92c4 -9.33301 5 -16.5 3 -21.5s-6.66699 -9.5 -14 -13.5c-42 -24 -83 -40.5 -123 -49.5s-81 -13.5 -123 -13.5c-50 0 -92.667 7 -128 21s-64.166 33.5 -86.499 58.5s-38.5 55.167 -48.5 90.5
s-15 74 -15 116c0 68.667 9 130 27 184s42.833 99.5 74.5 136.5s69.5 65.333 113.5 85s92 29.5 144 29.5zM517 965.002c5.33301 4 9.66895 6.16797 13.002 6.50098s7.66602 -1.83398 12.999 -6.50098l69 -88c4 -3.33301 5.33301 -7.16602 4 -11.499s-4 -7.16602 -8 -8.49902
l-214 -115c-6 -3.33301 -10.5 -4.5 -13.5 -3.5s-6.16699 3.16699 -9.5 6.5l-42 56c-2.66699 3.33301 -4.33398 6.66602 -5.00098 9.99902s2.33301 7.66602 9 12.999z" />
    <glyph glyph-name="cacute" unicode="&#x107;" horiz-adv-x="518" 
d="M338 378c-35.333 0 -60.833 -12.833 -76.5 -38.5s-23.5 -60.5 -23.5 -104.5c0 -26 5 -46.167 15 -60.5s29.667 -21.5 59 -21.5c20 0 39.5 2 58.5 6s36.5 8.33301 52.5 13c7.33301 2 13.166 3 17.499 3s7.16602 -4.66699 8.49902 -14l32 -99
c1.33301 -7.33301 2 -13.166 2 -17.499s-5.33301 -9.16602 -16 -14.499c-16 -8 -32.833 -14.667 -50.5 -20s-35.167 -9.5 -52.5 -12.5s-34.166 -5.16699 -50.499 -6.5s-31.166 -2 -44.499 -2c-144 0 -216 74.333 -216 223c0 58 6.66699 107.667 20 149s32 75.166 56 101.499
s52.833 45.833 86.5 58.5s70.834 19 111.501 19c27.333 0 55.166 -2.83301 83.499 -8.5s53.166 -13.167 74.499 -22.5c7.33301 -3.33301 11.833 -7 13.5 -11s0.833984 -11 -2.49902 -21l-32 -101c-3.33301 -10 -8 -14.667 -14 -14s-14 2 -24 4
c-18.667 3.33301 -35.5 6.16602 -50.5 8.49902s-27.5 3.5 -37.5 3.5zM352 806c2.66699 5.33301 5.49902 9.00098 8.49902 11.001s8.16699 2.33301 15.5 1l117 -30c5.33301 -1.33301 8.5 -4 9.5 -8s-0.166992 -7.66699 -3.5 -11l-146 -186
c-3.33301 -6 -6.66602 -9.33301 -9.99902 -10s-7.66602 -0.333984 -12.999 0.999023l-67 24c-4.66699 1.33301 -7.83398 3.33301 -9.50098 6s-0.5 7.66699 3.5 15z" />
    </font>
</defs>
</svg>
