<?xml version="1.0" standalone="no"?>
<!DOCTYPE svg PUBLIC "-//W3C//DTD SVG 1.1//EN" "http://www.w3.org/Graphics/SVG/1.1/DTD/svg11.dtd" >
<svg>
<metadata>
Created by FontForge 20090914 at Thu Aug 17 09:36:52 2017
 By www-data
Copyright (c) 2002, 2006 Parachute&#194;&#168;, www.parachute.gr.  All rights reserved.
</metadata>
<defs>
<font id="PFBeauSansPro-XThinItalic" horiz-adv-x="1818" >
  <font-face 
    font-family="PF BeauSans Pro XThin"
    font-weight="100"
    font-style="italic"
    font-stretch="normal"
    units-per-em="1000"
    panose-1="2 0 5 6 3 0 0 9 0 4"
    ascent="750"
    descent="-250"
    x-height="525"
    cap-height="701"
    bbox="-232.005 -219.999 1760 913.002"
    underline-thickness="60"
    underline-position="-40"
    slope="-8"
    unicode-range="U+0020-U+FB05"
  />
<missing-glyph horiz-adv-x="428" 
d="M0 700h428v-700h-428v700zM408 27v648l-179 -325zM20 29l179 321l-179 322v-643zM384 679h-340l171 -309zM384 21l-170 310l-170 -310h340z" />
    <glyph glyph-name="fj" unicode="fj" horiz-adv-x="453" 
d="M158 -205c-1.33301 3.33301 0.333008 5.66406 5 6.99707c32.667 11.333 59.834 24.833 81.501 40.5s39.334 33.334 53.001 53.001s24 41.334 31 65.001s12.5 49.167 16.5 76.5l60 467h-232l-98 -687c0 -4 -1.66699 -6.33301 -5 -7l-13 -5
c-4 -1.33301 -5.66699 0.333984 -5 5.00098l99 694h-91c-3.33301 0 -4.66602 1.66699 -3.99902 5l1 8c0.666992 3.33301 2.66699 5 6 5l92 5l10 70c4 26.667 10.833 48.834 20.5 66.501s21.667 31.834 36 42.501s30.5 18.167 48.5 22.5s36.667 6.5 56 6.5s38.833 -1 58.5 -3
s39.167 -5.66699 58.5 -11c3.33301 -0.666992 4.66602 -2.33398 3.99902 -5.00098l-4 -12c-0.666992 -2.66699 -1.5 -4 -2.5 -4h-2.5c-19.333 4.66699 -38.5 8 -57.5 10s-38.167 3 -57.5 3c-16.667 0 -32.667 -1.83301 -48 -5.5s-29 -9.83398 -41 -18.501
s-22.167 -20.334 -30.5 -35.001s-13.833 -33 -16.5 -55l-11 -74h248c4 0 5.33301 -2 4 -6l-62 -492c-5.33301 -38.667 -14 -71.667 -26 -99s-26.5 -50.5 -43.5 -69.5s-36.333 -34.667 -58 -47s-44.834 -22.5 -69.501 -30.5
c-4.66699 -1.33301 -7.33398 -0.666016 -8.00098 2.00098z" />
    <glyph glyph-name="ffj" unicode="ffj" horiz-adv-x="701" 
d="M335 706c-18 -0.666992 -35.332 -3.33105 -51.999 -7.99805s-31.834 -11.834 -45.501 -21.501s-25.167 -22 -34.5 -37s-15.333 -33.5 -18 -55.5l-9 -59h233l11 77c3.33301 20 8 37.333 14 52s13.667 27.334 23 38.001c-20 5.33301 -40.5 9.16602 -61.5 11.499
s-41.167 3.16602 -60.5 2.49902zM336.001 -133.997c0 -4 -1.6709 -6.33301 -5.00391 -7l-13 -5c-4 -1.33301 -5.66699 0.333984 -5 5.00098l93 645h-233l-98 -687c0 -4 -1.66699 -6.33301 -5 -7l-13 -5c-4 -1.33301 -5.66699 0.333984 -5 5.00098l99 694h-91
c-3.33301 0 -4.66602 1.66699 -3.99902 5l1 7c0.666992 4 2.66699 6 6 6l92 5l7 55c4 26.667 11.5 49.167 22.5 67.5s24.5 33.333 40.5 45s33.667 20.167 53 25.5s39.666 8 60.999 8c20.667 0.666992 42.5 -0.333008 65.5 -3s47.5 -7.33398 73.5 -14.001
c14 10.667 30 18.167 48 22.5s36.667 6.5 56 6.5s38.833 -1 58.5 -3s39.167 -5.66699 58.5 -11c2.66699 -0.666992 4 -2.33398 4 -5.00098l-4 -12c-1.33301 -2.66699 -2.33301 -4 -3 -4h-2c-19.333 4.66699 -38.666 8 -57.999 10s-38.666 3 -57.999 3
c-16.667 0 -32.5 -1.83301 -47.5 -5.5s-28.5 -9.83398 -40.5 -18.501s-22.167 -20.334 -30.5 -35.001s-14.166 -33 -17.499 -55l-11 -79h248c4 0 5.33301 -2 4 -6l-62 -492c-5.33301 -38.667 -14 -71.667 -26 -99s-26.5 -50.5 -43.5 -69.5s-36.333 -34.667 -58 -47
s-44.834 -22.5 -69.501 -30.5c-4.66699 -1.33301 -7.33398 -0.666016 -8.00098 2.00098l-3 12c-1.33301 3.33301 0.333984 5.66602 5.00098 6.99902c32.667 11.333 59.834 24.833 81.501 40.5s39.334 33.334 53.001 53.001s24 41.334 31 65.001s12.5 49.167 16.5 76.5
l60 467h-232z" />
    <glyph glyph-name="ff" unicode="ff" horiz-adv-x="552" 
d="M176 525h233l13 90c4 30 12.333 55 25 75c-19.333 4.66699 -39.333 8.5 -60 11.5s-40.667 4.16699 -60 3.5c-18 -0.666992 -34.833 -3 -50.5 -7s-29.834 -10.5 -42.501 -19.5s-23.167 -20.667 -31.5 -35s-14.166 -32.5 -17.499 -54.5zM428 504l-92.001 -638.005
c0 -4 -1.66699 -6.33301 -5 -7l-13 -5c-4 -1.33301 -5.66699 0.333984 -5 5.00098l93 645h-233l-98 -687c0 -4 -1.66699 -6.33301 -5 -7l-13 -5c-4 -1.33301 -5.66699 0.333984 -5 5.00098l99 694h-91c-3.33301 0 -4.66602 1.66699 -3.99902 5l1 7c0.666992 4 2.66699 6 6 6
l92 5l8 60c4 26.667 11 48.834 21 66.501s22.5 32 37.5 43s31.833 18.833 50.5 23.5s38.334 7 59.001 7c21.333 0.666992 43.166 -0.666016 65.499 -3.99902s44.833 -7.66602 67.5 -12.999h1c22.667 18.667 54.667 28 96 28c8.66699 0 19.5 -0.333008 32.5 -1
s26.5 -2.66699 40.5 -6c3.33301 -0.666992 5 -2.33398 5 -5.00098l-4 -11c-1.33301 -2.66699 -2.5 -4 -3.5 -4h-2.5c-15.333 2.66699 -29.333 4.33398 -42 5.00098s-22.667 1 -30 1c-20 0 -36.833 -2.5 -50.5 -7.5s-24.667 -11.833 -33 -20.5s-14.833 -19.167 -19.5 -31.5
s-8 -25.833 -10 -40.5l-13 -92h154c3.33301 0 5 -1.66699 5 -5l-2 -11c-0.666992 -3.33301 -2.66699 -5 -6 -5h-154z" />
    <glyph glyph-name="fi" unicode="fi" horiz-adv-x="453" 
d="M151 504h-91c-3.33301 0 -4.66602 1.66699 -3.99902 5l1 8c0.666992 3.33301 2.66699 5 6 5l92 5l10 70c4 26.667 10.833 48.834 20.5 66.501s21.667 31.834 36 42.501s30.5 18.167 48.5 22.5s36.667 6.5 56 6.5s38.833 -1 58.5 -3s39.167 -5.66699 58.5 -11
c3.33301 -0.666992 4.66602 -2.33398 3.99902 -5.00098l-4 -12c-0.666992 -2.66699 -1.5 -4 -2.5 -4h-2.5c-19.333 4.66699 -38.5 8 -57.5 10s-38.167 3 -57.5 3c-16.667 0 -32.667 -1.83301 -48 -5.5s-29 -9.83398 -41 -18.501s-22.167 -20.334 -30.5 -35.001
s-13.833 -33 -16.5 -55l-11 -74h250c3.33301 0 5 -1.66699 5 -5l-73 -515c0 -3.33301 -1.66699 -5 -5 -5h-12c-3.33301 0 -5 1.66699 -5 5l70 499h-233l-98 -687c0 -4 -1.66699 -6.33301 -5 -7l-13 -5c-4 -1.33301 -5.66699 0.333984 -5 5.00098z" />
    <glyph glyph-name="fl" unicode="fl" horiz-adv-x="479" 
d="M435 705c-19.333 4.66699 -37.8311 8.16602 -55.498 10.499s-35.834 3.5 -54.501 3.5c-16.667 0 -32.667 -1.83301 -48 -5.5s-29 -9.83398 -41 -18.501s-22.333 -20.334 -31 -35.001s-14.334 -33 -17.001 -55l-12 -80h175c2.66699 0 4 -1.66699 4 -5l-2 -11
c-0.666992 -3.33301 -2.33398 -5 -5.00098 -5h-175l-98 -687c0 -4 -1.66699 -6.33301 -5 -7l-13 -5c-4 -1.33301 -5.66699 0.333984 -5 5.00098l99 694h-91c-3.33301 0 -4.66602 1.66699 -3.99902 5l1 8c0.666992 3.33301 2.66699 5 6 5l92 5l10 76
c4 26.667 11 48.834 21 66.501s22.333 31.834 37 42.501s31 18.167 49 22.5s36.667 6.5 56 6.5c37.333 0 75 -5 113 -15l13 5c3.33301 0.666992 5 -0.666016 5 -3.99902l-91 -646c-1.33301 -11.333 -2.16602 -21 -2.49902 -29s0.5 -14.667 2.5 -20s5.66699 -9.33301 11 -12
s12.666 -4 21.999 -4c6.66699 0 12.667 0.333008 18 1s11 1.66699 17 3h2.5c1 0 1.83301 -1 2.5 -3l2 -12c0.666992 -3.33301 -0.333008 -5.33301 -3 -6c-8 -2 -16.167 -3.33301 -24.5 -4s-15.5 -1 -21.5 -1c-13.333 0 -23.5 1.83301 -30.5 5.5s-12.167 9 -15.5 16
s-5 15.167 -5 24.5s0.666992 19.666 2 30.999z" />
    <glyph glyph-name="ffi" unicode="ffi" horiz-adv-x="701" 
d="M335 706c-18 -0.666992 -35.332 -3.33105 -51.999 -7.99805s-31.834 -11.834 -45.501 -21.501s-25.167 -22 -34.5 -37s-15.333 -33.5 -18 -55.5l-9 -59h233l11 77c3.33301 20 8 37.333 14 52s13.667 27.334 23 38.001c-20 5.33301 -40.5 9.16602 -61.5 11.499
s-41.167 3.16602 -60.5 2.49902zM428.001 504.003l-92.0029 -637.998c0 -4 -1.66699 -6.33301 -5 -7l-13 -5c-4 -1.33301 -5.66699 0.333984 -5 5.00098l93 645h-233l-98 -687c0 -4 -1.66699 -6.33301 -5 -7l-13 -5c-4 -1.33301 -5.66699 0.333984 -5 5.00098l99 694h-91
c-3.33301 0 -4.66602 1.66699 -3.99902 5l1 7c0.666992 4 2.66699 6 6 6l92 5l7 55c4 26.667 11.5 49.167 22.5 67.5s24.5 33.333 40.5 45s33.667 20.167 53 25.5s39.666 8 60.999 8c20.667 0.666992 42.5 -0.333008 65.5 -3s47.5 -7.33398 73.5 -14.001
c14 10.667 30 18.167 48 22.5s36.667 6.5 56 6.5s38.833 -1 58.5 -3s39.167 -5.66699 58.5 -11c2.66699 -0.666992 4 -2.33398 4 -5.00098l-4 -12c-1.33301 -2.66699 -2.33301 -4 -3 -4h-2c-19.333 4.66699 -38.666 8 -57.999 10s-38.666 3 -57.999 3
c-16.667 0 -32.5 -1.83301 -47.5 -5.5s-28.5 -9.83398 -40.5 -18.501s-22.167 -20.334 -30.5 -35.001s-14.166 -33 -17.499 -55l-11 -79h250c3.33301 0 5 -1.66699 5 -5l-73 -515c0 -3.33301 -1.66699 -5 -5 -5h-12c-3.33301 0 -5 1.66699 -5 5l70 499h-233z" />
    <glyph glyph-name="ffl" unicode="ffl" horiz-adv-x="733" 
d="M335 706c-18 -0.666992 -35.332 -3.33105 -51.999 -7.99805s-31.834 -11.834 -45.501 -21.501s-25.167 -22 -34.5 -37s-15.333 -33.5 -18 -55.5l-9 -59h233l11 77c3.33301 20 8 37.333 14 52s13.667 27.334 23 38.001c-20 5.33301 -40.5 9.16602 -61.5 11.499
s-41.167 3.16602 -60.5 2.49902zM688.001 704.003c-18.667 4.66699 -37 8.16797 -55 10.501s-36.333 3.5 -55 3.5c-16.667 0 -32.5 -1.83301 -47.5 -5.5s-28.5 -9.83398 -40.5 -18.501s-22.167 -20.334 -30.5 -35.001s-14.166 -33 -17.499 -55l-11 -79h175
c3.33301 0 5 -1.66699 5 -5l-2 -11c-0.666992 -3.33301 -2.66699 -5 -6 -5h-175l-92 -638c0 -4 -1.66699 -6.33301 -5 -7l-13 -5c-4 -1.33301 -5.66699 0.333984 -5 5.00098l93 645h-233l-98 -687c0 -4 -1.66699 -6.33301 -5 -7l-13 -5
c-4 -1.33301 -5.66699 0.333984 -5 5.00098l99 694h-91c-3.33301 0 -4.66602 1.66699 -3.99902 5l1 7c0.666992 4 2.66699 6 6 6l92 5l7 55c4 26.667 11.5 49.167 22.5 67.5s24.5 33.333 40.5 45s33.667 20.167 53 25.5s39.666 8 60.999 8
c20.667 0.666992 42.5 -0.333008 65.5 -3s47.5 -7.33398 73.5 -14.001c14 10.667 30 18.167 48 22.5s36.667 6.5 56 6.5c37.333 0 74.666 -5 111.999 -15l13 5c3.33301 0.666992 5 -0.666016 5 -3.99902l-91 -646c-1.33301 -11.333 -2.16602 -21 -2.49902 -29
s0.5 -14.667 2.5 -20s5.66699 -9.33301 11 -12s12.666 -4 21.999 -4c6.66699 0 12.667 0.333008 18 1s11 1.66699 17 3h2.5c1 0 1.83301 -1 2.5 -3l2 -12c0.666992 -3.33301 -0.333008 -5.33301 -3 -6c-8 -2 -16.167 -3.33301 -24.5 -4s-15.5 -1 -21.5 -1
c-13.333 0 -23.5 1.83301 -30.5 5.5s-12.167 9 -15.5 16s-5 15.167 -5 24.5s0.666992 19.666 2 30.999z" />
    <glyph glyph-name="ft" unicode="ft" horiz-adv-x="559" 
d="M151 504h-91.001c-3.33301 0 -4.66602 1.66699 -3.99902 5l1 6c0 4.66699 2 7 6 7l92 5l12 86c5.33301 40.667 18.666 71.334 39.999 92.001s54.333 31 99 31c8 0 18.667 -0.333008 32 -1s27 -2.66699 41 -6c3.33301 -0.666992 4.66602 -2.33398 3.99902 -5.00098l-3 -11
c-1.33301 -2.66699 -2.5 -4 -3.5 -4h-2.5c-15.333 2.66699 -29.333 4.33398 -42 5.00098s-22.667 1 -30 1c-20 0 -36.833 -2.5 -50.5 -7.5s-24.834 -11.833 -33.501 -20.5s-15.167 -19.167 -19.5 -31.5s-7.5 -25.833 -9.5 -40.5l-13 -90l225 1l19 101
c0 5.33301 1.66699 8.66602 5 9.99902l8 3c4.66699 1.33301 6.66699 -0.333984 6 -5.00098l-16 -110h136c3.33301 0 5 -1.66699 5 -5l-2 -11c-0.666992 -3.33301 -2.66699 -5 -6 -5h-136l-54 -389c-2 -14.667 -3 -28.167 -3 -40.5s2.66699 -22.833 8 -31.5
s13.666 -15.5 24.999 -20.5s27.333 -7.5 48 -7.5c7.33301 0 17.833 0.5 31.5 1.5s28.834 3.5 45.501 7.5c4 0.666992 6 -0.333008 6 -3l2 -11c0 -2.66699 -1.33301 -4.33398 -4 -5.00098c-15.333 -4 -31.166 -6.83301 -47.499 -8.5s-28.166 -2.5 -35.499 -2.5
c-22.667 0 -41 2.16699 -55 6.5s-24.833 11.333 -32.5 21s-12.167 21.834 -13.5 36.501s-0.666016 32 2.00098 52l55 394h-225l-98 -687c0 -4 -1.66699 -6.33301 -5 -7l-13 -5c-4 -1.33301 -5.66699 0.333984 -5 5.00098z" />
    <glyph glyph-name=".notdef" horiz-adv-x="428" 
d="M0 700h428v-700h-428v700zM408 27v648l-179 -325zM20 29l179 321l-179 322v-643zM384 679h-340l171 -309zM384 21l-170 310l-170 -310h340z" />
    <glyph glyph-name="space" unicode=" " horiz-adv-x="240" 
 />
    <glyph glyph-name="exclam" unicode="!" horiz-adv-x="230" 
d="M95 32c6 0 10.832 -2 14.499 -6s4.83398 -9 3.50098 -15c-1.33301 -7.33301 -4.16602 -13 -8.49902 -17s-9.5 -6 -15.5 -6c-14.667 0 -21 7.66699 -19 23c1.33301 6 4.16602 11 8.49902 15s9.83301 6 16.5 6zM173.999 695c0.666992 4 3 6 7 6h16c4 0 5.66699 -2 5 -6
l-86 -575c0 -4 -2 -6 -6 -6h-6c-4 0 -6 2 -6 6z" />
    <glyph glyph-name="quotedbl" unicode="&#x22;" horiz-adv-x="258" 
d="M135 697c0.666992 4 3 6 7 6h24c4 0 5.66699 -2 5 -6l-38 -208c0 -4 -2.33301 -6 -7 -6h-6c-3.33301 0 -5 2 -5 6zM231 697c0.666992 4 3 6 7 6h24c4 0 5.66699 -2 5 -6l-38 -208c0 -4 -2.33301 -6 -7 -6h-6c-3.33301 0 -5 2 -5 6z" />
    <glyph glyph-name="numbersign" unicode="#" horiz-adv-x="540" 
d="M154 179h-78.9951c-4 0 -5.66699 1.66699 -5 5l5 9c0.666992 4 2.66699 6 6 6h79l72 221h-88c-4 0 -5.66699 1.66699 -5 5l3 9c1.33301 3.33301 3.66602 5 6.99902 5h89l45 140c0 3.33301 2.33301 5 7 5h10c3.33301 0 4.66602 -1.66699 3.99902 -5l-46 -140h185l47 140
c0 3.33301 1.66699 5 5 5h11c3.33301 0 4.66602 -1.66699 3.99902 -5l-46 -140h99c1.33301 0 2.66602 -0.166992 3.99902 -0.5s1.33301 -1.83301 0 -4.5l-4 -9c-0.666992 -3.33301 -2.66699 -5 -6 -5h-98l-73 -221h110c3.33301 0 4.66602 -2 3.99902 -6l-4 -9
c-0.666992 -3.33301 -2.66699 -5 -6 -5h-110l-27.5 -87l-28.5 -87c0 -3.33301 -1.66699 -5 -5 -5h-10c-3.33301 0 -5 1.66699 -5 5l56 174h-185l-56 -174c0 -3.33301 -1.66699 -5 -5 -5h-11c-3.33301 0 -5 1.66699 -5 5zM180.005 199h185l73 221h-186z" />
    <glyph glyph-name="dollar" unicode="$" horiz-adv-x="540" 
d="M274 -94c0 -3.33301 -1.66895 -4.99805 -5.00195 -4.99805h-12c-3.33301 0 -5 1.66699 -5 5l122 863c0 3.33301 1.66699 5 5 5h12c3.33301 0 5 -1.66699 5 -5l-13 -93c26.667 -4 48.834 -8.66699 66.501 -14s37.167 -12.333 58.5 -21c3.33301 -1.33301 4.33301 -4 3 -8
l-5 -10c-1.33301 -4 -4.66602 -4.66699 -9.99902 -2c-22.667 9.33301 -43.167 16.666 -61.5 21.999s-36.5 9 -54.5 11l-43 -305c50 -20.667 87.833 -45.334 113.5 -74.001s38.5 -63 38.5 -103c0 -24 -4 -46.167 -12 -66.5s-20.333 -38.5 -37 -54.5s-37.667 -29 -63 -39
s-55.333 -16.333 -90 -19zM289.998 17.002c22 2 43.5 5.83203 64.5 11.499s39.667 14.5 56 26.5s29.5 27.5 39.5 46.5s15 42.833 15 71.5c0 34 -11 62.833 -33 86.5s-55 44.834 -99 63.501zM288.998 656.001c-20.667 -1.33301 -40.167 -4.66699 -58.5 -10
s-34.5 -13.5 -48.5 -24.5s-25 -25.167 -33 -42.5s-12 -39 -12 -65c0 -31.333 9.83301 -56.833 29.5 -76.5s47.5 -38.167 83.5 -55.5zM246.998 358c-44 18 -77 39.501 -99 64.501s-33 55.167 -33 90.5c0 50 15.333 89.667 46 119s74.334 44.666 131.001 45.999l13 91
c0 3.33301 1.66699 5 5 5h13c2.66699 0 4 -1.66699 4 -5l-122 -863c0 -3.33301 -1.33301 -5 -4 -5h-13c-3.33301 0 -5 1.66699 -5 5l12 87c-34 2.66699 -65.833 8 -95.5 16s-52.167 16 -67.5 24c-4.66699 2 -5.66699 5.33301 -3 10l3 6c2 4.66699 5 6 9 4
c23.333 -11.333 49.166 -20 77.499 -26s54.833 -10 79.5 -12z" />
    <glyph glyph-name="percent" unicode="%" horiz-adv-x="780" 
d="M637 406c40.667 0 73.001 -12.167 97.001 -36.5s36 -61.5 36 -111.5c0 -84 -17 -149 -51 -195s-80.333 -69 -139 -69c-42.667 0 -75.334 12.333 -98.001 37s-34 62 -34 112c0 41.333 4.83301 78.333 14.5 111s23 60.167 40 82.5s37 39.5 60 51.5s47.833 18 74.5 18z
M635.001 387c-32 0 -58.6689 -8.66699 -80.002 -26s-38.333 -38.333 -51 -63s-21.667 -50.834 -27 -78.501s-8 -51.834 -8 -72.501c0 -17.333 1.66699 -34.166 5 -50.499s9.33301 -30.666 18 -42.999s20.334 -22.333 35.001 -30s33.334 -11.5 56.001 -11.5
c34.667 0 63 9 85 27s39 39.667 51 65s20.167 51.833 24.5 79.5s6.5 51.167 6.5 70.5c0 16.667 -1.66699 33 -5 49s-9.33301 30.333 -18 43s-20.5 22.667 -35.5 30s-33.833 11 -56.5 11zM269.999 676c40.667 0 73 -12.167 97 -36.5s36 -61.5 36 -111.5
c0 -84 -17 -149 -51 -195s-80.333 -69 -139 -69c-42.667 0 -75.167 12.833 -97.5 38.5s-33.5 62.5 -33.5 110.5c0 40 4.5 76.167 13.5 108.5s21.833 60 38.5 83s36.5 40.667 59.5 53s48.5 18.5 76.5 18.5zM267.999 657c-32 0 -58.6689 -8.66699 -80.002 -26
s-38.333 -38.333 -51 -63s-21.667 -50.834 -27 -78.501s-8 -51.834 -8 -72.501c0 -17.333 1.66699 -34.166 5 -50.499s9.33301 -30.666 18 -42.999s20.334 -22.333 35.001 -30s33.334 -11.5 56.001 -11.5c34.667 0 63 9 85 27s39 39.667 51 65s20.167 51.833 24.5 79.5
s6.5 51.167 6.5 70.5c0 16.667 -1.66699 33 -5 49s-9.33301 30.333 -18 43s-20.5 22.667 -35.5 30s-33.833 11 -56.5 11zM671.997 705c2 3.33301 4.66699 5 8 5h12c4 0 5 -1.66699 3 -5l-503 -727c-2 -3.33301 -4.66699 -5 -8 -5h-8c-4 0 -5.33301 1.66699 -4 5z" />
    <glyph glyph-name="ampersand" unicode="&#x26;" horiz-adv-x="644" 
d="M426 171c11.333 14.667 22.667 31.499 34 50.499s24.333 38 39 57s31.667 36.667 51 53s42.666 28.833 69.999 37.5c10 2.66699 19.667 5 29 7c4.66699 0.666992 7.33398 -1 8.00098 -5l1 -12c0 -2 -0.666992 -3.16699 -2 -3.5s-3 -0.833008 -5 -1.5
c-30 -6 -55 -15.833 -75 -29.5s-37.5 -29.834 -52.5 -48.501s-29 -38.667 -42 -60s-27.5 -42.666 -43.5 -63.999l97 -145c1.33301 -2.66699 1.66602 -4.5 0.999023 -5.5s-1.66699 -1.5 -3 -1.5h-15c-3.33301 0 -5.66602 0.666992 -6.99902 2l-4 4
c-3.33301 4.66699 -8.16602 11.834 -14.499 21.501l-21 32l-24 36l-23.5 34.5c-21.333 -27.333 -41.833 -50.333 -61.5 -69s-39 -33.667 -58 -45s-37.833 -19.333 -56.5 -24s-37.667 -7 -57 -7c-48 0 -83 11.5 -105 34.5s-33 55.5 -33 97.5c0 51.333 17.833 99.5 53.5 144.5
s88.167 88.167 157.5 129.5c-23.333 36.667 -39.833 68.167 -49.5 94.5s-14.5 50.833 -14.5 73.5c0 24.667 4 46.334 12 65.001s18.833 34.5 32.5 47.5s29.667 22.833 48 29.5s38.166 10 59.499 10c34.667 0 63.334 -10.333 86.001 -31s34 -48.334 34 -83.001
c0 -22 -3.83301 -42.167 -11.5 -60.5s-18.834 -35.833 -33.501 -52.5s-33 -33 -55 -49s-47.333 -33 -76 -51l34 -56.5l29.5 -48.5l30 -49.5zM413.001 149.999l-67.501 109.998l-68.5 114c-26.667 -16 -52.167 -33.333 -76.5 -52s-45.833 -38.5 -64.5 -59.5
s-33.5 -43.5 -44.5 -67.5s-16.5 -49.333 -16.5 -76c0 -41.333 11 -70.5 33 -87.5s50.667 -25.5 86 -25.5c14.667 0 30.334 1.83301 47.001 5.5s34.167 10.834 52.5 21.501s37.5 25.334 57.5 44.001s40.667 43 62 73zM351 688.997
c-18.667 0 -35.834 -3.16797 -51.501 -9.50098s-29.167 -15.166 -40.5 -26.499s-20.166 -25 -26.499 -41s-9.5 -33.333 -9.5 -52c0 -24.667 6.16699 -50.667 18.5 -78s27.166 -54.333 44.499 -81l57.5 38.5c19.667 13.667 37.334 28.167 53.001 43.5s28.5 32 38.5 50
s15 37.667 15 59c0 12 -1.83301 23.833 -5.5 35.5s-9.5 22 -17.5 31s-18.333 16.333 -31 22s-27.667 8.5 -45 8.5z" />
    <glyph glyph-name="quotesingle" unicode="'" horiz-adv-x="181" 
d="M145 697c0.666992 4 3 6 7 6h24c4 0 5.66699 -2 5 -6l-38 -208c0 -4 -2.33301 -6 -7 -6h-7c-3.33301 0 -5 2 -5 6z" />
    <glyph glyph-name="parenleft" unicode="(" horiz-adv-x="249" 
d="M276 731c3.33301 2 5.33398 2.33203 6.00098 0.999023l6 -6c0.666992 -1.33301 0 -3 -2 -5c-38 -35.333 -70.5 -72 -97.5 -110s-49 -76.667 -66 -116s-29.333 -78.666 -37 -117.999s-11.5 -78.333 -11.5 -117c-1.33301 -51.333 5.66699 -104.166 21 -158.499
s42.666 -106.5 81.999 -156.5c1.33301 -2 1.33301 -3.66699 0 -5l-7 -6c-2 -2 -4 -1.66699 -6 1c-39.333 42 -69 90.5 -89 145.5s-30 113.5 -30 175.5c0 44.667 5.33301 89 16 133s26 86.5 46 127.5s44.167 79.667 72.5 116s60.5 69.166 96.5 98.499z" />
    <glyph glyph-name="parenright" unicode=")" horiz-adv-x="249" 
d="M8 -65c-3.33301 -2 -5.33398 -2.33398 -6.00098 -1.00098l-6 6c-0.666992 1.33301 0 3 2 5c38 35.333 70.5 72 97.5 110s49 76.667 66 116s29.333 78.666 37 117.999s11.5 78.333 11.5 117c0.666992 26 -0.666016 52.333 -3.99902 79s-9 53.334 -17 80.001
s-18.667 53 -32 79s-30 51.667 -50 77c-1.33301 2 -1.33301 3.66699 0 5l7 6c1.33301 1.33301 3.33301 1 6 -1c39.333 -42 69 -90.5 89 -145.5s30 -113.5 30 -175.5c0 -44.667 -5.33301 -89 -16 -133s-26 -86.5 -46 -127.5s-44.167 -79.667 -72.5 -116
s-60.5 -69.166 -96.5 -98.499z" />
    <glyph glyph-name="asterisk" unicode="*" horiz-adv-x="422" 
d="M293 688c7.33301 0 10.332 -3.33398 8.99902 -10.001l-31 -145l141 59c1.33301 0.666992 3.16602 0.833984 5.49902 0.500977s3.83301 -2.16602 4.5 -5.49902l4 -23c1.33301 -4 1 -7 -1 -9s-4.33301 -3 -7 -3l-144 -41l80 -113c1.33301 -1.33301 2 -3.33301 2 -6
s-1.66699 -5 -5 -7l-20 -14c-8 -4.66699 -12.667 -3.66699 -14 3l-61 126l-93 -132c-1.33301 -2 -3.16602 -3.33301 -5.49902 -4s-4.83301 0 -7.5 2l-16 14c-3.33301 2.66699 -4.66602 5.16699 -3.99902 7.5s2 4.5 4 6.5l105 117l-135 35
c-4.66699 1.33301 -5.66699 5.33301 -3 12l9 22c3.33301 7.33301 8 9.66602 14 6.99902l125 -54l11 146c0 6 3.66699 9 11 9h22z" />
    <glyph glyph-name="plus" unicode="+" horiz-adv-x="540" 
d="M284 354l31.999 224c0 3.33301 1.66699 5 5 5h12c3.33301 0 5 -1.66699 5 -5l-32 -224h200c3.33301 0 5 -1.66699 5 -5l-2 -13c-0.666992 -3.33301 -2.66699 -5 -6 -5h-200l-31 -223c-1.33301 -3.33301 -3.33301 -5 -6 -5h-12c-4 0 -5.33301 1.66699 -4 5l31 223h-203
c-3.33301 0 -4.66602 1.66699 -3.99902 5l2 13c0 3.33301 1.66699 5 5 5h203z" />
    <glyph glyph-name="comma" unicode="," horiz-adv-x="163" 
d="M39 -107c-0.666992 -2 -1.83301 -4.16699 -3.5 -6.5s-4.5 -3.5 -8.5 -3.5h-5c-6 0 -8.66699 2.66699 -8 8l37 133c2 9.33301 7.33301 14 16 14h13c7.33301 0 10 -4 8 -12z" />
    <glyph glyph-name="hyphen" unicode="-" horiz-adv-x="290" 
d="M269 291c3.33301 0 4.66699 -1.66699 4 -5l-3 -19c0 -3.33301 -1.66699 -5 -5 -5h-217c-3.33301 0 -5 1.66699 -5 5l3 19c0.666992 3.33301 2.66699 5 6 5h217z" />
    <glyph glyph-name="period" unicode="." horiz-adv-x="158" 
d="M60 33c12 0 18 -5.66699 18 -17c0 -9.33301 -2.5 -16.333 -7.5 -21s-10.5 -7 -16.5 -7c-13.333 0 -20 6.66699 -20 20c0 7.33301 2.33301 13.333 7 18s11 7 19 7z" />
    <glyph glyph-name="slash" unicode="/" horiz-adv-x="368" 
d="M425 776c0 3.33301 1.66699 5 5 5h13c3.33301 0 5 -1.66699 5 -5l-460 -868c-1.33301 -3.33301 -3.33301 -5 -6 -5h-11c-4 0 -5.33301 1.66699 -4 5z" />
    <glyph glyph-name="zero" unicode="0" horiz-adv-x="540" 
d="M337 683c64.667 0 113.996 -20.5 147.996 -61.5s51 -102.167 51 -183.5c0 -70.667 -6.83301 -133.834 -20.5 -189.501s-33.167 -102.667 -58.5 -141s-56.166 -67.666 -92.499 -87.999s-77.166 -30.5 -122.499 -30.5c-62 0 -109.667 21.167 -143 63.5
s-50 104.833 -50 187.5c0 59.333 6.33301 115.833 19 169.5s31.334 100.667 56.001 141s54.834 72.5 90.501 96.5s76.5 36 122.5 36zM335.996 662c-35.333 0 -66.667 -7.16992 -94 -21.5029s-50.833 -33.333 -70.5 -57s-36 -50.667 -49 -81s-23.333 -61.166 -31 -92.499
s-13.167 -62 -16.5 -92s-5 -56.667 -5 -80c0 -29.333 2.66699 -57.666 8 -84.999s14.666 -51.666 27.999 -72.999s31.333 -38.333 54 -51s51.667 -19 87 -19c37.333 0 69.833 7 97.5 21s51.334 32.667 71.001 56s36 50 49 80s23.167 60.667 30.5 92s12.5 62.333 15.5 93
s4.5 58.334 4.5 83.001c0 29.333 -2.66699 57.666 -8 84.999s-14.833 51.5 -28.5 72.5s-32 37.833 -55 50.5s-52.167 19 -87.5 19z" />
    <glyph glyph-name="one" unicode="1" horiz-adv-x="540" 
d="M264 24l120.001 0.00195312c4 0 5.66699 -2 5 -6l-2 -12c0 -4 -2 -6 -6 -6h-264c-4 0 -6 2 -6 6l2 12c0.666992 4 3 6 7 6h120l87 620l-128 -20c-6 -0.666992 -8.66699 1.33301 -8 6l1 6c0.666992 4 2 6.33301 4 7s4.66699 1.66699 8 3l120 27
c13.333 3.33301 21.666 2.66602 24.999 -2.00098s4.33301 -11.334 3 -20.001z" />
    <glyph glyph-name="two" unicode="2" horiz-adv-x="540" 
d="M66 0c-15.333 0 -23 6.66309 -23 19.9961c0 44.667 24.5 93.5 73.5 146.5s118.167 107.833 207.5 164.5c26 16.667 49.833 33 71.5 49s40.334 32.333 56.001 49s27.667 34.5 36 53.5s12.5 39.833 12.5 62.5c0 20.667 -4.83301 38.334 -14.5 53.001
s-22.334 26.667 -38.001 36s-33.667 16 -54 20s-41.166 6 -62.499 6c-26 0 -54.833 -4.5 -86.5 -13.5s-61.167 -21.833 -88.5 -38.5c-3.33301 -2 -6 -1.33301 -8 2l-6 11c-2 2.66699 -0.666992 5.33398 4 8.00098c28 15.333 58.333 28.166 91 38.499s64.667 15.5 96 15.5
c58 0 104.333 -11.833 139 -35.5s52 -57.5 52 -101.5c0 -47.333 -16.5 -89.166 -49.5 -125.499s-80.5 -73.166 -142.5 -110.499c-20 -12 -44.167 -28.167 -72.5 -48.5s-56 -43.166 -83 -68.499s-50.833 -52.5 -71.5 -81.5s-32.667 -58.167 -36 -87.5h375
c3.33301 0 4.66602 -2 3.99902 -6l-2 -12c0 -4 -1.66699 -6 -5 -6h-375z" />
    <glyph glyph-name="three" unicode="3" horiz-adv-x="540" 
d="M265 349c-6.66699 0 -9.33008 2.33008 -7.99707 6.99707l1 9c1.33301 5.33301 4.33301 8 9 8h16c24 0 47.833 3.83301 71.5 11.5s44.667 18.667 63 33s33.333 31.333 45 51s17.5 41.5 17.5 65.5c0 26.667 -5.33301 48.334 -16 65.001s-24.334 29.667 -41.001 39
s-34.834 15.5 -54.501 18.5s-38.834 4.5 -57.501 4.5c-27.333 0 -55 -3.83301 -83 -11.5s-56.667 -20.167 -86 -37.5c-4 -2 -6.66699 -1.33301 -8 2l-6 10c-1.33301 3.33301 0 6 4 8c28 16 57.667 28.5 89 37.5s62.666 13.5 93.999 13.5c26 0 50.5 -2.83301 73.5 -8.5
s43 -14.167 60 -25.5s30.5 -26 40.5 -44s15 -39.333 15 -64c0 -20 -3.5 -39.5 -10.5 -58.5s-17.167 -36.167 -30.5 -51.5s-29.666 -28.666 -48.999 -39.999s-41.666 -20 -66.999 -26v-1c24 -7.33301 44.167 -16.333 60.5 -27s29.666 -23 39.999 -37
s17.833 -29.167 22.5 -45.5s7 -33.166 7 -50.499c0 -29.333 -5.5 -57 -16.5 -83s-27.167 -48.833 -48.5 -68.5s-47.333 -35.167 -78 -46.5s-66 -17 -106 -17c-15.333 0 -31.333 1 -48 3s-32.834 5.16699 -48.501 9.5s-30.5 9.66602 -44.5 15.999s-26.333 13.5 -37 21.5
c-4 2 -4.66699 4.66699 -2 8l8 10c2 3.33301 4.66699 4 8 2c10.667 -8.66699 23.167 -16 37.5 -22s29 -11 44 -15s30 -6.83301 45 -8.5s28.833 -2.5 41.5 -2.5c32 0 61.5 4.33301 88.5 13s50.5 21.334 70.5 38.001s35.667 37.167 47 61.5s17 52.166 17 83.499
c0 22.667 -4.83301 42.834 -14.5 60.501s-22.167 32.5 -37.5 44.5s-32.666 21.167 -51.999 27.5s-38.333 9.5 -57 9.5h-29z" />
    <glyph glyph-name="four" unicode="4" horiz-adv-x="540" 
d="M464 657h-5l-408 -464v-3h347zM395 166l-356.001 0.000976562c-4 0 -7.66699 1.16699 -11 3.5s-4.33301 6.16602 -3 11.499l1 8c0.666992 4 1.66699 7.33301 3 10s4 6.66699 8 12l395 448c9.33301 11.333 16.333 18.5 21 21.5s10.334 4.5 17.001 4.5h6
c10.667 0 15 -6 13 -18l-67 -477h87c4 0 5.66699 -2 5 -6l-1 -11c-0.666992 -4 -3 -6 -7 -6h-87l-23 -161c0 -4 -2 -6 -6 -6h-12c-4 0 -6 2 -6 6z" />
    <glyph glyph-name="five" unicode="5" horiz-adv-x="540" 
d="M295 377c-36.667 0 -70.499 -4.49902 -101.499 -13.499s-59.833 -19.167 -86.5 -30.5c-6 -2.66699 -12 -2.66699 -18 0l-9 5c-4 2 -5 6 -3 12l72 300c3.33301 13.333 8.33301 21.166 15 23.499s12.667 3.5 18 3.5h313c4 0 5.66699 -2 5 -6l-2 -12
c-0.666992 -4 -3 -6 -7 -6h-320l-71 -299c44 19.333 82.5 31.833 115.5 37.5s60.833 8.5 83.5 8.5c28.667 0 54.834 -4 78.501 -12s44 -19.5 61 -34.5s30.167 -33.167 39.5 -54.5s14 -45.333 14 -72c0 -37.333 -6.5 -70.833 -19.5 -100.5s-31 -54.667 -54 -75
s-50.333 -36 -82 -47s-65.834 -16.5 -102.501 -16.5c-41.333 0 -77.333 4.16699 -108 12.5s-57.667 20.5 -81 36.5c-4.66699 2 -5.33398 4.66699 -2.00098 8l8 10c3.33301 3.33301 6.33301 4 9 2c22 -17.333 48.833 -29.666 80.5 -36.999s64.167 -11 97.5 -11
c30.667 0 60 4.66699 88 14s52.333 23.166 73 41.499s37.167 40.833 49.5 67.5s18.5 57 18.5 91c0 27.333 -4.83301 50.833 -14.5 70.5s-22.5 35.667 -38.5 48s-34.333 21.333 -55 27s-42 8.5 -64 8.5z" />
    <glyph glyph-name="six" unicode="6" horiz-adv-x="540" 
d="M403 686c11.333 0 24.333 -0.833008 39 -2.5s28.334 -4.16699 41.001 -7.5c3.33301 -1.33301 5 -2.33301 5 -3s-0.333008 -2 -1 -4l-3 -11c-0.666992 -2.66699 -3.66699 -3.66699 -9 -3c-11.333 2.66699 -23.666 4.83398 -36.999 6.50098s-26 2.5 -38 2.5
c-40 0 -77.5 -6.83301 -112.5 -20.5s-66.333 -34 -94 -61s-50.834 -60.5 -69.501 -100.5s-32 -86.667 -40 -140c54 19.333 99 32 135 38s67 9 93 9c30 0 57.167 -3.66699 81.5 -11s45.166 -18.166 62.499 -32.499s30.833 -32 40.5 -53s14.5 -45.167 14.5 -72.5
c0 -36.667 -6.5 -69.334 -19.5 -98.001s-30.833 -52.834 -53.5 -72.501s-49.167 -34.667 -79.5 -45s-62.833 -15.5 -97.5 -15.5c-67.333 0 -119 20 -155 60s-54 100 -54 180c0 62.667 7.16699 121.667 21.5 177s36 103.833 65 145.5s65.5 74.5 109.5 98.5s95.667 36 155 36z
M308 367c-17.333 0 -34.001 -0.99707 -50.001 -2.99707s-32.833 -4.83301 -50.5 -8.5s-36.667 -8.33398 -57 -14.001s-43.166 -12.5 -68.499 -20.5c-4 -33.333 -6 -64 -6 -92c0 -72.667 15.167 -127.334 45.5 -164.001s77.833 -55 142.5 -55c28 0 55.5 4.33301 82.5 13
s51 21.667 72 39s38 39.166 51 65.499s19.5 57.5 19.5 93.5c0 44 -15.333 79.333 -46 106s-75.667 40 -135 40z" />
    <glyph glyph-name="seven" unicode="7" horiz-adv-x="540" 
d="M533 677c4 0 7.16699 -0.5 9.5 -1.5s3.16602 -3.5 2.49902 -7.5l-1 -6c-0.666992 -6 -3.33398 -12.667 -8.00098 -20l-401 -635c-2.66699 -4.66699 -5.66699 -7 -9 -7h-13c-3.33301 0 -5.16602 1 -5.49902 3s0.166992 3.66699 1.5 5l408 645h-397
c-3.33301 0 -4.66602 2 -3.99902 6l2 12c0.666992 4 2.66699 6 6 6h409z" />
    <glyph glyph-name="eight" unicode="8" horiz-adv-x="540" 
d="M222 359c-22 7.33301 -40.0039 16.499 -54.0039 27.499s-24.667 22.667 -32 35s-12.333 24.833 -15 37.5s-4 24.334 -4 35.001c0 28 5.66699 53.5 17 76.5s26.833 42.833 46.5 59.5s42.5 29.667 68.5 39s54 14 84 14c25.333 0 48.833 -3.66699 70.5 -11
s40.334 -17.666 56.001 -30.999s27.834 -29.5 36.501 -48.5s13 -40.167 13 -63.5c0 -10 -1.83301 -22.833 -5.5 -38.5s-10.667 -31.834 -21 -48.501s-25.166 -32.667 -44.499 -48s-44.666 -27 -75.999 -35l-1 -2c24 -6.66699 44 -15.834 60 -27.501s28.833 -24.5 38.5 -38.5
s16.5 -29 20.5 -45s6 -32 6 -48s-3.33301 -36 -10 -60s-19 -47 -37 -69s-42.667 -40.833 -74 -56.5s-71.333 -23.5 -120 -23.5c-36.667 0 -67.667 4.5 -93 13.5s-45.833 21 -61.5 36s-27 32.167 -34 51.5s-10.5 39.333 -10.5 60c0 20 3.16699 40.333 9.5 61
s16.5 40.334 30.5 59.001s32 35.667 54 51s49 27.333 81 36zM327.996 660.999c-26 0 -50.334 -3.99707 -73.001 -11.9971s-42.5 -19.5 -59.5 -34.5s-30.333 -32.833 -40 -53.5s-14.5 -43.334 -14.5 -68.001c0 -20.667 4.5 -38.834 13.5 -54.501s20.667 -28.667 35 -39
s30.5 -18 48.5 -23s36 -7.5 54 -7.5c22 0 44.333 3.33301 67 10s43.334 16.667 62.001 30s34 30.166 46 50.499s18 44.5 18 72.5c0 20 -4.16699 37.833 -12.5 53.5s-19.5 29.167 -33.5 40.5s-30.5 20 -49.5 26s-39.5 9 -61.5 9zM288.995 347.002
c-21.333 0 -44.666 -3.66699 -69.999 -11s-49 -18.666 -71 -33.999s-40.5 -35.333 -55.5 -60s-22.5 -54.334 -22.5 -89.001c0 -19.333 3.33301 -37.666 10 -54.999s17 -32.5 31 -45.5s32.167 -23.333 54.5 -31s49.5 -11.5 81.5 -11.5c41.333 0 75.833 6.5 103.5 19.5
s49.834 29.167 66.501 48.5s28.5 40 35.5 62s10.5 42.333 10.5 61c0 25.333 -5.33301 47.166 -16 65.499s-24.334 33.5 -41.001 45.5s-35.334 20.833 -56.001 26.5s-41 8.5 -61 8.5z" />
    <glyph glyph-name="nine" unicode="9" horiz-adv-x="540" 
d="M178 -10c-11.333 0 -24.333 0.833008 -39 2.5s-28.334 4.16699 -41.001 7.5c-3.33301 1.33301 -5 2.33301 -5 3s0.333008 2 1 4l3 11c0.666992 2.66699 3.66699 3.66699 9 3c11.333 -2.66699 23.666 -4.83398 36.999 -6.50098s26 -2.5 38 -2.5
c40 0 77.5 6.83301 112.5 20.5s66.333 34 94 61s50.834 60.5 69.501 100.5s32 86.667 40 140c-54 -19.333 -99 -32 -135 -38s-67 -9 -93 -9c-30 0 -57.167 3.66699 -81.5 11s-45.166 18.166 -62.499 32.499s-30.833 32 -40.5 53s-14.5 45.167 -14.5 72.5
c0 36.667 6.5 69.334 19.5 98.001s30.833 52.834 53.5 72.501s49.167 34.667 79.5 45s62.833 15.5 97.5 15.5c67.333 0 119 -20 155 -60s54 -100 54 -180c0 -62.667 -7.16699 -121.667 -21.5 -177s-36 -103.833 -65 -145.5s-65.5 -74.5 -109.5 -98.5s-95.667 -36 -155 -36z
M273 309c17.333 0 34.001 0.996094 50.001 2.99609s32.833 4.83301 50.5 8.5s36.667 8.33398 57 14.001s43.166 12.5 68.499 20.5c4 32.667 6 63.334 6 92.001c0 72.667 -15.167 127.334 -45.5 164.001s-77.833 55 -142.5 55c-28 0 -55.5 -4.33301 -82.5 -13
s-51 -21.667 -72 -39s-38 -39.166 -51 -65.499s-19.5 -57.5 -19.5 -93.5c0 -44 15.333 -79.333 46 -106s75.667 -40 135 -40z" />
    <glyph glyph-name="colon" unicode=":" horiz-adv-x="228" 
d="M71 12c1.33301 6 4.16602 10.999 8.49902 14.999s10.166 6 17.499 6c6 0 10.833 -2 14.5 -6s4.83398 -9 3.50098 -15c-1.33301 -7.33301 -4.16602 -13.166 -8.49902 -17.499s-9.5 -6.5 -15.5 -6.5c-15.333 0 -22 8 -20 24zM128 413.999
c0.666992 6 3.33398 10.999 8.00098 14.999s10.667 6 18 6c6 0 10.667 -2 14 -6s4.66602 -9 3.99902 -15c-1.33301 -7.33301 -4.33301 -13.166 -9 -17.499s-10 -6.5 -16 -6.5c-14.667 0 -21 8 -19 24z" />
    <glyph glyph-name="semicolon" unicode=";" horiz-adv-x="222" 
d="M62 -107c-0.666992 -2 -1.83398 -4.16699 -3.50098 -6.5s-4.5 -3.5 -8.5 -3.5h-5c-5.33301 0 -7.66602 2.66699 -6.99902 8l36 133c2 9.33301 7.66699 14 17 14h12c7.33301 0 10 -4 8 -12zM128 414c0.666992 6 3.33398 10.999 8.00098 14.999s10.667 6 18 6
c6 0 10.667 -2 14 -6s4.66602 -9 3.99902 -15c-1.33301 -7.33301 -4.33301 -13.166 -9 -17.499s-10 -6.5 -16 -6.5c-14.667 0 -21 8 -19 24z" />
    <glyph glyph-name="less" unicode="&#x3c;" horiz-adv-x="540" 
d="M80 326c-6.66699 4.66699 -9.66504 8.66699 -8.99805 12l1 9c0.666992 3.33301 1.66699 5.66602 3 6.99902s4.33301 3.33301 9 6l458 225c0.666992 0.666992 1.66699 1 3 1s1.66602 -1.66699 0.999023 -5l-1 -13c-0.666992 -3.33301 -2.66699 -5.66602 -6 -6.99902
l-442 -219l375 -210c3.33301 -2 4.66602 -4.66699 3.99902 -8l-2 -12c-0.666992 -2.66699 -1.66699 -4 -3 -4h-2z" />
    <glyph glyph-name="equal" unicode="=" horiz-adv-x="540" 
d="M517 427c2.66699 0 4 -1.66699 4 -5l-2 -12c0 -3.33301 -2 -5 -6 -5h-425c-2.66699 0 -4 1.66699 -4 5l2 12c0 3.33301 2 5 6 5h425zM492 252c3.33301 0 4.66602 -1.66699 3.99902 -5l-1 -12c-0.666992 -3.33301 -2.66699 -5 -6 -5h-425
c-3.33301 0 -4.66602 1.66699 -3.99902 5l1 12c0.666992 3.33301 2.66699 5 6 5h425z" />
    <glyph glyph-name="greater" unicode="&#x3e;" horiz-adv-x="540" 
d="M50 108h-3.00098c-2 0 -2.66699 1.33301 -2 4l2 14c0.666992 4 2.66699 6.66699 6 8l436 210l-381 219c-3.33301 2 -4.66602 4.33301 -3.99902 7l1 11c0.666992 3.33301 1.66699 5 3 5s2.33301 -0.333008 3 -1l394 -225c6 -4 8.66699 -8.33301 8 -13l-1 -9
c-0.666992 -4 -5 -8 -13 -12z" />
    <glyph glyph-name="question" unicode="?" horiz-adv-x="475" 
d="M213 131c-1.33301 -4 -3.66699 -6 -7 -6h-11c-4 0 -5.33301 1.66699 -4 5l9 67c3.33301 23.333 10 44.166 20 62.499s22 35 36 50s29.167 28.833 45.5 41.5l49.5 37c42.667 30.667 73.5 58.834 92.5 84.501s28.5 55.167 28.5 88.5c0 24 -4.5 44.333 -13.5 61
s-21 30.167 -36 40.5s-32.333 17.833 -52 22.5s-40.167 7 -61.5 7c-12.667 0 -26.834 -1.16699 -42.501 -3.5s-31.5 -5.83301 -47.5 -10.5s-32 -10.667 -48 -18s-31 -16.333 -45 -27c-2.66699 -2.66699 -5.33398 -2.66699 -8.00098 0l-7 9c-2.66699 2 -2 5 2 9
c31.333 22.667 64.333 38.834 99 48.501s68 14.5 100 14.5c56.667 0 101.167 -13.333 133.5 -40s48.5 -63.667 48.5 -111c0 -22 -3.5 -42 -10.5 -60s-16.167 -34.5 -27.5 -49.5s-24.666 -28.833 -39.999 -41.5s-31 -24.667 -47 -36l-47 -34.5
c-15.333 -11.667 -29.666 -24.334 -42.999 -38.001s-25 -28.667 -35 -45s-17 -34.833 -21 -55.5zM189.999 38c5.33301 0 9.83203 -2 13.499 -6s4.83398 -9 3.50098 -15c-1.33301 -7.33301 -4.16602 -13 -8.49902 -17s-9.16602 -6 -14.499 -6c-15.333 0 -22 7.66699 -20 23
c1.33301 6 4.16602 11 8.49902 15s10.166 6 17.499 6z" />
    <glyph glyph-name="at" unicode="@" horiz-adv-x="860" 
d="M479 536c-60.667 0 -108 -21.166 -142 -63.499s-51 -102.166 -51 -179.499c0 -44.667 11 -77.334 33 -98.001s50 -31 84 -31c16 0 38 3 66 9s57 19.667 87 41c6 55.333 12.333 107.166 19 155.499s14.667 97.5 24 147.5c-21.333 7.33301 -42.833 12.333 -64.5 15
s-40.167 4 -55.5 4zM483 556.001c21.333 0 43.3311 -2.00293 65.998 -6.00293s42.667 -9.33301 60 -16c8 -3.33301 11 -9.66602 9 -18.999c-10 -50.667 -18.167 -99.667 -24.5 -147s-11.5 -92 -15.5 -134c-0.666992 -8 -0.666992 -16.5 0 -25.5s3.5 -17.167 8.5 -24.5
s12.667 -13.5 23 -18.5s24.833 -7.5 43.5 -7.5c28 0 52.833 6.83301 74.5 20.5s40 32.667 55 57s26.5 53.333 34.5 87s12 70.5 12 110.5c0 48.667 -8.16699 90.334 -24.5 125.001s-39 63 -68 85s-63.167 38 -102.5 48s-82 15 -128 15c-59.333 0 -113.833 -11.333 -163.5 -34
s-92.834 -53.334 -129.501 -92.001s-65.167 -84 -85.5 -136s-30.5 -107.333 -30.5 -166c0 -47.333 8.16699 -89.666 24.5 -126.999s38.833 -69.166 67.5 -95.499s62.834 -46.5 102.501 -60.5s83.167 -21 130.5 -21c15.333 0 30.833 0.833008 46.5 2.5
s31.167 4.16699 46.5 7.5c5.33301 0.666992 8.33301 -0.333008 9 -3l2 -10c1.33301 -3.33301 0 -5.33301 -4 -6c-30.667 -6.66699 -63.667 -10 -99 -10c-50.667 0 -97.167 7.5 -139.5 22.5s-78.833 36.333 -109.5 64s-54.5 61.334 -71.5 101.001s-25.5 84.167 -25.5 133.5
c0 60.667 10.833 118.167 32.5 172.5s51.834 102 90.501 143s84.5 73.5 137.5 97.5s110.5 36 172.5 36c44.667 0 87.334 -5.16699 128.001 -15.5s76.5 -27 107.5 -50s55.833 -53.167 74.5 -90.5s28 -82.666 28 -135.999c0 -50 -5.33301 -93.333 -16 -130
s-25.167 -67 -43.5 -91s-39.5 -41.833 -63.5 -53.5s-49 -17.5 -75 -17.5c-16 0 -29.167 1.83301 -39.5 5.5s-19 8.16699 -26 13.5s-12.167 11.166 -15.5 17.499s-6 12.166 -8 17.499c-28 -16.667 -54.833 -29 -80.5 -37s-52.167 -12 -79.5 -12
c-44.667 0 -78.334 14.167 -101.001 42.5s-34 63.833 -34 106.5c0 40 5 76.167 15 108.5s24.333 59.833 43 82.5s41.334 40 68.001 52s57 18 91 18z" />
    <glyph glyph-name="A" unicode="A" horiz-adv-x="541" 
d="M443 186l-340.001 -0.00195312l-45.5 -91c-15.667 -30.667 -30.167 -60.667 -43.5 -90c-1.33301 -3.33301 -3.66602 -5 -6.99902 -5h-18c-3.33301 0 -4.33301 1.66699 -3 5l338 681c3.33301 6.66699 6.16602 10.834 8.49902 12.501s5.83301 2.5 10.5 2.5h9
c6 0 10 -0.666992 12 -2s3.66699 -5.66602 5 -12.999l137 -681v-3c0 -1.33301 -1.33301 -2 -4 -2h-16c-3.33301 0 -5.66602 1.66699 -6.99902 5zM439.999 207.998l-60 294l-34 172h-2l-84 -170l-145 -296h325z" />
    <glyph glyph-name="B" unicode="B" horiz-adv-x="574" 
d="M294 24c42.667 0 77.5 6.83203 104.5 20.499s48.333 30.334 64 50.001s26.5 40.5 32.5 62.5s9 41.333 9 58c0 46 -12.833 82.5 -38.5 109.5s-68.167 40.5 -127.5 40.5h-215l-48 -341h219zM167 676.999l-41.001 -288h211c14.667 0 32.667 2.33301 54 7
s41.833 13.167 61.5 25.5s36.334 29.333 50.001 51s20.5 49.167 20.5 82.5c0 34.667 -11 63.667 -33 87s-55.667 35 -101 35h-222zM388.999 700.999c21.333 0 41.667 -2.99902 61 -8.99902s36.166 -15 50.499 -27s25.833 -27 34.5 -45s13 -39 13 -63
c0 -13.333 -2 -28.5 -6 -45.5s-11 -33.833 -21 -50.5s-23.667 -32.167 -41 -46.5s-39.666 -25.5 -66.999 -33.5l-1 -4c23.333 -5.33301 42.5 -13.5 57.5 -24.5s27 -23.667 36 -38s15.167 -29.5 18.5 -45.5s5 -32 5 -48c0 -32.667 -5.5 -62.5 -16.5 -89.5
s-26.667 -50.333 -47 -70s-44.666 -34.834 -72.999 -45.501s-59.833 -16 -94.5 -16h-218c-11.333 0 -19.333 1.83301 -24 5.5s-6.33398 11.167 -5.00098 22.5l91 641c1.33301 8.66699 4 16.167 8 22.5s13.333 9.5 28 9.5h211z" />
    <glyph glyph-name="C" unicode="C" horiz-adv-x="534" 
d="M393 687c-48.667 0 -91.668 -11.6729 -129.001 -35.0059s-68.5 -54.666 -93.5 -93.999s-43.833 -85.166 -56.5 -137.499s-19 -107.5 -19 -165.5c0 -80.667 17 -141.5 51 -182.5s87 -61.5 159 -61.5c30 0 61 3.5 93 10.5s64 19.167 96 36.5c3.33301 2 6 1.66699 8 -1
l6 -10c2 -4 1 -7 -3 -9c-20 -11.333 -39.833 -20.166 -59.5 -26.499s-38.334 -11.166 -56.001 -14.499s-34.167 -5.5 -49.5 -6.5s-28.666 -1.5 -39.999 -1.5c-34.667 0 -66.167 5.16699 -94.5 15.5s-52.5 26.333 -72.5 48s-35.5 49.334 -46.5 83.001
s-16.5 73.834 -16.5 120.501c0 72.667 8.66699 137.167 26 193.5s40.666 103.833 69.999 142.5s63.5 68 102.5 88s80.5 30 124.5 30c24.667 0 52.334 -2.66699 83.001 -8s61.334 -17.333 92.001 -36c4 -2 4.66699 -4.66699 2 -8l-8 -12c-2 -2.66699 -4.66699 -3 -8 -1
c-30.667 18 -59 29.5 -85 34.5s-51.333 7.5 -76 7.5z" />
    <glyph glyph-name="D" unicode="D" horiz-adv-x="617" 
d="M167 677l-91.998 -653h170c56 0 104.167 11 144.5 33s73.666 51.5 99.999 88.5s45.833 79.5 58.5 127.5s19 98 19 150c0 35.333 -3.83301 68.333 -11.5 99s-20.834 57.5 -39.501 80.5s-43.667 41.167 -75 54.5s-70.333 20 -117 20h-157zM329.002 701
c44.667 0 83.5 -6.33398 116.5 -19.001s60.333 -31 82 -55s37.834 -53.167 48.501 -87.5s16 -73.166 16 -116.499c0 -62 -8 -119 -24 -171s-39 -96.667 -69 -134s-66.5 -66.333 -109.5 -87s-91.167 -31 -144.5 -31h-165c-11.333 -0 -19.333 1.83301 -24 5.5
s-6.33398 11.167 -5.00098 22.5l91 641c1.33301 8.66699 4 16.167 8 22.5s13.333 9.5 28 9.5h151z" />
    <glyph glyph-name="E" unicode="E" horiz-adv-x="508" 
d="M122 362l-31.002 -222.001c-2.66699 -17.333 -3.16699 -33.166 -1.5 -47.499s6.33398 -26.5 14.001 -36.5s18.334 -17.833 32.001 -23.5s31.167 -8.5 52.5 -8.5h275c4 0 5.66699 -2 5 -6l-2 -12c0 -4 -2 -6 -6 -6h-277c-25.333 -0 -46.166 3.33301 -62.499 10
s-29 16.334 -38 29.001s-14.5 27.667 -16.5 45s-1.33301 37 2 59l58 414c6 43.333 21 78.166 45 104.499s61.333 39.5 112 39.5h251c3.33301 0 4.66602 -2 3.99902 -6l-2 -12c0 -4 -1.66699 -6 -5 -6h-251c-40 0 -70.333 -10 -91 -30s-33.667 -49 -39 -87l-24 -175h340
c2.66699 0 4 -2 4 -6l-2 -11c0 -4 -2 -6 -6 -6h-340z" />
    <glyph glyph-name="F" unicode="F" horiz-adv-x="490" 
d="M126 557c6 43.333 21 78.167 45 104.5s61.333 39.5 112 39.5h258c4 0 5.66699 -2 5 -6l-2 -12c0 -4 -2 -6 -6 -6h-258c-40 0 -70.333 -10 -91 -30s-33.667 -49 -39 -87l-26 -185h331c4 0 5.66699 -2 5 -6l-1 -12c-0.666992 -4 -3 -6 -7 -6h-331l-49 -345
c0 -4 -2 -6 -6 -6h-12c-4 0 -6 2 -6 6z" />
    <glyph glyph-name="G" unicode="G" horiz-adv-x="598" 
d="M300 -11c-34.667 0 -66.167 5.16406 -94.5 15.4971s-52.5 26.333 -72.5 48s-35.5 49.334 -46.5 83.001s-16.5 73.834 -16.5 120.501c0 72.667 9.33301 137.167 28 193.5s43.5 103.833 74.5 142.5s66.667 68 107 88s82.5 30 126.5 30c24.667 0 52.334 -2.66699 83.001 -8
s61.334 -17.333 92.001 -36c4 -2 4.66699 -4.66699 2 -8l-8 -12c-2 -2.66699 -4.66699 -3 -8 -1c-30.667 18 -59 29.5 -85 34.5s-51.333 7.5 -76 7.5c-48.667 0 -92.334 -11.667 -131.001 -35s-71.334 -54.666 -98.001 -93.999s-47 -85.166 -61 -137.499
s-21 -107.5 -21 -165.5c0 -80.667 16.5 -141.5 49.5 -182.5s85.5 -61.5 157.5 -61.5c26.667 0 57.167 3 91.5 9s69.166 18 104.499 36l43 300c0.666992 4 3 6 7 6h12c4 0 5.66699 -2 5 -6l-42 -289c-1.33301 -8.66699 -3.33301 -15.834 -6 -21.501
s-8.33398 -10.5 -17.001 -14.5c-19.333 -9.33301 -38.666 -16.833 -57.999 -22.5s-37.666 -10 -54.999 -13s-33.5 -4.83301 -48.5 -5.5s-27.833 -1 -38.5 -1z" />
    <glyph glyph-name="H" unicode="H" horiz-adv-x="632" 
d="M607 695c0.666992 4 3 6 7 6h13c4 0 5.66699 -2 5 -6l-97 -689c0 -4 -2 -6 -6 -6h-13c-4 0 -6 2 -6 6l50 355h-438l-50 -355c0 -4 -2 -6 -6 -6h-12c-4 0 -6 2 -6 6l97 689c0.666992 4 3 6 7 6h12c4 0 5.66699 -2 5 -6l-43 -310h438z" />
    <glyph glyph-name="I" unicode="I" horiz-adv-x="218" 
d="M169 695c0.666992 4 3 6 7 6h12c4 0 5.66699 -2 5 -6l-97 -689c0 -4 -2 -6 -6 -6h-12c-4 0 -6 2 -6 6z" />
    <glyph glyph-name="J" unicode="J" horiz-adv-x="539" 
d="M206 -11c-29.333 0 -62.1689 4.49902 -98.502 13.499s-70.5 27.5 -102.5 55.5c-2 2 -1.66699 5 1 9l8 8c2.66699 4 5.33398 4.33301 8.00098 1c25.333 -23.333 54.5 -39.833 87.5 -49.5s66.5 -14.5 100.5 -14.5c40 0 73.5 5.5 100.5 16.5s49.5 26.833 67.5 47.5
s32 45.834 42 75.501s17.667 63.167 23 100.5l62 443c0.666992 4 2.66699 6 6 6h13c4 0 5.66699 -2 5 -6l-63 -452c-6 -42 -15.167 -78.833 -27.5 -110.5s-28.666 -58.167 -48.999 -79.5s-45.5 -37.333 -75.5 -48s-66 -16 -108 -16z" />
    <glyph glyph-name="K" unicode="K" horiz-adv-x="568" 
d="M107 227l94 107.001l327 361c3.33301 3.33301 5.83301 5.16602 7.5 5.49902s3.83398 0.5 6.50098 0.5h16c1.33301 0 2.16602 -0.5 2.49902 -1.5s-0.166992 -2.16699 -1.5 -3.5l-210 -232l179 -459c2 -3.33301 1 -5 -3 -5h-13c-5.33301 -0 -9 2.33301 -11 7l-169 438
l-234 -259l-26 -180c0 -4 -2 -6 -6 -6h-12c-4 0 -6 2 -6 6l97 689c0.666992 4 3 6 7 6h12c4 0 5.66699 -2 5 -6l-65 -467z" />
    <glyph glyph-name="L" unicode="L" horiz-adv-x="500" 
d="M91 141c-5.33301 -38 -0.5 -67 14.5 -87s42.5 -30 82.5 -30h274c4 0 5.66699 -2 5 -6l-2 -12c0 -4 -2 -6 -6 -6h-274c-25.333 0 -46.166 3.5 -62.499 10.5s-29 16.667 -38 29s-14.833 27.333 -17.5 45s-2.33398 37.5 0.999023 59.5l77 550c0.666992 4 3 6 7 6h12
c4 0 5.66699 -2 5 -6z" />
    <glyph glyph-name="M" unicode="M" horiz-adv-x="743" 
d="M355 80c-6 0 -10.4961 1 -13.4961 3s-5.16699 6 -6.5 12l-136 470l-30 103h-4l-93 -662c0 -4 -2 -6 -6 -6h-12c-4 0 -6 2 -6 6l95 675c1.33301 5.33301 3.16602 10.166 5.49902 14.499s7.5 6.5 15.5 6.5h7c7.33301 0 11.666 -1.5 12.999 -4.5
s3.66602 -9.16699 6.99902 -18.5l120 -410l48 -167h3l90 160l240 417c5.33301 9.33301 9.16602 15.5 11.499 18.5s7.16602 4.5 14.499 4.5h7c8 0 12.833 -2.16699 14.5 -6.5s1.83398 -9.16602 0.500977 -14.499l-95 -675c0 -4 -2 -6 -6 -6h-12c-4 0 -6 2 -6 6l93 662h-4
l-67 -120l-259 -452c-6 -10.667 -14.333 -16 -25 -16h-4z" />
    <glyph glyph-name="N" unicode="N" horiz-adv-x="620" 
d="M171 702c6 0 10.168 -1.66699 12.501 -5s5.5 -9.33301 9.5 -18l240 -511l64 -140h4l94 668c0.666992 4 3 6 7 6h12c4 0 5.66699 -2 5 -6l-95 -675c-0.666992 -5.33301 -2.16699 -10.166 -4.5 -14.499s-7.5 -6.5 -15.5 -6.5h-7c-6 0 -10.333 1.66699 -13 5
s-5.66699 9.33301 -9 18l-258 547l-47 100h-4l-94 -664c0 -4 -2 -6 -6 -6h-12c-4 0 -6 2 -6 6l95 675c1.33301 5.33301 3.16602 10.166 5.49902 14.499s7.5 6.5 15.5 6.5h7v0z" />
    <glyph glyph-name="O" unicode="O" horiz-adv-x="644" 
d="M393 711c75.333 0 132.333 -23.001 171 -69.001s58 -112 58 -198c0 -62 -6.66699 -120.667 -20 -176s-33.5 -103.666 -60.5 -144.999s-61 -74 -102 -98s-89.5 -36 -145.5 -36c-40.667 0 -75.167 6.5 -103.5 19.5s-51.333 31.167 -69 54.5s-30.5 50.833 -38.5 82.5
s-12 66.167 -12 103.5c0 72 7.83301 136.5 23.5 193.5s37.834 105.333 66.501 145s62.667 70.167 102 91.5s82.666 32 129.999 32zM392 688.999c-53.333 0 -98.835 -12.834 -136.502 -38.501s-68.5 -59.167 -92.5 -100.5s-41.5 -88 -52.5 -140s-16.5 -104.667 -16.5 -158
c0 -34 3.33301 -65.667 10 -95s18 -54.833 34 -76.5s37 -38.667 63 -51s58 -18.5 96 -18.5c52 0 97 11.833 135 35.5s69.333 55.334 94 95.001s43 85.5 55 137.5s18 106.667 18 164c0 34.667 -3.66699 67 -11 97s-19.166 56 -35.499 78s-37.666 39.333 -63.999 52
s-58.5 19 -96.5 19z" />
    <glyph glyph-name="P" unicode="P" horiz-adv-x="543" 
d="M72 6c0 -4 -1.99902 -5.99805 -5.99902 -5.99805h-12c-4 0 -6 2 -6 6l94 663c1.33301 8.66699 4 16.167 8 22.5s13.333 9.5 28 9.5h208c26 0 49.333 -4.16699 70 -12.5s38 -19.833 52 -34.5s24.667 -32.334 32 -53.001s11 -43.334 11 -68.001c0 -20 -3 -42.667 -9 -68
s-17.167 -49 -33.5 -71s-39.333 -40.667 -69 -56s-67.834 -23 -114.501 -23h-209zM119.001 339.002h209.001c27.333 0 53 3.83301 77 11.5s45 19.334 63 35.001s32.167 35.667 42.5 60s15.5 53.166 15.5 86.499c0 18 -2.5 35.667 -7.5 53s-13.167 32.833 -24.5 46.5
s-26.333 24.667 -45 33s-41.334 12.5 -68.001 12.5h-214z" />
    <glyph glyph-name="Q" unicode="Q" horiz-adv-x="643" 
d="M381 -81c44.667 0 83.499 -5.33301 116.499 -16s60.833 -23.667 83.5 -39c2.66699 -2 3 -4 1 -6l-9 -13c-2 -2 -4.33301 -2.33301 -7 -1c-19.333 13.333 -44.333 25.333 -75 36s-66.667 16 -108 16h-92c-3.33301 0 -4.66602 1.66699 -3.99902 5l1 13
c0.666992 3.33301 2.66699 5 6 5h87zM392.999 711c75.333 0 132.333 -23.001 171 -69.001s58 -112 58 -198c0 -62 -6.66699 -120.667 -20 -176s-33.5 -103.666 -60.5 -144.999s-61 -74 -102 -98s-89.5 -36 -145.5 -36c-40.667 0 -75.167 6.5 -103.5 19.5
s-51.333 31.167 -69 54.5s-30.5 50.833 -38.5 82.5s-12 66.167 -12 103.5c0 72 7.83301 136.5 23.5 193.5s37.834 105.333 66.501 145s62.667 70.167 102 91.5s82.666 32 129.999 32zM391.999 688.999c-53.333 0 -98.835 -12.834 -136.502 -38.501
s-68.5 -59.167 -92.5 -100.5s-41.5 -88 -52.5 -140s-16.5 -104.667 -16.5 -158c0 -34 3.33301 -65.667 10 -95s18 -54.833 34 -76.5s37 -38.667 63 -51s58 -18.5 96 -18.5c52 0 97 11.833 135 35.5s69.333 55.334 94 95.001s43 85.5 55 137.5s18 106.667 18 164
c0 34.667 -3.66699 67 -11 97s-19.166 56 -35.499 78s-37.666 39.333 -63.999 52s-58.5 19 -96.5 19z" />
    <glyph glyph-name="R" unicode="R" horiz-adv-x="567" 
d="M72 6c0 -4 -1.99902 -5.99902 -5.99902 -5.99902h-12c-4 0 -6 2 -6 6l94 663c1.33301 8.66699 4 16.167 8 22.5s13.333 9.5 28 9.5h211c27.333 0 51.166 -4 71.499 -12s37.166 -19 50.499 -33s23.333 -30.333 30 -49s10 -38.667 10 -60
c0 -51.333 -13.5 -95.833 -40.5 -133.5s-63.833 -62.834 -110.5 -75.501v-2c25.333 -9.33301 43.833 -24.166 55.5 -44.499s19.167 -44.833 22.5 -73.5l30 -212c0.666992 -3.33301 0.5 -5.16602 -0.5 -5.49902s-2.16699 -0.5 -3.5 -0.5h-14c-1.33301 0 -3 0.166992 -5 0.5
s-3.33301 2.16602 -4 5.49902l-27 205c-3.33301 23.333 -9 42.666 -17 57.999s-17.833 27.333 -29.5 36s-25.167 14.667 -40.5 18s-31.666 5 -48.999 5h-200zM167.001 677.001l-46 -325h214c26.667 0 51.5 4.16699 74.5 12.5s43.167 20.833 60.5 37.5s31 37 41 61
s15 51.667 15 83c0 43.333 -13.5 76 -40.5 98s-60.833 33 -101.5 33h-217z" />
    <glyph glyph-name="S" unicode="S" horiz-adv-x="515" 
d="M325 712c24.667 0 53.8359 -2.83301 87.5029 -8.5s66.167 -17.834 97.5 -36.501c4 -2 4.66699 -4.66699 2 -8l-8 -13c-2 -2.66699 -4.66699 -3 -8 -1c-30.667 18 -61.167 29.833 -91.5 35.5s-57.5 8.5 -81.5 8.5c-22 0 -44.833 -2.5 -68.5 -7.5
s-45.167 -13.5 -64.5 -25.5s-35.166 -27.833 -47.499 -47.5s-18.5 -43.834 -18.5 -72.501c0 -23.333 4.83301 -43.166 14.5 -59.499s22.5 -30.333 38.5 -42s34.667 -21.834 56 -30.501s44 -17 68 -25c70 -23.333 120.333 -50 151 -80s46 -67.667 46 -113
c0 -60.667 -21.167 -108.667 -63.5 -144s-107.5 -53 -195.5 -53c-11.333 0 -25.833 0.666992 -43.5 2s-36.667 3.83301 -57 7.5s-40.833 8.83398 -61.5 15.501s-39.334 15.667 -56.001 27c-3.33301 2 -3.33301 5 0 9l8 11c1.33301 2.66699 4 3 8 1
c13.333 -8.66699 28.666 -16.167 45.999 -22.5s35.166 -11.5 53.499 -15.5s36.5 -7 54.5 -9s34.333 -3 49 -3c26.667 0 53.834 2.33301 81.501 7s52.667 13.5 75 26.5s40.5 30.5 54.5 52.5s21 50.667 21 86c0 20.667 -3.83301 39.334 -11.5 56.001s-19 31.834 -34 45.501
s-34 26.167 -57 37.5s-49.833 22.333 -80.5 33c-32.667 10.667 -60.834 21.667 -84.501 33s-43.334 23.833 -59.001 37.5s-27.334 29.167 -35.001 46.5s-11.5 37.333 -11.5 60c0 28 5.5 53.167 16.5 75.5s26.333 41.166 46 56.499s43.334 27 71.001 35s58.5 12 92.5 12z" />
    <glyph glyph-name="T" unicode="T" horiz-adv-x="489" 
d="M546 701c4 0 5.66699 -2 5 -6l-2 -12c0 -4 -2 -6 -6 -6h-221l-95 -671c0 -4 -2 -6 -6 -6h-12c-4 0 -6 2 -6 6l95 671h-212c-4 0 -6 2 -6 6l2 12c0.666992 4 3 6 7 6h457z" />
    <glyph glyph-name="U" unicode="U" horiz-adv-x="640" 
d="M113 297c-7.33301 -52 -10.499 -96.1689 -9.49902 -132.502s9.16699 -65.833 24.5 -88.5s39.166 -39 71.499 -49s76.5 -15 132.5 -15c5.33301 0 14.666 0.333008 27.999 1s28.833 1.66699 46.5 3s36.5 3.33301 56.5 6s39.667 6 59 10l93 663c0.666992 4 3 6 7 6h13
c3.33301 0 4.66602 -2 3.99902 -6l-92 -655c-1.33301 -9.33301 -4.16602 -16.666 -8.49902 -21.999s-11.5 -9 -21.5 -11c-12.667 -2.66699 -27.667 -5.16699 -45 -7.5s-34.833 -4.16602 -52.5 -5.49902s-34.5 -2.5 -50.5 -3.5s-29 -1.5 -39 -1.5
c-53.333 0 -97.333 4.33301 -132 13s-61.667 24.167 -81 46.5s-31.166 52.5 -35.499 90.5s-2.5 86 5.5 144l58 412c0.666992 4 3 6 7 6h12c4 0 5.66699 -2 5 -6z" />
    <glyph glyph-name="V" unicode="V" horiz-adv-x="551" 
d="M580 697c1.33301 3.33301 4 5 8 5h17c2 0 3 -1 3 -3c0 -0.666992 -0.333008 -1.33398 -1 -2.00098l-326 -682c-3.33301 -7.33301 -6.33301 -11.666 -9 -12.999s-6.66699 -2 -12 -2h-11c-4.66699 -0 -8 0.833008 -10 2.5s-3.66699 5.83398 -5 12.501l-146 682
c0 3.33301 1 5 3 5h18c4 0 6 -1.66699 6 -5c2 -12.667 5 -27.834 9 -45.501l17 -77.5l29 -135.5l46 -218.5c6.66699 -28 13.167 -58.5 19.5 -91.5l20.5 -103.5h3l91 192z" />
    <glyph glyph-name="W" unicode="W" horiz-adv-x="784" 
d="M459 674l-51.9971 -124.999l-227 -534c-2.66699 -6 -5.5 -10 -8.5 -12s-7.16699 -3 -12.5 -3h-9c-4.66699 0 -7.83398 1 -9.50098 3s-2.83398 6 -3.50098 12l-49 682c0 3.33301 1 5 3 5h16c4 0 6 -1.66699 6 -5l36 -492l10 -172h3l76 179l206 480
c2.66699 6 6.66699 9 12 9h16c2.66699 0 4.83398 -0.5 6.50098 -1.5s2.83398 -3.5 3.50098 -7.5l70 -482l25 -177h2l63 180l174 484c2 3.33301 4.66699 5 8 5h14c3.33301 0 4 -1.66699 2 -5l-243 -681c-2.66699 -7.33301 -5.33398 -11.833 -8.00098 -13.5
s-6.33398 -2.5 -11.001 -2.5h-7c-4.66699 0 -8.33398 0.666992 -11.001 2s-4.66699 5.66602 -6 12.999l-77 540l-17 119h-1z" />
    <glyph glyph-name="X" unicode="X" horiz-adv-x="486" 
d="M271 393l223.999 302c2.66699 4 6.33398 6 11.001 6h14c6 0 7 -2.33301 3 -7l-239 -322l167 -364c0.666992 -1.33301 0.666992 -3 0 -5s-2.33398 -3 -5.00098 -3h-11c-4.66699 0 -8 2 -10 6l-156 343l-252 -343c-2.66699 -4 -5.66699 -6 -9 -6h-17
c-5.33301 -0 -6.66602 2.33301 -3.99902 7l270 364l-147 323c-1.33301 1.33301 -1.5 2.83301 -0.5 4.5s2.5 2.5 4.5 2.5h12c4 0 6.66699 -1.66699 8 -5z" />
    <glyph glyph-name="Y" unicode="Y" horiz-adv-x="467" 
d="M499 696c1.33301 3.33301 4.33496 5.00098 9.00195 5.00098h17c2.66699 0 4 -1 4 -3c0 -0.666992 -0.333008 -1.33398 -1 -2.00098l-264 -397l-42 -293c0 -4 -1.66699 -6 -5 -6h-13c-4 0 -6 2 -6 6l41 291l-156 399c-0.666992 0.666992 -0.833984 1.66699 -0.500977 3
s2.16602 2 5.49902 2h15c4 0 6 -1.66699 6 -5l91 -230l52 -137h4l89 136z" />
    <glyph glyph-name="Z" unicode="Z" horiz-adv-x="537" 
d="M151 677c-4 0 -6.00293 1.99902 -6.00293 5.99902l2 13c0.666992 3.33301 3 5 7 5h420c5.33301 0 9.5 -0.833008 12.5 -2.5s3.83301 -5.5 2.5 -11.5l-1 -6c-1.33301 -7.33301 -3.66602 -12.666 -6.99902 -15.999l-555 -639l2 -2h457c4 0 5.66699 -2 5 -6l-2 -12
c0 -4 -2 -6 -6 -6h-471c-11.333 -0 -16.666 4.33301 -15.999 13l1 6c0.666992 7.33301 3.33398 13.333 8.00098 18l555 637l1 3h-409z" />
    <glyph glyph-name="bracketleft" unicode="[" horiz-adv-x="267" 
d="M151 715c0.666992 4 2.66602 6 5.99902 6h154c4 0 5.66699 -2 5 -6l-2 -12c0 -4 -2.33301 -6 -7 -6h-135l-103 -733h135c4 0 6 -2 6 -6l-2 -12c-0.666992 -4 -3 -6 -7 -6h-154c-3.33301 0 -4.66602 2 -3.99902 6z" />
    <glyph glyph-name="backslash" unicode="\" horiz-adv-x="368" 
d="M327 -92c-1.33301 -3.33301 -3.33301 -5 -6 -5h-13c-4 0 -5.33301 1.66699 -4 5l-215 868c0 3.33301 1.66699 5 5 5h12c3.33301 0 5 -1.66699 5 -5z" />
    <glyph glyph-name="bracketright" unicode="]" horiz-adv-x="267" 
d="M179 -52c-0.666992 -4 -2.66797 -6 -6.00098 -6h-154c-3.33301 0 -4.66602 2 -3.99902 6l2 12c0.666992 4 2.66699 6 6 6h135l103 733h-135c-3.33301 0 -4.66602 2 -3.99902 6l1 12c0.666992 4 2.66699 6 6 6h154c3.33301 0 4.66602 -2 3.99902 -6z" />
    <glyph glyph-name="asciicircum" unicode="^" horiz-adv-x="477" 
d="M285 709c4 5.33301 7.16797 9.33301 9.50098 12s5.83301 4 10.5 4h9c6 0 10.667 -5.33301 14 -16l125 -324v-3c0 -1.33301 -1.66699 -2 -5 -2h-15c-2.66699 0 -4.33398 1.66699 -5.00098 5l-122 312h-2l-205 -311l-4 -4c-1.33301 -1.33301 -3.33301 -2 -6 -2h-16
c-2.66699 0 -4 0.666992 -4 2c0 0.666992 0.333008 1.66699 1 3z" />
    <glyph glyph-name="underscore" unicode="_" horiz-adv-x="485" 
d="M-40 -108c-3.33301 0 -4.66699 1.66699 -4 5l2 13c0 3.33301 2 5 6 5h484c2.66699 0 4 -1.66699 4 -5l-2 -13c-0.666992 -3.33301 -2.66699 -5 -6 -5h-484z" />
    <glyph glyph-name="grave" unicode="`" horiz-adv-x="350" 
d="M233 733c-3.33301 3.33301 -2.66699 6.33301 2 9l23 9c4 1.33301 7.66699 -0.666992 11 -6l74 -114c1.33301 -2 0.333008 -4.33301 -3 -7l-6 -4c-4 -2.66699 -6.66699 -2.66699 -8 0z" />
    <glyph glyph-name="a" unicode="a" horiz-adv-x="514" 
d="M327 536c27.333 0 54.832 -2.16992 82.499 -6.50293s52.167 -11.166 73.5 -20.499c8.66699 -3.33301 12.334 -11.333 11.001 -24l-32.5 -222.5l-30.5 -222.5c-0.666992 -5.33301 -2 -10.166 -4 -14.499s-6.33301 -7.83301 -13 -10.5
c-27.333 -9.33301 -53.666 -16 -78.999 -20s-52 -6 -80 -6c-66.667 0 -117.334 17.167 -152.001 51.5s-52 84.5 -52 150.5c0 50.667 6.16699 97.167 18.5 139.5s30.333 78.833 54 109.5s52.5 54.334 86.5 71.001s73 25 117 25zM317.999 515.997
c-34.667 0 -67 -6.99805 -97 -20.998s-56 -34.667 -78 -62s-39.333 -61 -52 -101s-19 -86 -19 -138c0 -34 4.66699 -62.667 14 -86s22.333 -42.333 39 -57s36.667 -25.334 60 -32.001s49 -10 77 -10c13.333 0 33 1.16699 59 3.5s55.667 10.5 89 24.5l30.5 225l32.5 227
c-28 11.333 -55.833 18.666 -83.5 21.999s-51.5 5 -71.5 5z" />
    <glyph glyph-name="b" unicode="b" horiz-adv-x="507" 
d="M64 38c13.333 -6 27.333 -10.833 42 -14.5s29.167 -6.5 43.5 -8.5s28 -3.33301 41 -4s24.5 -1 34.5 -1c30 0 58.833 6 86.5 18s52.167 30.833 73.5 56.5s38.333 58 51 97s19 85.5 19 139.5c0 64.667 -13.167 113.167 -39.5 145.5s-67.833 48.5 -124.5 48.5
c-8 0 -18.333 -0.666992 -31 -2s-26.5 -3.5 -41.5 -6.5s-30.5 -7 -46.5 -12s-31.333 -10.833 -46 -17.5zM129 500c10.667 4.66699 23 9.16895 37 13.502s28.333 8.16602 43 11.499s29.5 6 44.5 8s28.833 3 41.5 3c32.667 0 60.667 -5.33301 84 -16
s42.5 -25.334 57.5 -44.001s25.833 -41.167 32.5 -67.5s10 -54.833 10 -85.5c0 -48 -5.66699 -92.333 -17 -133s-27.833 -76 -49.5 -106s-48.5 -53.333 -80.5 -70s-69 -25 -111 -25c-25.333 0 -53.333 1.83301 -84 5.5s-61 11.834 -91 24.501
c-4 1.33301 -5.33301 4.66602 -4 9.99902l98 697c0 3.33301 1.66699 5 5 5h12c2.66699 0 4 -1.66699 4 -5z" />
    <glyph glyph-name="c" unicode="c" horiz-adv-x="440" 
d="M252 10c25.333 0 49.834 3.33496 73.501 10.002s45.5 14.667 65.5 24c2.66699 1.33301 5 0.333008 7 -3l4 -8c2 -2.66699 1.33301 -5 -2 -7c-46.667 -24.667 -97 -37 -151 -37c-64.667 0 -114.167 17.5 -148.5 52.5s-51.5 84.5 -51.5 148.5
c0 55.333 6.5 104.5 19.5 147.5s30.833 79.167 53.5 108.5s49.5 51.666 80.5 66.999s64.5 23 100.5 23c22.667 0 47.667 -3.33301 75 -10s50.666 -15.334 69.999 -26.001c2.66699 -2 3 -4.33301 1 -7l-4 -7c-2 -3.33301 -3.66699 -5 -5 -5s-3 0.666992 -5 2
c-17.333 9.33301 -37.833 17.166 -61.5 23.499s-48.167 9.5 -73.5 9.5c-40 0 -74.5 -9.5 -103.5 -28.5s-52.667 -43.667 -71 -74s-32 -64.666 -41 -102.999s-13.5 -76.833 -13.5 -115.5c0 -56 14.167 -100.833 42.5 -134.5s74.5 -50.5 138.5 -50.5z" />
    <glyph glyph-name="d" unicode="d" horiz-adv-x="507" 
d="M312 516c-33.333 0 -64.668 -6.83203 -94.001 -20.499s-54.666 -34 -75.999 -61s-38.166 -60.167 -50.499 -99.5s-18.5 -85 -18.5 -137c0 -35.333 4 -64.833 12 -88.5s19.167 -43 33.5 -58s31.333 -25.667 51 -32s41.167 -9.5 64.5 -9.5c20.667 0 46.667 2 78 6
s61.666 11.667 90.999 23l62 444c-32.667 15.333 -63 24.666 -91 27.999s-48.667 5 -62 5zM499.998 726.001c0 3.33301 1.66602 4.99805 4.99902 4.99805h11c3.33301 0 5 -1.66699 5 -5l-98 -697c-1.33301 -5.33301 -4 -8.66602 -8 -9.99902
c-30 -11.333 -61.167 -19.166 -93.5 -23.499s-63.5 -6.5 -93.5 -6.5c-60.667 0 -105.5 18 -134.5 54s-43.5 87 -43.5 153c0 48.667 5.66699 93.834 17 135.501s28.333 77.667 51 108s50.334 54.166 83.001 71.499s70.667 26 114 26c23.333 0 48.5 -2.33301 75.5 -7
s52.833 -12.667 77.5 -24z" />
    <glyph glyph-name="e" unicode="e" horiz-adv-x="481" 
d="M309 514c-32.667 0 -62 -6.00293 -88 -18.0029s-48.833 -28.5 -68.5 -49.5s-35.5 -45.833 -47.5 -74.5s-20.333 -60 -25 -94c22 -3.33301 46.167 -6.16602 72.5 -8.49902s49.5 -3.5 69.5 -3.5c70.667 0 125.167 9.83301 163.5 29.5s57.5 54.5 57.5 104.5
c0 14.667 -2.5 28.834 -7.5 42.501s-13 25.834 -24 36.501s-24.833 19.167 -41.5 25.5s-37 9.5 -61 9.5zM231 -11.0029c-56.667 0 -100.999 16.3311 -132.999 48.998s-48 83.334 -48 152.001c0 54.667 6.16699 103.334 18.5 146.001s29.833 78.834 52.5 108.501
s50 52.334 82 68.001s68 23.5 108 23.5c28 0 51.833 -4.16699 71.5 -12.5s35.667 -19 48 -32s21.333 -27.5 27 -43.5s8.5 -31.667 8.5 -47c0 -54 -20 -93.667 -60 -119s-101.667 -38 -185 -38c-20 0 -43.167 1.16699 -69.5 3.5s-51.166 5.16602 -74.499 8.49902
c-11.333 -80.667 -3 -141.834 25 -183.501s72.333 -62.5 133 -62.5c22 0 43.5 2.5 64.5 7.5s40.5 11.5 58.5 19.5c1.33301 0.666992 2.66602 1.16699 3.99902 1.5s2.66602 -0.5 3.99902 -2.5l5 -10c0.666992 -2 0.666992 -3.33301 0 -4l-2 -2
c-19.333 -10 -41.5 -17.667 -66.5 -23s-48.833 -8 -71.5 -8z" />
    <glyph glyph-name="f" unicode="f" horiz-adv-x="297" 
d="M176 525l153.999 0.000976562c3.33301 0 5 -1.66699 5 -5l-2 -11c-0.666992 -3.33301 -2.66699 -5 -6 -5h-154l-98 -687c0 -4 -1.66699 -6.33301 -5 -7l-13 -5c-4 -1.33301 -5.66699 0.333984 -5 5.00098l99 694h-91c-3.33301 0 -4.66602 1.66699 -3.99902 5l1 6
c0 4.66699 2 7 6 7l92 5l12 86c2.66699 20 6.83398 37.667 12.501 53s13.5 28.166 23.5 38.499s22.833 18.166 38.5 23.499s34.5 8 56.5 8c8 0 19.167 -0.333008 33.5 -1s28.5 -2.66699 42.5 -6c3.33301 -0.666992 4.66602 -2.33398 3.99902 -5.00098l-3 -11
c-1.33301 -2.66699 -2.5 -4 -3.5 -4h-2.5c-15.333 2.66699 -29.333 4.33398 -42 5.00098s-22.667 1 -30 1c-20 0 -36.5 -2.5 -49.5 -7.5s-23.5 -11.833 -31.5 -20.5s-14 -19.167 -18 -31.5s-7 -25.833 -9 -40.5z" />
    <glyph glyph-name="g" unicode="g" horiz-adv-x="507" 
d="M420 12c-3.33301 -26 -8.49512 -52.667 -15.4951 -80s-18.167 -52.166 -33.5 -74.499s-36.333 -40.833 -63 -55.5s-61.334 -22 -104.001 -22c-21.333 0 -43.333 2.33301 -66 7s-41.334 10 -56.001 16c-4 1.33301 -5.33301 4 -4 8l4 10
c1.33301 3.33301 2.83301 5.16602 4.5 5.49902s3.16699 0.166016 4.5 -0.500977c17.333 -6.66699 36.333 -12 57 -16s40 -6 58 -6c37.333 0 67.666 6.33301 90.999 19s41.666 28.667 54.999 48s23 40.333 29 63s10.667 44.334 14 65.001l4 27
c-10.667 -4.66699 -23.167 -9.16699 -37.5 -13.5s-29.166 -8.16602 -44.499 -11.499s-30.833 -6 -46.5 -8s-29.834 -3 -42.501 -3c-37.333 0 -68.333 7 -93 21s-43.834 33 -57.501 57s-22.167 52.333 -25.5 85s-2.33301 68 3 106s14.5 74 27.5 108s30 63.5 51 88.5
s46 44.833 75 59.5s62.5 22 100.5 22c25.333 0 53.333 -1.83301 84 -5.5s61 -11.834 91 -24.501c4 -2 5.33301 -5.33301 4 -10zM232.005 11c8 0 18.4971 0.666992 31.4971 2s27.333 3.5 43 6.5s31.834 7 48.501 12s32.334 10.833 47.001 17.5l62 438
c-26 11.333 -53.833 18.833 -83.5 22.5s-54.834 5.5 -75.501 5.5c-26.667 0 -52.334 -5.16699 -77.001 -15.5s-47.167 -26 -67.5 -47s-37.666 -47.5 -51.999 -79.5s-24.5 -70 -30.5 -114c-11.333 -80.667 -3.16602 -142.167 24.501 -184.5s70.834 -63.5 129.501 -63.5z" />
    <glyph glyph-name="h" unicode="h" horiz-adv-x="512" 
d="M140 726c0 3.33301 1.66699 5.00098 5 5.00098h12c2.66699 0 4 -1.66699 4 -5l-32 -223c16.667 6.66699 33.834 12 51.501 16s34.667 7.33301 51 10s31.333 4.5 45 5.5s25.167 1.5 34.5 1.5c38 0 68.333 -5 91 -15s39.667 -24.5 51 -43.5s17.833 -41.833 19.5 -68.5
s0.166992 -56.334 -4.5 -89.001l-45 -315c0 -3.33301 -1.66699 -5 -5 -5h-11c-3.33301 0 -5 1.66699 -5 5l45 321c9.33301 64 3.5 111.667 -17.5 143s-61.833 47 -122.5 47c-9.33301 0 -21.333 -0.666992 -36 -2s-30.334 -3.5 -47.001 -6.5s-33.667 -6.66699 -51 -11
s-33 -9.83301 -47 -16.5l-67 -475c0 -3.33301 -1.33301 -5 -4 -5h-12c-3.33301 0 -5 1.66699 -5 5z" />
    <glyph glyph-name="i" unicode="i" horiz-adv-x="193" 
d="M169 704c5.33301 0 9.5 -1.66895 12.5 -5.00195s4.5 -7.66602 4.5 -12.999c0 -6 -2.33301 -11 -7 -15s-9.66699 -6 -15 -6c-10 0 -15 5 -15 15c0 6.66699 1.83301 12.334 5.5 17.001s8.5 7 14.5 7zM133 519.998c0 3.33301 1.66699 5 5 5h13c3.33301 0 5 -1.66699 5 -5
l-73 -515c0 -3.33301 -1.66699 -5 -5 -5h-13c-3.33301 0 -5 1.66699 -5 5z" />
    <glyph glyph-name="j" unicode="j" horiz-adv-x="205" 
d="M160 684c0.666992 5.33301 3.00195 10 7.00195 14s8.66699 6 14 6s9.66602 -2 12.999 -6s4.66602 -8.66699 3.99902 -14c-1.33301 -5.33301 -4 -9.83301 -8 -13.5s-8.66699 -5.5 -14 -5.5c-12.667 0 -18 6.33301 -16 19zM-109.998 -205
c-1.33301 3.33301 0.333008 5.66406 5 6.99707c32.667 11.333 59.834 24.833 81.501 40.5s39.334 33.334 53.001 53.001s24 41.334 31 65.001s12.5 49.167 16.5 76.5l68 483c0 3.33301 1.66699 5 5 5h13c4 0 5.33301 -2 4 -6l-69 -492c-5.33301 -38.667 -14 -71.667 -26 -99
s-26.5 -50.5 -43.5 -69.5s-36.333 -34.667 -58 -47s-44.834 -22.5 -69.501 -30.5c-4.66699 -1.33301 -7.33398 -0.666016 -8.00098 2.00098z" />
    <glyph glyph-name="k" unicode="k" horiz-adv-x="424" 
d="M86 176l325 343.001c4 4 8 6 12 6h15c4 -0.666992 4.66699 -2.33398 2 -5.00098l-160 -168l109 -347c2 -3.33301 1 -5 -3 -5h-11c-5.33301 0 -8.33301 2 -9 6l-103 329l-184 -195l-19 -135c0 -3.33301 -1.33301 -5 -4 -5h-13c-3.33301 0 -5 1.66699 -5 5l102 721
c0 3.33301 1.66699 5 5 5h13c2.66699 0 4 -1.66699 4 -5l-77 -548z" />
    <glyph glyph-name="l" unicode="l" horiz-adv-x="191" 
d="M150 726c0 3.33301 1.66699 5.00098 5 5.00098h11c3.33301 0 5 -1.66699 5 -5l-91 -645c-1.33301 -11.333 -2.16602 -21 -2.49902 -29s0.5 -14.667 2.5 -20s5.66699 -9.33301 11 -12s12.666 -4 21.999 -4c6.66699 0 12.667 0.333008 18 1s11 1.66699 17 3h2.5
c1 0 1.83301 -1 2.5 -3l2 -12c0.666992 -3.33301 -0.333008 -5.33301 -3 -6c-8 -2 -16.167 -3.33301 -24.5 -4s-15.5 -1 -21.5 -1c-13.333 0 -23.5 1.83301 -30.5 5.5s-12.167 9 -15.5 16s-5 15.167 -5 24.5s0.666992 19.666 2 30.999z" />
    <glyph glyph-name="m" unicode="m" horiz-adv-x="825" 
d="M755 280c5.33301 40 7.83496 74.834 7.50195 104.501s-5.16602 54.167 -14.499 73.5s-23.833 33.666 -43.5 42.999s-45.834 14 -78.501 14c-9.33301 0 -21 -1 -35 -3s-29.667 -5.5 -47 -10.5s-35.666 -11.5 -54.999 -19.5s-38.333 -17.667 -57 -29
c5.33301 -17.333 8.83301 -38.333 10.5 -63s-0.5 -58 -6.5 -100l-40 -285c0 -3.33301 -1.66699 -5 -5 -5h-12c-2.66699 0 -4 1.66699 -4 5l41 293c5.33301 38.667 6.83301 71.667 4.5 99s-9.33301 49.833 -21 67.5s-28.167 30.5 -49.5 38.5s-48 12 -80 12
c-4 0 -10.833 -0.166992 -20.5 -0.5s-21 -1.16602 -34 -2.49902s-27 -3 -42 -5s-29.833 -4.66699 -44.5 -8l-70 -494c0 -3.33301 -1.33301 -5 -4 -5h-12c-3.33301 0 -5 1.66699 -5 5l69 489c1.33301 8.66699 3.66602 15 6.99902 19s9.33301 7 18 9
c10 2 21.333 3.83301 34 5.5s25.5 3.16699 38.5 4.5s25.5 2.33301 37.5 3s22 1 30 1c39.333 0 70.5 -5 93.5 -15s42.167 -26.333 57.5 -49h1c30 17.333 63.667 32.333 101 45s72 19 104 19c38.667 0 69.167 -5.5 91.5 -16.5s38.666 -26.833 48.999 -47.5
s15.666 -45.834 15.999 -75.501s-2.16699 -63.167 -7.5 -100.5l-41 -291c0 -3.33301 -1.33301 -5 -4 -5h-12c-3.33301 0 -5 1.66699 -5 5z" />
    <glyph glyph-name="n" unicode="n" horiz-adv-x="511" 
d="M441 282c5.33301 38.667 7.67285 72.667 7.00586 102s-6.83398 53.666 -18.501 72.999s-29.334 33.833 -53.001 43.5s-55.834 14.5 -96.501 14.5c-4.66699 0 -12.334 -0.166992 -23.001 -0.5s-23 -1.16602 -37 -2.49902s-29 -3 -45 -5s-31.333 -4.66699 -46 -8l-70 -494
c0 -3.33301 -1.33301 -5 -4 -5h-12c-3.33301 0 -5 1.66699 -5 5l69 489c1.33301 8.66699 3.66602 15 6.99902 19s9.33301 7 18 9c10 2 21.833 3.83301 35.5 5.5s27.667 3.16699 42 4.5s28 2.33301 41 3s23.5 1 31.5 1c41.333 0 75.166 -4.5 101.499 -13.5
s46.5 -23.5 60.5 -43.5s22.167 -45.833 24.5 -77.5s0.5 -70.167 -5.5 -115.5l-40 -281c0 -3.33301 -1.66699 -5 -5 -5h-11c-3.33301 0 -5 1.66699 -5 5z" />
    <glyph glyph-name="o" unicode="o" horiz-adv-x="507" 
d="M302 536c52.667 0 95.5 -16.001 128.5 -48.001s49.5 -81 49.5 -147c0 -56 -6.33301 -106 -19 -150s-30.167 -81 -52.5 -111s-48.833 -52.833 -79.5 -68.5s-64.334 -23.5 -101.001 -23.5c-56.667 0 -100.667 17.833 -132 53.5s-47 84.834 -47 147.501
c0 56 6.66699 105.5 20 148.5s31.333 79.333 54 109s49.334 52 80.001 67s63.667 22.5 99 22.5zM297 514.999c-40.667 0 -75.166 -9.66504 -103.499 -28.998s-51.5 -44.333 -69.5 -75s-31.167 -65 -39.5 -103s-12.5 -75.667 -12.5 -113
c0 -26.667 2.83301 -51.334 8.5 -74.001s14.834 -42.334 27.501 -59.001s29 -29.667 49 -39s44.333 -14 73 -14c44.667 0 81.667 11.167 111 33.5s52.833 50 70.5 83s30 68.167 37 105.5s10.5 71.333 10.5 102c0 25.333 -2.66699 49 -8 71s-14.333 41.333 -27 58
s-29.334 29.667 -50.001 39s-46.334 14 -77.001 14z" />
    <glyph glyph-name="p" unicode="p" horiz-adv-x="507" 
d="M301 535c62 0 107.333 -17 136 -51s43 -84.667 43 -152c0 -50.667 -5.83301 -97.167 -17.5 -139.5s-28.667 -78.666 -51 -108.999s-50 -54 -83 -71s-70.5 -25.5 -112.5 -25.5c-24 0 -49.5 2.16699 -76.5 6.5s-53.167 12.166 -78.5 23.499l-31 -219
c0 -3.33301 -1.66699 -5 -5 -5h-12c-2.66699 0 -4 1.66699 -4 5l98 696c0 4.66699 2.33301 8 7 10c30.667 11.333 62 19.333 94 24s63 7 93 7zM64 41c33.333 -15.333 63.999 -24.668 91.999 -28.001s49 -5 63 -5c34 0 65.5 7.16699 94.5 21.5s54.167 35.333 75.5 63
s38 61.334 50 101.001s18 84.5 18 134.5c0 36.667 -4.16699 67 -12.5 91s-19.666 43 -33.999 57s-31.5 23.833 -51.5 29.5s-42 8.5 -66 8.5c-20 0 -45.167 -2 -75.5 -6s-60.5 -11.667 -90.5 -23z" />
    <glyph glyph-name="q" unicode="q" horiz-adv-x="507" 
d="M309 536c25.333 0 53.333 -1.83398 84 -5.50098s61 -11.834 91 -24.501c4 -2 5.33301 -5.33301 4 -10l-98 -697c0 -3.33301 -1.66699 -5 -5 -5h-11c-3.33301 0 -5 1.66699 -5 5l32 226c-13.333 -5.33301 -27.666 -10.333 -42.999 -15s-31 -8.5 -47 -11.5
s-31.667 -5.33301 -47 -7s-29.333 -2.5 -42 -2.5c-32 0 -58.833 5.33301 -80.5 16s-39.334 25.334 -53.001 44.001s-23.5 40.834 -29.5 66.501s-9 53.5 -9 83.5c0 45.333 5.33301 88.5 16 129.5s26.834 76.833 48.501 107.5s48.667 55 81 73s70.166 27 113.499 27z
M305 513.999c-29.333 0 -57.8369 -6.00098 -85.5039 -18.001s-52.334 -30.833 -74.001 -56.5s-39.167 -58.667 -52.5 -99s-20 -88.5 -20 -144.5c0 -59.333 12.833 -105.166 38.5 -137.499s63.834 -48.5 114.501 -48.5c8 0 19 0.666992 33 2s29.167 3.5 45.5 6.5
s33.333 7 51 12s33.834 10.833 48.501 17.5l62 438c-13.333 6 -27.166 10.833 -41.499 14.5s-28.666 6.5 -42.999 8.5s-28.166 3.33301 -41.499 4s-25 1 -35 1z" />
    <glyph glyph-name="r" unicode="r" horiz-adv-x="322" 
d="M72 5c0 -3.33301 -1.66699 -5 -5 -5h-12c-3.33301 0 -5 1.66699 -5 5l70 490c1.33301 7.33301 3.66602 13.833 6.99902 19.5s9.66602 9.16699 18.999 10.5c16.667 2.66699 34.334 4.66699 53.001 6s37 2.5 55 3.5s35.167 1.5 51.5 1.5h42.5c2.66699 0 5 -0.333008 7 -1
s2.33301 -3 1 -7l-4 -16c-1.33301 -4.66699 -4.66602 -7 -9.99902 -7c-13.333 0.666992 -29 1.16699 -47 1.5s-36.167 0.5 -54.5 0.5h-53.5h-44z" />
    <glyph glyph-name="s" unicode="s" horiz-adv-x="403" 
d="M245 537c27.333 0 52.5059 -2.33398 75.5059 -7.00098s44.5 -11.667 64.5 -21c4 -2 5 -4.66699 3 -8l-7 -12c-1.33301 -2.66699 -3.33301 -3.33398 -6 -2.00098c-20 10 -41.333 17.167 -64 21.5s-45 6.5 -67 6.5c-18 0 -35.333 -2.33301 -52 -7
s-31.334 -11.834 -44.001 -21.501s-22.834 -22 -30.501 -37s-11.5 -32.833 -11.5 -53.5c0 -10 1.5 -19.5 4.5 -28.5s9 -18.333 18 -28s21.667 -19.5 38 -29.5s37.5 -20.667 63.5 -32c48 -21.333 83.667 -42.833 107 -64.5s35 -49.167 35 -82.5
c0 -20.667 -4.66699 -39.667 -14 -57s-22.5 -32.333 -39.5 -45s-37.167 -22.5 -60.5 -29.5s-49.333 -10.5 -78 -10.5c-28 0 -56.333 2.83301 -85 8.5s-53.667 14.167 -75 25.5c-4 1.33301 -4.33301 4.66602 -1 9.99902l4 7c2.66699 3.33301 5.66699 4.33301 9 3
c24 -12 49.167 -20.5 75.5 -25.5s51.5 -7.5 75.5 -7.5c20.667 0 40.667 2.33301 60 7s36.666 11.834 51.999 21.501s27.666 21.834 36.999 36.501s14.666 32.334 15.999 53.001c0 31.333 -12 56.833 -36 76.5s-57.333 39.167 -100 58.5c-27.333 12 -49.333 23.5 -66 34.5
s-29.667 22 -39 33s-15.666 22 -18.999 33s-5 22.5 -5 34.5c0 18 3.16699 35.5 9.5 52.5s16.166 31.833 29.499 44.5s30.166 22.834 50.499 30.501s44.5 11.5 72.5 11.5z" />
    <glyph glyph-name="t" unicode="t" horiz-adv-x="321" 
d="M129 115c-2 -13.333 -3.1709 -25.998 -3.50391 -37.998s1.83398 -22.667 6.50098 -32s12.5 -16.833 23.5 -22.5s26.5 -8.5 46.5 -8.5c7.33301 0 18.5 0.666992 33.5 2s30.833 4 47.5 8c2.66699 0.666992 4.33398 -0.333008 5.00098 -3l3 -11
c0.666992 -2 -0.666016 -3.66699 -3.99902 -5c-15.333 -4 -31.166 -6.83301 -47.499 -8.5s-28.166 -2.5 -35.499 -2.5c-44.667 0 -73.667 9.16699 -87 27.5s-17.333 47.833 -12 88.5l55 394h-81c-3.33301 0 -4.66602 1.66699 -3.99902 5l1 7c0.666992 3.33301 2.66699 5 6 5
l81 5l19 101c0 5.33301 1.66699 8.66602 5 9.99902l8 3c5.33301 1.33301 7.66602 -0.333984 6.99902 -5.00098l-16 -110h136c2.66699 0 4 -1.66699 4 -5l-2 -11c-0.666992 -3.33301 -2.33398 -5 -5.00098 -5h-136z" />
    <glyph glyph-name="u" unicode="u" horiz-adv-x="513" 
d="M92 230c-6 -40 -8.5 -73.998 -7.5 -101.998s7.33301 -50.833 19 -68.5s30 -30.334 55 -38.001s58.833 -11.5 101.5 -11.5c4.66699 0 12 0.166992 22 0.5s21.833 1.16602 35.5 2.49902s28.167 3 43.5 5s30.333 4.66699 45 8l70 494c0 3.33301 1.66699 5 5 5h12
c3.33301 0 5 -1.66699 5 -5l-69 -489c-1.33301 -8.66699 -3.83301 -15 -7.5 -19s-9.5 -7 -17.5 -9c-10 -2 -21.667 -3.83301 -35 -5.5s-26.833 -3.16699 -40.5 -4.5s-26.834 -2.33301 -39.501 -3s-23 -1 -31 -1c-41.333 0 -75.666 3.5 -102.999 10.5
s-48.5 19.167 -63.5 36.5s-24.167 40.833 -27.5 70.5s-2 67.167 4 112.5l43 301c0 3.33301 1.66699 5 5 5h13c2.66699 0 4 -1.66699 4 -5z" />
    <glyph glyph-name="v" unicode="v" horiz-adv-x="427" 
d="M438 521c0.666992 2.66699 2.66504 4 5.99805 4h17c2 0 3 -0.666992 3 -2v-2l-250 -501c-3.33301 -7.33301 -6.16602 -12.5 -8.49902 -15.5s-6.5 -4.5 -12.5 -4.5h-8c-6 0 -10.167 1.66699 -12.5 5s-4.16602 8.33301 -5.49902 15l-108 501v2c0 1.33301 1 2 3 2h13
c3.33301 0 5.33301 -1.33301 6 -4l84 -386l23 -114h2l55 112z" />
    <glyph glyph-name="w" unicode="w" horiz-adv-x="634" 
d="M356 465l-47.002 -101l-159 -344c-3.33301 -7.33301 -6.16602 -12.5 -8.49902 -15.5s-6.5 -4.5 -12.5 -4.5h-8c-6 0 -10 1.5 -12 4.5s-3.33301 8.16699 -4 15.5l-46 501v2c0 1.33301 1 2 3 2h14c3.33301 0 5.33301 -1.33301 6 -4l35 -403l10 -95h2l45 98l166 358
c1.33301 2.66699 3 5.66699 5 9s5.33301 5 10 5h10c5.33301 0 8.5 -1.66699 9.5 -5s1.83301 -6.33301 2.5 -9l64 -349l19 -107h2l41 109l144 389c0.666992 2.66699 2.66699 4 6 4h16c2 0 3 -0.666992 3 -2v-2l-189 -501c-2.66699 -7.33301 -5.33398 -12.5 -8.00098 -15.5
s-7 -4.5 -13 -4.5h-7c-5.33301 0 -9.16602 1.5 -11.499 4.5s-4.16602 8.16699 -5.49902 15.5l-62 341l-18 104h-2z" />
    <glyph glyph-name="x" unicode="x" horiz-adv-x="386" 
d="M81 521v2c0 1.33301 1 2 3 2h13c2 0 3.16699 -0.333008 3.5 -1s1.16602 -1.66699 2.49902 -3l104 -219l166 219c1.33301 1.33301 2.16602 2.33301 2.49902 3s1.5 1 3.5 1h18c2 0 3 -0.666992 3 -2v-2l-181 -237l135 -280v-2c0 -1.33301 -1 -2 -3 -2h-15
c-2 -0 -3.16699 0.333008 -3.5 1s-1.16602 1.66699 -2.49902 3l-124 261l-198 -261c-1.33301 -1.33301 -2.16602 -2.33301 -2.49902 -3s-1.5 -1 -3.5 -1h-18c-2 0 -3 0.666992 -3 2v2l212 279z" />
    <glyph glyph-name="y" unicode="y" horiz-adv-x="426" 
d="M185 0l-7.00195 0.000976562c-1.33301 0 -2.83301 0.166992 -4.5 0.5s-3.16699 2.16602 -4.5 5.49902l-108 511c-1.33301 4 -1.16602 6.33301 0.500977 7s2.83398 1 3.50098 1h9c3.33301 0 5.33301 -0.5 6 -1.5s1.33398 -2.83301 2.00098 -5.5l83 -385l22 -115h4l61 125
l187 374c1.33301 2.66699 2.83301 4.66699 4.5 6s4.16699 2 7.5 2h6c6.66699 0 8.33398 -2.66699 5.00098 -8l-312 -628c-16 -32.667 -32.5 -57.5 -49.5 -74.5s-38.5 -25.5 -64.5 -25.5c-9.33301 0 -19.5 0.666992 -30.5 2s-24.833 4.33301 -41.5 9
c-3.33301 1.33301 -5.16602 2.33301 -5.49902 3s0.166992 2.33398 1.5 5.00098l4 9c1.33301 3.33301 3.66602 4.66602 6.99902 3.99902c17.333 -4.66699 30.5 -7.66699 39.5 -9s16.5 -2 22.5 -2c7.33301 0 14.666 0.666992 21.999 2s14.833 4.5 22.5 9.5
s15.667 12.833 24 23.5s17.166 25.667 26.499 45z" />
    <glyph glyph-name="z" unicode="z" horiz-adv-x="408" 
d="M92 504c-4 0 -5.66602 1.66699 -4.99902 5l2 11c0 3.33301 2 5 6 5h332c5.33301 0 9.16602 -0.666992 11.499 -2s3.16602 -4.66602 2.49902 -9.99902l-1 -7c-1.33301 -5.33301 -3.33301 -10 -6 -14l-422 -469l1 -2h357c4 0 6 -1.66699 6 -5l-2 -10c0 -4 -2 -6 -6 -6h-369
c-9.33301 0 -13.666 3.66699 -12.999 11l1 7c0.666992 5.33301 3 10.666 7 15.999l422 467v3h-324z" />
    <glyph glyph-name="braceleft" unicode="{" horiz-adv-x="311" 
d="M136 204c4.66699 32 3.5 59.1719 -3.5 81.5049s-22.833 39.166 -47.5 50.499l-5 2.5c-2 1 -2.66699 2.5 -2 4.5l1 8c0.666992 3.33301 2 5.5 4 6.5l5 2.5c28 11.333 48.667 28.166 62 50.499s22.333 49.5 27 81.5l17 123c6 42 20.333 74.167 43 96.5s54 33.5 94 33.5
c4 0 6.33301 -0.5 7 -1.5s1 -2.16699 1 -3.5l-2 -11c-0.666992 -2.66699 -1.33398 -4.5 -2.00098 -5.5s-2.66699 -1.5 -6 -1.5c-20.667 0 -37.834 -2.83301 -51.501 -8.5s-24.5 -13.334 -32.5 -23.001s-14 -20.334 -18 -32.001s-7 -23.5 -9 -35.5l-19 -137
c-4 -30 -12.667 -56.667 -26 -80s-34.666 -42.666 -63.999 -57.999c24.667 -12 40.334 -30.833 47.001 -56.5s8 -53.167 4 -82.5l-24 -172c-2 -12 -2.5 -23.833 -1.5 -35.5s4.5 -22.334 10.5 -32.001s14.833 -17.334 26.5 -23.001s27.5 -8.5 47.5 -8.5
c3.33301 0 5.33301 -0.5 6 -1.5s0.666992 -2.83301 0 -5.5l-2 -11c0 -1.33301 -0.333008 -2.5 -1 -3.5s-3 -1.5 -7 -1.5c-38 0 -65.833 11.167 -83.5 33.5s-23.5 54.5 -17.5 96.5z" />
    <glyph glyph-name="bar" unicode="|" horiz-adv-x="180" 
d="M107 772c0 4 2 6 6 6h13c4 0 6 -2 6 -6v-902c0 -4 -2 -6 -6 -6h-13c-4 0 -6 2 -6 6v902z" />
    <glyph glyph-name="braceright" unicode="}" horiz-adv-x="311" 
d="M160 45c-6 -42 -20.334 -74.1719 -43.001 -96.5049s-54 -33.5 -94 -33.5c-4 0 -6.33301 0.5 -7 1.5s-1 2.16699 -1 3.5l2 11c0.666992 2.66699 1.33398 4.5 2.00098 5.5s2.66699 1.5 6 1.5c20 0 36.833 2.83301 50.5 8.5s24.667 13.334 33 23.001
s14.5 20.334 18.5 32.001s7 23.5 9 35.5l24 172c4 29.333 13 56.833 27 82.5s34.667 44.5 62 56.5c-23.333 15.333 -38.5 34.666 -45.5 57.999s-8.5 50 -4.5 80l19 137c2 12 2.33301 23.833 1 35.5s-5 22.334 -11 32.001s-14.833 17.334 -26.5 23.001s-27.167 8.5 -46.5 8.5
c-3.33301 0 -5.33301 0.5 -6 1.5s-0.666992 2.83301 0 5.5l2 11c0 1.33301 0.333008 2.5 1 3.5s3 1.5 7 1.5c37.333 0 65 -11.167 83 -33.5s24 -54.5 18 -96.5l-17 -123c-4.66699 -32 -3.5 -59.167 3.5 -81.5s22.833 -39.166 47.5 -50.499l5 -2.5
c2 -1 2.66699 -3.16699 2 -6.5l-1 -8c-0.666992 -2 -2 -3.5 -4 -4.5l-5 -2.5c-28 -11.333 -48.667 -28.166 -62 -50.499s-22.333 -49.5 -27 -81.5z" />
    <glyph glyph-name="asciitilde" unicode="~" horiz-adv-x="540" 
d="M375 245c-14.667 0 -29.665 4.33203 -44.998 12.999s-30.666 18.167 -45.999 28.5s-30.5 19.833 -45.5 28.5s-29.5 13 -43.5 13c-21.333 0 -39.166 -4.5 -53.499 -13.5s-28.5 -22.5 -42.5 -40.5c-3.33301 -3.33301 -6 -4.33301 -8 -3l-8 5c-3.33301 2 -3.33301 5 0 9
c10.667 15.333 21.5 27.333 32.5 36s21.5 15.167 31.5 19.5s19.5 7 28.5 8s16.5 1.5 22.5 1.5c14 0 28.833 -4.33301 44.5 -13s31.5 -18.167 47.5 -28.5s31.667 -19.833 47 -28.5s29.666 -13 42.999 -13c17.333 0 33.333 4.5 48 13.5s29 23.5 43 43.5
c3.33301 4 6.66602 5.33301 9.99902 4l8 -4c3.33301 -1.33301 4.66602 -2.66602 3.99902 -3.99902l-2 -4c-20.667 -30 -40.334 -49.333 -59.001 -58s-37.667 -13 -57 -13z" />
    <glyph glyph-name="exclamdown" unicode="&#xa1;" horiz-adv-x="230" 
d="M162 524c13.333 0 20 -6.33301 20 -19c0 -7.33301 -2.33301 -13.333 -7 -18s-11 -7 -19 -7c-11.333 0 -17 5.66699 -17 17c0 8 2.5 14.5 7.5 19.5s10.167 7.5 15.5 7.5zM78 -183c-1.33301 -4 -3.66602 -6 -6.99902 -6h-16c-4.66699 0 -6.33398 2 -5.00098 6l86 575
c0 4 2 6 6 6h6c4 0 6 -2 6 -6z" />
    <glyph glyph-name="cent" unicode="&#xa2;" horiz-adv-x="540" 
d="M282 10c30.667 0 58.168 3.33496 82.501 10.002s46.5 14.667 66.5 24c2.66699 1.33301 5 0.333008 7 -3l4 -8c2 -2.66699 1.33301 -5 -2 -7c-23.333 -12.667 -48 -22 -74 -28s-55 -9 -87 -9l-17 -120c0 -3.33301 -2 -5 -6 -5h-10c-2 0 -3 1.66699 -3 5l17 121
c-56 5.33301 -98.5 25.333 -127.5 60s-43.5 81.334 -43.5 140.001c0 54.667 6.33301 103.167 19 145.5s30 78.166 52 107.499s48.167 51.666 78.5 66.999s63.166 23.666 98.499 24.999l17 121c0 3.33301 1.33301 5 4 5h10c3.33301 0 5 -1.66699 5 -5l-17 -121
c22 -1.33301 45 -5 69 -11s45 -14 63 -24c2.66699 -2 3 -4.33301 1 -7l-4 -7c-2 -3.33301 -3.66699 -5 -5 -5s-3 0.666992 -5 2c-16 8.66699 -34.5 16 -55.5 22s-43.167 9.66699 -66.5 11zM111.001 195.002c0 -52 11.833 -94.333 35.5 -127s62.5 -51.667 116.5 -57l71 505
c-39.333 -1.33301 -73 -11.5 -101 -30.5s-51 -43.667 -69 -74s-31.333 -64.5 -40 -102.5s-13 -76 -13 -114z" />
    <glyph glyph-name="sterling" unicode="&#xa3;" horiz-adv-x="540" 
d="M189 344c0 25.333 -3.33301 51.1641 -10 77.4971s-10 52.5 -10 78.5c0 56.667 17.333 101.834 52 135.501s85 50.5 151 50.5c20.667 0 44 -1.83301 70 -5.5s51 -11.167 75 -22.5c2 -1.33301 3 -2.33301 3 -3l-2 -4l-4 -9c-0.666992 -2.66699 -2 -4 -4 -4
c-1.33301 0 -2.66602 0.333008 -3.99902 1l-4 2c-20.667 9.33301 -43.5 15.666 -68.5 18.999s-46.167 5 -63.5 5c-22.667 0 -44.667 -2.66699 -66 -8s-40.5 -14.333 -57.5 -27s-30.667 -29.5 -41 -50.5s-15.5 -47.167 -15.5 -78.5c0 -12.667 1.16699 -25.5 3.5 -38.5
l7 -39.5l7 -40c2.33301 -13.333 3.5 -26.333 3.5 -39h203c4 0 5.66699 -2 5 -6l-1 -10c-0.666992 -4 -3 -6 -7 -6h-198c-2 -21.333 -5.66699 -45.166 -11 -71.499s-13.333 -53.166 -24 -80.499s-24.667 -53.833 -42 -79.5s-39 -48.167 -65 -67.5h393c4 0 5.66699 -2 5 -6
l-2 -11c0 -4 -2 -6 -6 -6h-402c-10.667 0 -15.334 4.33301 -14.001 13l1 6c0.666992 4 2.16699 7.66699 4.5 11s6.83301 8 13.5 14c24.667 22.667 45 46.334 61 71.001s28.667 49 38 73s16 47.333 20 70s6.66699 44 8 64h-96c-4 0 -5.66699 2 -5 6l1 10c0.666992 4 3 6 7 6
h91z" />
    <glyph glyph-name="currency" unicode="&#xa4;" horiz-adv-x="557" 
d="M454 328c0 -38 -11.667 -69.667 -35 -95l52 -51c2.66699 -2.66699 2.66699 -5 0 -7l-9 -10c-2.66699 -2 -5 -2 -7 0l-52 52c-26 -20.667 -57.333 -31 -94 -31c-38 0 -69.333 10.667 -94 32l-53 -53c-2.66699 -2.66699 -5 -2.66699 -7 0l-10 9c-2 2.66699 -2 5 0 7l54 54
c-21.333 25.333 -32 56.333 -32 93c0 36 11 67 33 93l-55 54c-2 2 -2 4.33301 0 7l10 9c2 2.66699 4.33301 2.66699 7 0l54 -54c26 22 57.333 33 94 33c18 0 34.833 -2.83301 50.5 -8.5s29.5 -13.5 41.5 -23.5l53 53c2 2 4.33301 2 7 0l9 -10
c2.66699 -2 2.66699 -4.33301 0 -7l-52 -52c11.333 -12 20 -26 26 -42s9 -33.333 9 -52zM430 328c0 16.667 -3.16699 32.166 -9.5 46.499s-14.833 26.833 -25.5 37.5s-23.334 19 -38.001 25s-30.334 9 -47.001 9c-17.333 0 -33.166 -3 -47.499 -9s-26.833 -14.333 -37.5 -25
s-19 -23.167 -25 -37.5s-9 -29.833 -9 -46.5c0 -36 11.167 -64.833 33.5 -86.5s50.5 -32.5 84.5 -32.5c16.667 0 32.334 2.83301 47.001 8.5s27.5 13.834 38.5 24.501s19.667 23.167 26 37.5s9.5 30.5 9.5 48.5z" />
    <glyph glyph-name="yen" unicode="&#xa5;" horiz-adv-x="540" 
d="M94 298c-3.33301 0 -5 2.00098 -5 6.00098l2 10c0 4 2 6 6 6h158l-131 348v3c0 1.33301 1.66699 2 5 2h15c3.33301 0 5 -1.66699 5 -5l85 -221l49 -133h3l85 132l144 222c1.33301 3.33301 4 5 8 5h15c2.66699 0 4 -1 4 -3c0 -0.666992 -0.333008 -1.33398 -1 -2.00098
l-226 -348h167c4 0 6 -2 6 -6l-2 -10c0 -4 -2.33301 -6 -7 -6h-385zM469 222.001c4 0 5.66699 -2 5 -6l-2 -10c0 -4 -2 -6 -6 -6h-185l-28 -194c0 -4 -1.66699 -6 -5 -6h-12c-4 0 -6 2 -6 6l28 194h-177c-4 0 -6 2 -6 6l2 10c0.666992 4 3 6 7 6h385z" />
    <glyph glyph-name="brokenbar" unicode="&#xa6;" horiz-adv-x="180" 
d="M107 296c0 4 2 6 6 6h13c4 0 6 -2 6 -6v-426c0 -4 -2 -6 -6 -6h-13c-4 0 -6 2 -6 6v426zM107 772c0 4 2 6 6 6h13c4 0 6 -2 6 -6v-426c0 -4 -2 -6 -6 -6h-13c-4 0 -6 2 -6 6v426z" />
    <glyph glyph-name="section" unicode="&#xa7;" horiz-adv-x="508" 
d="M332 101c34 19.333 59.5 42.333 76.5 69s25.5 51.667 25.5 75c0 21.333 -3.66699 40.666 -11 57.999s-17.5 33.833 -30.5 49.5s-28 31 -45 46s-35.5 30.5 -55.5 46.5l-74 62c-16.667 -8.66699 -31.667 -18.834 -45 -30.501s-24.833 -24 -34.5 -37s-17.167 -26 -22.5 -39
s-8 -25.5 -8 -37.5c0 -17.333 4.33301 -34 13 -50s20.167 -31.667 34.5 -47s30.5 -30.666 48.5 -45.999l56 -48l37 -34c12 -11.333 23.667 -23.666 35 -36.999zM211 -134c-8 0 -17.6689 0.495117 -29.002 1.49512s-23.166 2.5 -35.499 4.5s-24.333 4.5 -36 7.5
s-22.167 6.16699 -31.5 9.5c-3.33301 1.33301 -5.33301 2.5 -6 3.5s0 3.16699 2 6.5l3 7c2 3.33301 3.5 5 4.5 5s2.83301 -0.666992 5.5 -2c8.66699 -3.33301 18.334 -6.33301 29.001 -9s21.5 -5 32.5 -7s21.667 -3.5 32 -4.5s19.5 -1.5 27.5 -1.5
c26.667 0 49.334 3 68.001 9s33.834 14.167 45.501 24.5s20.167 22.333 25.5 36s8 28.167 8 43.5c0 13.333 -3.66699 27 -11 41s-16.666 28 -27.999 42s-24.166 27.833 -38.499 41.5s-28.833 26.834 -43.5 39.501l-51.5 44.5c-17.667 15 -33.834 30.667 -48.501 47
s-26.667 33.333 -36 51s-14 36.834 -14 57.501c0 10.667 2.33301 23 7 37s12 28.167 22 42.5s22.333 28.333 37 42s32 25.834 52 36.501c-12.667 13.333 -21.667 26.333 -27 39s-8 26.667 -8 42c0 17.333 3.16699 34.166 9.5 50.499s16.333 30.833 30 43.5
s31.5 22.834 53.5 30.501s48.667 11.5 80 11.5c17.333 0 37 -1.66699 59 -5s41.667 -7.66602 59 -12.999c1.33301 -0.666992 2.5 -1.33398 3.5 -2.00098s0.833008 -2.66699 -0.5 -6l-3 -9c-1.33301 -3.33301 -3 -4.83301 -5 -4.5s-3.66699 0.833008 -5 1.5
c-15.333 5.33301 -33.333 9.5 -54 12.5s-39 4.5 -55 4.5c-52.667 0 -90.834 -10.833 -114.501 -32.5s-35.5 -48.5 -35.5 -80.5c0 -14 3 -26.833 9 -38.5s14.5 -23.167 25.5 -34.5s24 -23 39 -35l49.5 -40l51.5 -43c17 -14.667 32.333 -30.334 46 -47.001
s24.834 -34.667 33.501 -54s13 -40.333 13 -63c0 -12 -2 -25.333 -6 -40s-10.5 -29.167 -19.5 -43.5s-20.833 -28.5 -35.5 -42.5s-32.334 -26.333 -53.001 -37c11.333 -15.333 20.166 -30.166 26.499 -44.499s9.5 -29.166 9.5 -44.499c0 -16.667 -3.33301 -33 -10 -49
s-16.834 -30.167 -30.501 -42.5s-31.167 -22.166 -52.5 -29.499s-46.333 -11 -75 -11z" />
    <glyph glyph-name="dieresis" unicode="&#xa8;" horiz-adv-x="485" 
d="M178 669c0.666992 6 3.16895 11 7.50195 15s10.166 6 17.499 6c6 0 10.667 -2 14 -6s4.66602 -9 3.99902 -15c-3.33301 -16 -11.333 -24 -24 -24c-16 0 -22.333 8 -19 24zM332.002 669c0.666992 6 3.16602 11.001 7.49902 15.001s10.166 6 17.499 6
c6 0 10.833 -2 14.5 -6s5.16699 -9 4.5 -15c-3.33301 -16 -11.666 -24 -24.999 -24c-7.33301 0 -12.666 2.16699 -15.999 6.5s-4.33301 10.166 -3 17.499z" />
    <glyph glyph-name="copyright" unicode="&#xa9;" horiz-adv-x="789" 
d="M429 133c17.333 0 35.833 2.50195 55.5 7.50195s38.834 14.167 57.501 27.5c2 1.33301 3.5 1.66602 4.5 0.999023s1.83301 -1.33398 2.5 -2.00098l5 -7c2.66699 -3.33301 2 -6.66602 -2 -9.99902c-18 -13.333 -38.167 -22.666 -60.5 -27.999s-43.166 -8 -62.499 -8
c-28.667 0 -54.334 5 -77.001 15s-42 24.667 -58 44s-28.167 42.833 -36.5 70.5s-12.5 58.5 -12.5 92.5c0 70.667 16.167 125.5 48.5 164.5s76.833 58.5 133.5 58.5c19.333 0 40.166 -2.66699 62.499 -8s42.5 -14.666 60.5 -27.999c4 -3.33301 4.66699 -6.66602 2 -9.99902
l-5 -7c-0.666992 -0.666992 -1.5 -1.33398 -2.5 -2.00098s-2.5 -0.333984 -4.5 0.999023c-18.667 13.333 -37.834 22.5 -57.501 27.5s-38.167 7.5 -55.5 7.5c-29.333 0 -54.166 -5.5 -74.499 -16.5s-37 -25.833 -50 -44.5s-22.5 -40.334 -28.5 -65.001s-9 -50.667 -9 -78
s3.16699 -53.333 9.5 -78s16.166 -46.334 29.499 -65.001s30.333 -33.5 51 -44.5s45.334 -16.5 74.001 -16.5v1zM788 347.002c0 -51.333 -9.16699 -99.166 -27.5 -143.499s-43.833 -82.666 -76.5 -114.999s-71 -57.666 -115 -75.999s-92 -27.5 -144 -27.5
c-51.333 0 -99.166 9.16699 -143.499 27.5s-82.666 43.666 -114.999 75.999s-57.666 70.666 -75.999 114.999s-27.5 92.166 -27.5 143.499c0 52 9.16699 100 27.5 144s43.666 82.333 75.999 115s70.666 58.167 114.999 76.5s92.166 27.5 143.499 27.5
c52 0 100 -9.16699 144 -27.5s82.333 -43.833 115 -76.5s58.167 -71 76.5 -115s27.5 -92 27.5 -144zM768 347.002c0 48.667 -8.66699 94 -26 136s-41.333 78.333 -72 109s-67 54.667 -109 72s-87.333 26 -136 26s-93.834 -8.66699 -135.501 -26
s-77.834 -41.333 -108.501 -72s-54.667 -67 -72 -109s-26 -87.333 -26 -136s8.66699 -93.834 26 -135.501s41.333 -77.834 72 -108.501s66.834 -54.667 108.501 -72s86.834 -26 135.501 -26s94 8.66699 136 26s78.333 41.333 109 72s54.667 66.834 72 108.501
s26 86.834 26 135.501z" />
    <glyph glyph-name="ordfeminine" unicode="&#xaa;" horiz-adv-x="355" 
d="M254 621c18.667 0 37.3311 -1.33301 55.998 -4s35.667 -7 51 -13c7.33301 -3.33301 10.333 -9.66602 9 -18.999l-21 -143c-6.66699 -47.333 -13 -95 -19 -143c-1.33301 -4 -2.83301 -7.66699 -4.5 -11s-4.83398 -6 -9.50098 -8c-18 -6 -36 -10.333 -54 -13
s-35.667 -4 -53 -4c-48 0 -84.167 13.667 -108.5 41s-36.5 64.333 -36.5 111c0 28.667 3.83301 55.667 11.5 81s19.334 47.166 35.001 65.499s35.334 32.833 59.001 43.5s51.834 16 84.501 16zM210.997 282c8.66699 0 21.667 0.666016 39 1.99902s37.333 6.33301 60 15
c6 47.333 12.333 94.833 19 142.5l21 143.5c-19.333 7.33301 -38 12 -56 14s-33.667 3 -47 3c-48 0 -87 -16.167 -117 -48.5s-45 -79.166 -45 -140.499c0 -44 11.5 -76.833 34.5 -98.5s53.5 -32.5 91.5 -32.5z" />
    <glyph glyph-name="guillemotleft" unicode="&#xab;" horiz-adv-x="414" 
d="M83 226c-1.33301 4.66699 -2.5 8.16699 -3.5 10.5s-1.16699 4.83301 -0.5 7.5c1.33301 5.33301 4.33301 11 9 17l139 176c2 2.66699 5 4 9 4h15c4 0 4.66699 -2 2 -6l-151 -193l97 -187c2.66699 -4 1.66699 -6 -3 -6h-13c-3.33301 0 -6 1.33301 -8 4zM200 226
c-1.33301 4.66699 -2.5 8.16699 -3.5 10.5s-1.16699 4.83301 -0.5 7.5c1.33301 5.33301 4.33301 11 9 17l139 176c2 2.66699 5 4 9 4h15c4 0 4.66699 -2 2 -6l-151 -193l97 -187c2.66699 -4 1.66699 -6 -3 -6h-13c-3.33301 0 -6 1.33301 -8 4z" />
    <glyph glyph-name="logicalnot" unicode="&#xac;" horiz-adv-x="540" 
d="M506 354c3.33301 0 4.99902 -1.66699 4.99902 -5l-34 -241c-1.33301 -3.33301 -3.33301 -5 -6 -5h-13c-3.33301 0 -4.33301 1.66699 -3 5l31 223h-408c-3.33301 0 -4.66602 1.66699 -3.99902 5l2 13c0 3.33301 1.66699 5 5 5h425z" />
    <glyph glyph-name="sfthyphen" unicode="&#xad;" horiz-adv-x="290" 
d="M269 291c3.33301 0 4.66699 -1.66699 4 -5l-3 -19c0 -3.33301 -1.66699 -5 -5 -5h-217c-3.33301 0 -5 1.66699 -5 5l3 19c0.666992 3.33301 2.66699 5 6 5h217z" />
    <glyph glyph-name="registered" unicode="&#xae;" horiz-adv-x="540" 
d="M512 494c0 -30 -5.50098 -58 -16.501 -84s-26 -48.5 -45 -67.5s-41.333 -34 -67 -45s-52.834 -16.5 -81.501 -16.5c-30 0 -58 5.5 -84 16.5s-48.333 26 -67 45s-33.334 41.5 -44.001 67.5s-16 54 -16 84s5.33301 58.167 16 84.5s25.334 49 44.001 68s41 34 67 45
s54 16.5 84 16.5s57.833 -5.5 83.5 -16.5s47.834 -26 66.501 -45s33.334 -41.667 44.001 -68s16 -54.5 16 -84.5zM492.999 494c0 27.333 -4.83301 52.833 -14.5 76.5s-23.167 44.334 -40.5 62.001s-37.666 31.5 -60.999 41.5s-48.333 15 -75 15
c-27.333 0 -52.666 -5 -75.999 -15s-43.666 -23.833 -60.999 -41.5s-30.833 -38.334 -40.5 -62.001s-14.5 -49.167 -14.5 -76.5s4.83301 -52.833 14.5 -76.5s23.167 -44.167 40.5 -61.5s37.666 -31 60.999 -41s48.666 -15 75.999 -15c26 0 50.667 5 74 15
s43.666 23.667 60.999 41s31 37.833 41 61.5s15 49.167 15 76.5zM228.999 364c0 -4.66699 -2 -6.99902 -6 -6.99902h-7c-3.33301 0 -5 2.33301 -5 7v260c0 4 0.833008 7.66699 2.5 11s6.5 5 14.5 5h94c28 0 49 -7.5 63 -22.5s21 -32.5 21 -52.5
c0 -15.333 -3.83301 -29.666 -11.5 -42.999s-19.834 -23.333 -36.501 -30c10 -4.66699 17.333 -10.667 22 -18s8.66699 -16.333 12 -27l27 -82c1.33301 -5.33301 0 -8 -4 -8h-9c-1.33301 0 -2.33301 0.166992 -3 0.5s-1.66699 2.16602 -3 5.49902l-25 81
c-5.33301 17.333 -13.666 28.666 -24.999 33.999s-24 8 -38 8h-83v-122zM228.999 623.001l0.000976562 -120h89c21.333 0 38.166 5.33301 50.499 16s18.5 25.667 18.5 45s-6.66699 34 -20 44s-29 15 -47 15h-91z" />
    <glyph glyph-name="macron" unicode="&#xaf;" horiz-adv-x="290" 
d="M317 622c3.33301 0 4.66602 -1.66699 3.99902 -5l-1 -12c-0.666992 -3.33301 -2.66699 -5 -6 -5h-217c-3.33301 0 -4.66602 1.66699 -3.99902 5l1 12c0.666992 3.33301 2.66699 5 6 5h217z" />
    <glyph glyph-name="degree" unicode="&#xb0;" horiz-adv-x="359" 
d="M339 558c0 -19.333 -3.33691 -36.833 -10.0039 -52.5s-15.834 -29.167 -27.501 -40.5s-25.5 -20 -41.5 -26s-33.333 -9 -52 -9c-36.667 0 -67.167 11.667 -91.5 35s-36.5 54.333 -36.5 93c0 18.667 3.33301 35.834 10 51.501s15.834 29.167 27.501 40.5
s25.334 20.166 41.001 26.499s32.5 9.5 50.5 9.5c18.667 0 35.834 -3.16699 51.501 -9.5s29.334 -15.166 41.001 -26.499s20.834 -24.833 27.501 -40.5s10 -32.834 10 -51.501zM316.996 558c0 30.667 -10.332 56 -30.999 76s-46.334 30 -77.001 30
c-31.333 0 -57 -10 -77 -30s-30 -45.333 -30 -76c0 -32 10 -57.833 30 -77.5s45.333 -29.5 76 -29.5s56.5 9.83301 77.5 29.5s31.5 45.5 31.5 77.5z" />
    <glyph glyph-name="plusminus" unicode="&#xb1;" horiz-adv-x="540" 
d="M291 354l31.999 224c0 3.33301 1.66699 5 5 5h12c3.33301 0 5 -1.66699 5 -5l-32 -224h200c3.33301 0 5 -1.66699 5 -5l-2 -13c-0.666992 -3.33301 -2.66699 -5 -6 -5h-200l-31 -223c-1.33301 -3.33301 -3.33301 -5 -6 -5h-12c-4 0 -5.33301 1.66699 -4 5l31 223h-203
c-3.33301 0 -4.66602 1.66699 -3.99902 5l2 13c0 3.33301 1.66699 5 5 5h203zM465.999 23c3.33301 0 4.66699 -1.66699 4 -5l-2 -13c0 -3.33301 -1.66699 -5 -5 -5h-425c-3.33301 0 -5 1.66699 -5 5l2 13c0.666992 3.33301 2.66699 5 6 5h425z" />
    <glyph glyph-name="twosuperior" unicode="&#xb2;" horiz-adv-x="362" 
d="M237 745c-17.333 0 -35.834 -2.66992 -55.501 -8.00293s-38.167 -12.666 -55.5 -21.999c-4 -2.66699 -6.66699 -1.66699 -8 3l-4 7c-1.33301 2 -1.16602 3.66699 0.500977 5s3.16699 2.66602 4.5 3.99902c19.333 9.33301 39 16.833 59 22.5s40 8.5 60 8.5
c40 0 71.333 -7.66699 94 -23s34 -37.333 34 -66c0 -15.333 -2.66699 -29.166 -8 -41.499s-13.333 -23.666 -24 -33.999s-23.5 -20.333 -38.5 -30s-31.833 -19.5 -50.5 -29.5c-12 -6.66699 -26.833 -15.5 -44.5 -26.5s-35 -23.5 -52 -37.5s-32.167 -29.167 -45.5 -45.5
s-22 -33.5 -26 -51.5h240c2.66699 0 4.33398 -0.166992 5.00098 -0.5s0.666992 -2.16602 0 -5.49902l-1 -7c0 -4.66699 -2.33301 -7 -7 -7h-242c-7.33301 0 -11.833 1.33301 -13.5 4s-2.5 6 -2.5 10c0 25.333 14.667 54 44 86s75.333 65.333 138 100l42.5 24.5
c13 7.66699 24.333 15.667 34 24s17.167 17.5 22.5 27.5s8 21.667 8 35c0 27.333 -10.333 46.5 -31 57.5s-46.334 16.5 -77.001 16.5z" />
    <glyph glyph-name="threesuperior" unicode="&#xb3;" horiz-adv-x="362" 
d="M197 564c-4 0 -6.33301 0.669922 -7 2.00293s-1 3 -1 5l1 5c1.33301 5.33301 4.66602 8 9.99902 8h11c18 0 34.333 2.5 49 7.5s27.167 12 37.5 21s18.5 19.167 24.5 30.5s9 23.666 9 36.999c0 14 -3 25.333 -9 34s-13.833 15.5 -23.5 20.5s-20.334 8.33301 -32.001 10
s-23.167 2.5 -34.5 2.5c-17.333 0 -35.166 -2.16699 -53.499 -6.5s-37.5 -11.5 -57.5 -21.5c-3.33301 -1.33301 -5.33301 -1.83301 -6 -1.5s-1.66699 1.5 -3 3.5l-3 6c-2.66699 3.33301 -1.33398 6.33301 3.99902 9c15.333 9.33301 34.5 16.666 57.5 21.999s44.5 8 64.5 8
c35.333 0 63.833 -6.83301 85.5 -20.5s32.5 -35.167 32.5 -64.5c0 -9.33301 -1.66699 -19 -5 -29s-8.5 -19.833 -15.5 -29.5s-15.833 -18.667 -26.5 -27s-23.667 -14.833 -39 -19.5l-1 -3c28 -8.66699 47.167 -21.167 57.5 -37.5s15.5 -34.166 15.5 -53.499
c0 -36.667 -14.333 -67.167 -43 -91.5s-69 -36.5 -121 -36.5c-21.333 0 -42.666 2.33301 -63.999 7s-39 12 -53 22c-5.33301 2.66699 -6.33301 5.66699 -3 9l5 6c1.33301 1.33301 2.5 2.16602 3.5 2.49902s3.16699 -0.5 6.5 -2.5c12.667 -9.33301 29.167 -16 49.5 -20
s38.166 -6 53.499 -6c46.667 0 82.667 10.333 108 31s38 47 38 79c0 13.333 -2.83301 25.166 -8.5 35.499s-13.167 19 -22.5 26s-20.166 12.167 -32.499 15.5s-25.166 5 -38.499 5h-20z" />
    <glyph glyph-name="acute" unicode="&#xb4;" horiz-adv-x="350" 
d="M253 612c-2.66699 -2.66699 -5.66504 -3.33203 -8.99805 -1.99902l-7 3c-2.66699 0.666992 -3.33398 2.66699 -2.00098 6l80 129c4 6 7.66699 8.66699 11 8l22 -3c5.33301 -0.666992 6.66602 -3.33398 3.99902 -8.00098z" />
    <glyph glyph-name="mu" unicode="&#xb5;" horiz-adv-x="513" 
d="M77 123c-2.66699 -18.667 -2.66504 -35 0.00195312 -49s10.167 -25.833 22.5 -35.5s30.666 -16.834 54.999 -21.501s57.166 -7 98.499 -7c19.333 0 41.666 1 66.999 3s54 7 86 15l70 492c0 3.33301 1.66699 5 5 5h12c3.33301 0 5 -1.66699 5 -5l-69 -487
c-1.33301 -8.66699 -3.66602 -15 -6.99902 -19s-9.33301 -7 -18 -9c-19.333 -4.66699 -42.833 -8.5 -70.5 -11.5s-57.5 -4.5 -89.5 -4.5c-28.667 0 -53 1.16699 -73 3.5s-37 5.83301 -51 10.5s-25.333 10.334 -34 17.001s-16 14 -22 22l-34 -243
c0 -3.33301 -1.33301 -5 -4 -5h-12c-3.33301 0 -5 1.66699 -5 5l102 721c0 3.33301 1.66699 5 5 5h13c2.66699 0 4 -1.66699 4 -5z" />
    <glyph glyph-name="mu" unicode="&#x3bc;" horiz-adv-x="513" 
d="M77 123c-2.66699 -18.667 -2.66504 -35 0.00195312 -49s10.167 -25.833 22.5 -35.5s30.666 -16.834 54.999 -21.501s57.166 -7 98.499 -7c19.333 0 41.666 1 66.999 3s54 7 86 15l70 492c0 3.33301 1.66699 5 5 5h12c3.33301 0 5 -1.66699 5 -5l-69 -487
c-1.33301 -8.66699 -3.66602 -15 -6.99902 -19s-9.33301 -7 -18 -9c-19.333 -4.66699 -42.833 -8.5 -70.5 -11.5s-57.5 -4.5 -89.5 -4.5c-28.667 0 -53 1.16699 -73 3.5s-37 5.83301 -51 10.5s-25.333 10.334 -34 17.001s-16 14 -22 22l-34 -243
c0 -3.33301 -1.33301 -5 -4 -5h-12c-3.33301 0 -5 1.66699 -5 5l102 721c0 3.33301 1.66699 5 5 5h13c2.66699 0 4 -1.66699 4 -5z" />
    <glyph glyph-name="paragraph" unicode="&#xb6;" horiz-adv-x="402" 
d="M227 371c-21.333 0 -40.668 3.49805 -58.001 10.498s-32 16.833 -44 29.5s-21.333 27.334 -28 44.001s-10 35 -10 55c0 29.333 5.16699 55.833 15.5 79.5s24 43.834 41 60.501s36.833 29.5 59.5 38.5s46 13.5 70 13.5h77c4.66699 0 6.33398 -1.66699 5.00098 -5l-45 -320
c0 -4 -2 -6 -6 -6h-77zM318.998 34.998c-4 -26.667 -8.83008 -50.168 -14.4971 -70.501s-15.167 -37.666 -28.5 -51.999s-31.5 -26 -54.5 -35s-53.5 -15.167 -91.5 -18.5c-4.66699 0 -7 1.33301 -7 4v14c1.33301 4 2.66602 6 3.99902 6c32 2 58.167 6.5 78.5 13.5
s36.666 16.667 48.999 29s21.5 27.5 27.5 45.5s10.667 39 14 63l93 663c1.33301 3.33301 3.66602 5 6.99902 5h13c3.33301 0 4.33301 -1.66699 3 -5z" />
    <glyph glyph-name="periodcentered" unicode="&#xb7;" horiz-adv-x="228" 
d="M136 310c12 0 18 -5.66699 18 -17c0 -8.66699 -2.5 -15.5 -7.5 -20.5s-10.5 -7.5 -16.5 -7.5c-13.333 0 -20 6.66699 -20 20c0 7.33301 2.33301 13.333 7 18s11 7 19 7z" />
    <glyph glyph-name="cedilla" unicode="&#xb8;" horiz-adv-x="449" 
d="M211 -71c-8 0 -11.333 3.33105 -10 9.99805c0 1.33301 0.333008 3 1 5s1.33398 3.66699 2.00098 5l27 54c0.666992 2 2 3 4 3h14c1.33301 0 2 -1 2 -3l-26 -54c33.333 -1.33301 57.166 -9.16602 71.499 -23.499s21.5 -29.833 21.5 -46.5
c0 -9.33301 -2 -18.666 -6 -27.999s-10 -17.833 -18 -25.5s-18 -13.834 -30 -18.501s-26 -7 -42 -7c-18.667 0 -35.667 2.16699 -51 6.5s-26 8.16602 -32 11.499c-4 2 -4.66699 4.66699 -2 8l6 9c2 2.66699 3.83301 3.83398 5.5 3.50098s3.16699 -1.16602 4.5 -2.49902
c9.33301 -5.33301 21 -9.33301 35 -12s25.667 -4 35 -4c25.333 0 43.833 6 55.5 18s17.5 24.667 17.5 38c0 5.33301 -1.16699 11 -3.5 17s-6.33301 11.667 -12 17s-13.167 9.83301 -22.5 13.5s-21.333 5.5 -36 5.5h-11z" />
    <glyph glyph-name="onesuperior" unicode="&#xb9;" horiz-adv-x="321" 
d="M204 380h74c2.66699 0 4.5 -0.166992 5.5 -0.5s1.16699 -2.16602 0.5 -5.49902l-1 -7c0 -4.66699 -2.66699 -7 -8 -7h-170c-4 0 -6 2.33301 -6 7l1 7c0.666992 3.33301 1.5 5.16602 2.5 5.49902s2.83301 0.5 5.5 0.5h75l50 357l-79 -12c-4 0 -6.5 0.333008 -7.5 1
s-1.16699 3.66699 -0.5 9s4 8.33301 10 9l78 16c9.33301 2 15.5 1.33301 18.5 -2s3.83301 -8 2.5 -14z" />
    <glyph glyph-name="ordmasculine" unicode="&#xba;" horiz-adv-x="350" 
d="M235 621c40 0 71.1689 -11.667 93.502 -35s33.5 -57 33.5 -101c0 -36 -4.66699 -68 -14 -96s-22 -51.333 -38 -70s-34.667 -32.834 -56 -42.501s-44.333 -14.5 -69 -14.5c-38.667 0 -68.834 12 -90.501 36s-32.5 58 -32.5 102c0 36 4.5 67.833 13.5 95.5
s21.167 50.834 36.5 69.501s33.666 32.667 54.999 42s44 14 68 14zM232.002 602c-27.333 0 -50.5049 -6.16797 -69.5049 -18.501s-34.333 -28.166 -46 -47.499s-20.167 -41 -25.5 -65s-8 -47.333 -8 -70c0 -17.333 1.83301 -33.166 5.5 -47.499
s9.83398 -26.833 18.501 -37.5s19.834 -19 33.501 -25s30.167 -9 49.5 -9c28.667 0 52.834 6.83301 72.501 20.5s35.334 30.5 47.001 50.5s20 41.667 25 65s7.5 44.666 7.5 63.999c0 16.667 -1.83301 32.167 -5.5 46.5s-9.66699 27 -18 38s-19.666 19.667 -33.999 26
s-31.833 9.5 -52.5 9.5z" />
    <glyph glyph-name="guillemotright" unicode="&#xbb;" horiz-adv-x="414" 
d="M223 264c1.33301 -4.66699 2.5 -8.16699 3.5 -10.5s1.16699 -4.83301 0.5 -7.5c-1.33301 -5.33301 -4.33301 -11 -9 -17l-139 -176c-2 -2.66699 -5 -4 -9 -4h-15c-4 0 -4.66699 2 -2 6l151 193l-89 187c-2.66699 4 -1.66699 6 3 6h13c3.33301 0 6 -1.33301 8 -4zM347 264
c1.33301 -4.66699 2.5 -8.16699 3.5 -10.5s1.16699 -4.83301 0.5 -7.5c-1.33301 -5.33301 -4.33301 -11 -9 -17l-139 -176c-2 -2.66699 -5 -4 -9 -4h-15c-4 0 -4.66699 2 -2 6l151 193l-89 187c-2.66699 4 -1.66699 6 3 6h13c3.33301 0 6 -1.33301 8 -4z" />
    <glyph glyph-name="onequarter" unicode="&#xbc;" horiz-adv-x="780" 
d="M229 290h74c2.66699 0 4.5 -0.166992 5.5 -0.5s1.16699 -2.16602 0.5 -5.49902l-1 -7c0 -4.66699 -2.66699 -7 -8 -7h-170c-4 0 -6 2.33301 -6 7l1 7c0.666992 3.33301 1.5 5.16602 2.5 5.49902s2.83301 0.5 5.5 0.5h75l50 357l-79 -12c-4 0 -6.5 0.333008 -7.5 1
s-1.16699 3.66699 -0.5 9s4 8.33301 10 9l78 16c9.33301 2 15.5 1.33301 18.5 -2s3.83301 -8 2.5 -14zM662 705c2 3.33301 4.66699 5 8 5h12c4 0 5 -1.66699 3 -5l-503 -727c-2 -3.33301 -4.66699 -5 -8 -5h-8c-4 0 -5.33301 1.66699 -4 5zM396 117h213l37 264h-2
l-123.5 -131l-124.5 -131v-2zM606 97l-227 -0.00195312c-7.33301 0 -10.666 4 -9.99902 12v5l2 6c0.666992 2 2.33398 4.66699 5.00098 8l251 263c6.66699 7.33301 11.667 11.833 15 13.5s7.33301 2.5 12 2.5h5c7.33301 0 10.666 -4.33301 9.99902 -13l-39 -277h55
c2 0 3.66699 -0.166992 5 -0.5s1.66602 -2.16602 0.999023 -5.49902l-1 -7c-0.666992 -3.33301 -1.66699 -5.16602 -3 -5.49902s-3 -0.5 -5 -0.5h-55l-13 -91c0 -4.66699 -2.33301 -7 -7 -7h-8c-4 -0 -6 2.33301 -6 7z" />
    <glyph glyph-name="onehalf" unicode="&#xbd;" horiz-adv-x="780" 
d="M226 290h74c2.66699 0 4.5 -0.166992 5.5 -0.5s1.16699 -2.16602 0.5 -5.49902l-1 -7c0 -4.66699 -2.66699 -7 -8 -7h-170c-4 0 -6 2.33301 -6 7l1 7c0.666992 3.33301 1.5 5.16602 2.5 5.49902s2.83301 0.5 5.5 0.5h75l50 357l-79 -12c-4 0 -6.5 0.333008 -7.5 1
s-1.16699 3.66699 -0.5 9s4 8.33301 10 9l78 16c9.33301 2 15.5 1.33301 18.5 -2s3.83301 -8 2.5 -14zM636 705c2 3.33301 4.66699 5 8 5h12c4 0 5 -1.66699 3 -5l-503 -727c-2 -3.33301 -4.66699 -5 -8 -5h-8c-4 0 -5.33301 1.66699 -4 5zM592 385
c-17.333 0 -35.834 -2.66992 -55.501 -8.00293s-38.167 -12.666 -55.5 -21.999c-4 -2.66699 -6.66699 -1.66699 -8 3l-4 7c-1.33301 2 -1.16602 3.66699 0.500977 5s3.16699 2.66602 4.5 3.99902c19.333 9.33301 39 16.833 59 22.5s40 8.5 60 8.5
c40 0 71.333 -7.66699 94 -23s34 -37.333 34 -66c0 -15.333 -2.66699 -29.166 -8 -41.499s-13.333 -23.666 -24 -33.999s-23.5 -20.333 -38.5 -30s-31.833 -19.5 -50.5 -29.5c-12 -6.66699 -26.833 -15.5 -44.5 -26.5s-35 -23.5 -52 -37.5s-32.167 -29.167 -45.5 -45.5
s-22 -33.5 -26 -51.5h240c2.66699 0 4.33398 -0.166992 5.00098 -0.5s0.666992 -2.16602 0 -5.49902l-1 -7c0 -4.66699 -2.33301 -7 -7 -7h-242c-7.33301 -0 -11.833 1.33301 -13.5 4s-2.5 6 -2.5 10c0 25.333 14.667 54 44 86s75.333 65.333 138 100l42.5 24.5
c13 7.66699 24.333 15.667 34 24s17.167 17.5 22.5 27.5s8 21.667 8 35c0 27.333 -10.333 46.5 -31 57.5s-46.334 16.5 -77.001 16.5z" />
    <glyph glyph-name="threequarters" unicode="&#xbe;" horiz-adv-x="780" 
d="M237 474c-4 0 -6.33301 0.669922 -7 2.00293s-1 3 -1 5l1 5c1.33301 5.33301 4.66602 8 9.99902 8h11c18 0 34.333 2.5 49 7.5s27.167 12 37.5 21s18.5 19.167 24.5 30.5s9 23.666 9 36.999c0 14 -3 25.333 -9 34s-13.833 15.5 -23.5 20.5s-20.334 8.33301 -32.001 10
s-23.167 2.5 -34.5 2.5c-17.333 0 -35.166 -2.16699 -53.499 -6.5s-37.5 -11.5 -57.5 -21.5c-3.33301 -1.33301 -5.33301 -1.83301 -6 -1.5s-1.66699 1.5 -3 3.5l-3 6c-2.66699 3.33301 -1.33398 6.33301 3.99902 9c15.333 9.33301 34.5 16.666 57.5 21.999s44.5 8 64.5 8
c35.333 0 63.833 -6.83301 85.5 -20.5s32.5 -35.167 32.5 -64.5c0 -9.33301 -1.66699 -19 -5 -29s-8.5 -19.833 -15.5 -29.5s-15.833 -18.667 -26.5 -27s-23.667 -14.833 -39 -19.5l-1 -3c28 -8.66699 47.167 -21.167 57.5 -37.5s15.5 -34.166 15.5 -53.499
c0 -36.667 -14.333 -67.167 -43 -91.5s-69 -36.5 -121 -36.5c-21.333 0 -42.666 2.33301 -63.999 7s-39 12 -53 22c-5.33301 2.66699 -6.33301 5.66699 -3 9l5 6c1.33301 1.33301 2.5 2.16602 3.5 2.49902s3.16699 -0.5 6.5 -2.5c12.667 -9.33301 29.167 -16 49.5 -20
s38.166 -6 53.499 -6c46.667 0 82.667 10.333 108 31s38 47 38 79c0 13.333 -2.83301 25.166 -8.5 35.499s-13.167 19 -22.5 26s-20.166 12.167 -32.499 15.5s-25.166 5 -38.499 5h-20zM704 705.003c2 3.33301 4.66699 5 8 5h12c4 0 5 -1.66699 3 -5l-503 -727
c-2 -3.33301 -4.66699 -5 -8 -5h-8c-4 0 -5.33301 1.66699 -4 5zM438 117.003h213l37 264h-2l-123.5 -131l-124.5 -131v-2zM648 97.0029l-227 -0.00195312c-7.33301 0 -10.666 4 -9.99902 12v5l2 6c0.666992 2 2.33398 4.66699 5.00098 8l251 263
c6.66699 7.33301 11.667 11.833 15 13.5s7.33301 2.5 12 2.5h5c7.33301 0 10.666 -4.33301 9.99902 -13l-39 -277h55c2 0 3.66699 -0.166992 5 -0.5s1.66602 -2.16602 0.999023 -5.49902l-1 -7c-0.666992 -3.33301 -1.66699 -5.16602 -3 -5.49902s-3 -0.5 -5 -0.5h-55
l-13 -91c0 -4.66699 -2.33301 -7 -7 -7h-8c-4 0 -6 2.33301 -6 7z" />
    <glyph glyph-name="questiondown" unicode="&#xbf;" horiz-adv-x="475" 
d="M305 391c0.666992 4 3 6 7 6h11c4 0 5.33301 -1.66699 4 -5l-9 -67c-3.33301 -23.333 -10 -44.166 -20 -62.499s-22 -35 -36 -50s-29.167 -28.833 -45.5 -41.5l-49.5 -37c-21.333 -15.333 -39.666 -29.833 -54.999 -43.5s-27.833 -27.334 -37.5 -41.001
s-16.834 -27.667 -21.501 -42s-7 -29.833 -7 -46.5c0 -24 4.5 -44.333 13.5 -61s21 -30.167 36 -40.5s32.333 -17.833 52 -22.5s40.167 -7 61.5 -7c12.667 0 26.834 1.16699 42.501 3.5s31.5 5.83301 47.5 10.5s32 10.667 48 18s31 16.333 45 27
c2.66699 2.66699 5.33398 2.66699 8.00098 0l7 -9c2 -2.66699 1.33301 -5.66699 -2 -9c-31.333 -22.667 -64.333 -38.834 -99 -48.501s-68 -14.5 -100 -14.5c-56.667 0 -101.167 13.333 -133.5 40s-48.5 63.667 -48.5 111c0 22 3.5 42 10.5 60s16.167 34.5 27.5 49.5
s24.666 28.833 39.999 41.5s31 24.667 47 36l47 34.5c15.333 11.667 29.666 24.334 42.999 38.001s25 28.667 35 45s17 34.833 21 55.5zM328 484c-5.33301 0 -9.83203 2 -13.499 6s-4.83398 9 -3.50098 15c1.33301 7.33301 4.16602 13 8.49902 17s9.16602 6 14.499 6
c15.333 0 22 -7.66699 20 -23c-1.33301 -6 -4.16602 -11 -8.49902 -15s-10.166 -6 -17.499 -6z" />
    <glyph glyph-name="Agrave" unicode="&#xc0;" horiz-adv-x="541" 
d="M443 186l-340.001 -0.00195312l-45.5 -91c-15.667 -30.667 -30.167 -60.667 -43.5 -90c-1.33301 -3.33301 -3.66602 -5 -6.99902 -5h-18c-3.33301 0 -4.33301 1.66699 -3 5l338 681c3.33301 6.66699 6.16602 10.834 8.49902 12.501s5.83301 2.5 10.5 2.5h9
c6 0 10 -0.666992 12 -2s3.66699 -5.66602 5 -12.999l137 -681v-3c0 -1.33301 -1.33301 -2 -4 -2h-16c-3.33301 0 -5.66602 1.66699 -6.99902 5zM439.999 207.998l-60 294l-34 172h-2l-84 -170l-145 -296h325zM236.999 822.998
c-4 2.66699 -4.00098 6.00098 -0.000976562 10.001l16 17c2.66699 2.66699 4.83398 3.66699 6.50098 3s4.16699 -2.33398 7.5 -5.00098l107 -80c2.66699 -2 3 -4 1 -6l-9 -9c-0.666992 -2 -2.66699 -2.33301 -6 -1z" />
    <glyph glyph-name="Aacute" unicode="&#xc1;" horiz-adv-x="541" 
d="M443 186l-340.001 -0.00195312l-45.5 -91c-15.667 -30.667 -30.167 -60.667 -43.5 -90c-1.33301 -3.33301 -3.66602 -5 -6.99902 -5h-18c-3.33301 0 -4.33301 1.66699 -3 5l338 681c3.33301 6.66699 6.16602 10.834 8.49902 12.501s5.83301 2.5 10.5 2.5h9
c6 0 10 -0.666992 12 -2s3.66699 -5.66602 5 -12.999l137 -681v-3c0 -1.33301 -1.33301 -2 -4 -2h-16c-3.33301 0 -5.66602 1.66699 -6.99902 5zM439.999 207.998l-60 294l-34 172h-2l-84 -170l-145 -296h325zM354.999 751.998c-3.33301 -1.33301 -5.66699 -1 -7 1l-4 9
c-2 2 -1.66699 4 1 6l131 80c7.33301 5.33301 11.666 6 12.999 2l13 -17c2.66699 -4 1.33398 -7.33301 -3.99902 -10z" />
    <glyph glyph-name="Acircumflex" unicode="&#xc2;" horiz-adv-x="541" 
d="M443 186l-340.001 -0.00195312l-45.5 -91c-15.667 -30.667 -30.167 -60.667 -43.5 -90c-1.33301 -3.33301 -3.66602 -5 -6.99902 -5h-18c-3.33301 0 -4.33301 1.66699 -3 5l338 681c3.33301 6.66699 6.16602 10.834 8.49902 12.501s5.83301 2.5 10.5 2.5h9
c6 0 10 -0.666992 12 -2s3.66699 -5.66602 5 -12.999l137 -681v-3c0 -1.33301 -1.33301 -2 -4 -2h-16c-3.33301 0 -5.66602 1.66699 -6.99902 5zM439.999 207.998l-60 294l-34 172h-2l-84 -170l-145 -296h325zM484.999 756.998c1.33301 -3.33301 1.33301 -6 0 -8l-7 -5
c-2.66699 -2.66699 -5.66699 -2.66699 -9 0l-104 87l-127 -86c-4 -2.66699 -7 -3 -9 -1l-5 7c-2 2 -1 4.66699 3 8l113 87l14 9c4 2.66699 9 4 15 4c6.66699 0 11.667 -1.16699 15 -3.5s7 -5.5 11 -9.5z" />
    <glyph glyph-name="Atilde" unicode="&#xc3;" horiz-adv-x="541" 
d="M443 186l-340.001 -0.00195312l-45.5 -91c-15.667 -30.667 -30.167 -60.667 -43.5 -90c-1.33301 -3.33301 -3.66602 -5 -6.99902 -5h-18c-3.33301 0 -4.33301 1.66699 -3 5l338 681c3.33301 6.66699 6.16602 10.834 8.49902 12.501s5.83301 2.5 10.5 2.5h9
c6 0 10 -0.666992 12 -2s3.66699 -5.66602 5 -12.999l137 -681v-3c0 -1.33301 -1.33301 -2 -4 -2h-16c-3.33301 0 -5.66602 1.66699 -6.99902 5zM439.999 207.998l-60 294l-34 172h-2l-84 -170l-145 -296h325zM425.999 755.998c-11.333 0 -22.668 2.3291 -34.001 6.99609
s-22.5 9.83398 -33.5 15.501s-21.667 10.834 -32 15.501s-19.833 7 -28.5 7c-15.333 0 -28.833 -3.16699 -40.5 -9.5s-22.5 -15.166 -32.5 -26.499c-4 -4 -7.33301 -4.66699 -10 -2l-7 5c-2.66699 2 -2 5 2 9c16 20 32.333 32.5 49 37.5s31 7.5 43 7.5
c10 0 20.5 -2.33301 31.5 -7s22 -9.66699 33 -15s21.833 -10.333 32.5 -15s21 -7 31 -7c15.333 0 27.833 2.83301 37.5 8.5s19.834 14.834 30.501 27.501c2 2.66699 3.5 4 4.5 4s2.16699 -0.333008 3.5 -1l7 -5c3.33301 -2 4.33301 -4.33301 3 -7
c-17.333 -22 -33.5 -35.667 -48.5 -41s-28.833 -8 -41.5 -8z" />
    <glyph glyph-name="Adieresis" unicode="&#xc4;" horiz-adv-x="541" 
d="M443 186l-340.001 -0.00195312l-45.5 -91c-15.667 -30.667 -30.167 -60.667 -43.5 -90c-1.33301 -3.33301 -3.66602 -5 -6.99902 -5h-18c-3.33301 0 -4.33301 1.66699 -3 5l338 681c3.33301 6.66699 6.16602 10.834 8.49902 12.501s5.83301 2.5 10.5 2.5h9
c6 0 10 -0.666992 12 -2s3.66699 -5.66602 5 -12.999l137 -681v-3c0 -1.33301 -1.33301 -2 -4 -2h-16c-3.33301 0 -5.66602 1.66699 -6.99902 5zM439.999 207.998l-60 294l-34 172h-2l-84 -170l-145 -296h325zM263.999 789.998c0.666992 6 3.16895 11 7.50195 15
s10.166 6 17.499 6c6 0 10.667 -2 14 -6s4.66602 -9 3.99902 -15c-3.33301 -16 -11.333 -24 -24 -24c-16 0 -22.333 8 -19 24zM418.001 789.998c0.666992 6 3.16602 11.001 7.49902 15.001s10.166 6 17.499 6c6 0 10.833 -2 14.5 -6s5.16699 -9 4.5 -15
c-3.33301 -16 -11.666 -24 -24.999 -24c-7.33301 0 -12.666 2.16699 -15.999 6.5s-4.33301 10.166 -3 17.499z" />
    <glyph glyph-name="Aring" unicode="&#xc5;" horiz-adv-x="541" 
d="M443 186l-340.001 -0.00195312l-45.5 -91c-15.667 -30.667 -30.167 -60.667 -43.5 -90c-1.33301 -3.33301 -3.66602 -5 -6.99902 -5h-18c-3.33301 0 -4.33301 1.66699 -3 5l338 681c3.33301 6.66699 6.16602 10.834 8.49902 12.501s5.83301 2.5 10.5 2.5h9
c6 0 10 -0.666992 12 -2s3.66699 -5.66602 5 -12.999l137 -681v-3c0 -1.33301 -1.33301 -2 -4 -2h-16c-3.33301 0 -5.66602 1.66699 -6.99902 5zM439.999 207.998l-60 294l-34 172h-2l-84 -170l-145 -296h325zM368.999 870.998c18 0 32.501 -5.16699 43.501 -15.5
s16.5 -24.166 16.5 -41.499c0 -23.333 -7.66699 -42.5 -23 -57.5s-34 -22.5 -56 -22.5c-17.333 0 -32 5.16699 -44 15.5s-18 24.166 -18 41.499c0 23.333 8.16699 42.5 24.5 57.5s35.166 22.5 56.499 22.5zM367 854.998c-15.333 0 -29.5 -5.66797 -42.5 -17.001
s-19.5 -25.666 -19.5 -42.999c0 -13.333 4.66699 -24 14 -32s20.333 -12 33 -12c16.667 0 30.834 5.5 42.501 16.5s17.5 25.5 17.5 43.5c0 12.667 -3.83301 23.167 -11.5 31.5s-18.834 12.5 -33.501 12.5z" />
    <glyph glyph-name="AE" unicode="&#xc6;" horiz-adv-x="773" 
d="M400 362l-31.002 -222.002c-2.66699 -17.333 -3 -33.166 -1 -47.499s6.66699 -26.5 14 -36.5s18 -17.833 32 -23.5s31.667 -8.5 53 -8.5h264c4 0 5.66699 -2 5 -6l-2 -12c0 -4 -2 -6 -6 -6h-267c-25.333 0 -46.166 3.33301 -62.499 10s-28.833 16.334 -37.5 29.001
s-14 27.667 -16 45s-1.33301 37 2 59l5 41h-257l-41.5 -89.5l-41.5 -89.5c-1.33301 -3.33301 -3.66602 -5 -6.99902 -5h-16c-3.33301 0 -4.33301 1.66699 -3 5l260 554c16 32.667 31.833 58.5 47.5 77.5s30.5 33.333 44.5 43s27 15.667 39 18s22.667 3.5 32 3.5h385
c4 0 5.66699 -2 5 -6l-2 -12c0 -4 -2 -6 -6 -6h-232c-40 0 -70.5 -10 -91.5 -30s-34.167 -49 -39.5 -87l-24 -175h326c3.33301 0 5 -2 5 -6l-2 -11c0 -4 -2.33301 -6 -7 -6h-326zM269.998 556.998l-81.999 -174.502l-81 -174.5h249l49 349c3.33301 26 10.333 49.333 21 70
s25.334 37.334 44.001 50.001h-61c-18.667 0 -35.334 -4.16699 -50.001 -12.5s-27.834 -18.666 -39.501 -30.999s-21.5 -25.5 -29.5 -39.5s-14.667 -26.333 -20 -37z" />
    <glyph glyph-name="Ccedilla" unicode="&#xc7;" horiz-adv-x="534" 
d="M393 687c-48.667 0 -91.666 -11.6738 -128.999 -35.0068s-68.5 -54.666 -93.5 -93.999s-43.833 -85.166 -56.5 -137.499s-19 -107.5 -19 -165.5c0 -80.667 17 -141.5 51 -182.5s87 -61.5 159 -61.5c30 0 61 3.5 93 10.5s64 19.167 96 36.5c3.33301 2 6 1.66699 8 -1
l6 -10c2 -4 1 -7 -3 -9c-36.667 -19.333 -71.834 -32.166 -105.501 -38.499s-62.167 -9.83301 -85.5 -10.5l-19 -40c33.333 -1.33301 57.166 -9.16602 71.499 -23.499s21.5 -29.833 21.5 -46.5c0 -9.33301 -2 -18.666 -6 -27.999s-10 -17.833 -18 -25.5
s-18 -13.834 -30 -18.501s-26 -7 -42 -7c-18.667 0 -35.667 2.16699 -51 6.5s-26 8.16602 -32 11.499c-4 2 -4.66699 4.66699 -2 8l6 9c2 2.66699 3.83301 3.83398 5.5 3.50098s3.16699 -1.16602 4.5 -2.49902c9.33301 -5.33301 21 -9.33301 35 -12s25.667 -4 35 -4
c25.333 0 43.833 6 55.5 18s17.5 24.667 17.5 38c0 5.33301 -1.16699 11 -3.5 17s-6.33301 11.667 -12 17s-13.167 9.83301 -22.5 13.5s-21.333 5.5 -36 5.5h-11c-8 0 -11.333 3.33301 -10 10c0 1.33301 0.333008 3 1 5s1.33398 3.66699 2.00098 5l20 40
c-34 0.666992 -64.667 6.33398 -92 17.001s-50.833 26.834 -70.5 48.501s-34.834 49.167 -45.501 82.5s-16 73 -16 119c0 72.667 8.66699 137.167 26 193.5s40.666 103.833 69.999 142.5s63.5 68 102.5 88s80.5 30 124.5 30c24.667 0 52.334 -2.66699 83.001 -8
s61.334 -17.333 92.001 -36c4 -2 4.66699 -4.66699 2 -8l-8 -12c-2 -2.66699 -4.66699 -3 -8 -1c-30.667 18 -59 29.5 -85 34.5s-51.333 7.5 -76 7.5z" />
    <glyph glyph-name="Egrave" unicode="&#xc8;" horiz-adv-x="508" 
d="M122 362l-31.002 -222.001c-2.66699 -17.333 -3.16699 -33.166 -1.5 -47.499s6.33398 -26.5 14.001 -36.5s18.334 -17.833 32.001 -23.5s31.167 -8.5 52.5 -8.5h275c4 0 5.66699 -2 5 -6l-2 -12c0 -4 -2 -6 -6 -6h-277c-25.333 -0 -46.166 3.33301 -62.499 10
s-29 16.334 -38 29.001s-14.5 27.667 -16.5 45s-1.33301 37 2 59l58 414c6 43.333 21 78.166 45 104.499s61.333 39.5 112 39.5h251c3.33301 0 4.66602 -2 3.99902 -6l-2 -12c0 -4 -1.66699 -6 -5 -6h-251c-40 0 -70.333 -10 -91 -30s-33.667 -49 -39 -87l-24 -175h340
c2.66699 0 4 -2 4 -6l-2 -11c0 -4 -2 -6 -6 -6h-340zM277.998 822.999c-4 2.66699 -4.00098 6.00098 -0.000976562 10.001l16 17c2.66699 2.66699 4.83398 3.66699 6.50098 3s4.16699 -2.33398 7.5 -5.00098l107 -80c2.66699 -2 3 -4 1 -6l-9 -9
c-0.666992 -2 -2.66699 -2.33301 -6 -1z" />
    <glyph glyph-name="Eacute" unicode="&#xc9;" horiz-adv-x="508" 
d="M122 362l-31.002 -222.001c-2.66699 -17.333 -3.16699 -33.166 -1.5 -47.499s6.33398 -26.5 14.001 -36.5s18.334 -17.833 32.001 -23.5s31.167 -8.5 52.5 -8.5h275c4 0 5.66699 -2 5 -6l-2 -12c0 -4 -2 -6 -6 -6h-277c-25.333 -0 -46.166 3.33301 -62.499 10
s-29 16.334 -38 29.001s-14.5 27.667 -16.5 45s-1.33301 37 2 59l58 414c6 43.333 21 78.166 45 104.499s61.333 39.5 112 39.5h251c3.33301 0 4.66602 -2 3.99902 -6l-2 -12c0 -4 -1.66699 -6 -5 -6h-251c-40 0 -70.333 -10 -91 -30s-33.667 -49 -39 -87l-24 -175h340
c2.66699 0 4 -2 4 -6l-2 -11c0 -4 -2 -6 -6 -6h-340zM327.998 751.999c-3.33301 -1.33301 -5.66699 -1 -7 1l-4 9c-2 2 -1.66699 4 1 6l131 80c7.33301 5.33301 11.666 6 12.999 2l13 -17c2.66699 -4 1.33398 -7.33301 -3.99902 -10z" />
    <glyph glyph-name="Ecircumflex" unicode="&#xca;" horiz-adv-x="508" 
d="M122 362l-31.002 -222.001c-2.66699 -17.333 -3.16699 -33.166 -1.5 -47.499s6.33398 -26.5 14.001 -36.5s18.334 -17.833 32.001 -23.5s31.167 -8.5 52.5 -8.5h275c4 0 5.66699 -2 5 -6l-2 -12c0 -4 -2 -6 -6 -6h-277c-25.333 -0 -46.166 3.33301 -62.499 10
s-29 16.334 -38 29.001s-14.5 27.667 -16.5 45s-1.33301 37 2 59l58 414c6 43.333 21 78.166 45 104.499s61.333 39.5 112 39.5h251c3.33301 0 4.66602 -2 3.99902 -6l-2 -12c0 -4 -1.66699 -6 -5 -6h-251c-40 0 -70.333 -10 -91 -30s-33.667 -49 -39 -87l-24 -175h340
c2.66699 0 4 -2 4 -6l-2 -11c0 -4 -2 -6 -6 -6h-340zM486.998 756.999c1.33301 -3.33301 1.33301 -6 0 -8l-7 -5c-2.66699 -2.66699 -5.66699 -2.66699 -9 0l-104 87l-127 -86c-4 -2.66699 -7 -3 -9 -1l-5 7c-2 2 -1 4.66699 3 8l113 87l14 9c4 2.66699 9 4 15 4
c6.66699 0 11.667 -1.16699 15 -3.5s7 -5.5 11 -9.5z" />
    <glyph glyph-name="Edieresis" unicode="&#xcb;" horiz-adv-x="508" 
d="M122 362l-31.002 -222.001c-2.66699 -17.333 -3.16699 -33.166 -1.5 -47.499s6.33398 -26.5 14.001 -36.5s18.334 -17.833 32.001 -23.5s31.167 -8.5 52.5 -8.5h275c4 0 5.66699 -2 5 -6l-2 -12c0 -4 -2 -6 -6 -6h-277c-25.333 -0 -46.166 3.33301 -62.499 10
s-29 16.334 -38 29.001s-14.5 27.667 -16.5 45s-1.33301 37 2 59l58 414c6 43.333 21 78.166 45 104.499s61.333 39.5 112 39.5h251c3.33301 0 4.66602 -2 3.99902 -6l-2 -12c0 -4 -1.66699 -6 -5 -6h-251c-40 0 -70.333 -10 -91 -30s-33.667 -49 -39 -87l-24 -175h340
c2.66699 0 4 -2 4 -6l-2 -11c0 -4 -2 -6 -6 -6h-340zM254.998 796.999c0.666992 6 3.16895 11 7.50195 15s10.166 6 17.499 6c6 0 10.667 -2 14 -6s4.66602 -9 3.99902 -15c-3.33301 -16 -11.333 -24 -24 -24c-16 0 -22.333 8 -19 24zM409 796.999
c0.666992 6 3.16602 11.001 7.49902 15.001s10.166 6 17.499 6c6 0 10.833 -2 14.5 -6s5.16699 -9 4.5 -15c-3.33301 -16 -11.666 -24 -24.999 -24c-7.33301 0 -12.666 2.16699 -15.999 6.5s-4.33301 10.166 -3 17.499z" />
    <glyph glyph-name="Igrave" unicode="&#xcc;" horiz-adv-x="218" 
d="M169 695c0.666992 4 3 6 7 6h12c4 0 5.66699 -2 5 -6l-97 -689c0 -4 -2 -6 -6 -6h-12c-4 0 -6 2 -6 6zM53 823c-4 2.66699 -4.00098 6.00098 -0.000976562 10.001l16 17c2.66699 2.66699 4.83398 3.66699 6.50098 3s4.16699 -2.33398 7.5 -5.00098l107 -80
c2.66699 -2 3 -4 1 -6l-9 -9c-0.666992 -2 -2.66699 -2.33301 -6 -1z" />
    <glyph glyph-name="Iacute" unicode="&#xcd;" horiz-adv-x="218" 
d="M169 695c0.666992 4 3 6 7 6h12c4 0 5.66699 -2 5 -6l-97 -689c0 -4 -2 -6 -6 -6h-12c-4 0 -6 2 -6 6zM186 752c-3.33301 -1.33301 -5.66699 -1 -7 1l-4 9c-2 2 -1.66699 4 1 6l131 80c7.33301 5.33301 11.666 6 12.999 2l13 -17
c2.66699 -4 1.33398 -7.33301 -3.99902 -10z" />
    <glyph glyph-name="Icircumflex" unicode="&#xce;" horiz-adv-x="218" 
d="M169 695c0.666992 4 3 6 7 6h12c4 0 5.66699 -2 5 -6l-97 -689c0 -4 -2 -6 -6 -6h-12c-4 0 -6 2 -6 6zM316 757c1.33301 -3.33301 1.33301 -6 0 -8l-7 -5c-2.66699 -2.66699 -5.66699 -2.66699 -9 0l-104 87l-127 -86c-4 -2.66699 -7 -3 -9 -1l-5 7c-2 2 -1 4.66699 3 8
l113 87l14 9c4 2.66699 9 4 15 4c6.66699 0 11.667 -1.16699 15 -3.5s7 -5.5 11 -9.5z" />
    <glyph glyph-name="Idieresis" unicode="&#xcf;" horiz-adv-x="218" 
d="M169 695c0.666992 4 3 6 7 6h12c4 0 5.66699 -2 5 -6l-97 -689c0 -4 -2 -6 -6 -6h-12c-4 0 -6 2 -6 6zM97 787c0.666992 6 3.16895 11 7.50195 15s10.166 6 17.499 6c6 0 10.667 -2 14 -6s4.66602 -9 3.99902 -15c-3.33301 -16 -11.333 -24 -24 -24
c-16 0 -22.333 8 -19 24zM251.002 787c0.666992 6 3.16602 11.001 7.49902 15.001s10.166 6 17.499 6c6 0 10.833 -2 14.5 -6s5.16699 -9 4.5 -15c-3.33301 -16 -11.666 -24 -24.999 -24c-7.33301 0 -12.666 2.16699 -15.999 6.5s-4.33301 10.166 -3 17.499z" />
    <glyph glyph-name="Eth" unicode="&#xd0;" horiz-adv-x="617" 
d="M329 701c44.667 0 83.499 -6.33398 116.499 -19.001s60.333 -31 82 -55s37.834 -53.167 48.501 -87.5s16 -73.166 16 -116.499c0 -62 -8 -119 -24 -171s-39 -96.667 -69 -134s-66.5 -66.333 -109.5 -87s-91.167 -31 -144.5 -31h-165c-11.333 -0 -19.333 1.83301 -24 5.5
s-6.33398 11.167 -5.00098 22.5l46 324h-64c-3.33301 0 -4.66602 1.66699 -3.99902 5l2 14c0 3.33301 1.66699 5 5 5h64l42 293c1.33301 8.66699 4 16.167 8 22.5s13.333 9.5 28 9.5h151zM166.999 676.999l-42.9971 -301h242c2.66699 0 4 -1.66699 4 -5l-2 -14
c-0.666992 -3.33301 -2.33398 -5 -5.00098 -5h-242l-46 -328h170c56 0 104.167 11 144.5 33s73.666 51.5 99.999 88.5s45.833 79.5 58.5 127.5s19 98 19 150c0 35.333 -3.83301 68.333 -11.5 99s-20.834 57.5 -39.501 80.5s-43.667 41.167 -75 54.5s-70.333 20 -117 20h-157
z" />
    <glyph glyph-name="Ntilde" unicode="&#xd1;" horiz-adv-x="620" 
d="M171 702c6 0 10.168 -1.66699 12.501 -5s5.5 -9.33301 9.5 -18l240 -511l64 -140h4l94 668c0.666992 4 3 6 7 6h12c4 0 5.66699 -2 5 -6l-95 -675c-0.666992 -5.33301 -2.16699 -10.166 -4.5 -14.499s-7.5 -6.5 -15.5 -6.5h-7c-6 0 -10.333 1.66699 -13 5
s-5.66699 9.33301 -9 18l-258 547l-47 100h-4l-94 -664c0 -4 -2 -6 -6 -6h-12c-4 0 -6 2 -6 6l95 675c1.33301 5.33301 3.16602 10.166 5.49902 14.499s7.5 6.5 15.5 6.5h7zM459.001 761c-11.333 0 -22.668 2.3291 -34.001 6.99609s-22.5 9.83398 -33.5 15.501
s-21.667 10.834 -32 15.501s-19.833 7 -28.5 7c-15.333 0 -28.833 -3.16699 -40.5 -9.5s-22.5 -15.166 -32.5 -26.499c-4 -4 -7.33301 -4.66699 -10 -2l-7 5c-2.66699 2 -2 5 2 9c16 20 32.333 32.5 49 37.5s31 7.5 43 7.5c10 0 20.5 -2.33301 31.5 -7s22 -9.66699 33 -15
s21.833 -10.333 32.5 -15s21 -7 31 -7c15.333 0 27.833 2.83301 37.5 8.5s19.834 14.834 30.501 27.501c2 2.66699 3.5 4 4.5 4s2.16699 -0.333008 3.5 -1l7 -5c3.33301 -2 4.33301 -4.33301 3 -7c-17.333 -22 -33.5 -35.667 -48.5 -41s-28.833 -8 -41.5 -8z" />
    <glyph glyph-name="Ograve" unicode="&#xd2;" horiz-adv-x="644" 
d="M393 711c75.333 0 132.333 -23.001 171 -69.001s58 -112 58 -198c0 -62 -6.66699 -120.667 -20 -176s-33.5 -103.666 -60.5 -144.999s-61 -74 -102 -98s-89.5 -36 -145.5 -36c-40.667 0 -75.167 6.5 -103.5 19.5s-51.333 31.167 -69 54.5s-30.5 50.833 -38.5 82.5
s-12 66.167 -12 103.5c0 72 7.83301 136.5 23.5 193.5s37.834 105.333 66.501 145s62.667 70.167 102 91.5s82.666 32 129.999 32zM392 688.999c-53.333 0 -98.835 -12.834 -136.502 -38.501s-68.5 -59.167 -92.5 -100.5s-41.5 -88 -52.5 -140s-16.5 -104.667 -16.5 -158
c0 -34 3.33301 -65.667 10 -95s18 -54.833 34 -76.5s37 -38.667 63 -51s58 -18.5 96 -18.5c52 0 97 11.833 135 35.5s69.333 55.334 94 95.001s43 85.5 55 137.5s18 106.667 18 164c0 34.667 -3.66699 67 -11 97s-19.166 56 -35.499 78s-37.666 39.333 -63.999 52
s-58.5 19 -96.5 19zM322.998 822.998c-4 2.66699 -4.00098 6.00098 -0.000976562 10.001l16 17c2.66699 2.66699 4.83398 3.66699 6.50098 3s4.16699 -2.33398 7.5 -5.00098l107 -80c2.66699 -2 3 -4 1 -6l-9 -9c-0.666992 -2 -2.66699 -2.33301 -6 -1z" />
    <glyph glyph-name="Oacute" unicode="&#xd3;" horiz-adv-x="644" 
d="M393 711c75.333 0 132.333 -23.001 171 -69.001s58 -112 58 -198c0 -62 -6.66699 -120.667 -20 -176s-33.5 -103.666 -60.5 -144.999s-61 -74 -102 -98s-89.5 -36 -145.5 -36c-40.667 0 -75.167 6.5 -103.5 19.5s-51.333 31.167 -69 54.5s-30.5 50.833 -38.5 82.5
s-12 66.167 -12 103.5c0 72 7.83301 136.5 23.5 193.5s37.834 105.333 66.501 145s62.667 70.167 102 91.5s82.666 32 129.999 32zM392 688.999c-53.333 0 -98.835 -12.834 -136.502 -38.501s-68.5 -59.167 -92.5 -100.5s-41.5 -88 -52.5 -140s-16.5 -104.667 -16.5 -158
c0 -34 3.33301 -65.667 10 -95s18 -54.833 34 -76.5s37 -38.667 63 -51s58 -18.5 96 -18.5c52 0 97 11.833 135 35.5s69.333 55.334 94 95.001s43 85.5 55 137.5s18 106.667 18 164c0 34.667 -3.66699 67 -11 97s-19.166 56 -35.499 78s-37.666 39.333 -63.999 52
s-58.5 19 -96.5 19zM368.998 751.998c-3.33301 -1.33301 -5.66699 -1 -7 1l-4 9c-2 2 -1.66699 4 1 6l131 80c7.33301 5.33301 11.666 6 12.999 2l13 -17c2.66699 -4 1.33398 -7.33301 -3.99902 -10z" />
    <glyph glyph-name="Ocircumflex" unicode="&#xd4;" horiz-adv-x="644" 
d="M393 711c75.333 0 132.333 -23.001 171 -69.001s58 -112 58 -198c0 -62 -6.66699 -120.667 -20 -176s-33.5 -103.666 -60.5 -144.999s-61 -74 -102 -98s-89.5 -36 -145.5 -36c-40.667 0 -75.167 6.5 -103.5 19.5s-51.333 31.167 -69 54.5s-30.5 50.833 -38.5 82.5
s-12 66.167 -12 103.5c0 72 7.83301 136.5 23.5 193.5s37.834 105.333 66.501 145s62.667 70.167 102 91.5s82.666 32 129.999 32zM392 688.999c-53.333 0 -98.835 -12.834 -136.502 -38.501s-68.5 -59.167 -92.5 -100.5s-41.5 -88 -52.5 -140s-16.5 -104.667 -16.5 -158
c0 -34 3.33301 -65.667 10 -95s18 -54.833 34 -76.5s37 -38.667 63 -51s58 -18.5 96 -18.5c52 0 97 11.833 135 35.5s69.333 55.334 94 95.001s43 85.5 55 137.5s18 106.667 18 164c0 34.667 -3.66699 67 -11 97s-19.166 56 -35.499 78s-37.666 39.333 -63.999 52
s-58.5 19 -96.5 19zM535.998 756.998c1.33301 -3.33301 1.33301 -6 0 -8l-7 -5c-2.66699 -2.66699 -5.66699 -2.66699 -9 0l-104 87l-127 -86c-4 -2.66699 -7 -3 -9 -1l-5 7c-2 2 -1 4.66699 3 8l113 87l14 9c4 2.66699 9 4 15 4c6.66699 0 11.667 -1.16699 15 -3.5
s7 -5.5 11 -9.5z" />
    <glyph glyph-name="Otilde" unicode="&#xd5;" horiz-adv-x="644" 
d="M393 711c75.333 0 132.333 -23.001 171 -69.001s58 -112 58 -198c0 -62 -6.66699 -120.667 -20 -176s-33.5 -103.666 -60.5 -144.999s-61 -74 -102 -98s-89.5 -36 -145.5 -36c-40.667 0 -75.167 6.5 -103.5 19.5s-51.333 31.167 -69 54.5s-30.5 50.833 -38.5 82.5
s-12 66.167 -12 103.5c0 72 7.83301 136.5 23.5 193.5s37.834 105.333 66.501 145s62.667 70.167 102 91.5s82.666 32 129.999 32zM392 688.999c-53.333 0 -98.835 -12.834 -136.502 -38.501s-68.5 -59.167 -92.5 -100.5s-41.5 -88 -52.5 -140s-16.5 -104.667 -16.5 -158
c0 -34 3.33301 -65.667 10 -95s18 -54.833 34 -76.5s37 -38.667 63 -51s58 -18.5 96 -18.5c52 0 97 11.833 135 35.5s69.333 55.334 94 95.001s43 85.5 55 137.5s18 106.667 18 164c0 34.667 -3.66699 67 -11 97s-19.166 56 -35.499 78s-37.666 39.333 -63.999 52
s-58.5 19 -96.5 19zM478.998 752.998c-11.333 0 -22.668 2.3291 -34.001 6.99609s-22.5 9.83398 -33.5 15.501s-21.667 10.834 -32 15.501s-19.833 7 -28.5 7c-15.333 0 -28.833 -3.16699 -40.5 -9.5s-22.5 -15.166 -32.5 -26.499c-4 -4 -7.33301 -4.66699 -10 -2l-7 5
c-2.66699 2 -2 5 2 9c16 20 32.333 32.5 49 37.5s31 7.5 43 7.5c10 0 20.5 -2.33301 31.5 -7s22 -9.66699 33 -15s21.833 -10.333 32.5 -15s21 -7 31 -7c15.333 0 27.833 2.83301 37.5 8.5s19.834 14.834 30.501 27.501c2 2.66699 3.5 4 4.5 4s2.16699 -0.333008 3.5 -1
l7 -5c3.33301 -2 4.33301 -4.33301 3 -7c-17.333 -22 -33.5 -35.667 -48.5 -41s-28.833 -8 -41.5 -8z" />
    <glyph glyph-name="Odieresis" unicode="&#xd6;" horiz-adv-x="644" 
d="M393 711c75.333 0 132.333 -23.001 171 -69.001s58 -112 58 -198c0 -62 -6.66699 -120.667 -20 -176s-33.5 -103.666 -60.5 -144.999s-61 -74 -102 -98s-89.5 -36 -145.5 -36c-40.667 0 -75.167 6.5 -103.5 19.5s-51.333 31.167 -69 54.5s-30.5 50.833 -38.5 82.5
s-12 66.167 -12 103.5c0 72 7.83301 136.5 23.5 193.5s37.834 105.333 66.501 145s62.667 70.167 102 91.5s82.666 32 129.999 32zM392 688.999c-53.333 0 -98.835 -12.834 -136.502 -38.501s-68.5 -59.167 -92.5 -100.5s-41.5 -88 -52.5 -140s-16.5 -104.667 -16.5 -158
c0 -34 3.33301 -65.667 10 -95s18 -54.833 34 -76.5s37 -38.667 63 -51s58 -18.5 96 -18.5c52 0 97 11.833 135 35.5s69.333 55.334 94 95.001s43 85.5 55 137.5s18 106.667 18 164c0 34.667 -3.66699 67 -11 97s-19.166 56 -35.499 78s-37.666 39.333 -63.999 52
s-58.5 19 -96.5 19zM318.998 786.998c0.666992 6 3.16895 11 7.50195 15s10.166 6 17.499 6c6 0 10.667 -2 14 -6s4.66602 -9 3.99902 -15c-3.33301 -16 -11.333 -24 -24 -24c-16 0 -22.333 8 -19 24zM473 786.998c0.666992 6 3.16602 11.001 7.49902 15.001
s10.166 6 17.499 6c6 0 10.833 -2 14.5 -6s5.16699 -9 4.5 -15c-3.33301 -16 -11.666 -24 -24.999 -24c-7.33301 0 -12.666 2.16699 -15.999 6.5s-4.33301 10.166 -3 17.499z" />
    <glyph glyph-name="multiply" unicode="&#xd7;" horiz-adv-x="540" 
d="M277 342l-155.001 186.999c-2.66699 2.66699 -2.33398 5 0.999023 7l9 9c2.66699 2 5 2 7 0l156 -186l207 186c2.66699 2.66699 5 2.66699 7 0l8 -9c0.666992 -3.33301 0.333984 -5.66602 -0.999023 -6.99902l-208 -187l154 -186
c2.66699 -2.66699 2.33398 -5 -0.999023 -7l-10 -9c-2.66699 -2.66699 -5 -2.66699 -7 0l-154 186l-207 -186c-2.66699 -2.66699 -5 -2.66699 -7 0l-7 9c-1.33301 2.66699 -1 5 1 7z" />
    <glyph glyph-name="Oslash" unicode="&#xd8;" horiz-adv-x="644" 
d="M393 711c43.333 0 80.334 -7.66797 111.001 -23.001s55.667 -38 75 -68l74 84c3.33301 3.33301 6.33301 4 9 2l8 -7c0 -2.66699 -0.333008 -5 -1 -7l-80 -90c22 -42 33 -94.667 33 -158c0 -62 -6.66699 -120.667 -20 -176s-33.5 -103.666 -60.5 -144.999
s-61 -74 -102 -98s-89.5 -36 -145.5 -36c-42 0 -77.5 7 -106.5 21s-52.167 33.333 -69.5 58l-64 -72c-2.66699 -2.66699 -6 -3 -10 -1l-6 4c-2.66699 2 -2 5 2 9l67 76c-12.667 22 -21.834 47 -27.501 75s-8.5 58 -8.5 90c0 72 7.83301 136.5 23.5 193.5
s37.834 105.333 66.501 145s62.667 70.167 102 91.5s82.666 32 129.999 32zM392.001 688.999c-53.333 0 -98.832 -12.834 -136.499 -38.501s-68.5 -59.167 -92.5 -100.5s-41.5 -88 -52.5 -140s-16.5 -104.667 -16.5 -158c0 -28.667 2.16699 -55.5 6.5 -80.5
s12.166 -47.833 23.499 -68.5l439 499c-15.333 26.667 -37 47.834 -65 63.501s-63.333 23.5 -106 23.5zM599.002 442.998c0 26.667 -2 51.8311 -6 75.498s-10.667 45.167 -20 64.5l-439 -497c15.333 -23.333 36.333 -41.666 63 -54.999s60 -20 100 -20
c52 0 97 11.833 135 35.5s69.333 55.334 94 95.001s43 85.5 55 137.5s18 106.667 18 164z" />
    <glyph glyph-name="Ugrave" unicode="&#xd9;" horiz-adv-x="640" 
d="M113 297c-7.33301 -52 -10.499 -96.1689 -9.49902 -132.502s9.16699 -65.833 24.5 -88.5s39.166 -39 71.499 -49s76.5 -15 132.5 -15c5.33301 0 14.666 0.333008 27.999 1s28.833 1.66699 46.5 3s36.5 3.33301 56.5 6s39.667 6 59 10l93 663c0.666992 4 3 6 7 6h13
c3.33301 0 4.66602 -2 3.99902 -6l-92 -655c-1.33301 -9.33301 -4.16602 -16.666 -8.49902 -21.999s-11.5 -9 -21.5 -11c-12.667 -2.66699 -27.667 -5.16699 -45 -7.5s-34.833 -4.16602 -52.5 -5.49902s-34.5 -2.5 -50.5 -3.5s-29 -1.5 -39 -1.5
c-53.333 0 -97.333 4.33301 -132 13s-61.667 24.167 -81 46.5s-31.166 52.5 -35.499 90.5s-2.5 86 5.5 144l58 412c0.666992 4 3 6 7 6h12c4 0 5.66699 -2 5 -6zM314.001 822.998c-4 2.66699 -4.00098 6.00098 -0.000976562 10.001l16 17
c2.66699 2.66699 4.83398 3.66699 6.50098 3s4.16699 -2.33398 7.5 -5.00098l107 -80c2.66699 -2 3 -4 1 -6l-9 -9c-0.666992 -2 -2.66699 -2.33301 -6 -1z" />
    <glyph glyph-name="Uacute" unicode="&#xda;" horiz-adv-x="640" 
d="M113 297c-7.33301 -52 -10.499 -96.1689 -9.49902 -132.502s9.16699 -65.833 24.5 -88.5s39.166 -39 71.499 -49s76.5 -15 132.5 -15c5.33301 0 14.666 0.333008 27.999 1s28.833 1.66699 46.5 3s36.5 3.33301 56.5 6s39.667 6 59 10l93 663c0.666992 4 3 6 7 6h13
c3.33301 0 4.66602 -2 3.99902 -6l-92 -655c-1.33301 -9.33301 -4.16602 -16.666 -8.49902 -21.999s-11.5 -9 -21.5 -11c-12.667 -2.66699 -27.667 -5.16699 -45 -7.5s-34.833 -4.16602 -52.5 -5.49902s-34.5 -2.5 -50.5 -3.5s-29 -1.5 -39 -1.5
c-53.333 0 -97.333 4.33301 -132 13s-61.667 24.167 -81 46.5s-31.166 52.5 -35.499 90.5s-2.5 86 5.5 144l58 412c0.666992 4 3 6 7 6h12c4 0 5.66699 -2 5 -6zM358.001 751.998c-3.33301 -1.33301 -5.66699 -1 -7 1l-4 9c-2 2 -1.66699 4 1 6l131 80
c7.33301 5.33301 11.666 6 12.999 2l13 -17c2.66699 -4 1.33398 -7.33301 -3.99902 -10z" />
    <glyph glyph-name="Ucircumflex" unicode="&#xdb;" horiz-adv-x="640" 
d="M113 297c-7.33301 -52 -10.499 -96.1689 -9.49902 -132.502s9.16699 -65.833 24.5 -88.5s39.166 -39 71.499 -49s76.5 -15 132.5 -15c5.33301 0 14.666 0.333008 27.999 1s28.833 1.66699 46.5 3s36.5 3.33301 56.5 6s39.667 6 59 10l93 663c0.666992 4 3 6 7 6h13
c3.33301 0 4.66602 -2 3.99902 -6l-92 -655c-1.33301 -9.33301 -4.16602 -16.666 -8.49902 -21.999s-11.5 -9 -21.5 -11c-12.667 -2.66699 -27.667 -5.16699 -45 -7.5s-34.833 -4.16602 -52.5 -5.49902s-34.5 -2.5 -50.5 -3.5s-29 -1.5 -39 -1.5
c-53.333 0 -97.333 4.33301 -132 13s-61.667 24.167 -81 46.5s-31.166 52.5 -35.499 90.5s-2.5 86 5.5 144l58 412c0.666992 4 3 6 7 6h12c4 0 5.66699 -2 5 -6zM523.001 756.998c1.33301 -3.33301 1.33301 -6 0 -8l-7 -5c-2.66699 -2.66699 -5.66699 -2.66699 -9 0l-104 87
l-127 -86c-4 -2.66699 -7 -3 -9 -1l-5 7c-2 2 -1 4.66699 3 8l113 87l14 9c4 2.66699 9 4 15 4c6.66699 0 11.667 -1.16699 15 -3.5s7 -5.5 11 -9.5z" />
    <glyph glyph-name="Udieresis" unicode="&#xdc;" horiz-adv-x="640" 
d="M113 297c-7.33301 -52 -10.499 -96.1689 -9.49902 -132.502s9.16699 -65.833 24.5 -88.5s39.166 -39 71.499 -49s76.5 -15 132.5 -15c5.33301 0 14.666 0.333008 27.999 1s28.833 1.66699 46.5 3s36.5 3.33301 56.5 6s39.667 6 59 10l93 663c0.666992 4 3 6 7 6h13
c3.33301 0 4.66602 -2 3.99902 -6l-92 -655c-1.33301 -9.33301 -4.16602 -16.666 -8.49902 -21.999s-11.5 -9 -21.5 -11c-12.667 -2.66699 -27.667 -5.16699 -45 -7.5s-34.833 -4.16602 -52.5 -5.49902s-34.5 -2.5 -50.5 -3.5s-29 -1.5 -39 -1.5
c-53.333 0 -97.333 4.33301 -132 13s-61.667 24.167 -81 46.5s-31.166 52.5 -35.499 90.5s-2.5 86 5.5 144l58 412c0.666992 4 3 6 7 6h12c4 0 5.66699 -2 5 -6zM300.001 791.998c0.666992 6 3.16895 11 7.50195 15s10.166 6 17.499 6c6 0 10.667 -2 14 -6
s4.66602 -9 3.99902 -15c-3.33301 -16 -11.333 -24 -24 -24c-16 0 -22.333 8 -19 24zM454.003 791.998c0.666992 6 3.16602 11.001 7.49902 15.001s10.166 6 17.499 6c6 0 10.833 -2 14.5 -6s5.16699 -9 4.5 -15c-3.33301 -16 -11.666 -24 -24.999 -24
c-7.33301 0 -12.666 2.16699 -15.999 6.5s-4.33301 10.166 -3 17.499z" />
    <glyph glyph-name="Yacute" unicode="&#xdd;" horiz-adv-x="467" 
d="M499 696c1.33301 3.33301 4.33496 5.00098 9.00195 5.00098h17c2.66699 0 4 -1 4 -3c0 -0.666992 -0.333008 -1.33398 -1 -2.00098l-264 -397l-42 -293c0 -4 -1.66699 -6 -5 -6h-13c-4 0 -6 2 -6 6l41 291l-156 399c-0.666992 0.666992 -0.833984 1.66699 -0.500977 3
s2.16602 2 5.49902 2h15c4 0 6 -1.66699 6 -5l91 -230l52 -137h4l89 136zM282.002 752.001c-3.33301 -1.33301 -5.66699 -1 -7 1l-4 9c-2 2 -1.66699 4 1 6l131 80c7.33301 5.33301 11.666 6 12.999 2l13 -17c2.66699 -4 1.33398 -7.33301 -3.99902 -10z" />
    <glyph glyph-name="Thorn" unicode="&#xde;" horiz-adv-x="543" 
d="M100 205l216 0.00292969c28 0 53.667 4.16699 77 12.5s43.5 20.666 60.5 36.999s30.167 36.666 39.5 60.999s14 52.5 14 84.5c0 18 -2.33301 35.5 -7 52.5s-12.667 32.167 -24 45.5s-26.5 24.166 -45.5 32.499s-42.5 12.5 -70.5 12.5h-212zM368 567.003
c52.667 0 93.332 -15.3311 121.999 -45.998s43 -70.667 43 -120c0 -15.333 -2.33301 -35.333 -7 -60s-14.667 -48.834 -30 -72.501s-38.166 -44.167 -68.499 -61.5s-70.833 -26 -121.5 -26h-209l-25 -175c0 -2.66699 -0.666992 -4.33398 -2 -5.00098
c-0.666992 -0.666992 -2 -1 -4 -1h-12c-4 0 -6 2 -6 6l97 689c0.666992 4 3 6 7 6h12c4 0 5.66699 -2 5 -6l-18 -128h217z" />
    <glyph glyph-name="germandbls" unicode="&#xdf;" horiz-adv-x="506" 
d="M311 731c28.667 0 53.3389 -4.66895 74.0059 -14.002s37.5 -21.5 50.5 -36.5s22.5 -31.667 28.5 -50s9 -36.5 9 -54.5c0 -10 -1.5 -22.5 -4.5 -37.5s-8.66699 -30.5 -17 -46.5s-20.166 -31.5 -35.499 -46.5s-35 -27.5 -59 -37.5v-2c21.333 -6 39.166 -15.333 53.499 -28
s25.666 -27.167 33.999 -43.5s14.166 -33.833 17.499 -52.5s5 -37 5 -55c0 -36.667 -5 -70.334 -15 -101.001s-24.833 -57 -44.5 -79s-43.834 -39.167 -72.501 -51.5s-61.667 -18.5 -99 -18.5c-5.33301 0 -8 1.66699 -8 5l1 9c0.666992 4.66699 3.66699 7 9 7
c30 0 57.667 5 83 15s47 24.5 65 43.5s32.167 42.5 42.5 70.5s15.5 60 15.5 96c0 24.667 -3 47.5 -9 68.5s-15 39 -27 54s-26.833 26.667 -44.5 35s-37.834 12.5 -60.501 12.5c-6 0 -9.5 0.833008 -10.5 2.5s-1.16699 3.5 -0.5 5.5l1 7c0.666992 6.66699 5 10 13 10
c18.667 0 36.667 4.5 54 13.5s32.666 20.833 45.999 35.5s24 31.167 32 49.5s12 37.166 12 56.499c0 16.667 -2.66699 33.334 -8 50.001s-13.833 31.334 -25.5 44.001s-26.5 23 -44.5 31s-39.333 12 -64 12c-32 0 -58.5 -6.16699 -79.5 -18.5s-38.167 -27.666 -51.5 -45.999
s-23.333 -38.166 -30 -59.499s-11.334 -41.333 -14.001 -60l-73 -521c0 -3.33301 -1.33301 -5 -4 -5h-13c-3.33301 0 -5 1.66699 -5 5l73 519c10 70 32.5 122 67.5 156s79.167 51 132.5 51z" />
    <glyph glyph-name="agrave" unicode="&#xe0;" horiz-adv-x="514" 
d="M327 536c27.333 0 54.832 -2.16992 82.499 -6.50293s52.167 -11.166 73.5 -20.499c8.66699 -3.33301 12.334 -11.333 11.001 -24l-32.5 -222.5l-30.5 -222.5c-0.666992 -5.33301 -2 -10.166 -4 -14.499s-6.33301 -7.83301 -13 -10.5
c-27.333 -9.33301 -53.666 -16 -78.999 -20s-52 -6 -80 -6c-66.667 0 -117.334 17.167 -152.001 51.5s-52 84.5 -52 150.5c0 50.667 6.16699 97.167 18.5 139.5s30.333 78.833 54 109.5s52.5 54.334 86.5 71.001s73 25 117 25zM317.999 515.997
c-34.667 0 -67 -6.99805 -97 -20.998s-56 -34.667 -78 -62s-39.333 -61 -52 -101s-19 -86 -19 -138c0 -34 4.66699 -62.667 14 -86s22.333 -42.333 39 -57s36.667 -25.334 60 -32.001s49 -10 77 -10c13.333 0 33 1.16699 59 3.5s55.667 10.5 89 24.5l30.5 225l32.5 227
c-28 11.333 -55.833 18.666 -83.5 21.999s-51.5 5 -71.5 5zM239.999 732.999c-3.33301 3.33301 -2.66699 6.33301 2 9l23 9c4 1.33301 7.66699 -0.666992 11 -6l74 -114c1.33301 -2 0.333008 -4.33301 -3 -7l-6 -4c-4 -2.66699 -6.66699 -2.66699 -8 0z" />
    <glyph glyph-name="aacute" unicode="&#xe1;" horiz-adv-x="514" 
d="M327 536c27.333 0 54.832 -2.16992 82.499 -6.50293s52.167 -11.166 73.5 -20.499c8.66699 -3.33301 12.334 -11.333 11.001 -24l-32.5 -222.5l-30.5 -222.5c-0.666992 -5.33301 -2 -10.166 -4 -14.499s-6.33301 -7.83301 -13 -10.5
c-27.333 -9.33301 -53.666 -16 -78.999 -20s-52 -6 -80 -6c-66.667 0 -117.334 17.167 -152.001 51.5s-52 84.5 -52 150.5c0 50.667 6.16699 97.167 18.5 139.5s30.333 78.833 54 109.5s52.5 54.334 86.5 71.001s73 25 117 25zM317.999 515.997
c-34.667 0 -67 -6.99805 -97 -20.998s-56 -34.667 -78 -62s-39.333 -61 -52 -101s-19 -86 -19 -138c0 -34 4.66699 -62.667 14 -86s22.333 -42.333 39 -57s36.667 -25.334 60 -32.001s49 -10 77 -10c13.333 0 33 1.16699 59 3.5s55.667 10.5 89 24.5l30.5 225l32.5 227
c-28 11.333 -55.833 18.666 -83.5 21.999s-51.5 5 -71.5 5zM307.999 611.999c-2.66699 -2.66699 -5.66504 -3.33203 -8.99805 -1.99902l-7 3c-2.66699 0.666992 -3.33398 2.66699 -2.00098 6l80 129c4 6 7.66699 8.66699 11 8l22 -3
c5.33301 -0.666992 6.66602 -3.33398 3.99902 -8.00098z" />
    <glyph glyph-name="acircumflex" unicode="&#xe2;" horiz-adv-x="514" 
d="M327 536c27.333 0 54.832 -2.16992 82.499 -6.50293s52.167 -11.166 73.5 -20.499c8.66699 -3.33301 12.334 -11.333 11.001 -24l-32.5 -222.5l-30.5 -222.5c-0.666992 -5.33301 -2 -10.166 -4 -14.499s-6.33301 -7.83301 -13 -10.5
c-27.333 -9.33301 -53.666 -16 -78.999 -20s-52 -6 -80 -6c-66.667 0 -117.334 17.167 -152.001 51.5s-52 84.5 -52 150.5c0 50.667 6.16699 97.167 18.5 139.5s30.333 78.833 54 109.5s52.5 54.334 86.5 71.001s73 25 117 25zM317.999 515.997
c-34.667 0 -67 -6.99805 -97 -20.998s-56 -34.667 -78 -62s-39.333 -61 -52 -101s-19 -86 -19 -138c0 -34 4.66699 -62.667 14 -86s22.333 -42.333 39 -57s36.667 -25.334 60 -32.001s49 -10 77 -10c13.333 0 33 1.16699 59 3.5s55.667 10.5 89 24.5l30.5 225l32.5 227
c-28 11.333 -55.833 18.666 -83.5 21.999s-51.5 5 -71.5 5zM470.999 625.999c2.66699 -3.33301 2.33203 -6.33301 -1.00098 -9l-6 -5c-4 -2.66699 -7 -3 -9 -1l-101 114l-133 -112c-2.66699 -2 -5.66699 -1.66699 -9 1l-4 5c-2.66699 2.66699 -2 5.66699 2 9l120 111
l13.5 11.5c3.66699 3 8.5 4.5 14.5 4.5c7.33301 0 12.333 -1.33301 15 -4s6.33398 -6.66699 11.001 -12z" />
    <glyph glyph-name="atilde" unicode="&#xe3;" horiz-adv-x="514" 
d="M327 536c27.333 0 54.832 -2.16992 82.499 -6.50293s52.167 -11.166 73.5 -20.499c8.66699 -3.33301 12.334 -11.333 11.001 -24l-32.5 -222.5l-30.5 -222.5c-0.666992 -5.33301 -2 -10.166 -4 -14.499s-6.33301 -7.83301 -13 -10.5
c-27.333 -9.33301 -53.666 -16 -78.999 -20s-52 -6 -80 -6c-66.667 0 -117.334 17.167 -152.001 51.5s-52 84.5 -52 150.5c0 50.667 6.16699 97.167 18.5 139.5s30.333 78.833 54 109.5s52.5 54.334 86.5 71.001s73 25 117 25zM317.999 515.997
c-34.667 0 -67 -6.99805 -97 -20.998s-56 -34.667 -78 -62s-39.333 -61 -52 -101s-19 -86 -19 -138c0 -34 4.66699 -62.667 14 -86s22.333 -42.333 39 -57s36.667 -25.334 60 -32.001s49 -10 77 -10c13.333 0 33 1.16699 59 3.5s55.667 10.5 89 24.5l30.5 225l32.5 227
c-28 11.333 -55.833 18.666 -83.5 21.999s-51.5 5 -71.5 5zM402.999 646.999c-11.333 0 -22.668 2.3291 -34.001 6.99609s-22.5 9.83398 -33.5 15.501s-21.667 10.834 -32 15.501s-19.833 7 -28.5 7c-15.333 0 -28.833 -3.16699 -40.5 -9.5s-22.5 -15.166 -32.5 -26.499
c-4 -4 -7.33301 -4.66699 -10 -2l-7 5c-2.66699 2 -2 5 2 9c16 20 32.333 32.5 49 37.5s31 7.5 43 7.5c10 0 20.5 -2.33301 31.5 -7s22 -9.66699 33 -15s21.833 -10.333 32.5 -15s21 -7 31 -7c15.333 0 27.833 2.83301 37.5 8.5s19.834 14.834 30.501 27.501
c2 2.66699 3.5 4 4.5 4s2.16699 -0.333008 3.5 -1l7 -5c3.33301 -2 4.33301 -4.33301 3 -7c-17.333 -22 -33.5 -35.667 -48.5 -41s-28.833 -8 -41.5 -8z" />
    <glyph glyph-name="adieresis" unicode="&#xe4;" horiz-adv-x="514" 
d="M327 536c27.333 0 54.832 -2.16992 82.499 -6.50293s52.167 -11.166 73.5 -20.499c8.66699 -3.33301 12.334 -11.333 11.001 -24l-32.5 -222.5l-30.5 -222.5c-0.666992 -5.33301 -2 -10.166 -4 -14.499s-6.33301 -7.83301 -13 -10.5
c-27.333 -9.33301 -53.666 -16 -78.999 -20s-52 -6 -80 -6c-66.667 0 -117.334 17.167 -152.001 51.5s-52 84.5 -52 150.5c0 50.667 6.16699 97.167 18.5 139.5s30.333 78.833 54 109.5s52.5 54.334 86.5 71.001s73 25 117 25zM317.999 515.997
c-34.667 0 -67 -6.99805 -97 -20.998s-56 -34.667 -78 -62s-39.333 -61 -52 -101s-19 -86 -19 -138c0 -34 4.66699 -62.667 14 -86s22.333 -42.333 39 -57s36.667 -25.334 60 -32.001s49 -10 77 -10c13.333 0 33 1.16699 59 3.5s55.667 10.5 89 24.5l30.5 225l32.5 227
c-28 11.333 -55.833 18.666 -83.5 21.999s-51.5 5 -71.5 5zM259.999 678.999c0.666992 6 3.16895 11 7.50195 15s10.166 6 17.499 6c6 0 10.667 -2 14 -6s4.66602 -9 3.99902 -15c-3.33301 -16 -11.333 -24 -24 -24c-16 0 -22.333 8 -19 24zM414.001 678.999
c0.666992 6 3.16602 11.001 7.49902 15.001s10.166 6 17.499 6c6 0 10.833 -2 14.5 -6s5.16699 -9 4.5 -15c-3.33301 -16 -11.666 -24 -24.999 -24c-7.33301 0 -12.666 2.16699 -15.999 6.5s-4.33301 10.166 -3 17.499z" />
    <glyph glyph-name="aring" unicode="&#xe5;" horiz-adv-x="514" 
d="M327 536c27.333 0 54.832 -2.16992 82.499 -6.50293s52.167 -11.166 73.5 -20.499c8.66699 -3.33301 12.334 -11.333 11.001 -24l-32.5 -222.5l-30.5 -222.5c-0.666992 -5.33301 -2 -10.166 -4 -14.499s-6.33301 -7.83301 -13 -10.5
c-27.333 -9.33301 -53.666 -16 -78.999 -20s-52 -6 -80 -6c-66.667 0 -117.334 17.167 -152.001 51.5s-52 84.5 -52 150.5c0 50.667 6.16699 97.167 18.5 139.5s30.333 78.833 54 109.5s52.5 54.334 86.5 71.001s73 25 117 25zM317.999 515.997
c-34.667 0 -67 -6.99805 -97 -20.998s-56 -34.667 -78 -62s-39.333 -61 -52 -101s-19 -86 -19 -138c0 -34 4.66699 -62.667 14 -86s22.333 -42.333 39 -57s36.667 -25.334 60 -32.001s49 -10 77 -10c13.333 0 33 1.16699 59 3.5s55.667 10.5 89 24.5l30.5 225l32.5 227
c-28 11.333 -55.833 18.666 -83.5 21.999s-51.5 5 -71.5 5zM378.999 756.999c18 0 32.501 -5.16699 43.501 -15.5s16.5 -24.166 16.5 -41.499c0 -23.333 -7.66699 -42.5 -23 -57.5s-34 -22.5 -56 -22.5c-17.333 0 -32 5.16699 -44 15.5s-18 24.166 -18 41.499
c0 23.333 8.16699 42.5 24.5 57.5s35.166 22.5 56.499 22.5zM377 740.999c-15.333 0 -29.5 -5.66797 -42.5 -17.001s-19.5 -25.666 -19.5 -42.999c0 -13.333 4.66699 -24 14 -32s20.333 -12 33 -12c16.667 0 30.834 5.5 42.501 16.5s17.5 25.5 17.5 43.5
c0 12.667 -3.83301 23.167 -11.5 31.5s-18.834 12.5 -33.501 12.5z" />
    <glyph glyph-name="ae" unicode="&#xe6;" horiz-adv-x="820" 
d="M270 513c-18.667 0 -40.334 -1.83301 -65.001 -5.5s-51 -10.167 -79 -19.5c-3.33301 -1.33301 -5.33301 -0.333008 -6 3l-4 11c-0.666992 3.33301 1 6 5 8c18 7.33301 41 13.5 69 18.5s56 7.5 84 7.5c52.667 0 92.334 -12.5 119.001 -37.5s39 -58.833 37 -101.5
c22 45.333 51.667 79.833 89 103.5s81 35.5 131 35.5c28 0 51.833 -4.16699 71.5 -12.5s35.667 -19 48 -32s21.333 -27.5 27 -43.5s8.5 -31.667 8.5 -47c0 -54 -20.167 -93 -60.5 -117s-102.166 -36 -185.499 -36c-20 0 -43.167 1.16699 -69.5 3.5
s-51.166 5.16602 -74.499 8.49902c-1.33301 -11.333 -2.83301 -23.166 -4.5 -35.499s-2.5 -23.166 -2.5 -32.499c0 -61.333 14.667 -107 44 -137s70 -45 122 -45c22 0 43.5 2.5 64.5 7.5s40.5 11.5 58.5 19.5c1.33301 0.666992 2.66602 1.16699 3.99902 1.5
s2.66602 -0.5 3.99902 -2.5l6 -10c1.33301 -2 1.5 -3.33301 0.5 -4s-1.83301 -1.33398 -2.5 -2.00098c-19.333 -10 -41.666 -17.667 -66.999 -23s-49.333 -8 -72 -8c-64.667 0 -112.334 20.333 -143.001 61c-37.333 -19.333 -75 -34.333 -113 -45s-75.667 -16 -113 -16
c-34 0 -62 3.5 -84 10.5s-39.333 16.333 -52 28s-21.5 25 -26.5 40s-7.5 30.167 -7.5 45.5c0 64.667 17.833 112 53.5 142s89.167 45 160.5 45c19.333 0 41.333 -1 66 -3s53 -5.33301 85 -10c4 18.667 7.16699 37.167 9.5 55.5s3.5 31.833 3.5 40.5
c0 44 -10.667 76.667 -32 98s-57 32 -107 32zM202 10c30 0 63.334 4.50195 100.001 13.502s74 24.167 112 45.5c-8.66699 15.333 -15.334 33 -20.001 53s-7 42.667 -7 68c0 22 2 46.667 6 74c-30 5.33301 -57 9 -81 11s-46 3 -66 3c-36 0 -66.333 -3.83301 -91 -11.5
s-44.5 -18.5 -59.5 -32.5s-25.833 -30.833 -32.5 -50.5s-10 -41.834 -10 -66.501c0 -22.667 4.66699 -41 14 -55s21.166 -24.833 35.499 -32.5s30.333 -12.834 48 -15.501s34.834 -4 51.501 -4zM648.001 514.002c-32.667 0 -62.1699 -5.67285 -88.5029 -17.0059
s-49.166 -27.333 -68.499 -48s-35.166 -45.167 -47.499 -73.5s-20.833 -59.5 -25.5 -93.5c22 -3.33301 46.167 -6.16602 72.5 -8.49902s49.5 -3.5 69.5 -3.5c34.667 0 65.834 1.83301 93.501 5.5s51 10.334 70 20.001s33.5 22.834 43.5 39.501s15 38.334 15 65.001
c0 14.667 -2.5 28.834 -7.5 42.501s-13 25.834 -24 36.501s-24.833 19.167 -41.5 25.5s-37 9.5 -61 9.5z" />
    <glyph glyph-name="ccedilla" unicode="&#xe7;" horiz-adv-x="440" 
d="M209 -71c-8 0 -11.332 3.33496 -9.99902 10.002c0 1.33301 0.333008 3 1 5s1.33398 3.66699 2.00098 5l20 41c-56.667 5.33301 -99.667 25.166 -129 59.499s-44 81.166 -44 140.499c0 55.333 6.5 104.5 19.5 147.5s30.833 79.167 53.5 108.5s49.5 51.666 80.5 66.999
s64.5 23 100.5 23c22.667 0 47.667 -3.33301 75 -10s50.666 -15.334 69.999 -26.001c2.66699 -2 3 -4.33301 1 -7l-4 -7c-2 -3.33301 -3.66699 -5 -5 -5s-3 0.666992 -5 2c-17.333 9.33301 -37.833 17.166 -61.5 23.499s-48.167 9.5 -73.5 9.5
c-40 0 -74.5 -9.5 -103.5 -28.5s-52.667 -43.667 -71 -74s-32 -64.666 -41 -102.999s-13.5 -76.833 -13.5 -115.5c0 -56 14.167 -100.833 42.5 -134.5s74.5 -50.5 138.5 -50.5c25.333 0 49.833 3.33301 73.5 10s45.5 14.667 65.5 24c2.66699 1.33301 5 0.333008 7 -3l4 -8
c2 -2.66699 1.33301 -5 -2 -7c-46.667 -24.667 -97 -37 -151 -37h-7l-19 -40c33.333 -1.33301 57.166 -9.16602 71.499 -23.499s21.5 -29.833 21.5 -46.5c0 -9.33301 -2 -18.666 -6 -27.999s-10 -17.833 -18 -25.5s-18 -13.834 -30 -18.501s-26 -7 -42 -7
c-18.667 0 -35.667 2.16699 -51 6.5s-26 8.16602 -32 11.499c-4 2 -4.66699 4.66699 -2 8l6 9c2 2.66699 3.83301 3.83398 5.5 3.50098s3.16699 -1.16602 4.5 -2.49902c9.33301 -5.33301 21 -9.33301 35 -12s25.667 -4 35 -4c25.333 0 43.833 6 55.5 18s17.5 24.667 17.5 38
c0 5.33301 -1.16699 11 -3.5 17s-6.33301 11.667 -12 17s-13.167 9.83301 -22.5 13.5s-21.333 5.5 -36 5.5h-11z" />
    <glyph glyph-name="egrave" unicode="&#xe8;" horiz-adv-x="481" 
d="M309 514c-32.667 0 -62 -6.00293 -88 -18.0029s-48.833 -28.5 -68.5 -49.5s-35.5 -45.833 -47.5 -74.5s-20.333 -60 -25 -94c22 -3.33301 46.167 -6.16602 72.5 -8.49902s49.5 -3.5 69.5 -3.5c70.667 0 125.167 9.83301 163.5 29.5s57.5 54.5 57.5 104.5
c0 14.667 -2.5 28.834 -7.5 42.501s-13 25.834 -24 36.501s-24.833 19.167 -41.5 25.5s-37 9.5 -61 9.5zM231 -11.0029c-56.667 0 -100.999 16.3311 -132.999 48.998s-48 83.334 -48 152.001c0 54.667 6.16699 103.334 18.5 146.001s29.833 78.834 52.5 108.501
s50 52.334 82 68.001s68 23.5 108 23.5c28 0 51.833 -4.16699 71.5 -12.5s35.667 -19 48 -32s21.333 -27.5 27 -43.5s8.5 -31.667 8.5 -47c0 -54 -20 -93.667 -60 -119s-101.667 -38 -185 -38c-20 0 -43.167 1.16699 -69.5 3.5s-51.166 5.16602 -74.499 8.49902
c-11.333 -80.667 -3 -141.834 25 -183.501s72.333 -62.5 133 -62.5c22 0 43.5 2.5 64.5 7.5s40.5 11.5 58.5 19.5c1.33301 0.666992 2.66602 1.16699 3.99902 1.5s2.66602 -0.5 3.99902 -2.5l5 -10c0.666992 -2 0.666992 -3.33301 0 -4l-2 -2
c-19.333 -10 -41.5 -17.667 -66.5 -23s-48.833 -8 -71.5 -8zM233.001 732.995c-3.33301 3.33301 -2.66699 6.33301 2 9l23 9c4 1.33301 7.66699 -0.666992 11 -6l74 -114c1.33301 -2 0.333008 -4.33301 -3 -7l-6 -4c-4 -2.66699 -6.66699 -2.66699 -8 0z" />
    <glyph glyph-name="eacute" unicode="&#xe9;" horiz-adv-x="481" 
d="M309 514c-32.667 0 -62 -6.00293 -88 -18.0029s-48.833 -28.5 -68.5 -49.5s-35.5 -45.833 -47.5 -74.5s-20.333 -60 -25 -94c22 -3.33301 46.167 -6.16602 72.5 -8.49902s49.5 -3.5 69.5 -3.5c70.667 0 125.167 9.83301 163.5 29.5s57.5 54.5 57.5 104.5
c0 14.667 -2.5 28.834 -7.5 42.501s-13 25.834 -24 36.501s-24.833 19.167 -41.5 25.5s-37 9.5 -61 9.5zM231 -11.0029c-56.667 0 -100.999 16.3311 -132.999 48.998s-48 83.334 -48 152.001c0 54.667 6.16699 103.334 18.5 146.001s29.833 78.834 52.5 108.501
s50 52.334 82 68.001s68 23.5 108 23.5c28 0 51.833 -4.16699 71.5 -12.5s35.667 -19 48 -32s21.333 -27.5 27 -43.5s8.5 -31.667 8.5 -47c0 -54 -20 -93.667 -60 -119s-101.667 -38 -185 -38c-20 0 -43.167 1.16699 -69.5 3.5s-51.166 5.16602 -74.499 8.49902
c-11.333 -80.667 -3 -141.834 25 -183.501s72.333 -62.5 133 -62.5c22 0 43.5 2.5 64.5 7.5s40.5 11.5 58.5 19.5c1.33301 0.666992 2.66602 1.16699 3.99902 1.5s2.66602 -0.5 3.99902 -2.5l5 -10c0.666992 -2 0.666992 -3.33301 0 -4l-2 -2
c-19.333 -10 -41.5 -17.667 -66.5 -23s-48.833 -8 -71.5 -8zM312.001 611.995c-2.66699 -2.66699 -5.66504 -3.33203 -8.99805 -1.99902l-7 3c-2.66699 0.666992 -3.33398 2.66699 -2.00098 6l80 129c4 6 7.66699 8.66699 11 8l22 -3
c5.33301 -0.666992 6.66602 -3.33398 3.99902 -8.00098z" />
    <glyph glyph-name="ecircumflex" unicode="&#xea;" horiz-adv-x="481" 
d="M309 514c-32.667 0 -62 -6.00293 -88 -18.0029s-48.833 -28.5 -68.5 -49.5s-35.5 -45.833 -47.5 -74.5s-20.333 -60 -25 -94c22 -3.33301 46.167 -6.16602 72.5 -8.49902s49.5 -3.5 69.5 -3.5c70.667 0 125.167 9.83301 163.5 29.5s57.5 54.5 57.5 104.5
c0 14.667 -2.5 28.834 -7.5 42.501s-13 25.834 -24 36.501s-24.833 19.167 -41.5 25.5s-37 9.5 -61 9.5zM231 -11.0029c-56.667 0 -100.999 16.3311 -132.999 48.998s-48 83.334 -48 152.001c0 54.667 6.16699 103.334 18.5 146.001s29.833 78.834 52.5 108.501
s50 52.334 82 68.001s68 23.5 108 23.5c28 0 51.833 -4.16699 71.5 -12.5s35.667 -19 48 -32s21.333 -27.5 27 -43.5s8.5 -31.667 8.5 -47c0 -54 -20 -93.667 -60 -119s-101.667 -38 -185 -38c-20 0 -43.167 1.16699 -69.5 3.5s-51.166 5.16602 -74.499 8.49902
c-11.333 -80.667 -3 -141.834 25 -183.501s72.333 -62.5 133 -62.5c22 0 43.5 2.5 64.5 7.5s40.5 11.5 58.5 19.5c1.33301 0.666992 2.66602 1.16699 3.99902 1.5s2.66602 -0.5 3.99902 -2.5l5 -10c0.666992 -2 0.666992 -3.33301 0 -4l-2 -2
c-19.333 -10 -41.5 -17.667 -66.5 -23s-48.833 -8 -71.5 -8zM448.001 624.995c2.66699 -3.33301 2.33203 -6.33301 -1.00098 -9l-6 -5c-4 -2.66699 -7 -3 -9 -1l-101 114l-133 -112c-2.66699 -2 -5.66699 -1.66699 -9 1l-4 5c-2.66699 2.66699 -2 5.66699 2 9l120 111
l13.5 11.5c3.66699 3 8.5 4.5 14.5 4.5c7.33301 0 12.333 -1.33301 15 -4s6.33398 -6.66699 11.001 -12z" />
    <glyph glyph-name="edieresis" unicode="&#xeb;" horiz-adv-x="481" 
d="M309 514c-32.667 0 -62 -6.00293 -88 -18.0029s-48.833 -28.5 -68.5 -49.5s-35.5 -45.833 -47.5 -74.5s-20.333 -60 -25 -94c22 -3.33301 46.167 -6.16602 72.5 -8.49902s49.5 -3.5 69.5 -3.5c70.667 0 125.167 9.83301 163.5 29.5s57.5 54.5 57.5 104.5
c0 14.667 -2.5 28.834 -7.5 42.501s-13 25.834 -24 36.501s-24.833 19.167 -41.5 25.5s-37 9.5 -61 9.5zM231 -11.0029c-56.667 0 -100.999 16.3311 -132.999 48.998s-48 83.334 -48 152.001c0 54.667 6.16699 103.334 18.5 146.001s29.833 78.834 52.5 108.501
s50 52.334 82 68.001s68 23.5 108 23.5c28 0 51.833 -4.16699 71.5 -12.5s35.667 -19 48 -32s21.333 -27.5 27 -43.5s8.5 -31.667 8.5 -47c0 -54 -20 -93.667 -60 -119s-101.667 -38 -185 -38c-20 0 -43.167 1.16699 -69.5 3.5s-51.166 5.16602 -74.499 8.49902
c-11.333 -80.667 -3 -141.834 25 -183.501s72.333 -62.5 133 -62.5c22 0 43.5 2.5 64.5 7.5s40.5 11.5 58.5 19.5c1.33301 0.666992 2.66602 1.16699 3.99902 1.5s2.66602 -0.5 3.99902 -2.5l5 -10c0.666992 -2 0.666992 -3.33301 0 -4l-2 -2
c-19.333 -10 -41.5 -17.667 -66.5 -23s-48.833 -8 -71.5 -8zM229.001 675.995c0.666992 6 3.16895 11 7.50195 15s10.166 6 17.499 6c6 0 10.667 -2 14 -6s4.66602 -9 3.99902 -15c-3.33301 -16 -11.333 -24 -24 -24c-16 0 -22.333 8 -19 24zM383.003 675.995
c0.666992 6 3.16602 11.001 7.49902 15.001s10.166 6 17.499 6c6 0 10.833 -2 14.5 -6s5.16699 -9 4.5 -15c-3.33301 -16 -11.666 -24 -24.999 -24c-7.33301 0 -12.666 2.16699 -15.999 6.5s-4.33301 10.166 -3 17.499z" />
    <glyph glyph-name="igrave" unicode="&#xec;" horiz-adv-x="224" 
d="M73 733c-3.33301 3.33301 -2.66699 6.33301 2 9l23 9c4 1.33301 7.66699 -0.666992 11 -6l74 -114c1.33301 -2 0.333008 -4.33301 -3 -7l-6 -4c-4 -2.66699 -6.66699 -2.66699 -8 0zM144.999 520c0 3.33301 1.66699 5 5 5h12c3.33301 0 5 -1.66699 5 -5l-73 -515
c0 -3.33301 -1.66699 -5 -5 -5h-12c-3.33301 0 -5 1.66699 -5 5z" />
    <glyph glyph-name="iacute" unicode="&#xed;" horiz-adv-x="224" 
d="M178 612c-2.66699 -2.66699 -5.66504 -3.33203 -8.99805 -1.99902l-7 3c-2.66699 0.666992 -3.33398 2.66699 -2.00098 6l80 129c4 6 7.66699 8.66699 11 8l22 -3c5.33301 -0.666992 6.66602 -3.33398 3.99902 -8.00098zM145.002 520.002c0 3.33301 1.66699 5 5 5h12
c3.33301 0 5 -1.66699 5 -5l-73 -515c0 -3.33301 -1.66699 -5 -5 -5h-12c-3.33301 0 -5 1.66699 -5 5z" />
    <glyph glyph-name="icircumflex" unicode="&#xee;" horiz-adv-x="224" 
d="M296 625c2.66699 -3.33301 2.33203 -6.33301 -1.00098 -9l-6 -5c-4 -2.66699 -7 -3 -9 -1l-101 114l-133 -112c-2.66699 -2 -5.66699 -1.66699 -9 1l-4 5c-2.66699 2.66699 -2 5.66699 2 9l120 111l13.5 11.5c3.66699 3 8.5 4.5 14.5 4.5
c7.33301 0 12.333 -1.33301 15 -4s6.33398 -6.66699 11.001 -12zM144.998 520c0 3.33301 1.66699 5 5 5h12c3.33301 0 5 -1.66699 5 -5l-73 -515c0 -3.33301 -1.66699 -5 -5 -5h-12c-3.33301 0 -5 1.66699 -5 5z" />
    <glyph glyph-name="idieresis" unicode="&#xef;" horiz-adv-x="224" 
d="M75 669c0.666992 6 3.16895 11 7.50195 15s10.166 6 17.499 6c6 0 10.667 -2 14 -6s4.66602 -9 3.99902 -15c-3.33301 -16 -11.333 -24 -24 -24c-16 0 -22.333 8 -19 24zM229.002 669c0.666992 6 3.16602 11.001 7.49902 15.001s10.166 6 17.499 6c6 0 10.833 -2 14.5 -6
s5.16699 -9 4.5 -15c-3.33301 -16 -11.666 -24 -24.999 -24c-7.33301 0 -12.666 2.16699 -15.999 6.5s-4.33301 10.166 -3 17.499zM145.001 520.001c0 3.33301 1.66699 5 5 5h12c3.33301 0 5 -1.66699 5 -5l-73 -515c0 -3.33301 -1.66699 -5 -5 -5h-12
c-3.33301 0 -5 1.66699 -5 5z" />
    <glyph glyph-name="eth" unicode="&#xf0;" horiz-adv-x="503" 
d="M298 458c-31.333 0 -58.8311 -4.99902 -82.498 -14.999s-44 -23 -61 -39s-31.167 -34.333 -42.5 -55s-20.333 -41.334 -27 -62.001s-11.334 -40.667 -14.001 -60s-4 -36 -4 -50c0 -21.333 2.5 -42.166 7.5 -62.499s13.5 -38.5 25.5 -54.5s28.167 -28.833 48.5 -38.5
s46.166 -14.5 77.499 -14.5c45.333 0 82.833 11.167 112.5 33.5s53.334 50.166 71.001 83.499s30.167 69.833 37.5 109.5s11 76.5 11 110.5c0 6 -0.166992 11.667 -0.5 17s-0.833008 10.333 -1.5 15c-17.333 28 -40.333 48.667 -69 62s-58.334 20 -89.001 20z
M257.002 578.001c-2.66699 -2.66699 -5 -2.66602 -7 0.000976562l-6 9c-2 2.66699 -1.33301 5 2 7l82 63c-15.333 13.333 -31 25.333 -47 36s-33.333 20.667 -52 30c-4.66699 2 -5.66699 5 -3 9l4 7c2 3.33301 3.83301 4.66602 5.5 3.99902s4.16699 -2 7.5 -4
c20.667 -11.333 39.334 -22.5 56.001 -33.5s32.667 -23.167 48 -36.5l88 67c3.33301 2 5.66602 2 6.99902 0l8 -10c1.33301 -1.33301 0.666016 -3.33301 -2.00098 -6l-86 -65c78 -76 117 -175.667 117 -299c0 -1.33301 -0.166992 -11.333 -0.5 -30
s-2.66602 -41.667 -6.99902 -69s-11.5 -56.833 -21.5 -88.5s-24.5 -60.834 -43.5 -87.501s-43.5 -49 -73.5 -67s-67 -27 -111 -27c-35.333 0 -64.333 5.83301 -87 17.5s-40.5 26.834 -53.5 45.501s-22 39.167 -27 61.5s-7.5 44.166 -7.5 65.499c0 13.333 1.33301 30 4 50
s7.66699 41 15 63s17 44.167 29 66.5s27.5 42.5 46.5 60.5s41.5 32.5 67.5 43.5s56.333 16.5 91 16.5s65.167 -6.66699 91.5 -20s46.833 -28.666 61.5 -45.999h5c-4 46 -16.833 89.333 -38.5 130s-47.167 75 -76.5 103z" />
    <glyph glyph-name="ntilde" unicode="&#xf1;" horiz-adv-x="511" 
d="M441 282c5.33301 38.667 7.67285 72.667 7.00586 102s-6.83398 53.666 -18.501 72.999s-29.334 33.833 -53.001 43.5s-55.834 14.5 -96.501 14.5c-4.66699 0 -12.334 -0.166992 -23.001 -0.5s-23 -1.16602 -37 -2.49902s-29 -3 -45 -5s-31.333 -4.66699 -46 -8l-70 -494
c0 -3.33301 -1.33301 -5 -4 -5h-12c-3.33301 0 -5 1.66699 -5 5l69 489c1.33301 8.66699 3.66602 15 6.99902 19s9.33301 7 18 9c10 2 21.833 3.83301 35.5 5.5s27.667 3.16699 42 4.5s28 2.33301 41 3s23.5 1 31.5 1c41.333 0 75.166 -4.5 101.499 -13.5
s46.5 -23.5 60.5 -43.5s22.167 -45.833 24.5 -77.5s0.5 -70.167 -5.5 -115.5l-40 -281c0 -3.33301 -1.66699 -5 -5 -5h-11c-3.33301 0 -5 1.66699 -5 5zM372.007 647c-11.333 0 -22.668 2.3291 -34.001 6.99609s-22.5 9.83398 -33.5 15.501s-21.667 10.834 -32 15.501
s-19.833 7 -28.5 7c-15.333 0 -28.833 -3.16699 -40.5 -9.5s-22.5 -15.166 -32.5 -26.499c-4 -4 -7.33301 -4.66699 -10 -2l-7 5c-2.66699 2 -2 5 2 9c16 20 32.333 32.5 49 37.5s31 7.5 43 7.5c10 0 20.5 -2.33301 31.5 -7s22 -9.66699 33 -15s21.833 -10.333 32.5 -15
s21 -7 31 -7c15.333 0 27.833 2.83301 37.5 8.5s19.834 14.834 30.501 27.501c2 2.66699 3.5 4 4.5 4s2.16699 -0.333008 3.5 -1l7 -5c3.33301 -2 4.33301 -4.33301 3 -7c-17.333 -22 -33.5 -35.667 -48.5 -41s-28.833 -8 -41.5 -8z" />
    <glyph glyph-name="ograve" unicode="&#xf2;" horiz-adv-x="507" 
d="M302 536c52.667 0 95.5 -16.001 128.5 -48.001s49.5 -81 49.5 -147c0 -56 -6.33301 -106 -19 -150s-30.167 -81 -52.5 -111s-48.833 -52.833 -79.5 -68.5s-64.334 -23.5 -101.001 -23.5c-56.667 0 -100.667 17.833 -132 53.5s-47 84.834 -47 147.501
c0 56 6.66699 105.5 20 148.5s31.333 79.333 54 109s49.334 52 80.001 67s63.667 22.5 99 22.5zM297 514.999c-40.667 0 -75.166 -9.66504 -103.499 -28.998s-51.5 -44.333 -69.5 -75s-31.167 -65 -39.5 -103s-12.5 -75.667 -12.5 -113
c0 -26.667 2.83301 -51.334 8.5 -74.001s14.834 -42.334 27.501 -59.001s29 -29.667 49 -39s44.333 -14 73 -14c44.667 0 81.667 11.167 111 33.5s52.833 50 70.5 83s30 68.167 37 105.5s10.5 71.333 10.5 102c0 25.333 -2.66699 49 -8 71s-14.333 41.333 -27 58
s-29.334 29.667 -50.001 39s-46.334 14 -77.001 14zM255.001 733.001c-3.33301 3.33301 -2.66699 6.33301 2 9l23 9c4 1.33301 7.66699 -0.666992 11 -6l74 -114c1.33301 -2 0.333008 -4.33301 -3 -7l-6 -4c-4 -2.66699 -6.66699 -2.66699 -8 0z" />
    <glyph glyph-name="oacute" unicode="&#xf3;" horiz-adv-x="507" 
d="M302 536c52.667 0 95.5 -16.001 128.5 -48.001s49.5 -81 49.5 -147c0 -56 -6.33301 -106 -19 -150s-30.167 -81 -52.5 -111s-48.833 -52.833 -79.5 -68.5s-64.334 -23.5 -101.001 -23.5c-56.667 0 -100.667 17.833 -132 53.5s-47 84.834 -47 147.501
c0 56 6.66699 105.5 20 148.5s31.333 79.333 54 109s49.334 52 80.001 67s63.667 22.5 99 22.5zM297 514.999c-40.667 0 -75.166 -9.66504 -103.499 -28.998s-51.5 -44.333 -69.5 -75s-31.167 -65 -39.5 -103s-12.5 -75.667 -12.5 -113
c0 -26.667 2.83301 -51.334 8.5 -74.001s14.834 -42.334 27.501 -59.001s29 -29.667 49 -39s44.333 -14 73 -14c44.667 0 81.667 11.167 111 33.5s52.833 50 70.5 83s30 68.167 37 105.5s10.5 71.333 10.5 102c0 25.333 -2.66699 49 -8 71s-14.333 41.333 -27 58
s-29.334 29.667 -50.001 39s-46.334 14 -77.001 14zM316.001 612.001c-2.66699 -2.66699 -5.66504 -3.33203 -8.99805 -1.99902l-7 3c-2.66699 0.666992 -3.33398 2.66699 -2.00098 6l80 129c4 6 7.66699 8.66699 11 8l22 -3
c5.33301 -0.666992 6.66602 -3.33398 3.99902 -8.00098z" />
    <glyph glyph-name="ocircumflex" unicode="&#xf4;" horiz-adv-x="507" 
d="M302 536c52.667 0 95.5 -16.001 128.5 -48.001s49.5 -81 49.5 -147c0 -56 -6.33301 -106 -19 -150s-30.167 -81 -52.5 -111s-48.833 -52.833 -79.5 -68.5s-64.334 -23.5 -101.001 -23.5c-56.667 0 -100.667 17.833 -132 53.5s-47 84.834 -47 147.501
c0 56 6.66699 105.5 20 148.5s31.333 79.333 54 109s49.334 52 80.001 67s63.667 22.5 99 22.5zM297 514.999c-40.667 0 -75.166 -9.66504 -103.499 -28.998s-51.5 -44.333 -69.5 -75s-31.167 -65 -39.5 -103s-12.5 -75.667 -12.5 -113
c0 -26.667 2.83301 -51.334 8.5 -74.001s14.834 -42.334 27.501 -59.001s29 -29.667 49 -39s44.333 -14 73 -14c44.667 0 81.667 11.167 111 33.5s52.833 50 70.5 83s30 68.167 37 105.5s10.5 71.333 10.5 102c0 25.333 -2.66699 49 -8 71s-14.333 41.333 -27 58
s-29.334 29.667 -50.001 39s-46.334 14 -77.001 14zM445.001 626.001c2.66699 -3.33301 2.33203 -6.33301 -1.00098 -9l-6 -5c-4 -2.66699 -7 -3 -9 -1l-101 114l-133 -112c-2.66699 -2 -5.66699 -1.66699 -9 1l-4 5c-2.66699 2.66699 -2 5.66699 2 9l120 111l13.5 11.5
c3.66699 3 8.5 4.5 14.5 4.5c7.33301 0 12.333 -1.33301 15 -4s6.33398 -6.66699 11.001 -12z" />
    <glyph glyph-name="otilde" unicode="&#xf5;" horiz-adv-x="507" 
d="M302 536c52.667 0 95.5 -16.001 128.5 -48.001s49.5 -81 49.5 -147c0 -56 -6.33301 -106 -19 -150s-30.167 -81 -52.5 -111s-48.833 -52.833 -79.5 -68.5s-64.334 -23.5 -101.001 -23.5c-56.667 0 -100.667 17.833 -132 53.5s-47 84.834 -47 147.501
c0 56 6.66699 105.5 20 148.5s31.333 79.333 54 109s49.334 52 80.001 67s63.667 22.5 99 22.5zM297 514.999c-40.667 0 -75.166 -9.66504 -103.499 -28.998s-51.5 -44.333 -69.5 -75s-31.167 -65 -39.5 -103s-12.5 -75.667 -12.5 -113
c0 -26.667 2.83301 -51.334 8.5 -74.001s14.834 -42.334 27.501 -59.001s29 -29.667 49 -39s44.333 -14 73 -14c44.667 0 81.667 11.167 111 33.5s52.833 50 70.5 83s30 68.167 37 105.5s10.5 71.333 10.5 102c0 25.333 -2.66699 49 -8 71s-14.333 41.333 -27 58
s-29.334 29.667 -50.001 39s-46.334 14 -77.001 14zM396.001 637.001c-11.333 0 -22.668 2.3291 -34.001 6.99609s-22.5 9.83398 -33.5 15.501s-21.667 10.834 -32 15.501s-19.833 7 -28.5 7c-15.333 0 -28.833 -3.16699 -40.5 -9.5s-22.5 -15.166 -32.5 -26.499
c-4 -4 -7.33301 -4.66699 -10 -2l-7 5c-2.66699 2 -2 5 2 9c16 20 32.333 32.5 49 37.5s31 7.5 43 7.5c10 0 20.5 -2.33301 31.5 -7s22 -9.66699 33 -15s21.833 -10.333 32.5 -15s21 -7 31 -7c15.333 0 27.833 2.83301 37.5 8.5s19.834 14.834 30.501 27.501
c2 2.66699 3.5 4 4.5 4s2.16699 -0.333008 3.5 -1l7 -5c3.33301 -2 4.33301 -4.33301 3 -7c-17.333 -22 -33.5 -35.667 -48.5 -41s-28.833 -8 -41.5 -8z" />
    <glyph glyph-name="odieresis" unicode="&#xf6;" horiz-adv-x="507" 
d="M302 536c52.667 0 95.5 -16.001 128.5 -48.001s49.5 -81 49.5 -147c0 -56 -6.33301 -106 -19 -150s-30.167 -81 -52.5 -111s-48.833 -52.833 -79.5 -68.5s-64.334 -23.5 -101.001 -23.5c-56.667 0 -100.667 17.833 -132 53.5s-47 84.834 -47 147.501
c0 56 6.66699 105.5 20 148.5s31.333 79.333 54 109s49.334 52 80.001 67s63.667 22.5 99 22.5zM297 514.999c-40.667 0 -75.166 -9.66504 -103.499 -28.998s-51.5 -44.333 -69.5 -75s-31.167 -65 -39.5 -103s-12.5 -75.667 -12.5 -113
c0 -26.667 2.83301 -51.334 8.5 -74.001s14.834 -42.334 27.501 -59.001s29 -29.667 49 -39s44.333 -14 73 -14c44.667 0 81.667 11.167 111 33.5s52.833 50 70.5 83s30 68.167 37 105.5s10.5 71.333 10.5 102c0 25.333 -2.66699 49 -8 71s-14.333 41.333 -27 58
s-29.334 29.667 -50.001 39s-46.334 14 -77.001 14zM223.001 669.001c0.666992 6 3.16895 11 7.50195 15s10.166 6 17.499 6c6 0 10.667 -2 14 -6s4.66602 -9 3.99902 -15c-3.33301 -16 -11.333 -24 -24 -24c-16 0 -22.333 8 -19 24zM377.003 669.001
c0.666992 6 3.16602 11.001 7.49902 15.001s10.166 6 17.499 6c6 0 10.833 -2 14.5 -6s5.16699 -9 4.5 -15c-3.33301 -16 -11.666 -24 -24.999 -24c-7.33301 0 -12.666 2.16699 -15.999 6.5s-4.33301 10.166 -3 17.499z" />
    <glyph glyph-name="divide" unicode="&#xf7;" horiz-adv-x="540" 
d="M272 183c11.333 0 16.999 -5.66699 16.999 -17c0 -8.66699 -2.33301 -15.5 -7 -20.5s-10 -7.5 -16 -7.5c-14 0 -21 6.66699 -21 20c0 7.33301 2.33301 13.333 7 18s11.334 7 20.001 7zM322.999 545c11.333 0 16.999 -5.66699 16.999 -17
c0 -8.66699 -2.33301 -15.5 -7 -20.5s-10 -7.5 -16 -7.5c-14 0 -21 6.66699 -21 20c0 7.33301 2.33301 13.333 7 18s11.334 7 20.001 7zM505.998 354c3.33301 0 4.99902 -1.66699 4.99902 -5l-2 -13c-0.666992 -3.33301 -2.66699 -5 -6 -5h-425
c-3.33301 0 -4.66602 1.66699 -3.99902 5l2 13c0 3.33301 1.66699 5 5 5h425z" />
    <glyph glyph-name="oslash" unicode="&#xf8;" horiz-adv-x="507" 
d="M302 536c31.333 0 59.333 -5.50195 84 -16.502s44.667 -28.167 60 -51.5l57 63c2.66699 2.66699 5 3 7 1l7 -6c1.33301 -1.33301 1 -3.66602 -1 -6.99902l-60 -67c7.33301 -14.667 13.166 -31.167 17.499 -49.5s6.5 -38.833 6.5 -61.5c0 -56 -6.33301 -106 -19 -150
s-30.167 -81 -52.5 -111s-48.833 -52.833 -79.5 -68.5s-64.334 -23.5 -101.001 -23.5c-30.667 0 -57.667 5.33301 -81 16s-42.666 25.667 -57.999 45l-51 -56c-4 -3.33301 -7.33301 -3.66602 -10 -0.999023l-5 6c-1.33301 3.33301 -1 6 1 8l54 60
c-19.333 32.667 -29 73.667 -29 123c0 56 6.66699 105.5 20 148.5s31.333 79.333 54 109s49.334 52 80.001 67s63.667 22.5 99 22.5zM297 514.998c-40.667 0 -75.167 -9.66602 -103.5 -28.999s-51.5 -44.333 -69.5 -75s-31.167 -65 -39.5 -103s-12.5 -75.667 -12.5 -113
c0 -44.667 7.33301 -82 22 -112l337 369c-12.667 19.333 -29.667 34.666 -51 45.999s-49 17 -83 17zM459 332.999c0 19.333 -1.50098 37.5 -4.50098 54.5s-7.83301 32.833 -14.5 47.5l-336 -369c12.667 -18 29.334 -32 50.001 -42s46 -15 76 -15
c44.667 0 81.667 11.167 111 33.5s52.833 50 70.5 83s30 68.167 37 105.5s10.5 71.333 10.5 102z" />
    <glyph glyph-name="ugrave" unicode="&#xf9;" horiz-adv-x="513" 
d="M92 230c-6 -40 -8.5 -73.998 -7.5 -101.998s7.33301 -50.833 19 -68.5s30 -30.334 55 -38.001s58.833 -11.5 101.5 -11.5c4.66699 0 12 0.166992 22 0.5s21.833 1.16602 35.5 2.49902s28.167 3 43.5 5s30.333 4.66699 45 8l70 494c0 3.33301 1.66699 5 5 5h12
c3.33301 0 5 -1.66699 5 -5l-69 -489c-1.33301 -8.66699 -3.83301 -15 -7.5 -19s-9.5 -7 -17.5 -9c-10 -2 -21.667 -3.83301 -35 -5.5s-26.833 -3.16699 -40.5 -4.5s-26.834 -2.33301 -39.501 -3s-23 -1 -31 -1c-41.333 0 -75.666 3.5 -102.999 10.5
s-48.5 19.167 -63.5 36.5s-24.167 40.833 -27.5 70.5s-2 67.167 4 112.5l43 301c0 3.33301 1.66699 5 5 5h13c2.66699 0 4 -1.66699 4 -5zM237 733.002c-3.33301 3.33301 -2.66699 6.33301 2 9l23 9c4 1.33301 7.66699 -0.666992 11 -6l74 -114
c1.33301 -2 0.333008 -4.33301 -3 -7l-6 -4c-4 -2.66699 -6.66699 -2.66699 -8 0z" />
    <glyph glyph-name="uacute" unicode="&#xfa;" horiz-adv-x="513" 
d="M92 230c-6 -40 -8.5 -73.998 -7.5 -101.998s7.33301 -50.833 19 -68.5s30 -30.334 55 -38.001s58.833 -11.5 101.5 -11.5c4.66699 0 12 0.166992 22 0.5s21.833 1.16602 35.5 2.49902s28.167 3 43.5 5s30.333 4.66699 45 8l70 494c0 3.33301 1.66699 5 5 5h12
c3.33301 0 5 -1.66699 5 -5l-69 -489c-1.33301 -8.66699 -3.83301 -15 -7.5 -19s-9.5 -7 -17.5 -9c-10 -2 -21.667 -3.83301 -35 -5.5s-26.833 -3.16699 -40.5 -4.5s-26.834 -2.33301 -39.501 -3s-23 -1 -31 -1c-41.333 0 -75.666 3.5 -102.999 10.5
s-48.5 19.167 -63.5 36.5s-24.167 40.833 -27.5 70.5s-2 67.167 4 112.5l43 301c0 3.33301 1.66699 5 5 5h13c2.66699 0 4 -1.66699 4 -5zM306 612.002c-2.66699 -2.66699 -5.66504 -3.33203 -8.99805 -1.99902l-7 3c-2.66699 0.666992 -3.33398 2.66699 -2.00098 6l80 129
c4 6 7.66699 8.66699 11 8l22 -3c5.33301 -0.666992 6.66602 -3.33398 3.99902 -8.00098z" />
    <glyph glyph-name="ucircumflex" unicode="&#xfb;" horiz-adv-x="513" 
d="M92 230c-6 -40 -8.5 -73.998 -7.5 -101.998s7.33301 -50.833 19 -68.5s30 -30.334 55 -38.001s58.833 -11.5 101.5 -11.5c4.66699 0 12 0.166992 22 0.5s21.833 1.16602 35.5 2.49902s28.167 3 43.5 5s30.333 4.66699 45 8l70 494c0 3.33301 1.66699 5 5 5h12
c3.33301 0 5 -1.66699 5 -5l-69 -489c-1.33301 -8.66699 -3.83301 -15 -7.5 -19s-9.5 -7 -17.5 -9c-10 -2 -21.667 -3.83301 -35 -5.5s-26.833 -3.16699 -40.5 -4.5s-26.834 -2.33301 -39.501 -3s-23 -1 -31 -1c-41.333 0 -75.666 3.5 -102.999 10.5
s-48.5 19.167 -63.5 36.5s-24.167 40.833 -27.5 70.5s-2 67.167 4 112.5l43 301c0 3.33301 1.66699 5 5 5h13c2.66699 0 4 -1.66699 4 -5zM448 626.002c2.66699 -3.33301 2.33203 -6.33301 -1.00098 -9l-6 -5c-4 -2.66699 -7 -3 -9 -1l-101 114l-133 -112
c-2.66699 -2 -5.66699 -1.66699 -9 1l-4 5c-2.66699 2.66699 -2 5.66699 2 9l120 111l13.5 11.5c3.66699 3 8.5 4.5 14.5 4.5c7.33301 0 12.333 -1.33301 15 -4s6.33398 -6.66699 11.001 -12z" />
    <glyph glyph-name="udieresis" unicode="&#xfc;" horiz-adv-x="513" 
d="M92 230c-6 -40 -8.5 -73.998 -7.5 -101.998s7.33301 -50.833 19 -68.5s30 -30.334 55 -38.001s58.833 -11.5 101.5 -11.5c4.66699 0 12 0.166992 22 0.5s21.833 1.16602 35.5 2.49902s28.167 3 43.5 5s30.333 4.66699 45 8l70 494c0 3.33301 1.66699 5 5 5h12
c3.33301 0 5 -1.66699 5 -5l-69 -489c-1.33301 -8.66699 -3.83301 -15 -7.5 -19s-9.5 -7 -17.5 -9c-10 -2 -21.667 -3.83301 -35 -5.5s-26.833 -3.16699 -40.5 -4.5s-26.834 -2.33301 -39.501 -3s-23 -1 -31 -1c-41.333 0 -75.666 3.5 -102.999 10.5
s-48.5 19.167 -63.5 36.5s-24.167 40.833 -27.5 70.5s-2 67.167 4 112.5l43 301c0 3.33301 1.66699 5 5 5h13c2.66699 0 4 -1.66699 4 -5zM231 669.002c0.666992 6 3.16895 11 7.50195 15s10.166 6 17.499 6c6 0 10.667 -2 14 -6s4.66602 -9 3.99902 -15
c-3.33301 -16 -11.333 -24 -24 -24c-16 0 -22.333 8 -19 24zM385.002 669.002c0.666992 6 3.16602 11.001 7.49902 15.001s10.166 6 17.499 6c6 0 10.833 -2 14.5 -6s5.16699 -9 4.5 -15c-3.33301 -16 -11.666 -24 -24.999 -24c-7.33301 0 -12.666 2.16699 -15.999 6.5
s-4.33301 10.166 -3 17.499z" />
    <glyph glyph-name="yacute" unicode="&#xfd;" horiz-adv-x="426" 
d="M185 0l-7.00195 0.000976562c-1.33301 0 -2.83301 0.166992 -4.5 0.5s-3.16699 2.16602 -4.5 5.49902l-108 511c-1.33301 4 -1.16602 6.33301 0.500977 7s2.83398 1 3.50098 1h9c3.33301 0 5.33301 -0.5 6 -1.5s1.33398 -2.83301 2.00098 -5.5l83 -385l22 -115h4l61 125
l187 374c1.33301 2.66699 2.83301 4.66699 4.5 6s4.16699 2 7.5 2h6c6.66699 0 8.33398 -2.66699 5.00098 -8l-312 -628c-16 -32.667 -32.5 -57.5 -49.5 -74.5s-38.5 -25.5 -64.5 -25.5c-9.33301 0 -19.5 0.666992 -30.5 2s-24.833 4.33301 -41.5 9
c-3.33301 1.33301 -5.16602 2.33301 -5.49902 3s0.166992 2.33398 1.5 5.00098l4 9c1.33301 3.33301 3.66602 4.66602 6.99902 3.99902c17.333 -4.66699 30.5 -7.66699 39.5 -9s16.5 -2 22.5 -2c7.33301 0 14.666 0.666992 21.999 2s14.833 4.5 22.5 9.5
s15.667 12.833 24 23.5s17.166 25.667 26.499 45zM271.998 612.001c-2.66699 -2.66699 -5.66504 -3.33203 -8.99805 -1.99902l-7 3c-2.66699 0.666992 -3.33398 2.66699 -2.00098 6l80 129c4 6 7.66699 8.66699 11 8l22 -3
c5.33301 -0.666992 6.66602 -3.33398 3.99902 -8.00098z" />
    <glyph glyph-name="thorn" unicode="&#xfe;" horiz-adv-x="507" 
d="M131 510c28.667 9.33301 57.832 15.834 87.499 19.501s58.167 5.5 85.5 5.5c62 0 106.833 -17 134.5 -51s41.5 -84.333 41.5 -151c0 -49.333 -5.66699 -95 -17 -137s-28.166 -78.5 -50.499 -109.5s-50 -55.333 -83 -73s-70.833 -26.5 -113.5 -26.5
c-24 0 -49.5 2.16699 -76.5 6.5s-53.167 12.166 -78.5 23.499l-31 -219c0 -3.33301 -1.66699 -5 -5 -5h-12c-2.66699 0 -4 1.66699 -4 5l131 929c0 3.33301 1.66699 5 5 5h13c2.66699 0 4 -1.66699 4 -5zM127.998 485.001l-18.499 -127.504l-12.5 -90.5
c-3.33301 -25.333 -6.33301 -46.833 -9 -64.5l-7.5 -51l-7.5 -50c-2.66699 -17 -5.66699 -37.167 -9 -60.5c33.333 -15.333 64 -24.666 92 -27.999s49 -5 63 -5c32.667 0 63.334 6.66699 92.001 20s53.834 33.333 75.501 60s38.667 60.334 51 101.001s18.5 88 18.5 142
c0 36 -4 65.833 -12 89.5s-19.167 42.334 -33.5 56.001s-31.333 23.334 -51 29.001s-40.834 8.5 -63.501 8.5c-10 0 -21.667 -0.5 -35 -1.5s-27.333 -2.5 -42 -4.5s-29.834 -4.83301 -45.501 -8.5s-30.834 -8.5 -45.501 -14.5z" />
    <glyph glyph-name="ydieresis" unicode="&#xff;" horiz-adv-x="426" 
d="M185 0l-7.00195 0.000976562c-1.33301 0 -2.83301 0.166992 -4.5 0.5s-3.16699 2.16602 -4.5 5.49902l-108 511c-1.33301 4 -1.16602 6.33301 0.500977 7s2.83398 1 3.50098 1h9c3.33301 0 5.33301 -0.5 6 -1.5s1.33398 -2.83301 2.00098 -5.5l83 -385l22 -115h4l61 125
l187 374c1.33301 2.66699 2.83301 4.66699 4.5 6s4.16699 2 7.5 2h6c6.66699 0 8.33398 -2.66699 5.00098 -8l-312 -628c-16 -32.667 -32.5 -57.5 -49.5 -74.5s-38.5 -25.5 -64.5 -25.5c-9.33301 0 -19.5 0.666992 -30.5 2s-24.833 4.33301 -41.5 9
c-3.33301 1.33301 -5.16602 2.33301 -5.49902 3s0.166992 2.33398 1.5 5.00098l4 9c1.33301 3.33301 3.66602 4.66602 6.99902 3.99902c17.333 -4.66699 30.5 -7.66699 39.5 -9s16.5 -2 22.5 -2c7.33301 0 14.666 0.666992 21.999 2s14.833 4.5 22.5 9.5
s15.667 12.833 24 23.5s17.166 25.667 26.499 45zM177.998 669.001c0.666992 6 3.16895 11 7.50195 15s10.166 6 17.499 6c6 0 10.667 -2 14 -6s4.66602 -9 3.99902 -15c-3.33301 -16 -11.333 -24 -24 -24c-16 0 -22.333 8 -19 24zM332 669.001
c0.666992 6 3.16602 11.001 7.49902 15.001s10.166 6 17.499 6c6 0 10.833 -2 14.5 -6s5.16699 -9 4.5 -15c-3.33301 -16 -11.666 -24 -24.999 -24c-7.33301 0 -12.666 2.16699 -15.999 6.5s-4.33301 10.166 -3 17.499z" />
    <glyph glyph-name="Amacron" unicode="&#x100;" horiz-adv-x="541" 
d="M443 186l-340.001 -0.00195312l-45.5 -91c-15.667 -30.667 -30.167 -60.667 -43.5 -90c-1.33301 -3.33301 -3.66602 -5 -6.99902 -5h-18c-3.33301 0 -4.33301 1.66699 -3 5l338 681c3.33301 6.66699 6.16602 10.834 8.49902 12.501s5.83301 2.5 10.5 2.5h9
c6 0 10 -0.666992 12 -2s3.66699 -5.66602 5 -12.999l137 -681v-3c0 -1.33301 -1.33301 -2 -4 -2h-16c-3.33301 0 -5.66602 1.66699 -6.99902 5zM439.999 207.998l-60 294l-34 172h-2l-84 -170l-145 -296h325zM464.999 807.998c3.33301 0 4.66602 -1.66699 3.99902 -5
l-1 -12c-0.666992 -3.33301 -2.66699 -5 -6 -5h-217c-3.33301 0 -4.66602 1.66699 -3.99902 5l1 12c0.666992 3.33301 2.66699 5 6 5h217z" />
    <glyph glyph-name="amacron" unicode="&#x101;" horiz-adv-x="514" 
d="M327 536c27.333 0 54.832 -2.16992 82.499 -6.50293s52.167 -11.166 73.5 -20.499c8.66699 -3.33301 12.334 -11.333 11.001 -24l-32.5 -222.5l-30.5 -222.5c-0.666992 -5.33301 -2 -10.166 -4 -14.499s-6.33301 -7.83301 -13 -10.5
c-27.333 -9.33301 -53.666 -16 -78.999 -20s-52 -6 -80 -6c-66.667 0 -117.334 17.167 -152.001 51.5s-52 84.5 -52 150.5c0 50.667 6.16699 97.167 18.5 139.5s30.333 78.833 54 109.5s52.5 54.334 86.5 71.001s73 25 117 25zM317.999 515.997
c-34.667 0 -67 -6.99805 -97 -20.998s-56 -34.667 -78 -62s-39.333 -61 -52 -101s-19 -86 -19 -138c0 -34 4.66699 -62.667 14 -86s22.333 -42.333 39 -57s36.667 -25.334 60 -32.001s49 -10 77 -10c13.333 0 33 1.16699 59 3.5s55.667 10.5 89 24.5l30.5 225l32.5 227
c-28 11.333 -55.833 18.666 -83.5 21.999s-51.5 5 -71.5 5zM461.999 690.999c3.33301 0 4.66602 -1.66699 3.99902 -5l-1 -12c-0.666992 -3.33301 -2.66699 -5 -6 -5h-217c-3.33301 0 -4.66602 1.66699 -3.99902 5l1 12c0.666992 3.33301 2.66699 5 6 5h217z" />
    <glyph glyph-name="Abreve" unicode="&#x102;" horiz-adv-x="541" 
d="M443 186l-340.001 -0.00195312l-45.5 -91c-15.667 -30.667 -30.167 -60.667 -43.5 -90c-1.33301 -3.33301 -3.66602 -5 -6.99902 -5h-18c-3.33301 0 -4.33301 1.66699 -3 5l338 681c3.33301 6.66699 6.16602 10.834 8.49902 12.501s5.83301 2.5 10.5 2.5h9
c6 0 10 -0.666992 12 -2s3.66699 -5.66602 5 -12.999l137 -681v-3c0 -1.33301 -1.33301 -2 -4 -2h-16c-3.33301 0 -5.66602 1.66699 -6.99902 5zM439.999 207.998l-60 294l-34 172h-2l-84 -170l-145 -296h325zM351.999 736.998c-26.667 0 -50.334 7.16797 -71.001 21.501
s-35.667 35.5 -45 63.5c-2 4 -1 7.33301 3 10l4 3c4.66699 3.33301 8.33398 2 11.001 -4c12.667 -24.667 28 -42.334 46 -53.001s36.667 -16 56 -16c14.667 0 33 4.66699 55 14s42.667 28 62 56c2 3.33301 3.66699 5.5 5 6.5s3.33301 0.833008 6 -0.5l5 -2
c3.33301 -1.33301 4 -4 2 -8s-4.66699 -8.33301 -8 -13c-18 -28 -38.667 -48 -62 -60s-46.333 -18 -69 -18z" />
    <glyph glyph-name="abreve" unicode="&#x103;" horiz-adv-x="514" 
d="M327 536c27.333 0 54.832 -2.16992 82.499 -6.50293s52.167 -11.166 73.5 -20.499c8.66699 -3.33301 12.334 -11.333 11.001 -24l-32.5 -222.5l-30.5 -222.5c-0.666992 -5.33301 -2 -10.166 -4 -14.499s-6.33301 -7.83301 -13 -10.5
c-27.333 -9.33301 -53.666 -16 -78.999 -20s-52 -6 -80 -6c-66.667 0 -117.334 17.167 -152.001 51.5s-52 84.5 -52 150.5c0 50.667 6.16699 97.167 18.5 139.5s30.333 78.833 54 109.5s52.5 54.334 86.5 71.001s73 25 117 25zM317.999 515.997
c-34.667 0 -67 -6.99805 -97 -20.998s-56 -34.667 -78 -62s-39.333 -61 -52 -101s-19 -86 -19 -138c0 -34 4.66699 -62.667 14 -86s22.333 -42.333 39 -57s36.667 -25.334 60 -32.001s49 -10 77 -10c13.333 0 33 1.16699 59 3.5s55.667 10.5 89 24.5l30.5 225l32.5 227
c-28 11.333 -55.833 18.666 -83.5 21.999s-51.5 5 -71.5 5zM339.999 615.999c-26.667 0 -50.334 7.16797 -71.001 21.501s-35.667 35.5 -45 63.5c-2 4 -1 7.33301 3 10l4 3c4.66699 3.33301 8.33398 2 11.001 -4c12.667 -24.667 28 -42.334 46 -53.001s36.667 -16 56 -16
c14.667 0 33 4.66699 55 14s42.667 28 62 56c2 3.33301 3.66699 5.5 5 6.5s3.33301 0.833008 6 -0.5l5 -2c3.33301 -1.33301 4 -4 2 -8s-4.66699 -8.33301 -8 -13c-18 -28 -38.667 -48 -62 -60s-46.333 -18 -69 -18z" />
    <glyph glyph-name="Aogonek" unicode="&#x104;" horiz-adv-x="541" 
d="M479 2l1.00098 1.00098c-0.666992 0 -1 0.666992 -1 2l-36 181h-340l-45.5 -91c-15.667 -30.667 -30.167 -60.667 -43.5 -90c-1.33301 -3.33301 -3.66602 -5 -6.99902 -5h-18c-3.33301 0 -4.33301 1.66699 -3 5l338 681c3.33301 6.66699 6.16602 10.834 8.49902 12.501
s5.83301 2.5 10.5 2.5h9c6 0 10 -0.666992 12 -2s3.66699 -5.66602 5 -12.999l137 -681v-3c0 -1.33301 -1.33301 -2 -4 -2h-4c-2.66699 -2 -9.16699 -7.83301 -19.5 -17.5s-21 -21.5 -32 -35.5s-21 -29.333 -30 -46s-13.5 -33.334 -13.5 -50.001
c0 -11.333 3.66699 -20.833 11 -28.5s21.666 -11.5 42.999 -11.5c8 0 17.667 1.16699 29 3.5s23 6.16602 35 11.499c4 2 6.33301 1.33301 7 -2l3 -8c2 -2.66699 1.33301 -5 -2 -7c-5.33301 -3.33301 -16 -7.5 -32 -12.5s-31.667 -7.5 -47 -7.5
c-27.333 0 -46.333 5.5 -57 16.5s-16 24.167 -16 39.5c0 13.333 3.33301 27.5 10 42.5s15.167 29.667 25.5 44s21.5 27.666 33.5 39.999s23 22.5 33 30.5zM440.001 208.001l-60 294l-34 172h-2l-84 -170l-145 -296h325z" />
    <glyph glyph-name="aogonek" unicode="&#x105;" horiz-adv-x="514" 
d="M327 536c27.333 0 54.833 -2.16992 82.5 -6.50293s52.167 -11.166 73.5 -20.499c8.66699 -3.33301 12.334 -11.333 11.001 -24l-32.5 -222.5l-30.5 -222.5c-0.666992 -5.33301 -2 -10.166 -4 -14.499s-6.33301 -7.83301 -13 -10.5l-8 -3
c-6.66699 -6 -14.667 -14.167 -24 -24.5s-18.333 -21.666 -27 -33.999s-16 -25.333 -22 -39s-9 -27.167 -9 -40.5c0 -11.333 3.66699 -20.833 11 -28.5s21.666 -11.5 42.999 -11.5c8 0 17.667 1.16699 29 3.5s23 6.16602 35 11.499c4 2 6.33301 1.33301 7 -2l3 -8
c2 -2.66699 1.33301 -5 -2 -7c-5.33301 -3.33301 -16 -7.5 -32 -12.5s-31.667 -7.5 -47 -7.5c-27.333 0 -46.333 5.5 -57 16.5s-16 24.167 -16 39.5c0 10.667 2.33301 22 7 34s10.667 24 18 36s15.5 23.5 24.5 34.5s18.167 21.167 27.5 30.5
c-20 -5.33301 -39.667 -9 -59 -11s-39.666 -3 -60.999 -3c-66.667 0 -117.334 17.167 -152.001 51.5s-52 84.5 -52 150.5c0 50.667 6.16699 97.167 18.5 139.5s30.333 78.833 54 109.5s52.5 54.334 86.5 71.001s73 25 117 25zM318 515.997
c-34.667 0 -67 -6.99805 -97 -20.998s-56 -34.667 -78 -62s-39.333 -61 -52 -101s-19 -86 -19 -138c0 -34 4.66699 -62.667 14 -86s22.333 -42.333 39 -57s36.667 -25.334 60 -32.001s49 -10 77 -10c13.333 0 33 1.16699 59 3.5s55.667 10.5 89 24.5l30.5 225l32.5 227
c-28 11.333 -55.833 18.666 -83.5 21.999s-51.5 5 -71.5 5z" />
    <glyph glyph-name="Cacute" unicode="&#x106;" horiz-adv-x="534" 
d="M393 687c-48.667 0 -91.668 -11.6729 -129.001 -35.0059s-68.5 -54.666 -93.5 -93.999s-43.833 -85.166 -56.5 -137.499s-19 -107.5 -19 -165.5c0 -80.667 17 -141.5 51 -182.5s87 -61.5 159 -61.5c30 0 61 3.5 93 10.5s64 19.167 96 36.5c3.33301 2 6 1.66699 8 -1
l6 -10c2 -4 1 -7 -3 -9c-20 -11.333 -39.833 -20.166 -59.5 -26.499s-38.334 -11.166 -56.001 -14.499s-34.167 -5.5 -49.5 -6.5s-28.666 -1.5 -39.999 -1.5c-34.667 0 -66.167 5.16699 -94.5 15.5s-52.5 26.333 -72.5 48s-35.5 49.334 -46.5 83.001
s-16.5 73.834 -16.5 120.501c0 72.667 8.66699 137.167 26 193.5s40.666 103.833 69.999 142.5s63.5 68 102.5 88s80.5 30 124.5 30c24.667 0 52.334 -2.66699 83.001 -8s61.334 -17.333 92.001 -36c4 -2 4.66699 -4.66699 2 -8l-8 -12c-2 -2.66699 -4.66699 -3 -8 -1
c-30.667 18 -59 29.5 -85 34.5s-51.333 7.5 -76 7.5zM359.999 751.994c-3.33301 -1.33301 -5.66699 -1 -7 1l-4 9c-2 2 -1.66699 4 1 6l131 80c7.33301 5.33301 11.666 6 12.999 2l13 -17c2.66699 -4 1.33398 -7.33301 -3.99902 -10z" />
    <glyph glyph-name="cacute" unicode="&#x107;" horiz-adv-x="440" 
d="M252 10c25.333 0 49.834 3.33496 73.501 10.002s45.5 14.667 65.5 24c2.66699 1.33301 5 0.333008 7 -3l4 -8c2 -2.66699 1.33301 -5 -2 -7c-46.667 -24.667 -97 -37 -151 -37c-64.667 0 -114.167 17.5 -148.5 52.5s-51.5 84.5 -51.5 148.5
c0 55.333 6.5 104.5 19.5 147.5s30.833 79.167 53.5 108.5s49.5 51.666 80.5 66.999s64.5 23 100.5 23c22.667 0 47.667 -3.33301 75 -10s50.666 -15.334 69.999 -26.001c2.66699 -2 3 -4.33301 1 -7l-4 -7c-2 -3.33301 -3.66699 -5 -5 -5s-3 0.666992 -5 2
c-17.333 9.33301 -37.833 17.166 -61.5 23.499s-48.167 9.5 -73.5 9.5c-40 0 -74.5 -9.5 -103.5 -28.5s-52.667 -43.667 -71 -74s-32 -64.666 -41 -102.999s-13.5 -76.833 -13.5 -115.5c0 -56 14.167 -100.833 42.5 -134.5s74.5 -50.5 138.5 -50.5zM296.001 612.002
c-2.66699 -2.66699 -5.66504 -3.33203 -8.99805 -1.99902l-7 3c-2.66699 0.666992 -3.33398 2.66699 -2.00098 6l80 129c4 6 7.66699 8.66699 11 8l22 -3c5.33301 -0.666992 6.66602 -3.33398 3.99902 -8.00098z" />
    <glyph glyph-name="Ccircumflex" unicode="&#x108;" horiz-adv-x="534" 
d="M393 687c-48.667 0 -91.668 -11.6729 -129.001 -35.0059s-68.5 -54.666 -93.5 -93.999s-43.833 -85.166 -56.5 -137.499s-19 -107.5 -19 -165.5c0 -80.667 17 -141.5 51 -182.5s87 -61.5 159 -61.5c30 0 61 3.5 93 10.5s64 19.167 96 36.5c3.33301 2 6 1.66699 8 -1
l6 -10c2 -4 1 -7 -3 -9c-20 -11.333 -39.833 -20.166 -59.5 -26.499s-38.334 -11.166 -56.001 -14.499s-34.167 -5.5 -49.5 -6.5s-28.666 -1.5 -39.999 -1.5c-34.667 0 -66.167 5.16699 -94.5 15.5s-52.5 26.333 -72.5 48s-35.5 49.334 -46.5 83.001
s-16.5 73.834 -16.5 120.501c0 72.667 8.66699 137.167 26 193.5s40.666 103.833 69.999 142.5s63.5 68 102.5 88s80.5 30 124.5 30c24.667 0 52.334 -2.66699 83.001 -8s61.334 -17.333 92.001 -36c4 -2 4.66699 -4.66699 2 -8l-8 -12c-2 -2.66699 -4.66699 -3 -8 -1
c-30.667 18 -59 29.5 -85 34.5s-51.333 7.5 -76 7.5zM525.999 756.994c1.33301 -3.33301 1.33301 -6 0 -8l-7 -5c-2.66699 -2.66699 -5.66699 -2.66699 -9 0l-104 87l-127 -86c-4 -2.66699 -7 -3 -9 -1l-5 7c-2 2 -1 4.66699 3 8l113 87l14 9c4 2.66699 9 4 15 4
c6.66699 0 11.667 -1.16699 15 -3.5s7 -5.5 11 -9.5z" />
    <glyph glyph-name="ccircumflex" unicode="&#x109;" horiz-adv-x="440" 
d="M252 10c25.333 0 49.834 3.33496 73.501 10.002s45.5 14.667 65.5 24c2.66699 1.33301 5 0.333008 7 -3l4 -8c2 -2.66699 1.33301 -5 -2 -7c-46.667 -24.667 -97 -37 -151 -37c-64.667 0 -114.167 17.5 -148.5 52.5s-51.5 84.5 -51.5 148.5
c0 55.333 6.5 104.5 19.5 147.5s30.833 79.167 53.5 108.5s49.5 51.666 80.5 66.999s64.5 23 100.5 23c22.667 0 47.667 -3.33301 75 -10s50.666 -15.334 69.999 -26.001c2.66699 -2 3 -4.33301 1 -7l-4 -7c-2 -3.33301 -3.66699 -5 -5 -5s-3 0.666992 -5 2
c-17.333 9.33301 -37.833 17.166 -61.5 23.499s-48.167 9.5 -73.5 9.5c-40 0 -74.5 -9.5 -103.5 -28.5s-52.667 -43.667 -71 -74s-32 -64.666 -41 -102.999s-13.5 -76.833 -13.5 -115.5c0 -56 14.167 -100.833 42.5 -134.5s74.5 -50.5 138.5 -50.5zM444.001 623.002
c2.66699 -3.33301 2.33203 -6.33301 -1.00098 -9l-6 -5c-4 -2.66699 -7 -3 -9 -1l-101 114l-133 -112c-2.66699 -2 -5.66699 -1.66699 -9 1l-4 5c-2.66699 2.66699 -2 5.66699 2 9l120 111l13.5 11.5c3.66699 3 8.5 4.5 14.5 4.5c7.33301 0 12.333 -1.33301 15 -4
s6.33398 -6.66699 11.001 -12z" />
    <glyph glyph-name="Cdotaccent" unicode="&#x10a;" horiz-adv-x="534" 
d="M393 687c-48.667 0 -91.668 -11.6729 -129.001 -35.0059s-68.5 -54.666 -93.5 -93.999s-43.833 -85.166 -56.5 -137.499s-19 -107.5 -19 -165.5c0 -80.667 17 -141.5 51 -182.5s87 -61.5 159 -61.5c30 0 61 3.5 93 10.5s64 19.167 96 36.5c3.33301 2 6 1.66699 8 -1
l6 -10c2 -4 1 -7 -3 -9c-20 -11.333 -39.833 -20.166 -59.5 -26.499s-38.334 -11.166 -56.001 -14.499s-34.167 -5.5 -49.5 -6.5s-28.666 -1.5 -39.999 -1.5c-34.667 0 -66.167 5.16699 -94.5 15.5s-52.5 26.333 -72.5 48s-35.5 49.334 -46.5 83.001
s-16.5 73.834 -16.5 120.501c0 72.667 8.66699 137.167 26 193.5s40.666 103.833 69.999 142.5s63.5 68 102.5 88s80.5 30 124.5 30c24.667 0 52.334 -2.66699 83.001 -8s61.334 -17.333 92.001 -36c4 -2 4.66699 -4.66699 2 -8l-8 -12c-2 -2.66699 -4.66699 -3 -8 -1
c-30.667 18 -59 29.5 -85 34.5s-51.333 7.5 -76 7.5zM401.999 819.994c11.333 0 16.999 -5.66699 16.999 -17c0 -8.66699 -2.33301 -15.5 -7 -20.5s-10 -7.5 -16 -7.5c-14 0 -21 6.66699 -21 20c0 7.33301 2.33301 13.333 7 18s11.334 7 20.001 7z" />
    <glyph glyph-name="cdotaccent" unicode="&#x10b;" horiz-adv-x="440" 
d="M252 10c25.333 0 49.834 3.33496 73.501 10.002s45.5 14.667 65.5 24c2.66699 1.33301 5 0.333008 7 -3l4 -8c2 -2.66699 1.33301 -5 -2 -7c-46.667 -24.667 -97 -37 -151 -37c-64.667 0 -114.167 17.5 -148.5 52.5s-51.5 84.5 -51.5 148.5
c0 55.333 6.5 104.5 19.5 147.5s30.833 79.167 53.5 108.5s49.5 51.666 80.5 66.999s64.5 23 100.5 23c22.667 0 47.667 -3.33301 75 -10s50.666 -15.334 69.999 -26.001c2.66699 -2 3 -4.33301 1 -7l-4 -7c-2 -3.33301 -3.66699 -5 -5 -5s-3 0.666992 -5 2
c-17.333 9.33301 -37.833 17.166 -61.5 23.499s-48.167 9.5 -73.5 9.5c-40 0 -74.5 -9.5 -103.5 -28.5s-52.667 -43.667 -71 -74s-32 -64.666 -41 -102.999s-13.5 -76.833 -13.5 -115.5c0 -56 14.167 -100.833 42.5 -134.5s74.5 -50.5 138.5 -50.5zM337.001 694.002
c11.333 0 16.999 -5.66699 16.999 -17c0 -8.66699 -2.33301 -15.5 -7 -20.5s-10 -7.5 -16 -7.5c-14 0 -21 6.66699 -21 20c0 7.33301 2.33301 13.333 7 18s11.334 7 20.001 7z" />
    <glyph glyph-name="Ccaron" unicode="&#x10c;" horiz-adv-x="534" 
d="M393 687c-48.667 0 -91.668 -11.6729 -129.001 -35.0059s-68.5 -54.666 -93.5 -93.999s-43.833 -85.166 -56.5 -137.499s-19 -107.5 -19 -165.5c0 -80.667 17 -141.5 51 -182.5s87 -61.5 159 -61.5c30 0 61 3.5 93 10.5s64 19.167 96 36.5c3.33301 2 6 1.66699 8 -1
l6 -10c2 -4 1 -7 -3 -9c-20 -11.333 -39.833 -20.166 -59.5 -26.499s-38.334 -11.166 -56.001 -14.499s-34.167 -5.5 -49.5 -6.5s-28.666 -1.5 -39.999 -1.5c-34.667 0 -66.167 5.16699 -94.5 15.5s-52.5 26.333 -72.5 48s-35.5 49.334 -46.5 83.001
s-16.5 73.834 -16.5 120.501c0 72.667 8.66699 137.167 26 193.5s40.666 103.833 69.999 142.5s63.5 68 102.5 88s80.5 30 124.5 30c24.667 0 52.334 -2.66699 83.001 -8s61.334 -17.333 92.001 -36c4 -2 4.66699 -4.66699 2 -8l-8 -12c-2 -2.66699 -4.66699 -3 -8 -1
c-30.667 18 -59 29.5 -85 34.5s-51.333 7.5 -76 7.5zM425.999 761.994l-14.501 -9.5c-3.66699 -2.33301 -8.83398 -3.5 -15.501 -3.5c-6 0 -10.667 1.33301 -14 4s-6.66602 5.66699 -9.99902 9l-90 87c-3.33301 2.66699 -3.66602 5.33398 -0.999023 8.00098l8 7
c1.33301 2 4 1.66699 8 -1l103 -86l128 87c3.33301 2.66699 6.33301 2.66699 9 0l5 -5c2.66699 -2.66699 2 -5.33398 -2 -8.00098z" />
    <glyph glyph-name="ccaron" unicode="&#x10d;" horiz-adv-x="440" 
d="M252 10c25.333 0 49.834 3.33496 73.501 10.002s45.5 14.667 65.5 24c2.66699 1.33301 5 0.333008 7 -3l4 -8c2 -2.66699 1.33301 -5 -2 -7c-46.667 -24.667 -97 -37 -151 -37c-64.667 0 -114.167 17.5 -148.5 52.5s-51.5 84.5 -51.5 148.5
c0 55.333 6.5 104.5 19.5 147.5s30.833 79.167 53.5 108.5s49.5 51.666 80.5 66.999s64.5 23 100.5 23c22.667 0 47.667 -3.33301 75 -10s50.666 -15.334 69.999 -26.001c2.66699 -2 3 -4.33301 1 -7l-4 -7c-2 -3.33301 -3.66699 -5 -5 -5s-3 0.666992 -5 2
c-17.333 9.33301 -37.833 17.166 -61.5 23.499s-48.167 9.5 -73.5 9.5c-40 0 -74.5 -9.5 -103.5 -28.5s-52.667 -43.667 -71 -74s-32 -64.666 -41 -102.999s-13.5 -76.833 -13.5 -115.5c0 -56 14.167 -100.833 42.5 -134.5s74.5 -50.5 138.5 -50.5zM343.001 612.002
c-6 -5.33301 -10.834 -9.33301 -14.501 -12s-9.16699 -4 -16.5 -4c-6 0 -10.5 1.5 -13.5 4.5s-6.16699 6.83301 -9.5 11.5l-89 111c-2.66699 3.33301 -2.66699 6.33301 0 9l6 5c4 2.66699 7 3 9 1l101 -112l134 114c2.66699 2 5.33398 1.66699 8.00098 -1l6 -5
c2 -2.66699 1 -5.66699 -3 -9z" />
    <glyph glyph-name="Dcaron" unicode="&#x10e;" horiz-adv-x="617" 
d="M167 677l-91.998 -653h170c56 0 104.167 11 144.5 33s73.666 51.5 99.999 88.5s45.833 79.5 58.5 127.5s19 98 19 150c0 35.333 -3.83301 68.333 -11.5 99s-20.834 57.5 -39.501 80.5s-43.667 41.167 -75 54.5s-70.333 20 -117 20h-157zM329.002 701
c44.667 0 83.5 -6.33398 116.5 -19.001s60.333 -31 82 -55s37.834 -53.167 48.501 -87.5s16 -73.166 16 -116.499c0 -62 -8 -119 -24 -171s-39 -96.667 -69 -134s-66.5 -66.333 -109.5 -87s-91.167 -31 -144.5 -31h-165c-11.333 -0 -19.333 1.83301 -24 5.5
s-6.33398 11.167 -5.00098 22.5l91 641c1.33301 8.66699 4 16.167 8 22.5s13.333 9.5 28 9.5h151zM377.002 758.999l-14.501 -9.5c-3.66699 -2.33301 -8.83398 -3.5 -15.501 -3.5c-6 0 -10.667 1.33301 -14 4s-6.66602 5.66699 -9.99902 9l-90 87
c-3.33301 2.66699 -3.66602 5.33398 -0.999023 8.00098l8 7c1.33301 2 4 1.66699 8 -1l103 -86l128 87c3.33301 2.66699 6.33301 2.66699 9 0l5 -5c2.66699 -2.66699 2 -5.33398 -2 -8.00098z" />
    <glyph glyph-name="dcaron" unicode="&#x10f;" horiz-adv-x="561" 
d="M312 516c-33.333 0 -64.668 -6.83203 -94.001 -20.499s-54.666 -34 -75.999 -61s-38.166 -60.167 -50.499 -99.5s-18.5 -85 -18.5 -137c0 -35.333 4 -64.833 12 -88.5s19.167 -43 33.5 -58s31.333 -25.667 51 -32s41.167 -9.5 64.5 -9.5c20.667 0 46.667 2 78 6
s61.666 11.667 90.999 23l62 444c-32.667 15.333 -63 24.666 -91 27.999s-48.667 5 -62 5zM499.998 726.001c0 3.33301 1.66602 4.99805 4.99902 4.99805h11c3.33301 0 5 -1.66699 5 -5l-98 -697c-1.33301 -5.33301 -4 -8.66602 -8 -9.99902
c-30 -11.333 -61.167 -19.166 -93.5 -23.499s-63.5 -6.5 -93.5 -6.5c-60.667 0 -105.5 18 -134.5 54s-43.5 87 -43.5 153c0 48.667 5.66699 93.834 17 135.501s28.333 77.667 51 108s50.334 54.166 83.001 71.499s70.667 26 114 26c23.333 0 48.5 -2.33301 75.5 -7
s52.833 -12.667 77.5 -24zM589.997 584.999c-0.666992 -2 -1.83105 -4.16699 -3.49805 -6.5s-4.16699 -3.5 -7.5 -3.5h-6c-6.66699 0 -9.33398 2.66699 -8.00098 8l32 114c2.66699 9.33301 7.66699 14 15 14h14c3.33301 0 5.66602 -1 6.99902 -3s1 -5 -1 -9z" />
    <glyph glyph-name="Dcroat" unicode="&#x110;" horiz-adv-x="617" 
d="M329 701c44.667 0 83.499 -6.33398 116.499 -19.001s60.333 -31 82 -55s37.834 -53.167 48.501 -87.5s16 -73.166 16 -116.499c0 -62 -8 -119 -24 -171s-39 -96.667 -69 -134s-66.5 -66.333 -109.5 -87s-91.167 -31 -144.5 -31h-165c-11.333 -0 -19.333 1.83301 -24 5.5
s-6.33398 11.167 -5.00098 22.5l46 324h-64c-3.33301 0 -4.66602 1.66699 -3.99902 5l2 14c0 3.33301 1.66699 5 5 5h64l42 293c1.33301 8.66699 4 16.167 8 22.5s13.333 9.5 28 9.5h151zM166.999 676.999l-42.9971 -301h242c2.66699 0 4 -1.66699 4 -5l-2 -14
c-0.666992 -3.33301 -2.33398 -5 -5.00098 -5h-242l-46 -328h170c56 0 104.167 11 144.5 33s73.666 51.5 99.999 88.5s45.833 79.5 58.5 127.5s19 98 19 150c0 35.333 -3.83301 68.333 -11.5 99s-20.834 57.5 -39.501 80.5s-43.667 41.167 -75 54.5s-70.333 20 -117 20h-157
z" />
    <glyph glyph-name="dcroat" unicode="&#x111;" horiz-adv-x="507" 
d="M228 -11c-61.333 0 -106.667 14.8301 -136 44.4971s-44 76.5 -44 140.5c0 48.667 5.83301 94 17.5 136s28.667 78.333 51 109s49.833 54.667 82.5 72s70.334 26 113.001 26c23.333 0 48.666 -2.16699 75.999 -6.5s53.333 -12.166 78 -23.499l18 130h-197
c-4 0 -5.66699 1.66699 -5 5l1 11c0.666992 3.33301 3 5 7 5h197l13 88c0 3.33301 1.66699 5 5 5h11c3.33301 0 5 -1.66699 5 -5l-13 -88h59c4 0 5.66699 -1.66699 5 -5l-1 -11c-0.666992 -3.33301 -3 -5 -7 -5h-59l-82 -588c-1.33301 -5.33301 -4 -8.66602 -8 -9.99902
c-30 -11.333 -61.167 -19.166 -93.5 -23.499s-63.5 -6.5 -93.5 -6.5zM462.999 462.997c-33.333 15.333 -64 24.667 -92 28s-48.667 5 -62 5c-33.333 0 -64.333 -7 -93 -21s-53.667 -34.5 -75 -61.5s-38.166 -60.333 -50.499 -100s-18.5 -85.167 -18.5 -136.5
c0 -34.667 4.16699 -62.834 12.5 -84.501s20 -38.667 35 -51s32.667 -20.666 53 -24.999s42.166 -6.5 65.499 -6.5c20.667 0 46 2 76 6s59.667 11.667 89 23z" />
    <glyph glyph-name="Emacron" unicode="&#x112;" horiz-adv-x="508" 
d="M122 362l-31.002 -222.001c-2.66699 -17.333 -3.16699 -33.166 -1.5 -47.499s6.33398 -26.5 14.001 -36.5s18.334 -17.833 32.001 -23.5s31.167 -8.5 52.5 -8.5h275c4 0 5.66699 -2 5 -6l-2 -12c0 -4 -2 -6 -6 -6h-277c-25.333 -0 -46.166 3.33301 -62.499 10
s-29 16.334 -38 29.001s-14.5 27.667 -16.5 45s-1.33301 37 2 59l58 414c6 43.333 21 78.166 45 104.499s61.333 39.5 112 39.5h251c3.33301 0 4.66602 -2 3.99902 -6l-2 -12c0 -4 -1.66699 -6 -5 -6h-251c-40 0 -70.333 -10 -91 -30s-33.667 -49 -39 -87l-24 -175h340
c2.66699 0 4 -2 4 -6l-2 -11c0 -4 -2 -6 -6 -6h-340zM479.998 807.999c3.33301 0 4.66602 -1.66699 3.99902 -5l-1 -12c-0.666992 -3.33301 -2.66699 -5 -6 -5h-217c-3.33301 0 -4.66602 1.66699 -3.99902 5l1 12c0.666992 3.33301 2.66699 5 6 5h217z" />
    <glyph glyph-name="emacron" unicode="&#x113;" horiz-adv-x="481" 
d="M309 514c-32.667 0 -62 -6.00293 -88 -18.0029s-48.833 -28.5 -68.5 -49.5s-35.5 -45.833 -47.5 -74.5s-20.333 -60 -25 -94c22 -3.33301 46.167 -6.16602 72.5 -8.49902s49.5 -3.5 69.5 -3.5c70.667 0 125.167 9.83301 163.5 29.5s57.5 54.5 57.5 104.5
c0 14.667 -2.5 28.834 -7.5 42.501s-13 25.834 -24 36.501s-24.833 19.167 -41.5 25.5s-37 9.5 -61 9.5zM231 -11.0029c-56.667 0 -100.999 16.3311 -132.999 48.998s-48 83.334 -48 152.001c0 54.667 6.16699 103.334 18.5 146.001s29.833 78.834 52.5 108.501
s50 52.334 82 68.001s68 23.5 108 23.5c28 0 51.833 -4.16699 71.5 -12.5s35.667 -19 48 -32s21.333 -27.5 27 -43.5s8.5 -31.667 8.5 -47c0 -54 -20 -93.667 -60 -119s-101.667 -38 -185 -38c-20 0 -43.167 1.16699 -69.5 3.5s-51.166 5.16602 -74.499 8.49902
c-11.333 -80.667 -3 -141.834 25 -183.501s72.333 -62.5 133 -62.5c22 0 43.5 2.5 64.5 7.5s40.5 11.5 58.5 19.5c1.33301 0.666992 2.66602 1.16699 3.99902 1.5s2.66602 -0.5 3.99902 -2.5l5 -10c0.666992 -2 0.666992 -3.33301 0 -4l-2 -2
c-19.333 -10 -41.5 -17.667 -66.5 -23s-48.833 -8 -71.5 -8zM432.001 672.995c3.33301 0 4.66602 -1.66699 3.99902 -5l-1 -12c-0.666992 -3.33301 -2.66699 -5 -6 -5h-217c-3.33301 0 -4.66602 1.66699 -3.99902 5l1 12c0.666992 3.33301 2.66699 5 6 5h217z" />
    <glyph glyph-name="Ebreve" unicode="&#x114;" horiz-adv-x="508" 
d="M122 362l-31.002 -222.001c-2.66699 -17.333 -3.16699 -33.166 -1.5 -47.499s6.33398 -26.5 14.001 -36.5s18.334 -17.833 32.001 -23.5s31.167 -8.5 52.5 -8.5h275c4 0 5.66699 -2 5 -6l-2 -12c0 -4 -2 -6 -6 -6h-277c-25.333 -0 -46.166 3.33301 -62.499 10
s-29 16.334 -38 29.001s-14.5 27.667 -16.5 45s-1.33301 37 2 59l58 414c6 43.333 21 78.166 45 104.499s61.333 39.5 112 39.5h251c3.33301 0 4.66602 -2 3.99902 -6l-2 -12c0 -4 -1.66699 -6 -5 -6h-251c-40 0 -70.333 -10 -91 -30s-33.667 -49 -39 -87l-24 -175h340
c2.66699 0 4 -2 4 -6l-2 -11c0 -4 -2 -6 -6 -6h-340zM366.998 748.999c-26.667 0 -50.334 7.16797 -71.001 21.501s-35.667 35.5 -45 63.5c-2 4 -1 7.33301 3 10l4 3c4.66699 3.33301 8.33398 2 11.001 -4c12.667 -24.667 28 -42.334 46 -53.001s36.667 -16 56 -16
c14.667 0 33 4.66699 55 14s42.667 28 62 56c2 3.33301 3.66699 5.5 5 6.5s3.33301 0.833008 6 -0.5l5 -2c3.33301 -1.33301 4 -4 2 -8s-4.66699 -8.33301 -8 -13c-18 -28 -38.667 -48 -62 -60s-46.333 -18 -69 -18z" />
    <glyph glyph-name="ebreve" unicode="&#x115;" horiz-adv-x="481" 
d="M309 514c-32.667 0 -62 -6.00293 -88 -18.0029s-48.833 -28.5 -68.5 -49.5s-35.5 -45.833 -47.5 -74.5s-20.333 -60 -25 -94c22 -3.33301 46.167 -6.16602 72.5 -8.49902s49.5 -3.5 69.5 -3.5c70.667 0 125.167 9.83301 163.5 29.5s57.5 54.5 57.5 104.5
c0 14.667 -2.5 28.834 -7.5 42.501s-13 25.834 -24 36.501s-24.833 19.167 -41.5 25.5s-37 9.5 -61 9.5zM231 -11.0029c-56.667 0 -100.999 16.3311 -132.999 48.998s-48 83.334 -48 152.001c0 54.667 6.16699 103.334 18.5 146.001s29.833 78.834 52.5 108.501
s50 52.334 82 68.001s68 23.5 108 23.5c28 0 51.833 -4.16699 71.5 -12.5s35.667 -19 48 -32s21.333 -27.5 27 -43.5s8.5 -31.667 8.5 -47c0 -54 -20 -93.667 -60 -119s-101.667 -38 -185 -38c-20 0 -43.167 1.16699 -69.5 3.5s-51.166 5.16602 -74.499 8.49902
c-11.333 -80.667 -3 -141.834 25 -183.501s72.333 -62.5 133 -62.5c22 0 43.5 2.5 64.5 7.5s40.5 11.5 58.5 19.5c1.33301 0.666992 2.66602 1.16699 3.99902 1.5s2.66602 -0.5 3.99902 -2.5l5 -10c0.666992 -2 0.666992 -3.33301 0 -4l-2 -2
c-19.333 -10 -41.5 -17.667 -66.5 -23s-48.833 -8 -71.5 -8zM318.001 620.995c-26.667 0 -50.334 7.16797 -71.001 21.501s-35.667 35.5 -45 63.5c-2 4 -1 7.33301 3 10l4 3c4.66699 3.33301 8.33398 2 11.001 -4c12.667 -24.667 28 -42.334 46 -53.001s36.667 -16 56 -16
c14.667 0 33 4.66699 55 14s42.667 28 62 56c2 3.33301 3.66699 5.5 5 6.5s3.33301 0.833008 6 -0.5l5 -2c3.33301 -1.33301 4 -4 2 -8s-4.66699 -8.33301 -8 -13c-18 -28 -38.667 -48 -62 -60s-46.333 -18 -69 -18z" />
    <glyph glyph-name="Edotaccent" unicode="&#x116;" horiz-adv-x="508" 
d="M122 362l-31.002 -222.001c-2.66699 -17.333 -3.16699 -33.166 -1.5 -47.499s6.33398 -26.5 14.001 -36.5s18.334 -17.833 32.001 -23.5s31.167 -8.5 52.5 -8.5h275c4 0 5.66699 -2 5 -6l-2 -12c0 -4 -2 -6 -6 -6h-277c-25.333 -0 -46.166 3.33301 -62.499 10
s-29 16.334 -38 29.001s-14.5 27.667 -16.5 45s-1.33301 37 2 59l58 414c6 43.333 21 78.166 45 104.499s61.333 39.5 112 39.5h251c3.33301 0 4.66602 -2 3.99902 -6l-2 -12c0 -4 -1.66699 -6 -5 -6h-251c-40 0 -70.333 -10 -91 -30s-33.667 -49 -39 -87l-24 -175h340
c2.66699 0 4 -2 4 -6l-2 -11c0 -4 -2 -6 -6 -6h-340zM366.998 803.999c11.333 0 16.999 -5.66699 16.999 -17c0 -8.66699 -2.33301 -15.5 -7 -20.5s-10 -7.5 -16 -7.5c-14 0 -21 6.66699 -21 20c0 7.33301 2.33301 13.333 7 18s11.334 7 20.001 7z" />
    <glyph glyph-name="edotaccent" unicode="&#x117;" horiz-adv-x="481" 
d="M309 514c-32.667 0 -62 -6.00293 -88 -18.0029s-48.833 -28.5 -68.5 -49.5s-35.5 -45.833 -47.5 -74.5s-20.333 -60 -25 -94c22 -3.33301 46.167 -6.16602 72.5 -8.49902s49.5 -3.5 69.5 -3.5c70.667 0 125.167 9.83301 163.5 29.5s57.5 54.5 57.5 104.5
c0 14.667 -2.5 28.834 -7.5 42.501s-13 25.834 -24 36.501s-24.833 19.167 -41.5 25.5s-37 9.5 -61 9.5zM231 -11.0029c-56.667 0 -100.999 16.3311 -132.999 48.998s-48 83.334 -48 152.001c0 54.667 6.16699 103.334 18.5 146.001s29.833 78.834 52.5 108.501
s50 52.334 82 68.001s68 23.5 108 23.5c28 0 51.833 -4.16699 71.5 -12.5s35.667 -19 48 -32s21.333 -27.5 27 -43.5s8.5 -31.667 8.5 -47c0 -54 -20 -93.667 -60 -119s-101.667 -38 -185 -38c-20 0 -43.167 1.16699 -69.5 3.5s-51.166 5.16602 -74.499 8.49902
c-11.333 -80.667 -3 -141.834 25 -183.501s72.333 -62.5 133 -62.5c22 0 43.5 2.5 64.5 7.5s40.5 11.5 58.5 19.5c1.33301 0.666992 2.66602 1.16699 3.99902 1.5s2.66602 -0.5 3.99902 -2.5l5 -10c0.666992 -2 0.666992 -3.33301 0 -4l-2 -2
c-19.333 -10 -41.5 -17.667 -66.5 -23s-48.833 -8 -71.5 -8zM332.001 693.995c11.333 0 16.999 -5.66699 16.999 -17c0 -8.66699 -2.33301 -15.5 -7 -20.5s-10 -7.5 -16 -7.5c-14 0 -21 6.66699 -21 20c0 7.33301 2.33301 13.333 7 18s11.334 7 20.001 7z" />
    <glyph glyph-name="Eogonek" unicode="&#x118;" horiz-adv-x="508" 
d="M122 362l-31.002 -222c-2.66699 -17.333 -3.16699 -33.166 -1.5 -47.499s6.33398 -26.5 14.001 -36.5s18.334 -17.833 32.001 -23.5s31.167 -8.5 52.5 -8.5h275c4 0 5.66699 -2 5 -6l-2 -12c0 -4 -2 -6 -6 -6h-3c-4 -3.33301 -11 -9.83301 -21 -19.5
s-20.333 -21.334 -31 -35.001s-20.167 -28.667 -28.5 -45s-12.5 -32.5 -12.5 -48.5c0 -11.333 3.66699 -20.833 11 -28.5s21.666 -11.5 42.999 -11.5c8 0 17.667 1.16699 29 3.5s23 6.16602 35 11.499c4 2 6.33301 1.33301 7 -2l3 -8c2 -2.66699 1.33301 -5 -2 -7
c-5.33301 -3.33301 -16 -7.5 -32 -12.5s-31.667 -7.5 -47 -7.5c-27.333 0 -46.333 5.5 -57 16.5s-16 24.167 -16 39.5c0 12.667 3.16699 26.334 9.5 41.001s14.333 29 24 43s20.334 27.167 32.001 39.5s22.5 22.5 32.5 30.5h-253c-25.333 -0 -46.166 3.33301 -62.499 10
s-29 16.334 -38 29.001s-14.5 27.667 -16.5 45s-1.33301 37 2 59l58 414c6 43.333 21 78.166 45 104.499s61.333 39.5 112 39.5h251c3.33301 0 4.66602 -2 3.99902 -6l-2 -12c0 -4 -1.66699 -6 -5 -6h-251c-40 0 -70.333 -10 -91 -30s-33.667 -49 -39 -87l-24 -175h340
c2.66699 0 4 -2 4 -6l-2 -11c0 -4 -2 -6 -6 -6h-340z" />
    <glyph glyph-name="eogonek" unicode="&#x119;" horiz-adv-x="481" 
d="M231 -11c-56.667 0 -100.998 16.332 -132.998 48.999s-48 83.334 -48 152.001c0 54.667 6.16699 103.334 18.5 146.001s29.833 78.834 52.5 108.501s50 52.334 82 68.001s68 23.5 108 23.5c28 0 51.833 -4.16699 71.5 -12.5s35.667 -19 48 -32s21.333 -27.5 27 -43.5
s8.5 -31.667 8.5 -47c0 -54 -20 -93.667 -60 -119s-101.667 -38 -185 -38c-20 0 -43.167 1.16699 -69.5 3.5s-51.166 5.16602 -74.499 8.49902c-11.333 -80.667 -3 -141.834 25 -183.501s72.333 -62.5 133 -62.5c22 0 43.5 2.5 64.5 7.5s40.5 11.5 58.5 19.5
c1.33301 0.666992 2.66602 1.16699 3.99902 1.5s2.66602 -0.5 3.99902 -2.5l5 -10c0.666992 -2 0.666992 -3.33301 0 -4l-2 -2l-8 -4c-2.66699 -2 -9.16699 -7.83301 -19.5 -17.5s-21 -21.5 -32 -35.5s-21 -29.333 -30 -46s-13.5 -33.334 -13.5 -50.001
c0 -11.333 3.66699 -20.833 11 -28.5s21.666 -11.5 42.999 -11.5c8 0 17.667 1.16699 29 3.5s23 6.16602 35 11.499c4 2 6.33301 1.33301 7 -2l3 -8c2 -2.66699 1.33301 -5 -2 -7c-5.33301 -3.33301 -16 -7.5 -32 -12.5s-31.667 -7.5 -47 -7.5
c-27.333 0 -46.333 5.5 -57 16.5s-16 24.167 -16 39.5c0 11.333 2.5 23.5 7.5 36.5s11.5 25.667 19.5 38s17 24.333 27 36s20 21.834 30 30.501c-15.333 -4 -31 -7.16699 -47 -9.5s-31.333 -3.5 -46 -3.5zM309.002 513.999c-32.667 0 -62 -6.00293 -88 -18.0029
s-48.833 -28.5 -68.5 -49.5s-35.5 -45.833 -47.5 -74.5s-20.333 -60 -25 -94c22 -3.33301 46.167 -6.16602 72.5 -8.49902s49.5 -3.5 69.5 -3.5c70.667 0 125.167 9.83301 163.5 29.5s57.5 54.5 57.5 104.5c0 14.667 -2.5 28.834 -7.5 42.501s-13 25.834 -24 36.501
s-24.833 19.167 -41.5 25.5s-37 9.5 -61 9.5z" />
    <glyph glyph-name="Ecaron" unicode="&#x11a;" horiz-adv-x="508" 
d="M122 362l-31.002 -222.001c-2.66699 -17.333 -3.16699 -33.166 -1.5 -47.499s6.33398 -26.5 14.001 -36.5s18.334 -17.833 32.001 -23.5s31.167 -8.5 52.5 -8.5h275c4 0 5.66699 -2 5 -6l-2 -12c0 -4 -2 -6 -6 -6h-277c-25.333 -0 -46.166 3.33301 -62.499 10
s-29 16.334 -38 29.001s-14.5 27.667 -16.5 45s-1.33301 37 2 59l58 414c6 43.333 21 78.166 45 104.499s61.333 39.5 112 39.5h251c3.33301 0 4.66602 -2 3.99902 -6l-2 -12c0 -4 -1.66699 -6 -5 -6h-251c-40 0 -70.333 -10 -91 -30s-33.667 -49 -39 -87l-24 -175h340
c2.66699 0 4 -2 4 -6l-2 -11c0 -4 -2 -6 -6 -6h-340zM400.998 761.999l-14.501 -9.5c-3.66699 -2.33301 -8.83398 -3.5 -15.501 -3.5c-6 0 -10.667 1.33301 -14 4s-6.66602 5.66699 -9.99902 9l-90 87c-3.33301 2.66699 -3.66602 5.33398 -0.999023 8.00098l8 7
c1.33301 2 4 1.66699 8 -1l103 -86l128 87c3.33301 2.66699 6.33301 2.66699 9 0l5 -5c2.66699 -2.66699 2 -5.33398 -2 -8.00098z" />
    <glyph glyph-name="ecaron" unicode="&#x11b;" horiz-adv-x="481" 
d="M309 514c-32.667 0 -62 -6.00293 -88 -18.0029s-48.833 -28.5 -68.5 -49.5s-35.5 -45.833 -47.5 -74.5s-20.333 -60 -25 -94c22 -3.33301 46.167 -6.16602 72.5 -8.49902s49.5 -3.5 69.5 -3.5c70.667 0 125.167 9.83301 163.5 29.5s57.5 54.5 57.5 104.5
c0 14.667 -2.5 28.834 -7.5 42.501s-13 25.834 -24 36.501s-24.833 19.167 -41.5 25.5s-37 9.5 -61 9.5zM231 -11.0029c-56.667 0 -100.999 16.3311 -132.999 48.998s-48 83.334 -48 152.001c0 54.667 6.16699 103.334 18.5 146.001s29.833 78.834 52.5 108.501
s50 52.334 82 68.001s68 23.5 108 23.5c28 0 51.833 -4.16699 71.5 -12.5s35.667 -19 48 -32s21.333 -27.5 27 -43.5s8.5 -31.667 8.5 -47c0 -54 -20 -93.667 -60 -119s-101.667 -38 -185 -38c-20 0 -43.167 1.16699 -69.5 3.5s-51.166 5.16602 -74.499 8.49902
c-11.333 -80.667 -3 -141.834 25 -183.501s72.333 -62.5 133 -62.5c22 0 43.5 2.5 64.5 7.5s40.5 11.5 58.5 19.5c1.33301 0.666992 2.66602 1.16699 3.99902 1.5s2.66602 -0.5 3.99902 -2.5l5 -10c0.666992 -2 0.666992 -3.33301 0 -4l-2 -2
c-19.333 -10 -41.5 -17.667 -66.5 -23s-48.833 -8 -71.5 -8zM345.001 623.995c-6 -5.33301 -10.834 -9.33301 -14.501 -12s-9.16699 -4 -16.5 -4c-6 0 -10.5 1.5 -13.5 4.5s-6.16699 6.83301 -9.5 11.5l-89 111c-2.66699 3.33301 -2.66699 6.33301 0 9l6 5
c4 2.66699 7 3 9 1l101 -112l134 114c2.66699 2 5.33398 1.66699 8.00098 -1l6 -5c2 -2.66699 1 -5.66699 -3 -9z" />
    <glyph glyph-name="Gcircumflex" unicode="&#x11c;" horiz-adv-x="598" 
d="M300 -11c-34.667 0 -66.167 5.16406 -94.5 15.4971s-52.5 26.333 -72.5 48s-35.5 49.334 -46.5 83.001s-16.5 73.834 -16.5 120.501c0 72.667 9.33301 137.167 28 193.5s43.5 103.833 74.5 142.5s66.667 68 107 88s82.5 30 126.5 30c24.667 0 52.334 -2.66699 83.001 -8
s61.334 -17.333 92.001 -36c4 -2 4.66699 -4.66699 2 -8l-8 -12c-2 -2.66699 -4.66699 -3 -8 -1c-30.667 18 -59 29.5 -85 34.5s-51.333 7.5 -76 7.5c-48.667 0 -92.334 -11.667 -131.001 -35s-71.334 -54.666 -98.001 -93.999s-47 -85.166 -61 -137.499
s-21 -107.5 -21 -165.5c0 -80.667 16.5 -141.5 49.5 -182.5s85.5 -61.5 157.5 -61.5c26.667 0 57.167 3 91.5 9s69.166 18 104.499 36l43 300c0.666992 4 3 6 7 6h12c4 0 5.66699 -2 5 -6l-42 -289c-1.33301 -8.66699 -3.33301 -15.834 -6 -21.501
s-8.33398 -10.5 -17.001 -14.5c-19.333 -9.33301 -38.666 -16.833 -57.999 -22.5s-37.666 -10 -54.999 -13s-33.5 -4.83301 -48.5 -5.5s-27.833 -1 -38.5 -1zM540 758.997c1.33301 -3.33301 1.33301 -6 0 -8l-7 -5c-2.66699 -2.66699 -5.66699 -2.66699 -9 0l-104 87
l-127 -86c-4 -2.66699 -7 -3 -9 -1l-5 7c-2 2 -1 4.66699 3 8l113 87l14 9c4 2.66699 9 4 15 4c6.66699 0 11.667 -1.16699 15 -3.5s7 -5.5 11 -9.5z" />
    <glyph glyph-name="gcircumflex" unicode="&#x11d;" horiz-adv-x="507" 
d="M420 12c-3.33301 -26 -8.49512 -52.667 -15.4951 -80s-18.167 -52.166 -33.5 -74.499s-36.333 -40.833 -63 -55.5s-61.334 -22 -104.001 -22c-21.333 0 -43.333 2.33301 -66 7s-41.334 10 -56.001 16c-4 1.33301 -5.33301 4 -4 8l4 10
c1.33301 3.33301 2.83301 5.16602 4.5 5.49902s3.16699 0.166016 4.5 -0.500977c17.333 -6.66699 36.333 -12 57 -16s40 -6 58 -6c37.333 0 67.666 6.33301 90.999 19s41.666 28.667 54.999 48s23 40.333 29 63s10.667 44.334 14 65.001l4 27
c-10.667 -4.66699 -23.167 -9.16699 -37.5 -13.5s-29.166 -8.16602 -44.499 -11.499s-30.833 -6 -46.5 -8s-29.834 -3 -42.501 -3c-37.333 0 -68.333 7 -93 21s-43.834 33 -57.501 57s-22.167 52.333 -25.5 85s-2.33301 68 3 106s14.5 74 27.5 108s30 63.5 51 88.5
s46 44.833 75 59.5s62.5 22 100.5 22c25.333 0 53.333 -1.83301 84 -5.5s61 -11.834 91 -24.501c4 -2 5.33301 -5.33301 4 -10zM232.005 11c8 0 18.4971 0.666992 31.4971 2s27.333 3.5 43 6.5s31.834 7 48.501 12s32.334 10.833 47.001 17.5l62 438
c-26 11.333 -53.833 18.833 -83.5 22.5s-54.834 5.5 -75.501 5.5c-26.667 0 -52.334 -5.16699 -77.001 -15.5s-47.167 -26 -67.5 -47s-37.666 -47.5 -51.999 -79.5s-24.5 -70 -30.5 -114c-11.333 -80.667 -3.16602 -142.167 24.501 -184.5s70.834 -63.5 129.501 -63.5z
M461.002 625c2.66699 -3.33301 2.33203 -6.33301 -1.00098 -9l-6 -5c-4 -2.66699 -7 -3 -9 -1l-101 114l-133 -112c-2.66699 -2 -5.66699 -1.66699 -9 1l-4 5c-2.66699 2.66699 -2 5.66699 2 9l120 111l13.5 11.5c3.66699 3 8.5 4.5 14.5 4.5
c7.33301 0 12.333 -1.33301 15 -4s6.33398 -6.66699 11.001 -12z" />
    <glyph glyph-name="Gbreve" unicode="&#x11e;" horiz-adv-x="598" 
d="M300 -11c-34.667 0 -66.167 5.16406 -94.5 15.4971s-52.5 26.333 -72.5 48s-35.5 49.334 -46.5 83.001s-16.5 73.834 -16.5 120.501c0 72.667 9.33301 137.167 28 193.5s43.5 103.833 74.5 142.5s66.667 68 107 88s82.5 30 126.5 30c24.667 0 52.334 -2.66699 83.001 -8
s61.334 -17.333 92.001 -36c4 -2 4.66699 -4.66699 2 -8l-8 -12c-2 -2.66699 -4.66699 -3 -8 -1c-30.667 18 -59 29.5 -85 34.5s-51.333 7.5 -76 7.5c-48.667 0 -92.334 -11.667 -131.001 -35s-71.334 -54.666 -98.001 -93.999s-47 -85.166 -61 -137.499
s-21 -107.5 -21 -165.5c0 -80.667 16.5 -141.5 49.5 -182.5s85.5 -61.5 157.5 -61.5c26.667 0 57.167 3 91.5 9s69.166 18 104.499 36l43 300c0.666992 4 3 6 7 6h12c4 0 5.66699 -2 5 -6l-42 -289c-1.33301 -8.66699 -3.33301 -15.834 -6 -21.501
s-8.33398 -10.5 -17.001 -14.5c-19.333 -9.33301 -38.666 -16.833 -57.999 -22.5s-37.666 -10 -54.999 -13s-33.5 -4.83301 -48.5 -5.5s-27.833 -1 -38.5 -1zM393 739.997c-26.667 0 -50.334 7.16797 -71.001 21.501s-35.667 35.5 -45 63.5c-2 4 -1 7.33301 3 10l4 3
c4.66699 3.33301 8.33398 2 11.001 -4c12.667 -24.667 28 -42.334 46 -53.001s36.667 -16 56 -16c14.667 0 33 4.66699 55 14s42.667 28 62 56c2 3.33301 3.66699 5.5 5 6.5s3.33301 0.833008 6 -0.5l5 -2c3.33301 -1.33301 4 -4 2 -8s-4.66699 -8.33301 -8 -13
c-18 -28 -38.667 -48 -62 -60s-46.333 -18 -69 -18z" />
    <glyph glyph-name="gbreve" unicode="&#x11f;" horiz-adv-x="507" 
d="M420 12c-3.33301 -26 -8.49512 -52.667 -15.4951 -80s-18.167 -52.166 -33.5 -74.499s-36.333 -40.833 -63 -55.5s-61.334 -22 -104.001 -22c-21.333 0 -43.333 2.33301 -66 7s-41.334 10 -56.001 16c-4 1.33301 -5.33301 4 -4 8l4 10
c1.33301 3.33301 2.83301 5.16602 4.5 5.49902s3.16699 0.166016 4.5 -0.500977c17.333 -6.66699 36.333 -12 57 -16s40 -6 58 -6c37.333 0 67.666 6.33301 90.999 19s41.666 28.667 54.999 48s23 40.333 29 63s10.667 44.334 14 65.001l4 27
c-10.667 -4.66699 -23.167 -9.16699 -37.5 -13.5s-29.166 -8.16602 -44.499 -11.499s-30.833 -6 -46.5 -8s-29.834 -3 -42.501 -3c-37.333 0 -68.333 7 -93 21s-43.834 33 -57.501 57s-22.167 52.333 -25.5 85s-2.33301 68 3 106s14.5 74 27.5 108s30 63.5 51 88.5
s46 44.833 75 59.5s62.5 22 100.5 22c25.333 0 53.333 -1.83301 84 -5.5s61 -11.834 91 -24.501c4 -2 5.33301 -5.33301 4 -10zM232.005 11c8 0 18.4971 0.666992 31.4971 2s27.333 3.5 43 6.5s31.834 7 48.501 12s32.334 10.833 47.001 17.5l62 438
c-26 11.333 -53.833 18.833 -83.5 22.5s-54.834 5.5 -75.501 5.5c-26.667 0 -52.334 -5.16699 -77.001 -15.5s-47.167 -26 -67.5 -47s-37.666 -47.5 -51.999 -79.5s-24.5 -70 -30.5 -114c-11.333 -80.667 -3.16602 -142.167 24.501 -184.5s70.834 -63.5 129.501 -63.5z
M339.002 613c-26.667 0 -50.334 7.16797 -71.001 21.501s-35.667 35.5 -45 63.5c-2 4 -1 7.33301 3 10l4 3c4.66699 3.33301 8.33398 2 11.001 -4c12.667 -24.667 28 -42.334 46 -53.001s36.667 -16 56 -16c14.667 0 33 4.66699 55 14s42.667 28 62 56
c2 3.33301 3.66699 5.5 5 6.5s3.33301 0.833008 6 -0.5l5 -2c3.33301 -1.33301 4 -4 2 -8s-4.66699 -8.33301 -8 -13c-18 -28 -38.667 -48 -62 -60s-46.333 -18 -69 -18z" />
    <glyph glyph-name="Gdotaccent" unicode="&#x120;" horiz-adv-x="598" 
d="M300 -11c-34.667 0 -66.167 5.16406 -94.5 15.4971s-52.5 26.333 -72.5 48s-35.5 49.334 -46.5 83.001s-16.5 73.834 -16.5 120.501c0 72.667 9.33301 137.167 28 193.5s43.5 103.833 74.5 142.5s66.667 68 107 88s82.5 30 126.5 30c24.667 0 52.334 -2.66699 83.001 -8
s61.334 -17.333 92.001 -36c4 -2 4.66699 -4.66699 2 -8l-8 -12c-2 -2.66699 -4.66699 -3 -8 -1c-30.667 18 -59 29.5 -85 34.5s-51.333 7.5 -76 7.5c-48.667 0 -92.334 -11.667 -131.001 -35s-71.334 -54.666 -98.001 -93.999s-47 -85.166 -61 -137.499
s-21 -107.5 -21 -165.5c0 -80.667 16.5 -141.5 49.5 -182.5s85.5 -61.5 157.5 -61.5c26.667 0 57.167 3 91.5 9s69.166 18 104.499 36l43 300c0.666992 4 3 6 7 6h12c4 0 5.66699 -2 5 -6l-42 -289c-1.33301 -8.66699 -3.33301 -15.834 -6 -21.501
s-8.33398 -10.5 -17.001 -14.5c-19.333 -9.33301 -38.666 -16.833 -57.999 -22.5s-37.666 -10 -54.999 -13s-33.5 -4.83301 -48.5 -5.5s-27.833 -1 -38.5 -1zM418 811.997c11.333 0 16.999 -5.66699 16.999 -17c0 -8.66699 -2.33301 -15.5 -7 -20.5s-10 -7.5 -16 -7.5
c-14 0 -21 6.66699 -21 20c0 7.33301 2.33301 13.333 7 18s11.334 7 20.001 7z" />
    </font>
</defs>
</svg>
